<svg width="297" height="211" viewBox="0 0 297 211" fill="none" xmlns="http://www.w3.org/2000/svg">
<path d="M125.145 209.518C124.652 204.084 127.363 198.526 131.861 195.501C136.359 192.475 142.582 192.166 147.389 194.698C148.559 191.549 149.73 188.399 151.825 185.744C153.92 183.089 157.001 181.113 160.39 181.236V209.58H125.145V209.518Z" fill="#4B8DF0"/>
<path d="M32.349 99.9116L14.3568 136.344L19.7175 136.529L4.498 165.428H12.5082L-6.10352e-05 191.178H69.8739L54.4696 165.428L61.8637 165.12L47.1372 136.221L52.5595 135.912L32.349 99.9116Z" fill="#D9E8FF"/>
<path d="M35.4299 142.148C35.4915 142.148 35.3683 157.586 35.0602 176.605C34.7521 195.624 34.5057 211.062 34.3824 211.062C34.3208 211.062 34.444 195.624 34.7521 176.605C35.0602 157.586 35.3067 142.148 35.4299 142.148Z" fill="#4B8DF0"/>
<path d="M43.9947 150.609C44.0563 150.609 43.5634 151.288 42.824 152.276C42.0845 153.264 40.9754 154.684 39.7431 156.166C38.5724 157.648 37.4632 158.945 36.6006 159.995C35.7996 160.983 35.3066 161.538 35.245 161.538C35.1834 161.538 35.6763 160.859 36.4158 159.871C37.1552 158.883 38.2643 157.463 39.4966 155.981C40.6673 154.561 41.7765 153.202 42.6391 152.152C43.4401 151.226 43.9331 150.609 43.9947 150.609Z" fill="#4B8DF0"/>
<path d="M35.2451 161.538C35.1834 161.6 33.3965 160.303 31.3015 158.636C29.2066 156.969 27.4813 155.548 27.5429 155.487C27.6045 155.425 29.3914 156.722 31.4864 158.389C33.643 160.056 35.3067 161.477 35.2451 161.538Z" fill="#4B8DF0"/>
<path d="M34.7521 179.384C34.6905 179.446 34.1975 179.014 33.4581 178.334C32.6571 177.655 31.6096 176.729 30.3773 175.741C29.1449 174.753 28.0358 173.888 27.2348 173.209C26.4338 172.592 25.9408 172.159 25.9408 172.159C25.9408 172.098 26.4954 172.468 27.358 173.024C28.2207 173.641 29.3914 174.506 30.6237 175.494C31.8561 176.482 32.9036 177.47 33.7046 178.149C34.3824 178.89 34.8137 179.384 34.7521 179.384Z" fill="#4B8DF0"/>
<path d="M44.7341 168.331C44.7341 168.331 44.6109 168.516 44.426 168.825C44.1795 169.134 43.8715 169.566 43.4401 170.06C42.5775 171.11 41.3452 172.468 39.8663 173.95C38.4491 175.432 37.1552 176.791 36.2309 177.779C35.3067 178.767 34.7521 179.384 34.7521 179.384C34.7521 179.384 34.8753 179.199 35.0602 178.89C35.3067 178.581 35.6147 178.149 36.0461 177.655C36.9087 176.605 38.1411 175.247 39.6199 173.765C41.0371 172.283 42.331 170.924 43.2553 169.936C44.1795 168.948 44.6725 168.331 44.7341 168.331Z" fill="#4B8DF0"/>
<path d="M178.937 141.346H251.953L265.632 121.957L279.927 141.902L296.749 141.593L278.633 117.202L197.175 117.511L178.937 141.346Z" fill="#BDD6FC"/>
<path d="M215.476 141.593V209.641H288.369V141.593H280.051L265.632 121.956L251.953 141.346L215.476 141.593Z" fill="#8CB7F9"/>
<path d="M242.834 180.187H225.766V209.703H242.834V180.187Z" fill="#BDD6FC"/>
<path d="M279.927 179.323H253.062V195.995H279.927V179.323Z" fill="#BDD6FC"/>
<path d="M261.134 179.323H260.518V196.18H261.134V179.323Z" fill="#455A64"/>
<path d="M272.287 179.323H271.671V196.18H272.287V179.323Z" fill="#455A64"/>
<path d="M271.979 187.967H260.826V188.585H271.979V187.967Z" fill="#455A64"/>
<path d="M279.927 145.977H253.062V162.65H279.927V145.977Z" fill="#BDD6FC"/>
<path d="M261.134 145.977H260.518V162.835H261.134V145.977Z" fill="#455A64"/>
<path d="M272.287 145.977H271.671V162.835H272.287V145.977Z" fill="#455A64"/>
<path d="M271.979 154.561H260.826V155.178H271.979V154.561Z" fill="#455A64"/>
<path d="M241.047 146.101H224.102V162.156H241.047V146.101Z" fill="#BDD6FC"/>
<path d="M215.476 141.593H185.899V209.642H215.476V141.593Z" fill="#BDD6FC"/>
<path d="M232.913 146.101H232.297V162.156H232.913V146.101Z" fill="#455A64"/>
<path d="M241.047 154.252H224.102V154.869H241.047V154.252Z" fill="#455A64"/>
<path d="M265.571 138.506C267.544 138.506 269.144 136.902 269.144 134.924C269.144 132.946 267.544 131.343 265.571 131.343C263.597 131.343 261.997 132.946 261.997 134.924C261.997 136.902 263.597 138.506 265.571 138.506Z" fill="#BDD6FC"/>
<path d="M239.938 130.478L244.497 124.92V111.397H235.008V130.601L239.938 130.478Z" fill="#8CB7F9"/>
<path d="M239.938 130.478V111.397H244.497V124.92L239.938 130.478Z" fill="#455A64"/>
<path d="M245.175 109.421H233.961V111.397H245.175V109.421Z" fill="#455A64"/>
<path d="M215.476 171.418H160.39V209.703H215.476V171.418Z" fill="#8CB7F9"/>
<path d="M194.834 171.418H160.39V209.703H194.834V171.418Z" fill="#BDD6FC"/>
<path d="M189.781 183.707H167.229V209.58H189.781V183.707Z" fill="#8CB7F9"/>
<path d="M212.456 183.645H197.915V187.35H212.456V183.645Z" fill="#455A64"/>
<path d="M178.937 141.346V143.322H251.953V141.346H178.937Z" fill="#455A64"/>
<path d="M251.953 143.322L265.571 124.118L265.632 121.956L251.953 141.346V143.322Z" fill="#455A64"/>
<path d="M296.379 141.593H280.051V142.89H296.379V141.593Z" fill="#455A64"/>
<path d="M237.042 175.617H231.003V177.902H237.042V175.617Z" fill="#BDD6FC"/>
<path d="M184.359 30.5664C170.68 11.7326 150.839 2.96411 130.136 2.96411C130.136 2.96411 79.4247 2.96411 64.3901 48.4739C58.8445 65.2699 60.0769 83.4245 66.7931 99.7882C69.1346 105.407 72.2155 111.582 76.2822 117.449C89.3451 136.406 130.136 188.153 130.136 188.153H139.009C150.408 172.345 178.998 119.733 187.625 102.876C198.346 81.6955 200.01 52.1789 184.359 30.5664ZM138.577 114.732C114.67 114.732 95.2603 95.2805 95.2603 71.3214C95.2603 47.3624 114.67 27.9111 138.577 27.9111C162.485 27.9111 181.894 47.3624 181.894 71.3214C181.894 95.2805 162.485 114.732 138.577 114.732Z" fill="#4B8DF0"/>
<path opacity="0.4" d="M184.359 30.5664C170.68 11.7326 150.839 2.96411 130.136 2.96411C130.136 2.96411 79.4247 2.96411 64.3901 48.4739C58.8445 65.2699 60.0769 83.4245 66.7931 99.7882C69.1346 105.407 72.2155 111.582 76.2822 117.449C89.3451 136.406 130.136 188.153 130.136 188.153H139.009C150.408 172.345 178.998 119.733 187.625 102.876C198.346 81.6955 200.01 52.1789 184.359 30.5664ZM138.577 114.732C114.67 114.732 95.2603 95.2805 95.2603 71.3214C95.2603 47.3624 114.67 27.9111 138.577 27.9111C162.485 27.9111 181.894 47.3624 181.894 71.3214C181.894 95.2805 162.485 114.732 138.577 114.732Z" fill="black"/>
<path d="M193.232 30.9368C179.614 12.103 159.712 3.33447 139.009 3.33447C139.009 3.33447 88.2976 3.33447 73.263 48.8443C67.7174 65.6403 68.9498 83.7948 75.6661 100.159C78.0075 105.778 81.0884 111.953 85.1551 117.819C98.218 136.776 139.009 188.523 139.009 188.523C139.009 188.523 186.084 123.624 196.436 103.246C207.281 82.0041 208.944 52.4875 193.232 30.9368ZM138.639 115.04C114.608 115.102 95.2604 95.8361 95.322 71.63C95.3836 47.671 114.731 28.2197 138.639 28.2197C162.546 28.2197 181.956 47.671 181.956 71.63C181.956 95.7126 162.546 115.04 138.639 115.04Z" fill="#4B8DF0"/>
<path d="M138.577 27.9109C119.722 27.9109 103.702 39.9522 97.7251 56.8099C103.579 43.9042 116.518 34.9504 131.553 34.9504C152.072 34.9504 168.647 51.6229 168.647 72.1239C168.647 92.6867 152.01 109.297 131.553 109.297C119.661 109.297 109.063 103.678 102.285 94.9715C109.987 106.827 123.358 114.731 138.577 114.731C162.485 114.731 181.894 95.2802 181.894 71.3212C181.894 47.3004 162.485 27.9109 138.577 27.9109Z" fill="#4B8DF0"/>
<path opacity="0.4" d="M138.577 27.9109C119.722 27.9109 103.702 39.9522 97.7251 56.8099C103.579 43.9042 116.518 34.9504 131.553 34.9504C152.072 34.9504 168.647 51.6229 168.647 72.1239C168.647 92.6867 152.01 109.297 131.553 109.297C119.661 109.297 109.063 103.678 102.285 94.9715C109.987 106.827 123.358 114.731 138.577 114.731C162.485 114.731 181.894 95.2802 181.894 71.3212C181.894 47.3004 162.485 27.9109 138.577 27.9109Z" fill="black"/>
<path d="M224.965 91.2044C223.239 90.0312 221.083 89.4754 218.988 89.7224C215.414 90.1547 210.3 90.6487 210.3 90.6487V90.8339L185.468 92.3777L177.889 76.8784L166.367 84.4737C166.367 84.4737 167.907 86.8819 174.377 98.8614C176.965 103.616 182.264 106.333 187.625 105.53L216.893 101.27V101.208C219.912 101.023 223.178 100.776 223.671 100.343C224.595 99.5407 225.396 96.5149 225.396 96.5149C225.396 96.5149 230.633 99.6024 231.619 99.6642C232.605 99.7259 232.79 98.9232 233.406 97.9969C233.776 97.3794 228.415 93.5509 224.965 91.2044Z" fill="#FFAAA5"/>
<path d="M179.429 75.8902C179.429 75.8902 174.623 66.5659 170.187 57.7974C164.764 46.9911 152.749 44.8299 152.749 44.8299L135.373 42.5451C135.373 42.5451 120.893 35.9379 107.337 52.3016L96.246 64.7134L98.5875 66.8129L109.617 76.7547L111.774 78.7307L116.765 73.6054L114.423 86.6347L110.356 104.789L119.168 103.739L125.145 67.1216L158.788 69.8386L156.138 92.9332C156.693 92.8714 160.759 92.0687 162.053 86.5112C162.546 84.3499 162.423 82.4974 162.053 81.1389L164.025 86.1407L179.429 75.8902Z" fill="#455A64"/>
<path d="M125.144 67.0601L119.168 103.678L110.356 104.728C117.935 111.273 127.794 115.225 138.639 115.225C144.061 115.225 149.175 114.237 153.981 112.446L156.2 92.8098L158.849 69.7153L125.144 67.0601Z" fill="#263238"/>
<path d="M127.116 40.693L126.377 70.3948L131.984 71.2593L132.724 41.1252C132.785 41.187 130.813 40.2607 127.116 40.693Z" fill="#263238"/>
<path d="M150.901 70.58L155.522 45.0772C155.768 44.7684 159.589 46.1887 160.759 47.4855L156.631 71.1975L150.901 70.58Z" fill="#263238"/>
<path d="M132.231 66.9369C132.231 66.9369 132.292 67.1221 132.292 67.4309C132.292 67.7396 132.354 68.2336 132.292 68.8511C132.231 69.4686 132.107 70.2096 131.614 70.8271C131.368 71.1359 131.06 71.4446 130.628 71.6299C130.197 71.8151 129.704 71.8769 129.273 71.8151C128.349 71.6299 127.609 71.0124 127.178 70.3331C126.747 69.6539 126.623 68.9129 126.562 68.2954C126.5 67.6779 126.562 67.2456 126.562 66.8751C126.623 66.5664 126.623 66.3811 126.623 66.3811C126.685 66.3811 126.623 67.1221 126.747 68.2954C126.808 68.8511 126.993 69.5304 127.363 70.2096C127.732 70.8271 128.472 71.3829 129.273 71.5681C130.136 71.7534 130.875 71.3211 131.306 70.7036C131.738 70.0861 131.922 69.4069 132.046 68.8511C132.231 67.6779 132.169 66.9369 132.231 66.9369Z" fill="#455A64"/>
<path d="M128.903 69.5303C128.225 69.2833 127.917 68.5423 128.164 67.8631C128.41 67.1838 129.15 66.8751 129.828 67.1221C130.505 67.3691 130.813 68.1101 130.567 68.7893C130.32 69.4686 129.581 69.8391 128.903 69.5303Z" fill="#455A64"/>
<path d="M155.214 69.7154C155.214 70.4564 154.659 71.0122 153.92 71.0122C153.242 71.0122 152.626 70.4564 152.626 69.7154C152.626 69.0362 153.18 68.4187 153.92 68.4187C154.659 68.4187 155.214 69.0362 155.214 69.7154Z" fill="#455A64"/>
<path d="M156.939 68.8508C156.939 68.8508 156.939 69.4683 156.631 70.3328C156.508 70.765 156.261 71.3208 155.768 71.8148C155.337 72.3088 154.598 72.6175 153.797 72.5558C153.057 72.494 152.379 72.1235 151.948 71.6295C151.517 71.1355 151.332 70.5798 151.209 70.0858C151.147 69.5918 151.147 69.2213 151.147 68.9743C151.209 68.7273 151.209 68.542 151.27 68.6038C151.332 68.6038 151.209 69.2213 151.393 70.0858C151.517 70.518 151.702 71.012 152.133 71.4443C152.503 71.8765 153.119 72.1853 153.797 72.247C154.474 72.3088 155.091 72.0618 155.522 71.6295C155.953 71.1973 156.2 70.7033 156.385 70.3328C156.816 69.4065 156.939 68.789 156.939 68.8508Z" fill="#455A64"/>
<path d="M128.842 81.0155C128.78 81.0155 128.78 80.7685 128.78 80.398C128.78 80.2127 128.78 79.9657 128.842 79.7187C128.842 79.5952 128.842 79.4717 128.903 79.3482V79.163V79.0395V78.9777C128.718 79.1012 129.15 78.7925 129.088 78.7925C130.259 78.916 131.245 79.1012 131.183 79.163C131.183 79.2247 130.197 79.2247 129.026 79.1012C128.965 79.163 129.335 78.7925 129.211 78.916V78.9777V79.1012V79.2865C129.211 79.41 129.15 79.5335 129.15 79.7187C129.088 79.9657 129.088 80.2127 129.026 80.398C128.903 80.7685 128.842 81.0155 128.842 81.0155Z" fill="#455A64"/>
<path d="M127.917 89.5374C127.856 89.5374 127.856 88.5494 127.979 87.3761C128.102 86.2029 128.287 85.2766 128.349 85.2766C128.41 85.2766 128.41 86.2646 128.287 87.4379C128.164 88.6111 127.979 89.5374 127.917 89.5374Z" fill="#455A64"/>
<path d="M129.15 96.8856C129.088 96.9474 128.225 96.5769 127.116 96.0829C127.116 96.1446 126.931 95.7741 127.055 95.8976V95.8359V95.7124V95.5271C127.055 95.4036 127.116 95.2801 127.116 95.0949C127.178 94.8479 127.178 94.6008 127.24 94.4156C127.301 94.0451 127.363 93.7981 127.424 93.7981C127.486 93.7981 127.486 94.0451 127.486 94.4156C127.486 94.6008 127.486 94.8479 127.424 95.0949C127.424 95.2184 127.424 95.3419 127.363 95.5271V95.7124V95.8359V95.8976C127.424 96.0211 127.24 95.7124 127.301 95.7124C128.349 96.3299 129.211 96.8239 129.15 96.8856Z" fill="#455A64"/>
<path d="M134.88 99.7259C134.818 99.7876 134.141 99.5406 133.401 99.1701C132.6 98.7996 131.984 98.3673 132.046 98.3056C132.107 98.2438 132.723 98.4909 133.524 98.8614C134.264 99.2936 134.88 99.6641 134.88 99.7259Z" fill="#455A64"/>
<path d="M141.658 101.332C141.72 101.394 140.795 101.826 139.748 102.32C139.501 102.32 139.686 102.32 139.625 102.32H139.563L139.44 102.258L139.255 102.135C139.132 102.073 139.009 102.011 138.885 101.949C138.639 101.826 138.454 101.702 138.269 101.641C137.961 101.455 137.715 101.27 137.776 101.27C137.776 101.208 138.023 101.332 138.392 101.455C138.577 101.517 138.762 101.641 139.009 101.702C139.132 101.764 139.255 101.826 139.378 101.888L139.563 102.011L139.686 102.073H139.748C139.686 102.073 139.871 102.073 139.625 102.073C140.672 101.517 141.596 101.208 141.658 101.332Z" fill="#455A64"/>
<path d="M146.218 99.4171C146.279 99.4789 145.786 99.7876 145.109 100.035C144.492 100.282 143.938 100.405 143.876 100.343C143.815 100.282 144.308 99.9729 144.985 99.7259C145.663 99.4789 146.218 99.3554 146.218 99.4171Z" fill="#455A64"/>
<path d="M150.777 95.5269C150.839 95.5269 150.839 96.5149 150.716 97.6881C150.531 97.9351 150.654 97.7499 150.593 97.8116H150.531L150.408 97.8734L150.223 97.9351C150.1 97.9969 149.976 98.0586 149.853 98.0586C149.607 98.1204 149.422 98.2439 149.175 98.3056C148.806 98.4291 148.559 98.4909 148.559 98.4291C148.559 98.3674 148.744 98.2439 149.114 98.0586C149.299 97.9969 149.483 97.8734 149.73 97.7499C149.853 97.6881 149.976 97.6264 150.1 97.5646L150.284 97.5029L150.408 97.4411H150.469C150.408 97.5029 150.593 97.3176 150.346 97.5646C150.531 96.5149 150.654 95.5269 150.777 95.5269Z" fill="#455A64"/>
<path d="M151.578 87.5613C151.64 87.5613 151.64 88.4875 151.517 89.599C151.394 90.7105 151.209 91.575 151.147 91.575C151.085 91.575 151.085 90.6488 151.209 89.5373C151.332 88.4258 151.517 87.5613 151.578 87.5613Z" fill="#455A64"/>
<path d="M150.1 81.1394C150.1 81.0777 151.085 81.0777 152.256 81.2012C152.564 81.5717 152.318 81.3247 152.379 81.3864V81.4482V81.5717V81.7569C152.379 81.8804 152.318 82.0039 152.318 82.1892C152.256 82.4362 152.256 82.6832 152.195 82.8684C152.133 83.2389 152.071 83.4859 152.01 83.4859C151.948 83.4859 151.948 83.2389 151.948 82.8684C151.948 82.6832 151.948 82.4362 152.01 82.1892C152.01 82.0657 152.01 81.9422 152.071 81.7569V81.5717V81.4482V81.3864C152.133 81.4482 151.948 81.2012 152.195 81.5717C151.024 81.4482 150.038 81.2629 150.1 81.1394Z" fill="#455A64"/>
<path d="M142.521 80.3365C142.521 80.2747 143.383 80.2747 144.431 80.3982C145.478 80.5217 146.341 80.6452 146.279 80.7687C146.279 80.8305 145.417 80.8305 144.369 80.707C143.322 80.5835 142.521 80.46 142.521 80.3365Z" fill="#455A64"/>
<path d="M134.942 79.5337C134.942 79.472 135.804 79.472 136.852 79.5955C137.899 79.719 138.762 79.8425 138.7 79.966C138.7 80.0277 137.838 80.0277 136.79 79.9042C135.804 79.7807 134.942 79.5955 134.942 79.5337Z" fill="#455A64"/>
<path d="M95.3219 69.0364C95.2603 69.7774 95.2603 70.5184 95.2603 71.2594C95.2603 74.2234 95.5684 77.1874 96.1229 79.9662V80.0279C96.1845 80.3984 96.3078 80.7689 96.3694 81.0777C96.6775 82.4979 97.1088 83.8564 97.5401 85.2149C97.6017 85.4002 97.6634 85.5237 97.725 85.7089C99.327 85.3384 103.948 81.3247 109.247 76.3847L98.2795 66.5046C96.7391 68.1101 95.8148 68.9129 95.3219 69.0364Z" fill="#FFAAA5"/>
<path d="M164.703 4.9397C165.073 9.20045 169.94 12.782 174.192 12.6585C176.533 12.5967 178.936 11.547 181.216 12.1645C185.037 13.276 186.515 18.5865 190.459 19.2657C193.355 19.8215 196.066 17.4132 199.024 17.2897C201.18 17.1662 203.214 18.2777 205.062 19.5127C206.849 20.7477 208.574 22.168 210.608 22.8472C212.641 23.5265 214.551 22.2915 216.646 21.674C217.139 22.9707 217.509 24.638 218.187 26.0582C218.864 27.4785 219.665 29.9485 218.495 30.5042C218.495 30.5042 215.229 32.2332 213.319 32.1097C214.798 33.6535 217.201 34.3327 219.296 33.7152C219.85 36.8645 220.22 40.5695 218.063 42.916C217.139 43.9657 215.784 44.645 214.366 44.9537C207.527 46.7445 200.318 41.928 193.355 43.2247C190.52 43.7805 187.871 45.3242 184.975 45.6947C182.141 46.0652 179.183 45.2007 176.903 43.41C174.13 41.187 172.282 37.4202 168.77 36.8645C167.229 36.6175 165.627 37.0497 164.148 37.482C162.608 37.9142 161.067 38.3465 159.527 37.976C157.987 37.6672 156.569 36.3087 156.631 34.765" fill="#263238"/>
<path d="M151.085 46.374C151.825 42.0515 152.749 37.5437 152.749 37.5437C152.749 37.5437 158.418 37.6055 160.883 30.566C163.162 23.8352 164.826 7.71845 164.826 7.71845C157.432 3.0872 147.635 3.5812 140.795 8.95346L135.127 44.0275C134.449 48.103 137.406 51.9315 141.781 52.549C146.218 53.2283 150.346 50.4495 151.085 46.374Z" fill="#FFAAA5"/>
<path d="M160.575 19.8214C160.513 20.3154 160.02 20.6859 159.527 20.6241C159.034 20.5624 158.664 20.1301 158.726 19.6361C158.788 19.1421 159.281 18.7716 159.774 18.8334C160.266 18.8951 160.636 19.3274 160.575 19.8214Z" fill="#263238"/>
<path d="M162.3 19.0191C162.177 19.1426 161.56 18.4633 160.575 18.2781C159.589 18.0928 158.788 18.4633 158.664 18.3398C158.603 18.2781 158.788 18.0928 159.157 17.9076C159.527 17.7223 160.082 17.5988 160.698 17.7223C161.314 17.8458 161.807 18.1546 162.053 18.4633C162.3 18.7721 162.361 19.0191 162.3 19.0191Z" fill="#263238"/>
<path d="M150.346 18.2157C150.284 18.7097 149.791 19.0802 149.298 19.0184C148.805 18.9567 148.436 18.5244 148.497 18.0304C148.559 17.5364 149.052 17.1659 149.545 17.2277C150.038 17.2277 150.407 17.7217 150.346 18.2157Z" fill="#263238"/>
<path d="M151.825 17.5984C151.702 17.7219 151.085 17.0427 150.099 16.8574C149.114 16.6722 148.313 17.0427 148.189 16.9192C148.128 16.8574 148.313 16.6722 148.682 16.4869C149.052 16.3017 149.607 16.1782 150.223 16.3017C150.839 16.4252 151.332 16.7339 151.578 17.0427C151.825 17.2897 151.886 17.5367 151.825 17.5984Z" fill="#263238"/>
<path d="M154.105 25.626C154.105 25.5643 154.721 25.5643 155.768 25.626C156.015 25.626 156.261 25.626 156.323 25.4408C156.385 25.2555 156.385 24.9468 156.261 24.638C156.138 23.9588 156.015 23.2795 155.83 22.5385C155.275 19.5745 154.906 17.1663 155.029 17.1663C155.152 17.1663 155.707 19.5128 156.261 22.4768C156.385 23.2178 156.508 23.897 156.631 24.5763C156.693 24.885 156.754 25.2555 156.569 25.626C156.446 25.8113 156.261 25.9348 156.076 25.9348C155.892 25.9348 155.768 25.9348 155.645 25.9348C154.721 25.8113 154.105 25.6878 154.105 25.626Z" fill="#263238"/>
<path d="M152.749 37.5437C152.749 37.5437 147.82 36.988 143.506 33.283C143.506 33.283 144.985 38.6552 152.318 39.2727L152.749 37.5437Z" fill="#C75B54"/>
<path d="M153.304 27.9726C153.057 27.4169 152.441 27.0464 151.825 27.0464C151.394 27.0464 150.901 27.1699 150.593 27.4786C150.284 27.7874 150.1 28.2814 150.284 28.6519C150.469 29.0841 151.024 29.2694 151.517 29.2076C152.01 29.1459 152.503 28.8989 152.934 28.6519C153.057 28.5901 153.18 28.5284 153.242 28.4049C153.365 28.2814 153.365 28.0961 153.304 27.9726Z" fill="#C75B54"/>
<path d="M151.085 25.8113C151.27 25.8113 151.085 26.9228 151.825 27.8491C152.626 28.7753 153.797 28.8371 153.797 29.0223C153.797 29.0841 153.488 29.2076 152.995 29.0841C152.503 29.0223 151.825 28.7136 151.332 28.1578C150.839 27.6021 150.716 26.9228 150.777 26.4906C150.839 25.9966 151.024 25.7496 151.085 25.8113Z" fill="#263238"/>
<path d="M145.725 3.76608C147.635 8.02683 153.92 13.2138 158.726 15.0663C158.295 14.2018 155.583 11.7318 155.152 10.8056C157.124 12.9051 159.897 15.8073 162.916 16.5483C163.286 16.6101 163.655 16.7336 163.963 16.6101C164.395 16.4248 164.58 15.9926 164.703 15.5603C165.257 13.8313 165.689 10.8056 165.75 8.95308C165.812 7.16233 165.319 5.24808 164.025 3.76608C162.361 1.91358 159.712 1.04908 157.124 0.493325C154.967 0.0610746 152.687 -0.247676 150.531 0.122825C148.374 0.555075 146.402 1.79008 145.786 3.58083" fill="#263238"/>
<path d="M134.202 19.8833C134.202 17.969 134.264 16.1165 134.387 14.9433C134.88 11.1765 136.051 -2.532 148.682 0.987758L147.327 4.50751C147.327 4.50751 148.313 13.3378 141.843 18.0308C141.843 18.0308 141.843 26.7993 137.406 30.0103C137.345 29.9485 134.202 24.0205 134.202 19.8833Z" fill="#263238"/>
<path d="M142.089 17.4129C141.35 17.1041 140.549 16.9806 139.748 17.1659C138.947 17.2894 138.207 17.7216 137.776 18.4009C137.345 19.0801 137.222 19.9447 137.345 20.6857C137.468 21.4884 137.838 22.2294 138.331 22.8469C138.639 23.3409 139.07 23.7732 139.563 24.0202C140.056 24.2672 140.734 24.3289 141.227 24.0819" fill="#FFAAA5"/>
<path d="M140.795 22.0447C140.857 22.1064 140.487 22.4769 139.81 22.1682C139.501 22.0447 139.193 21.6742 139.07 21.2419C138.947 20.8097 138.885 20.3774 138.885 19.8834C138.947 19.3894 139.132 18.8954 139.44 18.5867C139.748 18.2779 140.241 18.0927 140.549 18.1544C141.288 18.2779 141.412 18.8337 141.35 18.8337C141.288 18.8954 141.042 18.5867 140.549 18.5867C140.056 18.5867 139.501 19.1424 139.501 19.9452C139.44 20.7479 139.625 21.5507 139.994 21.7977C140.426 22.1064 140.795 21.9829 140.795 22.0447Z" fill="#C75B54"/>
<path d="M215.044 18.0307C215.044 18.0307 214.983 18.216 214.674 18.5247C214.428 18.8335 213.935 19.204 213.196 19.3892C212.456 19.5745 211.47 19.5745 210.484 19.204C209.437 18.8335 208.451 18.0925 207.404 17.2897C206.356 16.487 205.185 15.5607 203.645 15.1902C202.906 15.0667 202.104 15.0667 201.303 15.3137C200.502 15.499 199.701 15.8695 198.962 16.3017C198.161 16.6722 197.36 17.1662 196.497 17.5367C195.635 17.9072 194.71 18.216 193.725 18.2777C192.739 18.3395 191.691 18.0307 190.829 17.4132C189.966 16.8575 189.288 16.0547 188.672 15.1902C187.44 13.523 186.454 11.7322 184.913 10.6207C184.174 10.0032 183.311 9.69445 182.387 9.57095C181.463 9.44745 180.6 9.5092 179.737 9.69445C178.012 10.0032 176.41 10.559 174.808 10.7442C173.206 10.9295 171.727 10.7442 170.433 10.3737C167.845 9.57095 166.12 8.08895 165.134 6.9157C164.148 5.74245 163.84 4.9397 163.84 4.9397C163.84 4.9397 163.902 5.00145 163.902 5.0632C163.963 5.1867 164.025 5.3102 164.148 5.4337C164.333 5.74245 164.703 6.23645 165.196 6.7922C166.182 7.9037 167.907 9.32395 170.495 10.065C171.789 10.4355 173.268 10.6207 174.808 10.3737C176.348 10.1885 177.951 9.6327 179.737 9.2622C180.6 9.07695 181.524 9.0152 182.51 9.1387C183.434 9.2622 184.42 9.6327 185.16 10.2502C186.762 11.4852 187.748 13.276 188.98 14.8815C189.596 15.6842 190.274 16.487 191.075 16.981C191.876 17.5367 192.8 17.7837 193.786 17.7837C194.71 17.7837 195.635 17.475 196.436 17.0427C197.298 16.6722 198.099 16.24 198.9 15.8077C199.701 15.4372 200.502 15.0667 201.303 14.8197C202.104 14.5727 202.967 14.5727 203.768 14.758C205.37 15.1285 206.541 16.1165 207.588 16.9192C208.636 17.7837 209.622 18.463 210.608 18.8952C211.594 19.3275 212.518 19.3275 213.257 19.1422C213.997 18.957 214.49 18.6482 214.736 18.3395C214.983 18.216 215.044 17.969 215.044 18.0307Z" fill="#263238"/>
<path d="M73.1397 140.667L61.9869 163.267L65.3143 163.391L55.8252 181.36H60.8162L53.0524 197.292H96.431L86.8803 181.36L91.44 181.175L82.3206 163.206L85.648 163.02L73.1397 140.667Z" fill="#455A64"/>
<path d="M75.0497 166.91C75.1113 166.91 75.0497 176.482 74.9265 188.276C74.7416 200.07 74.5568 209.641 74.4335 209.641C74.3719 209.641 74.4335 200.07 74.5568 188.276C74.7416 176.42 74.9265 166.91 75.0497 166.91Z" fill="#263238"/>
<path d="M80.3489 172.715C80.4105 172.715 80.164 173.147 79.6711 173.703C79.2398 174.259 78.5003 175 77.6993 175.802C76.8983 176.605 76.2205 177.284 75.666 177.84C75.173 178.396 74.8649 178.705 74.8033 178.705C74.7417 178.705 74.9882 178.272 75.4811 177.717C75.9124 177.161 76.6518 176.42 77.4529 175.617C78.2539 174.814 78.9317 174.135 79.4862 173.579C79.9792 173.024 80.2872 172.653 80.3489 172.715Z" fill="#263238"/>
<path d="M74.9265 178.89C74.8649 178.952 73.7558 178.211 72.4618 177.161C71.1679 176.111 70.1204 175.247 70.182 175.185C70.2436 175.123 71.3527 175.864 72.6467 176.914C73.9406 177.964 74.9881 178.828 74.9265 178.89Z" fill="#263238"/>
<path d="M74.6184 190.005C74.5568 190.067 73.3861 189.017 71.8457 187.782C70.3052 186.547 69.0729 185.559 69.1345 185.497C69.1961 185.435 70.5517 186.3 72.0921 187.535C73.571 188.77 74.6801 189.943 74.6184 190.005Z" fill="#263238"/>
<path d="M80.8418 183.151C80.9034 183.212 79.6711 184.88 77.8842 186.67C77.0215 187.535 76.2821 188.338 75.6043 189.017C75.0498 189.634 74.6801 190.005 74.6185 190.005C74.5568 189.943 75.7892 188.276 77.5761 186.485C78.3771 185.621 79.1781 184.818 79.8559 184.139C80.4105 183.521 80.7802 183.089 80.8418 183.151Z" fill="#263238"/>
</svg>
