<svg width="300" height="240" viewBox="0 0 300 240" fill="none" xmlns="http://www.w3.org/2000/svg">
<circle opacity="0.8" cx="49.4684" cy="201.886" r="10.9127" transform="rotate(180 49.4684 201.886)" fill="url(#paint0_linear_302_1163)"/>
<ellipse opacity="0.8" cx="150" cy="211" rx="150" ry="15" transform="rotate(180 150 211)" fill="url(#paint1_linear_302_1163)"/>
<circle opacity="0.8" cx="18.2566" cy="101.924" r="8.82214" transform="rotate(-169.707 18.2566 101.924)" fill="url(#paint2_linear_302_1163)"/>
<circle opacity="0.8" cx="277.136" cy="106.537" r="10.9127" transform="rotate(-169.707 277.136 106.537)" fill="url(#paint3_linear_302_1163)"/>
<circle opacity="0.8" cx="288.107" cy="178.619" r="7.20818" transform="rotate(-169.707 288.107 178.619)" fill="url(#paint4_linear_302_1163)"/>
<circle opacity="0.8" cx="137.453" cy="82.5285" r="10.9127" transform="rotate(-169.707 137.453 82.5285)" fill="url(#paint5_linear_302_1163)"/>
<ellipse opacity="0.8" cx="77.1305" cy="30.936" rx="6.54764" ry="6.54764" transform="rotate(105 77.1305 30.936)" fill="url(#paint6_linear_302_1163)"/>
<ellipse opacity="0.8" cx="253.917" cy="47.3051" rx="6.54764" ry="6.54764" transform="rotate(105 253.917 47.3051)" fill="url(#paint7_linear_302_1163)"/>
<path d="M245.175 0.381348H199.5C195.535 0.381348 192.333 3.58389 192.333 7.54894V18.9103C192.333 22.8754 195.535 26.0779 199.5 26.0779H199.958V32.5593L207.278 26.0779H245.175C249.14 26.0779 252.342 22.8754 252.342 18.9103V7.6252C252.342 3.66014 249.14 0.381348 245.175 0.381348Z" fill="white"/>
<path d="M245.175 0.381255C245.175 0.381255 245.327 0.381255 245.556 0.381255C245.785 0.381255 246.166 0.381255 246.623 0.457506C246.852 0.533757 247.081 0.533757 247.386 0.610008C247.691 0.686259 247.996 0.76251 248.301 0.915012C248.911 1.22002 249.597 1.60127 250.283 2.21128C250.97 2.82129 251.58 3.66005 251.961 4.65131C252.418 5.64258 252.571 6.86259 252.571 8.15886C252.571 10.6751 252.571 13.5727 252.571 16.8515C252.571 17.6902 252.571 18.4527 252.571 19.3678C252.495 20.2065 252.342 21.1215 251.961 21.884C251.275 23.5616 249.826 24.9341 247.996 25.6966C247.081 26.0778 246.09 26.2303 245.098 26.2303C244.107 26.2303 243.116 26.2303 242.124 26.2303C240.066 26.2303 238.007 26.2303 235.796 26.2303C227.179 26.2303 217.572 26.2303 207.43 26.2303L207.583 26.1541C205.219 28.2129 202.779 30.4242 200.263 32.6354L199.958 32.9404V32.4829C199.958 31.7204 199.958 30.8817 199.958 29.9667C199.958 28.5941 199.958 27.2216 199.958 25.9253L200.186 26.1541C198.814 26.2304 197.289 25.9253 196.069 25.2391C194.849 24.5528 193.858 23.4853 193.171 22.2653C192.866 21.6553 192.638 20.969 192.485 20.2828C192.333 19.5965 192.333 18.9103 192.333 18.224C192.333 16.9277 192.333 15.5552 192.333 14.2589C192.333 12.9627 192.333 11.6664 192.333 10.3701C192.333 9.76013 192.333 9.07387 192.333 8.46386C192.333 7.85386 192.333 7.1676 192.409 6.55759C192.714 3.96505 194.391 1.67752 196.679 0.686259C197.823 0.152502 199.043 0 200.186 0C201.33 0 202.474 0 203.618 0C205.905 0 208.117 0 210.252 0C214.522 0 218.487 0 222.07 0C229.314 0 235.109 0.076251 239.151 0.076251C241.133 0.076251 242.735 0.076251 243.802 0.076251C244.336 0.076251 244.717 0.076251 245.022 0.076251C245.022 0.381255 245.175 0.381255 245.175 0.381255C245.175 0.381255 245.022 0.381255 244.793 0.381255C244.488 0.381255 244.107 0.381255 243.573 0.381255C242.506 0.381255 240.981 0.381255 238.922 0.381255C234.881 0.381255 229.086 0.381255 221.842 0.457506C218.258 0.457506 214.293 0.457506 210.023 0.457506C207.888 0.457506 205.677 0.457506 203.389 0.457506C202.245 0.457506 201.101 0.457506 199.958 0.457506C198.814 0.457506 197.67 0.610008 196.603 1.14377C194.468 2.13503 192.866 4.27006 192.561 6.71009C192.485 7.3201 192.485 7.93011 192.485 8.61637C192.485 9.22637 192.485 9.91263 192.485 10.5226C192.485 11.8189 192.485 13.1152 192.485 14.4114C192.485 15.7077 192.485 17.0802 192.485 18.3765C192.485 19.0628 192.485 19.6728 192.638 20.359C192.79 20.969 193.019 21.6553 193.324 22.189C193.934 23.3328 194.925 24.3241 196.069 25.0103C197.213 25.6966 198.585 25.9253 199.958 25.9253H200.186V26.1541C200.186 27.4504 200.186 28.8229 200.186 30.1954C200.186 31.0342 200.186 31.8729 200.186 32.7117L199.881 32.5592C202.398 30.3479 204.838 28.1366 207.202 26.0778L207.278 26.0016H207.354C217.495 26.0016 227.103 26.0016 235.719 26.0016C237.854 26.0016 239.989 26.0016 242.048 26.0016C244.107 25.9253 246.09 26.2303 247.843 25.4678C249.597 24.7816 250.97 23.4091 251.656 21.8078C252.037 21.0453 252.19 20.2065 252.266 19.3678C252.342 18.529 252.266 17.6902 252.266 16.9277C252.266 13.7252 252.266 10.8276 252.266 8.23511C252.342 6.93884 252.19 5.79508 251.732 4.80381C251.351 3.81255 250.741 2.97379 250.131 2.36378C249.521 1.75377 248.835 1.29627 248.225 1.06751C247.92 0.915012 247.615 0.838761 247.386 0.686259C247.081 0.610008 246.852 0.533757 246.623 0.457506C245.632 0.381255 245.175 0.457506 245.175 0.381255Z" fill="#263238"/>
<path d="M206.363 12.8102L207.811 13.5727L206.973 14.9452L205.448 14.0302L205.524 15.7077H203.923L203.999 14.0302L202.474 14.9452L201.635 13.5727L203.084 12.8102L201.635 11.9714L202.474 10.5989L203.999 11.5139L203.923 9.83636H205.524L205.448 11.5139L206.973 10.5989L207.811 11.9714L206.363 12.8102Z" fill="#6FA8FF"/>
<path d="M213.149 12.8102L214.598 13.5727L213.759 14.9452L212.234 14.0302L212.31 15.7077H210.709L210.785 14.0302L209.26 14.9452L208.422 13.5727L209.87 12.8102L208.422 11.9714L209.26 10.5989L210.785 11.5139L210.709 9.83636H212.31L212.234 11.5139L213.759 10.5989L214.598 11.9714L213.149 12.8102Z" fill="#6FA8FF"/>
<path d="M219.935 12.8102L221.384 13.5727L220.545 14.9452L219.02 14.0302L219.097 15.7077H217.495L217.572 14.0302L216.047 14.9452L215.208 13.5727L216.657 12.8102L215.208 11.9714L216.047 10.5989L217.572 11.5139L217.495 9.83636H219.097L219.02 11.5139L220.545 10.5989L221.384 11.9714L219.935 12.8102Z" fill="#6FA8FF"/>
<path d="M226.722 12.8102L228.171 13.5727L227.332 14.9452L225.807 14.0302L225.883 15.7077H224.282L224.358 14.0302L222.833 14.9452L221.994 13.5727L223.443 12.8102L221.994 11.9714L222.833 10.5989L224.358 11.5139L224.282 9.83636H225.883L225.807 11.5139L227.332 10.5989L228.171 11.9714L226.722 12.8102Z" fill="#6FA8FF"/>
<path d="M233.508 12.8102L234.957 13.5727L234.118 14.9452L232.593 14.0302L232.669 15.7077H231.068L231.144 14.0302L229.619 14.9452L228.781 13.5727L230.229 12.8102L228.781 11.9714L229.619 10.5989L231.144 11.5139L231.068 9.83636H232.669L232.593 11.5139L234.118 10.5989L234.957 11.9714L233.508 12.8102Z" fill="#6FA8FF"/>
<path d="M240.294 12.8102L241.743 13.5727L240.904 14.9452L239.379 14.0302L239.456 15.7077H237.854L237.931 14.0302L236.406 14.9452L235.567 13.5727L237.016 12.8102L235.567 11.9714L236.406 10.5989L237.931 11.5139L237.854 9.83636H239.456L239.379 11.5139L240.904 10.5989L241.743 11.9714L240.294 12.8102Z" fill="#6FA8FF"/>
<path d="M66.2349 80.6897C72.9494 84.1607 78.0706 90.1355 81.7692 96.7362C85.4679 103.337 87.8578 110.563 90.1908 117.733L92.2393 154.777C84.4436 141.518 78.1844 125.87 76.4773 110.563C78.1844 110.393 79.9483 110.279 81.6554 110.108C78.1844 109.596 75.2254 107.036 73.4046 104.077C71.5268 101.061 70.5594 97.6466 69.649 94.2325C71.7544 94.5739 73.8598 94.8584 75.9652 95.1998C71.0716 91.7857 67.4867 86.4937 66.2349 80.6897Z" fill="#455A64"/>
<g opacity="0.3">
<g opacity="0.3">
<path opacity="0.3" d="M66.2349 80.6897C72.9494 84.1607 78.0706 90.1355 81.7692 96.7362C85.4679 103.337 87.8578 110.563 90.1908 117.733L92.2393 154.777C84.4436 141.518 78.1844 125.87 76.4773 110.563C78.1844 110.393 79.9483 110.279 81.6554 110.108C78.1844 109.596 75.2254 107.036 73.4046 104.077C71.5268 101.061 70.5594 97.6466 69.649 94.2325C71.7544 94.5739 73.8598 94.8584 75.9652 95.1998C71.0716 91.7857 67.4867 86.4937 66.2349 80.6897Z" fill="black"/>
</g>
</g>
<path d="M93.4911 163.426C93.4911 163.426 110.448 143.112 110.22 123.765H103.392C103.392 123.765 110.846 118.871 110.22 116.14C109.595 113.409 109.424 103.052 109.424 103.052L103.165 104.646C103.165 104.646 107.887 102.313 108.456 98.557C109.025 94.8584 107.091 77.6169 107.091 77.6169C107.091 77.6169 99.4659 85.6402 97.1329 93.8341C94.7999 102.028 88.5975 111.645 90.4184 136.682C92.2393 161.719 93.4911 163.426 93.4911 163.426Z" fill="#455A64"/>
<path d="M84.8989 165.36C84.8989 165.36 66.5194 153.126 62.4793 137.535L67.9989 136.056C67.9989 136.056 60.943 133.723 60.8292 131.447C60.7154 129.114 58.61 120.749 58.61 120.749L63.9588 120.635C63.9588 120.635 59.6911 119.782 58.3824 116.937C57.0736 113.978 54.8544 99.6951 54.8544 99.6951C54.8544 99.6951 62.7638 104.475 66.4056 110.563C70.1043 116.652 77.1602 123.025 81.1433 143.567C85.2403 164.052 84.8989 165.36 84.8989 165.36Z" fill="#455A64"/>
<path d="M102.482 95.3137C102.482 95.3137 102.482 95.3706 102.425 95.5413C102.368 95.712 102.368 95.8827 102.311 96.1672C102.197 96.7362 102.026 97.5329 101.856 98.614C101.628 99.6382 101.401 100.947 101.116 102.426C100.832 103.906 100.49 105.613 100.149 107.491C99.4659 111.246 98.7261 115.742 97.9295 120.749C97.1898 125.756 96.45 131.276 95.7672 137.08C95.0844 142.884 94.5722 148.404 94.1739 153.468C93.7756 158.532 93.4911 163.084 93.3204 166.897C93.2066 168.832 93.1497 170.539 93.0928 172.075C93.0359 173.611 92.979 174.92 92.979 176.001C92.9221 177.082 92.9221 177.879 92.9221 178.448C92.9221 178.733 92.9221 178.903 92.8652 179.074C92.8652 179.245 92.8652 179.302 92.8652 179.302C92.8652 179.302 92.8652 179.245 92.8652 179.074C92.8652 178.903 92.8652 178.676 92.8652 178.448C92.8652 177.879 92.8652 177.026 92.8652 176.001C92.8652 174.92 92.9221 173.611 92.979 172.075C93.0359 170.539 93.0928 168.832 93.1497 166.897C93.3204 163.084 93.6049 158.532 93.9463 153.468C94.3446 148.404 94.8568 142.884 95.5396 137.08C96.2224 131.276 96.9621 125.756 97.7588 120.749C98.5554 115.742 99.2951 111.246 100.035 107.491C100.376 105.613 100.718 103.906 101.002 102.426C101.287 100.947 101.571 99.6382 101.799 98.614C102.026 97.5898 102.197 96.7931 102.311 96.2241C102.368 95.9396 102.425 95.7689 102.482 95.5982C102.425 95.3706 102.482 95.3137 102.482 95.3137Z" fill="#263238"/>
<path d="M95.8241 175.831C95.8241 175.831 111.358 158.248 116.138 147.607L112.497 146.071C115.114 146.526 117.845 145.388 119.894 143.681C121.942 141.974 123.422 139.698 124.901 137.478L120.121 136.682C124.503 135.487 128.315 132.471 130.591 128.602C124.958 129.512 119.837 132.642 115.626 136.511C112.212 139.641 109.31 143.282 106.522 147.038C105.156 148.859 103.961 150.794 102.994 152.842C100.376 158.134 95.8241 169.401 95.8241 175.831Z" fill="#455A64"/>
<path d="M62.1949 109.938C62.1949 109.938 62.2518 109.994 62.3087 110.108C62.3656 110.222 62.4794 110.393 62.5932 110.62C62.8208 111.076 63.1622 111.702 63.6174 112.555C64.471 114.205 65.6659 116.652 67.1454 119.725C68.6248 122.741 70.275 126.439 72.039 130.479C73.803 134.576 75.6807 139.072 77.5585 143.908C79.3794 148.688 81.0865 153.297 82.509 157.508C83.9316 161.719 85.1834 165.531 86.1508 168.775C87.1181 172.018 87.8579 174.636 88.37 176.457C88.5976 177.367 88.8252 178.05 88.939 178.562C88.9959 178.79 89.0528 178.96 89.0528 179.131C89.1097 179.245 89.1097 179.302 89.1097 179.302C89.1097 179.302 89.1097 179.245 89.0528 179.131C88.9959 179.017 88.939 178.79 88.8821 178.619C88.7114 178.107 88.5407 177.424 88.2562 176.513C87.744 174.693 86.9474 172.075 85.9801 168.888C85.0127 165.645 83.7609 161.833 82.2814 157.622C80.802 153.411 79.1518 148.802 77.3309 144.022C75.4531 139.242 73.6322 134.69 71.8683 130.593C70.1043 126.496 68.4541 122.854 67.0316 119.782C65.609 116.709 64.414 114.262 63.6174 112.612C63.2191 111.758 62.8777 111.133 62.6501 110.677C62.5363 110.45 62.4794 110.279 62.4225 110.165C62.1949 109.994 62.1949 109.938 62.1949 109.938Z" fill="#263238"/>
<path d="M94.5154 183.399C94.5154 183.399 94.5154 183.285 94.5154 183.057C94.5154 182.83 94.5723 182.488 94.6292 182.09C94.6861 181.691 94.743 181.179 94.7999 180.61C94.9137 180.041 94.9706 179.358 95.1413 178.676C95.3689 177.253 95.7672 175.489 96.2794 173.611C96.7915 171.734 97.4174 169.685 98.214 167.58C99.0107 165.474 99.8642 163.54 100.718 161.776C101.571 160.012 102.425 158.475 103.221 157.223C103.563 156.597 103.961 156.028 104.303 155.516C104.587 155.004 104.929 154.606 105.156 154.264C105.384 153.98 105.554 153.695 105.725 153.468C105.839 153.297 105.953 153.183 105.953 153.183C105.953 153.183 105.896 153.297 105.782 153.468C105.668 153.695 105.498 153.923 105.27 154.264C105.042 154.606 104.758 155.004 104.473 155.516C104.189 156.028 103.79 156.597 103.449 157.223C102.709 158.475 101.856 160.012 101.002 161.776C100.149 163.54 99.2952 165.474 98.4986 167.58C97.7019 169.685 97.076 171.734 96.5639 173.554C96.0518 175.432 95.6534 177.139 95.3689 178.562C95.1982 179.302 95.1413 179.927 95.0275 180.497C94.9137 181.066 94.8568 181.578 94.7999 181.976C94.743 182.374 94.6861 182.659 94.6292 182.886C94.5723 183.285 94.5154 183.399 94.5154 183.399Z" fill="#263238"/>
<path d="M108.001 179.245H74.0305V186.187H108.001V179.245Z" fill="#4B8DF0"/>
<path d="M104.758 186.187L101.059 209.46H80.5743L77.1602 186.187H104.758Z" fill="#4B8DF0"/>
<path d="M76.1359 186.187C76.1359 186.13 82.5659 186.016 90.4753 186.016C98.3848 186.016 104.815 186.073 104.815 186.187C104.815 186.301 98.3848 186.358 90.4753 186.358C82.5659 186.301 76.1359 186.244 76.1359 186.187Z" fill="#263238"/>
<path d="M186.995 180.029C186.995 180.029 241.667 151.511 253.562 167.219C265.457 182.926 241.667 195.279 237.092 198.024C232.517 200.769 186.08 216.553 186.08 216.553L173.804 203.514L186.995 180.029Z" fill="#263238"/>
<path d="M208.574 195.279L230.382 207.022L250.283 211.368C251.732 211.673 252.571 213.122 252.19 214.57C251.961 215.333 251.351 216.019 250.588 216.248C245.632 218.002 227.408 224.178 225.883 223.263C224.129 222.196 202.093 212.435 202.093 212.435L208.574 195.279Z" fill="#455A64"/>
<g opacity="0.6">
<g opacity="0.6">
<g opacity="0.6">
<g opacity="0.6">
<g opacity="0.6">
<g opacity="0.6">
<path opacity="0.6" d="M252.19 214.494L224.358 222.424L225.273 222.882C226.112 223.263 227.027 223.415 227.866 223.187C230.229 222.653 236.711 220.899 250.512 216.172C251.351 216.019 251.961 215.333 252.19 214.494Z" fill="white"/>
</g>
</g>
</g>
</g>
</g>
</g>
<g opacity="0.6">
<g opacity="0.6">
<g opacity="0.6">
<g opacity="0.6">
<g opacity="0.6">
<g opacity="0.6">
<g opacity="0.6">
<path opacity="0.6" d="M219.554 214.342C220.24 213.96 221.155 214.265 221.537 214.876C221.918 215.562 221.689 216.477 221.003 216.858C220.317 217.239 219.249 216.934 218.944 216.248C218.639 215.562 218.944 214.494 219.707 214.266" fill="white"/>
</g>
</g>
</g>
</g>
</g>
</g>
</g>
<path d="M239.989 214.647C240.142 214.57 239.227 213.503 239.227 211.825C239.227 210.224 240.142 209.157 240.066 209.004C239.989 208.928 239.684 209.157 239.379 209.614C239.074 210.072 238.769 210.834 238.693 211.749C238.693 212.664 238.998 213.427 239.303 213.884C239.608 214.494 239.913 214.723 239.989 214.647Z" fill="#263238"/>
<path d="M243.726 214.57C243.878 214.494 243.497 213.427 243.802 212.13C244.031 210.834 244.717 209.919 244.641 209.843C244.565 209.69 243.573 210.529 243.268 212.054C242.963 213.579 243.573 214.647 243.726 214.57Z" fill="#263238"/>
<path d="M234.728 215.638C234.881 215.562 234.347 213.96 234.576 211.902C234.728 209.843 235.643 208.318 235.491 208.242C235.414 208.165 234.271 209.614 234.042 211.825C233.737 214.037 234.576 215.714 234.728 215.638Z" fill="#263238"/>
<path d="M227.789 212.664C227.942 212.664 228.094 211.215 228.781 209.614C229.543 208.013 230.534 206.945 230.458 206.793C230.382 206.64 229.086 207.632 228.323 209.385C227.484 211.063 227.637 212.664 227.789 212.664Z" fill="#263238"/>
<path d="M221.308 209.385C221.46 209.385 221.384 207.784 222.299 206.183C223.214 204.505 224.587 203.743 224.51 203.666C224.51 203.59 224.053 203.743 223.519 204.048C222.985 204.429 222.299 205.039 221.765 205.954C221.308 206.869 221.079 207.784 221.079 208.394C221.079 209.004 221.232 209.385 221.308 209.385Z" fill="#263238"/>
<path d="M221.003 205.497C221.003 205.497 220.774 205.268 220.164 205.039C219.63 204.81 218.715 204.582 217.648 204.582C217.114 204.582 216.428 204.582 215.894 205.039C215.589 205.268 215.437 205.725 215.589 206.183C215.742 206.564 216.047 206.869 216.428 207.022C217.877 207.708 219.783 207.174 220.774 205.725C221.765 204.2 221.613 202.37 220.698 201.074C220.469 200.769 220.088 200.464 219.63 200.464C219.173 200.464 218.792 200.845 218.715 201.15C218.487 201.837 218.639 202.447 218.715 202.98C218.944 204.048 219.325 204.887 219.63 205.344C219.935 205.878 220.164 206.107 220.24 206.107C220.317 206.03 219.478 204.963 219.097 202.904C219.02 202.37 218.944 201.76 219.097 201.303C219.173 201.074 219.402 200.922 219.63 200.922C219.859 200.922 220.088 201.15 220.317 201.379C221.003 202.447 221.155 204.124 220.317 205.42C219.478 206.64 217.724 207.098 216.58 206.564C216.275 206.412 216.047 206.183 215.97 205.954C215.894 205.725 215.97 205.497 216.123 205.344C216.504 205.039 217.114 204.963 217.648 204.887C219.783 204.887 221.003 205.649 221.003 205.497Z" fill="#263238"/>
<path d="M216.352 198.1C216.352 198.1 164.806 166.913 157.867 163.025C151.92 159.67 133.009 152.35 126.299 170.497C119.665 188.645 155.503 215.333 155.503 215.333L185.928 216.705L196.069 212.817L207.583 216.4L216.352 198.1Z" fill="#263238"/>
<path d="M180.132 217.315L157.028 226.237L140.787 238.589C139.643 239.504 137.966 239.199 137.127 237.979C136.669 237.293 136.593 236.454 136.898 235.692C138.804 230.812 145.896 212.893 147.649 212.359C149.632 211.749 171.364 201.303 171.364 201.303L180.132 217.315Z" fill="#455A64"/>
<g opacity="0.6">
<g opacity="0.6">
<g opacity="0.6">
<g opacity="0.6">
<g opacity="0.6">
<g opacity="0.6">
<path opacity="0.6" d="M137.203 237.903L149.251 211.597L148.259 211.978C147.421 212.359 146.734 212.969 146.353 213.732C145.209 215.867 142.312 221.89 136.974 235.463C136.593 236.302 136.669 237.217 137.203 237.903Z" fill="white"/>
</g>
</g>
</g>
</g>
</g>
</g>
<g opacity="0.6">
<g opacity="0.6">
<g opacity="0.6">
<g opacity="0.6">
<g opacity="0.6">
<g opacity="0.6">
<g opacity="0.6">
<path opacity="0.6" d="M158.553 213.274C158.401 214.037 157.638 214.57 156.876 214.418C156.113 214.265 155.58 213.503 155.732 212.74C155.885 211.978 156.8 211.292 157.562 211.52C158.248 211.749 158.858 212.74 158.553 213.35" fill="white"/>
</g>
</g>
</g>
</g>
</g>
</g>
</g>
<path d="M144.981 228.601C144.981 228.753 146.353 228.753 147.573 229.897C148.793 230.964 149.022 232.337 149.174 232.337C149.251 232.337 149.327 231.956 149.174 231.422C149.022 230.888 148.641 230.126 147.954 229.516C147.268 228.906 146.506 228.601 145.896 228.524C145.362 228.372 144.981 228.524 144.981 228.601Z" fill="#263238"/>
<path d="M142.617 231.422C142.541 231.574 143.608 232.032 144.447 233.023C145.286 234.014 145.514 235.158 145.667 235.158C145.819 235.158 145.819 233.862 144.904 232.718C143.913 231.574 142.617 231.346 142.617 231.422Z" fill="#263238"/>
<path d="M147.649 223.873C147.573 224.025 149.174 224.712 150.623 226.16C152.072 227.685 152.682 229.287 152.835 229.21C152.987 229.21 152.606 227.38 151.004 225.779C149.479 224.254 147.726 223.797 147.649 223.873Z" fill="#263238"/>
<path d="M154.436 220.594C154.36 220.747 155.351 221.738 156.113 223.415C156.876 225.017 157.028 226.465 157.181 226.465C157.333 226.465 157.41 224.864 156.647 223.187C155.808 221.433 154.512 220.518 154.436 220.594Z" fill="#263238"/>
<path d="M161.222 217.849C161.146 218.002 162.442 218.917 163.052 220.67C163.738 222.424 163.357 224.025 163.51 224.025C163.586 224.025 163.738 223.644 163.815 223.034C163.891 222.348 163.815 221.433 163.51 220.518C163.128 219.603 162.595 218.84 162.061 218.383C161.603 217.925 161.222 217.773 161.222 217.849Z" fill="#263238"/>
<path d="M164.272 220.06C164.272 220.06 164.577 219.984 165.187 219.755C165.721 219.45 166.483 218.993 167.17 218.154C167.475 217.697 167.932 217.239 168.008 216.477C168.008 216.095 167.78 215.638 167.322 215.485C166.941 215.333 166.483 215.409 166.102 215.562C164.653 216.172 163.738 218.002 164.272 219.755C164.806 221.433 166.331 222.577 167.856 222.729C168.237 222.729 168.695 222.653 169 222.348C169.305 222.043 169.305 221.509 169.076 221.204C168.695 220.594 168.161 220.289 167.703 219.984C166.712 219.45 165.873 219.222 165.263 219.145C164.653 219.069 164.348 219.069 164.348 219.145C164.348 219.222 165.721 219.222 167.551 220.365C168.008 220.67 168.542 220.975 168.771 221.433C168.924 221.662 168.847 221.89 168.695 222.043C168.542 222.195 168.237 222.272 167.932 222.272C166.712 222.119 165.263 221.128 164.882 219.679C164.501 218.23 165.263 216.629 166.407 216.095C166.712 215.943 167.017 215.943 167.246 216.019C167.475 216.095 167.627 216.324 167.627 216.553C167.627 217.087 167.246 217.544 166.941 218.002C165.568 219.603 164.196 219.984 164.272 220.06Z" fill="#263238"/>
<path d="M170.143 223.034C170.83 222.729 196.908 212.054 196.908 212.054L170.906 199.244L155.275 207.327L170.143 223.034Z" fill="#263238"/>
<path d="M137.889 191.695C137.889 191.695 138.042 191.695 138.271 191.771C138.499 191.848 138.881 192 139.338 192.153C140.253 192.458 141.549 192.915 143.303 193.525C146.734 194.745 151.691 196.499 157.791 198.634C170.067 202.98 186.919 208.928 205.524 215.485C206.287 215.714 207.049 215.943 207.812 216.172L207.583 216.248C210.633 209.843 213.53 203.666 216.275 198.024L216.352 198.253C204.151 190.78 193.705 184.451 186.309 179.876C182.649 177.589 179.675 175.759 177.692 174.539C176.701 173.929 175.939 173.471 175.405 173.09C175.176 172.937 174.947 172.785 174.795 172.709C174.642 172.632 174.566 172.556 174.566 172.556C174.566 172.556 174.642 172.556 174.795 172.632C174.947 172.709 175.176 172.861 175.405 173.014C175.939 173.319 176.701 173.776 177.769 174.386C179.827 175.606 182.801 177.36 186.461 179.647C193.934 184.146 204.38 190.475 216.58 197.871L216.733 197.948L216.657 198.1C213.988 203.819 211.014 209.919 207.964 216.324L207.888 216.477L207.735 216.4C206.973 216.172 206.21 215.943 205.448 215.714C204.228 215.409 203.084 214.952 201.94 214.494C200.796 214.113 199.653 213.655 198.509 213.274C196.221 212.435 194.01 211.673 191.799 210.91C187.376 209.309 183.182 207.86 179.141 206.411C171.059 203.514 163.815 200.921 157.715 198.71C151.615 196.499 146.658 194.745 143.303 193.525C141.626 192.915 140.329 192.458 139.414 192.076C138.957 191.924 138.652 191.771 138.423 191.695C137.966 191.695 137.889 191.695 137.889 191.695Z" fill="#455A64"/>
<path d="M170.144 223.034C170.144 223.034 169.762 222.729 169.152 222.119C168.542 221.433 167.627 220.594 166.636 219.527C164.501 217.315 161.603 214.189 158.401 210.758C157.257 209.538 156.19 208.394 155.198 207.327L155.046 207.174L155.275 207.098C158.401 205.573 161.146 204.277 163.205 203.285C164.12 202.828 164.958 202.446 165.492 202.218C166.026 201.989 166.331 201.836 166.331 201.836C166.331 201.836 166.026 201.989 165.568 202.294C164.958 202.599 164.196 202.98 163.281 203.438C161.298 204.429 158.553 205.802 155.427 207.403L155.503 207.098C156.495 208.165 157.638 209.309 158.706 210.529C161.908 213.96 164.806 217.087 166.865 219.374C167.856 220.442 168.695 221.357 169.305 222.043C169.839 222.653 170.144 223.034 170.144 223.034Z" fill="#455A64"/>
<path d="M222.757 172.48C222.833 172.556 216.352 175.377 208.422 178.732C200.491 182.087 194.01 184.68 193.934 184.604C193.858 184.527 200.339 181.706 208.269 178.351C216.199 174.996 222.68 172.404 222.757 172.48Z" fill="#455A64"/>
<path d="M183.106 93.9413C182.572 93.9413 163.738 93.7888 159.926 97.5251C156.113 101.338 148.259 159.441 148.259 159.441C152.301 160.203 154.97 161.728 157.41 162.948L189.359 181.63L203.236 174.462C205.143 173.395 205.6 170.879 204.228 169.201L222.604 102.634C222.604 102.634 219.097 99.7364 213.607 97.7538C208.193 95.7713 183.106 93.9413 183.106 93.9413Z" fill="#4B8DF0"/>
<path d="M216.352 100.118C216.352 100.118 221.994 101.338 224.205 104.845C229.314 113.004 244.869 142.056 247.538 149.071C250.283 156.467 247.31 160.661 245.327 163.787C243.192 167.142 231.297 167.142 225.959 161.347C223.672 158.907 210.785 147.241 210.785 147.241L216.352 100.118Z" fill="#4B8DF0"/>
<path d="M222.833 110.869C222.833 110.869 222.757 111.098 222.604 111.479C222.452 111.86 222.223 112.394 221.918 113.08C221.308 114.453 220.545 116.512 219.63 119.104C217.8 124.213 215.513 131.381 213.149 139.387C210.785 147.317 208.65 154.561 207.125 159.822C206.363 162.415 205.676 164.55 205.219 165.999C204.99 166.685 204.838 167.219 204.685 167.676C204.533 168.057 204.456 168.286 204.456 168.286C204.456 168.286 204.456 168.057 204.609 167.676C204.761 167.219 204.914 166.685 205.066 165.999C205.524 164.474 206.058 162.415 206.82 159.822C208.269 154.561 210.328 147.317 212.768 139.387C215.132 131.457 217.495 124.213 219.402 119.104C220.317 116.512 221.232 114.529 221.842 113.08C222.147 112.394 222.375 111.86 222.604 111.479C222.68 111.098 222.833 110.869 222.833 110.869Z" fill="#263238"/>
<path d="M160.765 96.9151C160.765 96.9151 154.817 100.27 152.682 102.253C150.547 104.235 128.053 136.184 125.155 146.173C123.478 151.968 129.883 163.94 136.746 163.33C145.743 162.567 179.37 149.681 179.37 149.681L171.821 133.287L152.758 136.337L166.56 122.459L161.375 96.61" fill="#4B8DF0"/>
<path d="M240.676 145.639C240.676 145.639 240.523 145.563 240.371 145.411C240.142 145.258 239.837 145.029 239.456 144.801C238.617 144.191 237.473 143.352 236.101 142.361C233.279 140.302 229.391 137.404 225.044 134.202C224.053 133.439 223.062 132.753 222.147 132.067L222.452 131.991C219.707 135.574 217.267 138.701 215.513 140.912C213.759 143.123 212.615 144.419 212.539 144.343C212.997 143.733 213.835 142.666 215.284 140.759C217.038 138.472 219.402 135.346 222.147 131.762L222.299 131.609L222.452 131.762C223.367 132.448 224.358 133.134 225.349 133.897C229.619 137.099 233.508 139.997 236.329 142.132C237.702 143.199 238.769 144.038 239.608 144.648C239.989 144.953 240.218 145.182 240.523 145.334C240.599 145.563 240.676 145.639 240.676 145.639Z" fill="#263238"/>
<path d="M187.376 127.416L172.279 134.202L178.302 147.241L187.758 141.064L187.376 127.416Z" fill="#FFAAA5"/>
<path d="M201.635 128.712L211.7 121.849C212.082 121.62 212.463 121.468 212.92 121.544L226.112 122.688C226.646 122.764 227.027 123.222 227.027 123.755C227.027 124.289 226.874 124.899 226.493 125.128C225.654 125.662 205.066 139.997 205.066 139.997L189.054 137.481L201.635 128.712Z" fill="#E0E0E0"/>
<path d="M187.376 127.416C187.376 127.416 192.866 123.374 194.086 123.145C195.383 122.917 201.101 122.917 201.101 122.917L205.981 125.662L203.008 127.721C200.949 127.263 200.339 126.424 200.339 126.424L196.984 126.653L187.376 127.416Z" fill="#FFAAA5"/>
<path d="M193.476 125.662L202.093 128.636L214.445 130.389C214.445 130.389 214.522 132.906 212.005 133.134C210.48 133.287 207.888 133.439 207.888 133.439C207.888 133.439 207.278 135.727 205.295 136.261C205.295 136.261 204.457 137.862 203.465 138.472C203.313 138.548 203.236 138.624 203.084 138.624C201.864 139.006 199.5 142.208 197.899 142.666C196.298 143.123 187.681 141.064 187.681 141.064L187.3 127.416L193.476 125.662Z" fill="#FFAAA5"/>
<path d="M196.069 132.677C196.069 132.677 196.755 132.829 197.823 133.058C198.89 133.287 200.415 133.516 202.169 133.592C203.846 133.668 205.448 133.668 206.515 133.592C207.659 133.516 208.345 133.439 208.345 133.439C208.345 133.439 208.193 133.516 207.888 133.592C207.583 133.668 207.125 133.744 206.591 133.744C205.448 133.897 203.923 133.897 202.169 133.821C200.415 133.744 198.89 133.439 197.823 133.211C197.289 133.058 196.831 132.982 196.526 132.829C196.221 132.753 196.069 132.677 196.069 132.677Z" fill="#C75B54"/>
<path d="M197.67 136.261C197.67 136.261 197.67 136.566 197.594 137.099C197.518 137.328 197.441 137.709 197.136 137.938C196.831 138.167 196.45 138.319 195.993 138.319C195.535 138.319 195.23 138.167 194.849 138.014C194.544 137.862 194.239 137.709 194.01 137.557C193.553 137.328 193.248 137.176 193.248 137.176C193.248 137.176 193.553 137.176 194.086 137.404C194.544 137.633 195.154 138.014 195.916 138.091C196.298 138.091 196.679 138.014 196.908 137.786C197.136 137.557 197.289 137.328 197.365 137.099C197.594 136.566 197.67 136.184 197.67 136.261Z" fill="#C75B54"/>
<path d="M204.075 137.099C204.075 137.099 203.694 137.252 203.16 137.328C202.55 137.404 201.788 137.557 200.873 137.633C199.958 137.709 199.119 137.709 198.509 137.633C197.899 137.633 197.518 137.557 197.518 137.557C197.518 137.481 198.966 137.557 200.796 137.404C202.626 137.252 204.075 137.023 204.075 137.099Z" fill="#C75B54"/>
<path d="M197.518 140.607C197.518 140.683 196.984 141.064 196.069 141.217C195.23 141.369 194.544 141.141 194.544 141.064C194.544 140.988 195.23 141.141 196.069 140.988C196.908 140.912 197.518 140.607 197.518 140.607Z" fill="#C75B54"/>
<path d="M200.644 140.454C200.644 140.531 200.263 140.607 199.729 140.683C199.195 140.759 198.814 140.759 198.738 140.683C198.738 140.607 199.119 140.531 199.653 140.454C200.186 140.454 200.644 140.454 200.644 140.454Z" fill="#C75B54"/>
<path d="M202.093 128.636C202.093 128.712 200.263 128.102 198.051 127.263C196.984 126.805 195.993 126.424 195.306 126.119C194.62 125.814 194.163 125.585 194.163 125.509C194.163 125.509 194.62 125.662 195.306 125.967C196.069 126.272 197.06 126.653 198.128 127.034C199.195 127.415 200.11 127.797 200.949 128.102C201.711 128.407 202.093 128.559 202.093 128.636Z" fill="#C75B54"/>
<path d="M214.75 131.762C214.75 131.762 213.759 131.457 214.827 129.932C215.894 128.407 218.715 130.237 218.715 130.237L222.375 132.448C222.375 132.448 223.214 134.354 222.147 134.888L221.384 135.803C221.384 135.803 222.833 137.252 222.223 138.548C221.613 139.844 220.24 139.616 220.24 139.616C220.24 139.616 220.393 142.208 219.554 143.199C218.715 144.191 217.953 144.267 217.953 144.267C217.953 144.267 217.267 146.402 214.75 147.012C212.31 147.622 211.014 147.698 210.328 146.631C209.642 145.563 209.26 144.267 209.26 144.267C209.26 144.267 203.999 141.522 203.846 140.073C203.77 138.701 203.999 138.548 203.999 138.548C203.999 138.548 203.541 137.404 204.075 136.489C204.609 135.651 206.744 136.413 206.744 136.413L213.53 138.014C213.53 138.014 208.117 135.498 207.507 134.659C206.897 133.821 207.583 132.829 209.718 133.058C211.929 133.287 218.487 134.583 218.487 134.583C218.487 134.583 218.182 133.897 217.724 133.744C217.267 133.592 215.894 132.753 215.894 132.753L214.75 131.762Z" fill="#FFAAA5"/>
<path d="M216.352 141.979C216.352 142.056 213.607 141.369 210.252 140.378C206.896 139.463 204.151 138.624 204.228 138.624C204.228 138.548 206.973 139.234 210.328 140.226C213.683 141.141 216.428 141.903 216.352 141.979Z" fill="#C75B54"/>
<path d="M213.149 145.639C213.149 145.716 212.234 145.487 211.167 145.106C210.633 144.953 210.175 144.724 209.794 144.572C209.642 144.496 209.489 144.419 209.413 144.343C209.337 144.343 209.337 144.267 209.337 144.267V144.191C209.26 144.191 210.175 144.496 211.243 144.801C212.31 145.258 213.149 145.639 213.149 145.639Z" fill="#C75B54"/>
<path d="M218.944 139.006C218.944 139.082 217.648 138.777 215.97 138.548C214.369 138.243 212.997 138.091 212.997 138.014C212.997 137.938 214.369 138.014 215.97 138.319C217.648 138.548 218.944 138.929 218.944 139.006Z" fill="#C75B54"/>
<path d="M220.622 135.498C220.545 135.574 220.012 135.193 219.325 134.888C218.563 134.583 217.953 134.583 217.953 134.507C217.953 134.43 218.639 134.43 219.402 134.659C220.164 134.964 220.622 135.498 220.622 135.498Z" fill="#C75B54"/>
<path d="M226.493 123.832C226.493 123.832 226.417 123.832 226.264 123.832C226.112 123.832 225.807 123.755 225.578 123.755C224.968 123.679 224.053 123.527 222.985 123.45C220.774 123.222 217.8 122.917 214.369 122.84C213.53 122.84 212.692 122.764 212.005 123.145C211.7 123.298 211.395 123.527 211.014 123.755C210.709 123.984 210.404 124.213 210.099 124.365C208.879 125.204 207.811 125.967 206.896 126.577C205.981 127.187 205.295 127.721 204.761 128.102C204.533 128.254 204.304 128.407 204.151 128.483C203.999 128.559 203.923 128.636 203.923 128.636C203.923 128.636 203.999 128.559 204.075 128.483C204.228 128.331 204.38 128.254 204.609 128.026C205.143 127.644 205.829 127.111 206.744 126.501C207.659 125.814 208.726 125.052 209.87 124.213C210.175 123.984 210.48 123.755 210.785 123.527C211.09 123.298 211.395 123.069 211.777 122.84C212.158 122.612 212.539 122.535 212.997 122.535C213.454 122.535 213.835 122.535 214.217 122.535C217.572 122.612 220.622 122.917 222.833 123.222C223.9 123.374 224.815 123.527 225.425 123.603C225.73 123.679 225.959 123.679 226.112 123.755C226.417 123.832 226.493 123.832 226.493 123.832Z" fill="#263238"/>
<path d="M218.258 125.052C218.182 124.899 217.877 124.747 217.648 124.823H217.572C217.572 124.823 217.572 124.823 217.495 124.823C217.267 124.899 217.114 124.975 216.962 125.128C216.809 125.357 216.809 125.662 216.962 125.814C217.038 125.89 217.19 125.967 217.343 125.967C217.648 126.043 217.877 125.967 218.105 125.738C218.258 125.585 218.334 125.28 218.258 125.052Z" fill="white"/>
<path d="M188.215 51.6982C187.757 51.4694 187.224 51.1644 186.766 50.9356C186.08 50.5544 185.317 50.1731 184.555 50.4019C183.869 50.6306 183.335 51.3169 182.572 51.3931C181.734 51.4694 180.971 50.7069 180.132 50.7831C179.294 50.7831 178.684 51.5457 177.845 51.5457C177.235 51.5457 176.625 51.0881 176.091 51.3931C176.015 51.4694 175.862 51.5456 175.786 51.6219C175.176 52.0032 174.414 51.7744 173.727 51.5457C173.117 51.2406 172.355 50.9356 171.669 51.1644C171.211 51.3169 170.906 51.6982 170.601 52.0032C170.296 52.3082 169.838 52.6132 169.381 52.5369C169.152 52.4607 168.923 52.3082 168.695 52.2319C167.932 52.0032 167.246 52.8419 166.483 53.0707C165.721 53.2994 164.882 52.9182 164.196 53.2232C163.662 53.4519 163.433 54.1382 163.662 54.6719C163.891 55.2057 164.425 55.5107 164.958 55.6632C165.568 55.8157 166.178 55.7395 166.788 55.5107C167.246 55.3582 167.703 55.1294 168.237 55.2057C169.381 55.2819 170.296 56.4257 171.364 56.197C171.897 56.0445 172.279 55.6632 172.736 55.3582C173.346 54.9007 174.185 54.6719 174.947 54.6719C175.481 54.6719 176.015 54.7482 176.549 54.5957C177.159 54.3669 177.464 53.7569 178.15 53.5282C178.836 53.3757 179.522 53.7569 180.209 53.6807C180.666 53.6044 181.047 53.3757 181.505 53.3757C182.115 53.3757 182.725 53.7569 183.411 53.6807C184.097 53.6044 184.631 53.0707 185.317 53.1469C185.546 53.1469 185.775 53.2994 186.08 53.3757C186.309 53.4519 186.614 53.4519 186.842 53.2994C186.995 53.1469 186.995 52.9182 187.224 52.8419C187.376 52.7657 187.529 52.7657 187.681 52.7657C188.367 52.8419 189.13 52.9182 189.816 52.9944L188.215 51.6982Z" fill="#263238"/>
<path d="M190.503 51.622C189.816 51.0882 188.825 50.5544 187.986 51.012C187.681 51.1645 187.452 51.4695 187.147 51.622C186.461 51.927 185.622 51.5457 184.936 51.6982C184.326 51.8507 183.945 52.4607 183.335 52.6895C182.42 53.147 181.047 52.842 180.514 53.6807C180.209 54.1382 180.132 54.8245 179.599 54.977C179.37 55.0533 179.217 54.977 178.989 54.9008C178.379 54.7483 177.616 54.7483 177.006 54.8245C176.625 54.9008 176.244 55.0533 175.939 55.282C175.405 55.7395 175.405 56.6545 174.871 57.112C174.109 57.8745 172.66 57.4933 171.669 58.0271C171.211 58.2558 170.83 58.7133 170.448 59.0183C169.686 59.7046 168.771 60.0858 167.856 60.6196C166.941 61.0771 166.102 61.6871 165.568 62.5259C165.111 63.3646 165.111 64.5084 165.873 65.1184C166.255 65.4234 166.788 65.4996 167.17 65.1946C167.322 65.1184 167.398 64.9659 167.475 64.8134C167.703 64.5846 168.085 64.5084 168.39 64.3559C168.695 64.2034 169 63.9746 169 63.6696C169 63.4409 168.847 63.2121 169.076 63.1359C169.152 63.0596 169.228 63.0596 169.305 63.0596C170.143 62.9834 171.135 62.9834 171.516 62.3734C171.745 62.0684 171.745 61.7633 171.821 61.3821C172.05 60.8483 172.507 60.4671 173.117 60.3146C173.575 60.2383 174.185 60.2383 174.566 60.0096C175.024 59.7046 175.024 59.0183 175.405 58.6371C176.091 58.0271 177.464 58.4846 178.074 57.7983C178.226 57.6458 178.302 57.417 178.531 57.2645C179.065 56.8833 179.751 57.6458 180.361 57.4933C180.895 57.417 181.124 56.7308 181.505 56.3495C181.962 55.892 182.801 55.8158 183.411 55.5108C184.174 55.1295 184.784 54.367 185.622 54.1382C186.385 53.9095 187.224 54.062 187.834 53.5282C188.062 53.2995 188.215 53.0707 188.444 52.9945C188.596 52.9182 188.749 52.9945 188.978 52.9945C189.816 53.0707 190.655 52.9182 191.418 52.537L190.503 51.622Z" fill="#263238"/>
<path d="M189.283 53.6044C187.452 53.2994 185.47 53.9094 184.097 55.1294C183.792 55.4344 183.487 55.7394 183.106 55.9682C182.496 56.2732 181.81 56.1207 181.2 56.1969C179.827 56.3494 178.531 57.3407 178.074 58.7132C177.769 59.552 177.692 60.772 176.854 61.077C176.701 61.1533 176.549 61.1533 176.396 61.2295C175.862 61.6108 176.244 62.4495 176.244 63.212C176.244 64.3558 174.947 65.1183 174.947 66.2621C174.947 66.7196 175.1 67.1008 175.252 67.4821C175.71 68.5496 176.167 69.6171 176.701 70.6846C176.93 71.1421 177.235 71.6759 177.769 71.7521C178.531 71.8284 178.912 70.9896 179.141 70.2271C179.294 69.6934 179.446 69.0834 179.217 68.6258C178.989 68.2446 178.531 68.0158 178.379 67.5583C178.074 66.8721 178.531 66.1858 178.912 65.4996C179.599 64.2795 179.827 62.7545 179.522 61.3058C180.285 61.1532 180.666 60.0857 181.505 59.9332C181.734 59.857 181.962 59.9332 182.191 59.857C182.725 59.6282 182.801 58.8657 183.259 58.4845C183.792 58.1032 184.784 58.4082 185.012 57.7982C185.089 57.5695 185.012 57.3407 185.165 57.1882C185.241 57.0357 185.394 57.0357 185.622 56.9594C186.232 56.8069 186.919 56.6544 187.529 56.5019C187.91 56.4257 188.291 56.2732 188.52 56.0444C188.977 55.5869 189.054 54.6719 189.74 54.4432L189.283 53.6044Z" fill="#263238"/>
<path d="M191.341 49.7919C191.265 48.6481 191.036 47.2756 190.045 46.8181C189.435 46.5131 188.749 46.6656 188.139 46.3606C186.995 45.8268 186.919 43.9968 185.851 43.4631C184.784 42.9293 183.335 43.7681 182.42 42.9293C181.962 42.4718 181.886 41.7855 181.505 41.2518C181.047 40.6418 180.285 40.4893 179.522 40.413C178.76 40.3368 178.074 40.413 177.387 40.108C176.244 39.5743 175.481 38.2017 174.261 38.1255C173.194 38.0492 172.431 38.9643 171.745 39.803C171.592 40.0318 171.44 40.2605 171.364 40.4893C171.287 40.9468 171.669 41.4043 172.05 41.633C172.889 42.0905 173.956 42.0143 174.719 42.6243C175.024 42.8531 175.252 43.1581 175.557 43.3106C176.015 43.5393 176.549 43.4631 177.006 43.7681C177.845 44.3018 177.845 45.6743 178.684 46.2081C179.446 46.7419 180.514 46.1319 181.352 46.3606C182.572 46.6656 183.259 48.3431 184.479 48.4194C185.012 48.4194 185.546 48.1144 186.08 48.0381C186.766 47.9619 187.529 48.4194 187.834 49.0294C188.062 49.4869 188.062 49.9444 188.291 50.4019C188.596 50.9357 189.13 51.2407 189.74 51.3169C190.35 51.3932 190.884 51.3169 191.494 51.2407L191.341 49.7919Z" fill="#263238"/>
<path d="M190.35 53.2995C189.587 51.8507 188.672 50.3257 187.071 49.6394C186.309 49.3344 185.394 49.2582 184.631 48.8007C184.021 48.4194 183.564 47.8857 182.954 47.4282C181.581 46.4369 179.675 46.5131 177.997 46.8181C176.32 47.0469 174.566 47.5044 172.965 47.1232C171.516 46.7419 170.22 45.7506 168.695 45.6744C167.856 45.5981 167.093 45.8269 166.255 46.0556C165.34 46.3606 164.425 46.5894 163.51 46.8944C163.205 46.9707 162.9 47.1232 162.747 47.3519C162.442 47.8857 163.052 48.4194 163.586 48.6482C164.501 49.0294 165.492 49.1057 166.407 48.9532C167.17 48.8007 167.932 48.4957 168.695 48.6482C169.228 48.7244 169.686 49.0294 170.22 49.1057C170.83 49.2582 171.516 49.1819 172.202 49.1057C173.194 49.0294 174.261 48.8769 175.252 48.8007C176.015 48.7244 176.854 48.6482 177.616 49.0294C178.15 49.3344 178.607 49.7919 179.217 49.8682C179.904 49.9444 180.514 49.4107 181.2 49.5632C182.039 49.7157 182.42 50.6307 183.182 50.9357C184.021 51.317 185.165 50.8595 186.004 51.317C186.537 51.622 186.842 52.3082 187.147 52.7657C187.452 53.2232 187.834 53.6045 188.291 53.8332C188.901 54.2145 189.587 54.367 190.274 54.5195L190.35 53.2995Z" fill="#263238"/>
<path d="M192.028 46.8943C191.646 46.3606 191.113 45.9031 191.265 45.2931C191.341 44.9881 191.57 44.7593 191.646 44.4543C191.723 43.9205 191.189 43.463 190.96 42.9293C190.731 42.3193 190.96 41.5568 190.579 41.023C190.198 40.413 189.435 40.3367 188.749 40.1842C187.986 40.0317 187.3 39.5742 187.071 38.888C186.919 38.4305 186.995 37.8967 186.995 37.363C186.843 36.0667 185.546 34.9992 184.25 34.9229C183.869 34.9229 183.487 34.9229 183.106 34.7704C182.496 34.4654 182.344 33.6267 181.962 33.0166C181.429 32.1779 180.437 31.7204 179.446 31.9491C178.989 32.0254 178.455 32.4829 178.76 32.8641C178.836 33.0166 179.065 33.0929 179.217 33.1691C179.751 33.6267 179.37 34.4654 179.675 35.0754C179.98 35.6854 180.971 35.8379 181.276 36.4479C181.505 36.9817 181.276 37.5917 181.429 38.0492C181.657 38.6592 182.496 38.8117 183.182 38.8117C183.869 38.888 184.631 38.9642 184.936 39.6505C185.012 39.9555 185.012 40.2605 185.089 40.4892C185.165 41.023 185.546 41.4805 186.004 41.7093C186.614 42.0143 187.529 42.0143 187.91 42.6243C188.368 43.3105 187.758 44.3018 188.139 44.9881C188.444 45.5218 189.13 45.6743 189.588 45.9793C189.74 46.0556 189.816 46.1318 189.816 46.2843C189.816 46.4368 189.816 46.5893 189.74 46.6656C189.359 47.5043 188.825 48.4194 189.206 49.2581C189.359 49.5631 189.664 49.8681 189.893 50.0969C190.731 50.9356 191.341 52.0032 191.646 53.1469L192.333 50.0206C192.79 49.1056 192.714 47.8093 192.028 46.8943Z" fill="#263238"/>
<path d="M195.916 36.3717C196.221 35.4567 195.84 34.3891 195.001 34.0079C194.163 33.5504 193.019 34.0079 192.714 34.8466C192.409 35.8379 193.248 37.0579 192.714 37.9729C192.561 38.2017 192.333 38.4304 192.256 38.7354C192.104 39.4217 192.943 39.9555 192.943 40.6417C192.943 41.4042 191.951 41.8617 191.799 42.548C191.57 43.3868 192.409 44.3018 192.104 45.1405C192.028 45.3693 191.875 45.598 191.723 45.7505C190.808 47.0468 191.265 48.8006 191.799 50.3256L193.858 50.0206C193.476 48.6481 195.459 47.1993 194.773 45.903C194.468 45.293 193.553 44.8355 193.781 44.2255C193.858 44.073 193.934 43.9205 194.086 43.768C194.696 43.0818 195.306 42.3955 195.993 41.7092C196.298 41.4042 196.526 41.0992 196.603 40.6417C196.679 39.7267 195.535 39.193 195.459 38.2779C195.23 37.6679 195.764 37.0579 195.916 36.3717Z" fill="#263238"/>
<path d="M196.603 47.8094C196.45 47.1231 195.535 46.9706 194.849 47.0469C192.943 47.3519 191.57 48.8769 190.426 50.4019C189.13 52.0032 187.757 53.6045 186.69 55.4345C186.461 55.8158 186.232 56.2733 186.156 56.7308C186.08 57.1883 186.232 57.722 186.614 57.9508C186.995 58.1795 187.605 58.1033 187.834 57.6458L188.367 57.4933C190.197 54.4432 192.638 51.6982 195.459 49.5632C196.145 49.1057 196.831 48.4957 196.603 47.8094Z" fill="#4B8DF0"/>
<path d="M186.309 76.556C185.851 72.8197 185.394 69.0834 185.622 65.3471C185.851 61.6108 186.69 57.8745 188.596 54.672C188.901 54.2145 191.189 51.012 191.799 51.1645C192.18 51.317 190.503 54.367 190.655 54.7482C191.951 58.4083 191.646 62.4496 190.655 66.1859C189.588 69.846 188.139 73.1247 186.309 76.556Z" fill="#263238"/>
<path d="M202.931 100.88C203.465 98.2875 203.923 96.2287 203.923 96.2287C203.923 96.2287 212.997 97.0675 215.284 88.3749C216.428 84.181 217.953 75.3359 219.325 67.3296C220.774 58.7132 215.36 50.4018 206.896 48.3431L206.058 48.1143C196.831 46.3605 190.197 53.2231 188.749 62.4495L182.496 94.6274L196.908 109.649L202.931 100.88Z" fill="#FFAAA5"/>
<path d="M203.923 96.2288C203.923 96.2288 198.356 95.1613 193.4 89.9762C193.4 89.9762 194.544 96.9913 203.465 98.4401L203.923 96.2288Z" fill="#C75B54"/>
<path d="M214.827 74.2686C214.674 74.9548 213.988 75.3361 213.302 75.2598C212.615 75.1073 212.158 74.4973 212.31 73.8111C212.463 73.1248 213.149 72.7436 213.835 72.8198C214.522 72.9723 214.979 73.5823 214.827 74.2686Z" fill="#263238"/>
<path d="M216.504 70.4559C216.275 70.6084 215.513 69.6172 214.217 69.3122C212.844 68.9309 211.7 69.3884 211.624 69.2359C211.548 69.1597 211.777 68.8547 212.31 68.7022C212.844 68.4734 213.607 68.3972 214.445 68.6259C215.284 68.8547 215.894 69.3122 216.199 69.7697C216.58 70.0747 216.657 70.4559 216.504 70.4559Z" fill="#263238"/>
<path d="M202.703 71.9047C202.55 72.591 201.864 72.9723 201.178 72.896C200.491 72.7435 200.034 72.1335 200.186 71.4472C200.339 70.761 201.025 70.3797 201.711 70.456C202.398 70.6085 202.855 71.2947 202.703 71.9047Z" fill="#263238"/>
<path d="M203.236 67.711C203.008 67.8635 202.245 66.8722 200.949 66.5672C199.576 66.186 198.433 66.6435 198.356 66.491C198.28 66.4147 198.509 66.1097 199.043 65.9572C199.576 65.7285 200.339 65.6522 201.178 65.881C202.016 66.1097 202.626 66.5672 202.931 67.0247C203.313 67.3297 203.389 67.711 203.236 67.711Z" fill="#263238"/>
<path d="M205.524 79.2249C205.524 79.1486 206.439 79.2249 207.811 79.3774C208.193 79.4536 208.498 79.4536 208.65 79.2249C208.803 78.9961 208.727 78.6149 208.65 78.1574C208.574 77.2423 208.421 76.3273 208.269 75.2598C207.811 71.2185 207.583 67.8635 207.735 67.8635C207.888 67.8635 208.421 71.1423 208.879 75.1836C208.955 76.1748 209.108 77.1661 209.184 78.0811C209.184 78.5386 209.337 78.9961 209.032 79.4536C208.879 79.6824 208.574 79.8349 208.345 79.8349C208.116 79.8349 207.888 79.8349 207.735 79.7586C206.286 79.5299 205.448 79.3011 205.524 79.2249Z" fill="#263238"/>
<path d="M201.33 79.1486C201.559 79.2249 201.178 80.6736 202.169 81.9699C203.16 83.3424 204.761 83.5712 204.685 83.7237C204.685 83.7999 204.304 83.9524 203.618 83.7999C203.008 83.6474 202.093 83.1899 201.483 82.4274C200.873 81.5887 200.796 80.6736 200.873 80.0636C200.949 79.4536 201.178 79.1486 201.33 79.1486Z" fill="#263238"/>
<path d="M204.533 62.297C204.304 62.602 203.008 62.1445 201.406 61.9158C199.805 61.687 198.433 61.8395 198.28 61.4583C198.204 61.3058 198.509 61.0008 199.119 60.772C199.729 60.5433 200.644 60.3908 201.559 60.5433C202.55 60.6958 203.389 61.077 203.846 61.4583C204.456 61.7633 204.685 62.1445 204.533 62.297Z" fill="#263238"/>
<path d="M217.114 65.8809C216.809 66.1097 215.97 65.5759 214.827 65.2709C213.759 64.9659 212.692 64.9659 212.615 64.5846C212.539 64.4321 212.768 64.1271 213.302 63.9746C213.759 63.8221 214.522 63.7459 215.284 63.9746C216.047 64.2034 216.657 64.6609 216.962 65.0421C217.19 65.4234 217.267 65.8047 217.114 65.8809Z" fill="#263238"/>
<path d="M187.757 69.0834C187.605 69.0072 182.191 65.8046 180.895 71.8285C179.599 77.8523 185.927 77.9286 185.927 77.776C186.004 77.5473 187.757 69.0834 187.757 69.0834Z" fill="#FFAAA5"/>
<path d="M184.631 75.031C184.631 75.031 184.479 75.1072 184.326 75.1072C184.174 75.1835 183.792 75.1073 183.564 74.9547C182.954 74.5735 182.649 73.4297 182.877 72.3622C182.954 71.8285 183.182 71.2947 183.487 70.9134C183.792 70.5322 184.097 70.3034 184.479 70.3034C184.784 70.3034 185.012 70.5322 185.012 70.7609C185.089 70.9134 185.012 71.0659 185.012 71.0659C185.012 71.0659 185.165 70.9897 185.165 70.7609C185.165 70.6084 185.089 70.4559 185.012 70.3034C184.86 70.1509 184.707 70.0747 184.479 69.9984C184.021 69.9222 183.487 70.2272 183.182 70.6847C182.877 71.1422 182.572 71.676 182.42 72.286C182.191 73.506 182.572 74.8022 183.411 75.1835C183.792 75.4123 184.174 75.336 184.402 75.2598C184.555 75.1835 184.631 75.1073 184.631 75.031Z" fill="#C75B54"/>
<path d="M217.495 56.5782C218.563 56.2732 216.352 52.4607 214.14 50.8594C210.862 48.4956 205.524 46.2843 202.016 46.5131C197.746 46.8181 194.01 48.1144 191.189 51.3932C188.444 54.5957 186.766 58.7133 186.004 62.9071C185.775 64.2033 185.622 65.5759 186.08 66.7959C186.614 68.3209 188.062 69.4646 187.605 71.2947C187.452 71.9809 187.452 72.6672 187.834 73.2772C188.672 74.6497 190.274 73.8872 191.113 72.896C192.943 70.8372 193.629 68.0159 194.315 65.3471C194.773 63.4408 195.306 61.5345 195.154 59.552C195.078 58.4845 194.773 57.417 194.773 56.3495C194.773 55.282 195.001 54.1382 195.84 53.4519C195.993 53.3757 196.145 53.2232 196.45 53.0707C198.433 51.9269 200.949 52.0032 202.931 53.1469C206.058 55.0532 211.472 58.027 213.225 57.1882C215.742 55.9682 216.504 54.977 216.504 54.977L217.495 56.5782Z" fill="#263238"/>
<path d="M153.368 159.136C153.368 159.136 153.521 159.06 153.826 158.907C154.207 158.755 154.665 158.602 155.275 158.373C156.571 157.916 158.401 157.23 160.688 156.391C165.34 154.713 171.821 152.273 179.294 149.528L179.217 149.757C177.692 146.402 176.015 142.742 174.261 138.929C173.346 137.023 172.507 135.117 171.669 133.363L171.897 133.439C164.806 134.507 158.401 135.498 153.216 136.261C148.946 137.481 145.667 139.158 143.532 140.531C142.464 141.217 141.626 141.751 141.092 142.132C140.863 142.285 140.634 142.437 140.482 142.59C140.329 142.666 140.253 142.742 140.253 142.742C140.253 142.742 140.329 142.666 140.482 142.59C140.634 142.437 140.863 142.285 141.092 142.132C141.626 141.751 142.388 141.141 143.456 140.454C145.591 139.082 148.793 137.328 153.14 136.108C158.325 135.269 164.73 134.278 171.821 133.211H171.974L172.05 133.363C172.889 135.193 173.727 137.023 174.642 138.929C176.396 142.742 178.074 146.402 179.599 149.757L179.675 149.91L179.446 149.986C171.897 152.731 165.416 155.018 160.765 156.696C158.477 157.535 156.647 158.145 155.351 158.602C154.741 158.831 154.283 158.983 153.902 159.06C153.597 159.06 153.368 159.136 153.368 159.136Z" fill="#263238"/>
<path d="M164.577 124.823C164.653 124.823 164.043 125.585 163.052 126.729C162.061 127.873 160.688 129.398 159.087 130.999C157.486 132.677 156.037 134.126 154.893 135.117C154.36 135.651 153.902 136.032 153.521 136.261C153.368 136.337 153.216 136.489 153.063 136.413C152.987 136.337 152.987 136.261 152.987 136.261V136.184C152.987 136.184 152.987 136.261 153.063 136.261C153.14 136.261 153.292 136.184 153.445 136.032C153.75 135.803 154.207 135.346 154.741 134.812C155.808 133.744 157.257 132.296 158.782 130.618C160.307 129.017 161.68 127.568 162.823 126.424C163.891 125.433 164.501 124.747 164.577 124.823Z" fill="#263238"/>
<path d="M168.161 117.274C168.085 117.274 168.313 116.054 168.313 114.148C168.313 113.157 168.237 112.013 168.008 110.793C167.78 109.573 167.475 108.2 166.941 106.828C166.407 105.455 165.721 104.235 165.111 103.168C164.425 102.1 163.738 101.185 163.052 100.499C161.756 99.0501 160.765 98.3638 160.841 98.2876C160.841 98.2876 161.07 98.4401 161.527 98.7451C161.756 98.8976 161.985 99.1264 162.29 99.3551C162.595 99.5839 162.9 99.8889 163.205 100.27C163.891 100.956 164.653 101.871 165.34 102.939C166.026 104.006 166.712 105.303 167.246 106.675C167.78 108.048 168.085 109.496 168.313 110.717C168.466 112.013 168.542 113.157 168.542 114.148C168.542 114.605 168.466 115.063 168.466 115.444C168.466 115.825 168.39 116.13 168.313 116.435C168.313 117.045 168.237 117.35 168.161 117.274Z" fill="#263238"/>
<path d="M187.681 174.157C187.681 174.081 188.673 174.157 190.198 174.157C191.723 174.157 193.858 173.852 196.069 173.242C198.28 172.556 200.263 171.641 201.559 170.802C202.855 169.964 203.618 169.43 203.694 169.43C203.694 169.43 203.541 169.582 203.236 169.887C202.931 170.192 202.398 170.574 201.788 171.031C200.491 171.87 198.585 172.937 196.298 173.624C194.01 174.31 191.799 174.462 190.274 174.462C189.511 174.462 188.901 174.386 188.444 174.31C187.91 174.234 187.605 174.234 187.681 174.157Z" fill="#263238"/>
<path d="M198.966 157.306C198.966 157.306 198.814 157.535 198.433 157.992C198.051 158.373 197.594 158.983 196.908 159.67C195.611 161.042 193.705 162.872 191.57 164.855C189.435 166.761 187.376 168.438 185.851 169.582C185.089 170.192 184.479 170.573 184.021 170.878C183.564 171.183 183.335 171.336 183.335 171.336C183.335 171.336 183.564 171.107 183.945 170.802C184.402 170.421 185.012 169.963 185.699 169.353C187.147 168.133 189.206 166.456 191.341 164.55C193.476 162.643 195.383 160.813 196.755 159.517C197.365 158.907 197.899 158.373 198.356 157.916C198.738 157.535 198.966 157.306 198.966 157.306Z" fill="#263238"/>
<defs>
<linearGradient id="paint0_linear_302_1163" x1="49.4306" y1="191.004" x2="49.4306" y2="213.684" gradientUnits="userSpaceOnUse">
<stop stop-color="#D9E8FF" stop-opacity="0.5"/>
<stop offset="1" stop-color="#5B9DFF"/>
</linearGradient>
<linearGradient id="paint1_linear_302_1163" x1="149.479" y1="196.042" x2="149.479" y2="227.218" gradientUnits="userSpaceOnUse">
<stop stop-color="#D9E8FF" stop-opacity="0.5"/>
<stop offset="1" stop-color="#5B9DFF"/>
</linearGradient>
<linearGradient id="paint2_linear_302_1163" x1="18.226" y1="93.1262" x2="18.226" y2="111.462" gradientUnits="userSpaceOnUse">
<stop stop-color="#D9E8FF" stop-opacity="0.5"/>
<stop offset="1" stop-color="#5B9DFF"/>
</linearGradient>
<linearGradient id="paint3_linear_302_1163" x1="277.098" y1="95.6545" x2="277.098" y2="118.335" gradientUnits="userSpaceOnUse">
<stop stop-color="#D9E8FF" stop-opacity="0.5"/>
<stop offset="1" stop-color="#5B9DFF"/>
</linearGradient>
<linearGradient id="paint4_linear_302_1163" x1="288.082" y1="171.431" x2="288.082" y2="186.412" gradientUnits="userSpaceOnUse">
<stop stop-color="#D9E8FF" stop-opacity="0.5"/>
<stop offset="1" stop-color="#5B9DFF"/>
</linearGradient>
<linearGradient id="paint5_linear_302_1163" x1="137.415" y1="71.6465" x2="137.415" y2="94.3272" gradientUnits="userSpaceOnUse">
<stop stop-color="#D9E8FF" stop-opacity="0.5"/>
<stop offset="1" stop-color="#5B9DFF"/>
</linearGradient>
<linearGradient id="paint6_linear_302_1163" x1="77.1077" y1="24.4068" x2="77.1077" y2="38.0152" gradientUnits="userSpaceOnUse">
<stop stop-color="#D9E8FF" stop-opacity="0.5"/>
<stop offset="1" stop-color="#5B9DFF"/>
</linearGradient>
<linearGradient id="paint7_linear_302_1163" x1="253.894" y1="40.7759" x2="253.894" y2="54.3843" gradientUnits="userSpaceOnUse">
<stop stop-color="#D9E8FF" stop-opacity="0.5"/>
<stop offset="1" stop-color="#5B9DFF"/>
</linearGradient>
</defs>
</svg>
