<svg width="224" height="90" viewBox="0 0 224 90" fill="none" xmlns="http://www.w3.org/2000/svg">
<path d="M16.2734 52.3966C16.2734 52.3966 14.2031 54.1896 10.6211 54.1896C7.16406 54.1896 2.25391 52.6466 2.25391 44.5255C2.25391 36.5255 7.62891 34.8888 10.6211 34.8888C14.2656 34.8888 16.2734 36.3419 16.2734 36.3419V35.6622C16.2734 35.6622 14.1445 34.3966 10.6211 34.3966C5.06641 34.3966 0 37.3615 0 44.5255C0 52.7677 6.45312 54.713 10.3438 54.713C14.2031 54.713 16.2734 53.0763 16.2734 53.0763V52.3966Z" fill="#4B8DF0"/>
<path d="M25.5597 54.1583H27.755V34.7677H25.5597V54.1583Z" fill="#4B8DF0"/>
<path d="M51.0328 34.7677H36.8922V35.2599H42.8492V54.1583H45.0757V35.2599H51.0328V34.7677Z" fill="#4B8DF0"/>
<path d="M74.4031 54.1583H76.782L68.2898 34.3966H68.1335L59.3367 54.1583H60.0164L63.5046 46.3771H71.0398L74.4031 54.1583ZM63.7195 45.8537L67.3328 37.7326L70.821 45.8537H63.7195Z" fill="#4B8DF0"/>
<path d="M97.1171 44.2755V44.8029H99.8945V53.4787C98.8437 53.881 97.457 54.1896 95.9101 54.1896C91.0937 54.1896 87.5429 51.7794 87.5429 44.5255C87.5429 36.5255 92.6367 34.8888 95.9101 34.8888C99.5546 34.8888 101.562 35.756 101.562 35.756V35.1388C101.562 35.1388 99.4335 34.3966 95.9101 34.3966C90.3554 34.3966 85.289 37.3615 85.289 44.5255C85.289 52.7677 91.7421 54.713 95.6328 54.713C99.4921 54.713 102.086 53.0763 102.086 53.0763V44.2755H97.1171Z" fill="#263238"/>
<path d="M124.867 54.1583L117.613 45.0177C119.898 44.7091 123.355 43.5997 123.355 39.6154C123.355 35.3537 118.723 34.7677 117.148 34.7677C115.637 34.7677 111.281 34.7677 111.281 34.7677V54.1583H113.476V45.1427H114.894L122.058 54.1583H124.867ZM113.476 35.2599H115.976C119.125 35.2599 121.008 36.5568 121.008 39.9552C121.008 43.4122 118.785 44.6466 115.172 44.6466H113.476V35.2599Z" fill="#263238"/>
<path d="M133.878 54.1583H136.073V34.7677H133.878V54.1583Z" fill="#263238"/>
<path d="M153.672 34.7677H145.672V54.1583H152.219C153.145 54.1583 163.488 54.6193 163.488 44.1544C163.488 35.6935 157.254 34.7677 153.672 34.7677ZM152.156 53.6622H147.867V35.2912H152.496C156.016 35.2912 161.203 36.588 161.203 44.1544C161.203 51.6896 156.387 53.6622 152.156 53.6622Z" fill="#263238"/>
<path d="M135.353 64.2812C135.353 64.0742 135.185 63.9023 134.978 63.9023C134.771 63.9023 134.599 64.0742 134.599 64.2812V88.8711C134.599 89.082 134.771 89.25 134.978 89.25H223.474C223.681 89.25 223.853 89.082 223.853 88.8711V0.375C223.853 0.167969 223.681 0 223.474 0H134.978C134.771 0 134.599 0.167969 134.599 0.375V24.9688C134.599 25.1758 134.771 25.3438 134.978 25.3438C135.185 25.3438 135.353 25.1758 135.353 24.9688V0.753906H223.099V88.4961H135.353V64.2812Z" fill="#263238"/>
<path d="M7.22787 71.5327C7.22787 71.5132 7.23569 71.5015 7.25912 71.5015C7.32162 71.4937 7.39194 71.4819 7.47787 71.4702C7.55991 71.4624 7.64194 71.4351 7.72787 71.3921C7.82162 71.3413 7.90366 71.2671 7.97787 71.1733C8.05991 71.0796 8.12631 70.9507 8.181 70.7827L10.1497 65.0952C10.1497 65.0874 10.1497 65.0757 10.1497 65.064C10.1497 65.0444 10.138 65.0171 10.1185 64.9858C10.1068 64.9468 10.1029 64.9194 10.1029 64.9077C10.1029 64.8882 10.1068 64.8765 10.1185 64.8765H11.5404C11.5404 64.8882 11.5443 64.8921 11.556 64.8921C11.5755 64.8921 11.5872 64.9038 11.5872 64.9233L13.6497 70.7202C13.6888 70.814 13.7201 70.8921 13.7435 70.9546C13.7747 71.0171 13.8099 71.0757 13.8529 71.1265C13.8919 71.1812 13.9466 71.228 14.0091 71.2671C14.0716 71.3101 14.1497 71.353 14.2435 71.3921C14.2943 71.4155 14.3568 71.439 14.431 71.4702C14.513 71.4937 14.5912 71.5015 14.6654 71.5015C14.6732 71.5015 14.681 71.5093 14.681 71.5171C14.6888 71.5288 14.6966 71.5405 14.6966 71.5483V71.7202C14.6966 71.7319 14.6888 71.7437 14.681 71.7515C14.681 71.7632 14.6732 71.7671 14.6654 71.7671H11.2279C11.2162 71.7671 11.2044 71.7632 11.1966 71.7515C11.1966 71.7437 11.1966 71.7319 11.1966 71.7202V71.5327C11.1966 71.5327 11.1966 71.5288 11.1966 71.5171C11.2044 71.5093 11.2162 71.5015 11.2279 71.5015C11.2357 71.5015 11.2474 71.5015 11.2591 71.5015C11.2787 71.4937 11.2943 71.4858 11.306 71.4858C11.3372 71.4858 11.3841 71.4858 11.4466 71.4858C11.5169 71.4858 11.5912 71.4819 11.6654 71.4702C11.7474 71.4624 11.8255 71.4507 11.8997 71.439C11.9818 71.4194 12.056 71.3921 12.1185 71.3608C12.1888 71.3218 12.2474 71.2749 12.2904 71.2202C12.3294 71.1577 12.3529 71.0913 12.3529 71.0171C12.3529 70.9976 12.3451 70.9702 12.3372 70.939L11.6966 69.1733C11.6966 69.1733 11.6888 69.1655 11.681 69.1421C11.6693 69.1108 11.6537 69.0874 11.6341 69.064C11.6224 69.0444 11.6029 69.0249 11.5716 69.0015C11.5482 68.9819 11.5169 68.9702 11.4779 68.9702H9.71225C9.66928 68.9702 9.63412 68.9819 9.60287 69.0015C9.57162 69.0249 9.54428 69.0444 9.52475 69.064C9.51303 69.0874 9.49741 69.1069 9.47787 69.1265C9.46616 69.1499 9.46225 69.1655 9.46225 69.1733C9.35678 69.478 9.26694 69.7319 9.19662 69.939C9.13412 70.1499 9.07553 70.3257 9.02475 70.4702C8.98178 70.6069 8.94662 70.7124 8.91537 70.7827C8.89194 70.8569 8.87241 70.9155 8.85287 70.9546C8.84116 70.9858 8.83725 71.0093 8.83725 71.0171C8.83725 71.0288 8.83725 71.0405 8.83725 71.0483C8.84506 71.0601 8.85287 71.0718 8.85287 71.0796C8.87241 71.1655 8.91928 71.2319 8.9935 71.2827C9.06381 71.3374 9.14194 71.3765 9.22787 71.4077C9.32162 71.439 9.41537 71.4663 9.50912 71.4858C9.61069 71.4976 9.70053 71.5015 9.77475 71.5015H9.89975C9.91928 71.5015 9.931 71.5093 9.931 71.5171C9.93881 71.5288 9.94662 71.5327 9.94662 71.5327V71.7202C9.94662 71.7319 9.93881 71.7437 9.931 71.7515C9.931 71.7632 9.91928 71.7671 9.89975 71.7671H7.25912C7.23569 71.7671 7.22787 71.7515 7.22787 71.7202V71.5327ZM9.77475 68.2671C9.77475 68.2788 9.76694 68.2944 9.75912 68.314C9.75912 68.3374 9.75912 68.353 9.75912 68.3608C9.75912 68.3843 9.76303 68.3999 9.77475 68.4077C9.78256 68.4194 9.806 68.4233 9.83725 68.4233H11.306C11.3372 68.4233 11.3568 68.4194 11.3685 68.4077C11.3763 68.3882 11.3841 68.3726 11.3841 68.3608C11.3841 68.3413 11.3841 68.3257 11.3841 68.314C11.3841 68.2944 11.3763 68.2788 11.3685 68.2671L10.7122 66.4858C10.7005 66.4351 10.681 66.3999 10.6497 66.3765C10.6185 66.3569 10.5872 66.3452 10.556 66.3452C10.5326 66.3452 10.5013 66.3608 10.4622 66.3921C10.431 66.4155 10.4076 66.4468 10.3997 66.4858L9.77475 68.2671Z" fill="#263238"/>
<path d="M16.5145 67.0327C16.5223 67.0249 16.534 67.0171 16.5457 67.0171C16.5653 67.0093 16.577 67.0015 16.577 67.0015C16.6395 67.0015 16.6707 67.0405 16.6707 67.1108V67.6421C16.6707 67.6538 16.6747 67.6655 16.6864 67.6733C16.7059 67.6851 16.7176 67.689 16.7176 67.689C16.7372 67.689 16.7528 67.6851 16.7645 67.6733C16.784 67.6655 16.7997 67.6577 16.8114 67.6577C16.9442 67.5757 17.0653 67.5093 17.1707 67.4546C17.2723 67.4038 17.3739 67.3608 17.4676 67.3296C17.5614 67.2983 17.6551 67.2788 17.7489 67.2671C17.8504 67.2593 17.9676 67.2515 18.0926 67.2515C18.3739 67.2515 18.6239 67.3218 18.8426 67.4546C19.0614 67.5796 19.2411 67.7515 19.3895 67.9702C19.5457 68.1812 19.6629 68.4194 19.7489 68.689C19.8309 68.9507 19.8739 69.2163 19.8739 69.4858C19.8739 69.6851 19.8426 69.8843 19.7801 70.0796C19.7254 70.2788 19.6551 70.4663 19.5614 70.6421C19.4676 70.8218 19.3465 70.9858 19.202 71.1421C19.0653 71.2983 18.9129 71.4351 18.7489 71.5483C18.5926 71.6538 18.4207 71.7358 18.2332 71.7983C18.0457 71.8608 17.8504 71.8921 17.6551 71.8921C17.5067 71.8921 17.3622 71.8804 17.2176 71.8608C17.0809 71.8491 16.9286 71.8218 16.7645 71.7827C16.7098 71.7827 16.6786 71.8022 16.6707 71.8452C16.6707 71.8843 16.6707 71.9272 16.6707 71.9702V73.9546C16.6707 74.0483 16.6903 74.1265 16.7332 74.189C16.7723 74.2515 16.827 74.3022 16.8895 74.3452C16.952 74.3843 17.0184 74.4155 17.0926 74.439C17.1629 74.4585 17.2372 74.4741 17.3114 74.4858C17.3817 74.5054 17.4442 74.5171 17.4989 74.5171C17.5614 74.5249 17.6082 74.5366 17.6395 74.5483C17.6707 74.5679 17.6864 74.5952 17.6864 74.6265C17.6864 74.6655 17.6707 74.6929 17.6395 74.7046H14.827C14.7957 74.6929 14.7801 74.6655 14.7801 74.6265C14.7801 74.5952 14.7957 74.5679 14.827 74.5483C14.8661 74.5366 14.9247 74.521 14.9989 74.5015C15.0809 74.4897 15.159 74.4702 15.2332 74.439C15.3153 74.4077 15.3817 74.353 15.4364 74.2827C15.4989 74.2085 15.5301 74.0991 15.5301 73.9546V68.3765C15.5301 68.3062 15.5067 68.2476 15.4676 68.2046C15.4247 68.1538 15.3739 68.1187 15.3114 68.0952C15.2489 68.0757 15.1747 68.0601 15.0926 68.0483C15.0184 68.0288 14.952 68.0093 14.8895 67.9858C14.8661 67.978 14.8504 67.9663 14.8426 67.9546C14.8309 67.9468 14.827 67.9233 14.827 67.8921C14.827 67.8726 14.827 67.8569 14.827 67.8452C14.8348 67.8257 14.8582 67.8101 14.8895 67.7983L16.5145 67.0327ZM17.6551 67.7983C17.4872 67.7983 17.3309 67.8257 17.1864 67.8765C17.0379 67.9194 16.8895 67.9976 16.7332 68.1108C16.7332 68.1108 16.7254 68.1187 16.7176 68.1265C16.7059 68.1382 16.702 68.1421 16.702 68.1421L16.6707 68.1733V70.7827C16.6707 70.7944 16.6707 70.8257 16.6707 70.8765C16.6707 70.9194 16.6747 70.9546 16.6864 70.9858C16.6942 71.0601 16.7372 71.1226 16.8114 71.1733C16.8817 71.228 16.9676 71.2749 17.0614 71.314C17.1629 71.3569 17.2645 71.3882 17.3582 71.4077C17.452 71.4312 17.5301 71.439 17.5926 71.439C17.7997 71.439 17.9754 71.4038 18.1239 71.3296C18.2801 71.2476 18.3973 71.1421 18.4832 71.0171C18.577 70.8843 18.6434 70.728 18.6864 70.5483C18.7254 70.3726 18.7489 70.1851 18.7489 69.9858C18.7489 69.8413 18.7372 69.6851 18.7176 69.5171C18.7059 69.3413 18.6786 69.1733 18.6395 69.0171C18.6082 68.853 18.5653 68.6968 18.5145 68.5483C18.4598 68.4038 18.3934 68.2788 18.3114 68.1733C18.2254 68.0601 18.1317 67.9702 18.0301 67.9077C17.9247 67.8374 17.7997 67.7983 17.6551 67.7983Z" fill="#263238"/>
<path d="M22.2055 67.0327C22.2133 67.0249 22.225 67.0171 22.2368 67.0171C22.2563 67.0093 22.268 67.0015 22.268 67.0015C22.3305 67.0015 22.3618 67.0405 22.3618 67.1108V67.6421C22.3618 67.6538 22.3657 67.6655 22.3774 67.6733C22.3969 67.6851 22.4086 67.689 22.4086 67.689C22.4282 67.689 22.4438 67.6851 22.4555 67.6733C22.475 67.6655 22.4907 67.6577 22.5024 67.6577C22.6352 67.5757 22.7563 67.5093 22.8618 67.4546C22.9633 67.4038 23.0649 67.3608 23.1586 67.3296C23.2524 67.2983 23.3461 67.2788 23.4399 67.2671C23.5414 67.2593 23.6586 67.2515 23.7836 67.2515C24.0649 67.2515 24.3149 67.3218 24.5336 67.4546C24.7524 67.5796 24.9321 67.7515 25.0805 67.9702C25.2368 68.1812 25.3539 68.4194 25.4399 68.689C25.5219 68.9507 25.5649 69.2163 25.5649 69.4858C25.5649 69.6851 25.5336 69.8843 25.4711 70.0796C25.4164 70.2788 25.3461 70.4663 25.2524 70.6421C25.1586 70.8218 25.0375 70.9858 24.893 71.1421C24.7563 71.2983 24.6039 71.4351 24.4399 71.5483C24.2836 71.6538 24.1118 71.7358 23.9243 71.7983C23.7368 71.8608 23.5414 71.8921 23.3461 71.8921C23.1977 71.8921 23.0532 71.8804 22.9086 71.8608C22.7719 71.8491 22.6196 71.8218 22.4555 71.7827C22.4008 71.7827 22.3696 71.8022 22.3618 71.8452C22.3618 71.8843 22.3618 71.9272 22.3618 71.9702V73.9546C22.3618 74.0483 22.3813 74.1265 22.4243 74.189C22.4633 74.2515 22.518 74.3022 22.5805 74.3452C22.643 74.3843 22.7094 74.4155 22.7836 74.439C22.8539 74.4585 22.9282 74.4741 23.0024 74.4858C23.0727 74.5054 23.1352 74.5171 23.1899 74.5171C23.2524 74.5249 23.2993 74.5366 23.3305 74.5483C23.3618 74.5679 23.3774 74.5952 23.3774 74.6265C23.3774 74.6655 23.3618 74.6929 23.3305 74.7046H20.518C20.4868 74.6929 20.4711 74.6655 20.4711 74.6265C20.4711 74.5952 20.4868 74.5679 20.518 74.5483C20.5571 74.5366 20.6157 74.521 20.6899 74.5015C20.7719 74.4897 20.85 74.4702 20.9243 74.439C21.0063 74.4077 21.0727 74.353 21.1274 74.2827C21.1899 74.2085 21.2211 74.0991 21.2211 73.9546V68.3765C21.2211 68.3062 21.1977 68.2476 21.1586 68.2046C21.1157 68.1538 21.0649 68.1187 21.0024 68.0952C20.9399 68.0757 20.8657 68.0601 20.7836 68.0483C20.7094 68.0288 20.643 68.0093 20.5805 67.9858C20.5571 67.978 20.5414 67.9663 20.5336 67.9546C20.5219 67.9468 20.518 67.9233 20.518 67.8921C20.518 67.8726 20.518 67.8569 20.518 67.8452C20.5258 67.8257 20.5493 67.8101 20.5805 67.7983L22.2055 67.0327ZM23.3461 67.7983C23.1782 67.7983 23.0219 67.8257 22.8774 67.8765C22.7289 67.9194 22.5805 67.9976 22.4243 68.1108C22.4243 68.1108 22.4164 68.1187 22.4086 68.1265C22.3969 68.1382 22.393 68.1421 22.393 68.1421L22.3618 68.1733V70.7827C22.3618 70.7944 22.3618 70.8257 22.3618 70.8765C22.3618 70.9194 22.3657 70.9546 22.3774 70.9858C22.3852 71.0601 22.4282 71.1226 22.5024 71.1733C22.5727 71.228 22.6586 71.2749 22.7524 71.314C22.8539 71.3569 22.9555 71.3882 23.0493 71.4077C23.143 71.4312 23.2211 71.439 23.2836 71.439C23.4907 71.439 23.6664 71.4038 23.8149 71.3296C23.9711 71.2476 24.0883 71.1421 24.1743 71.0171C24.268 70.8843 24.3344 70.728 24.3774 70.5483C24.4164 70.3726 24.4399 70.1851 24.4399 69.9858C24.4399 69.8413 24.4282 69.6851 24.4086 69.5171C24.3969 69.3413 24.3696 69.1733 24.3305 69.0171C24.2993 68.853 24.2563 68.6968 24.2055 68.5483C24.1508 68.4038 24.0844 68.2788 24.0024 68.1733C23.9164 68.0601 23.8227 67.9702 23.7211 67.9077C23.6157 67.8374 23.4907 67.7983 23.3461 67.7983Z" fill="#263238"/>
<path d="M26.459 69.4858C26.459 69.1851 26.5254 68.8921 26.6621 68.6108C26.7949 68.3296 26.9785 68.0874 27.209 67.8765C27.4355 67.6577 27.7012 67.4858 28.0059 67.3608C28.3066 67.228 28.623 67.1577 28.959 67.1577C29.3105 67.1577 29.6465 67.2202 29.959 67.3452C30.2793 67.4624 30.5605 67.6265 30.8027 67.8452C31.041 68.0562 31.2285 68.2983 31.3652 68.5796C31.5098 68.8608 31.584 69.1694 31.584 69.5015C31.584 69.8452 31.5137 70.1655 31.3809 70.4546C31.2559 70.7476 31.0762 71.0015 30.8496 71.2202C30.6191 71.4312 30.3496 71.5952 30.0371 71.7202C29.7246 71.8335 29.3809 71.8921 29.0059 71.8921C28.6387 71.8921 28.3027 71.8296 27.9902 71.7046C27.6777 71.5796 27.4043 71.4155 27.1777 71.2046C26.959 70.9858 26.7793 70.7319 26.6465 70.439C26.5215 70.1499 26.459 69.8296 26.459 69.4858ZM27.709 69.1733C27.709 69.353 27.7168 69.5327 27.7402 69.7202C27.7715 69.9077 27.8105 70.0913 27.8652 70.2671C27.916 70.4468 27.9824 70.6108 28.0684 70.7671C28.1504 70.9233 28.2441 71.064 28.3496 71.189C28.4629 71.3062 28.5879 71.3999 28.7246 71.4702C28.8691 71.5327 29.0293 71.564 29.209 71.564C29.3965 71.564 29.5566 71.5171 29.6934 71.4233C29.8379 71.3218 29.9512 71.189 30.0371 71.0327C30.1309 70.8687 30.1973 70.6851 30.2402 70.4858C30.2793 70.2905 30.3027 70.0913 30.3027 69.8921C30.3027 69.7358 30.2871 69.5718 30.2559 69.3921C30.2246 69.2163 30.1777 69.0405 30.1152 68.8608C30.0605 68.6851 29.9941 68.5171 29.9121 68.3608C29.8262 68.2046 29.7285 68.064 29.6152 67.939C29.498 67.814 29.373 67.7202 29.2402 67.6577C29.1035 67.5874 28.9512 67.5483 28.7871 67.5483C28.6074 67.5483 28.4512 67.603 28.3184 67.7046C28.1816 67.7983 28.0684 67.9233 27.9746 68.0796C27.8887 68.2358 27.8223 68.4155 27.7715 68.6108C27.7285 68.7983 27.709 68.9858 27.709 69.1733Z" fill="#263238"/>
<path d="M32.2864 71.7671C32.2629 71.7593 32.2473 71.7358 32.2395 71.7046C32.2395 71.6655 32.2395 71.6343 32.2395 71.6108C32.2395 71.603 32.2434 71.5796 32.2551 71.5483C32.2629 71.5093 32.2747 71.4819 32.2864 71.4702C32.3254 71.4507 32.384 71.4351 32.4583 71.4233C32.5403 71.4155 32.6184 71.3921 32.6926 71.3608C32.7747 71.3296 32.8411 71.2788 32.8958 71.2046C32.9583 71.1343 32.9895 71.0249 32.9895 70.8765V68.5327C32.9895 68.4507 32.9661 68.3882 32.927 68.3452C32.884 68.3062 32.8333 68.2749 32.7708 68.2515C32.7083 68.2202 32.634 68.2007 32.552 68.189C32.4778 68.1812 32.4114 68.1655 32.3489 68.1421C32.3254 68.1343 32.3098 68.1226 32.302 68.1108C32.2903 68.103 32.2864 68.0796 32.2864 68.0483C32.2864 68.0288 32.2864 68.0132 32.2864 68.0015C32.2942 67.9819 32.3176 67.9624 32.3489 67.939L33.9739 67.189C33.9817 67.1812 33.9934 67.1733 34.0051 67.1733C34.0247 67.1655 34.0364 67.1577 34.0364 67.1577C34.0989 67.1577 34.1301 67.1968 34.1301 67.2671V70.8765C34.1301 71.0249 34.1536 71.1343 34.2083 71.2046C34.2708 71.2788 34.3372 71.3296 34.4114 71.3608C34.4934 71.3921 34.5715 71.4155 34.6458 71.4233C34.7278 71.4351 34.7903 71.4507 34.8333 71.4702C34.8411 71.4819 34.8528 71.5093 34.8645 71.5483C34.8723 71.5796 34.8801 71.603 34.8801 71.6108C34.8801 71.6343 34.8723 71.6655 34.8645 71.7046C34.8645 71.7358 34.8528 71.7593 34.8333 71.7671H32.2864ZM32.7864 65.3921C32.7864 65.1851 32.8489 65.0171 32.9739 64.8921C33.0989 64.7671 33.2629 64.7046 33.4739 64.7046C33.6809 64.7046 33.8411 64.7671 33.9583 64.8921C34.0833 65.0171 34.1458 65.1851 34.1458 65.3921C34.1458 65.603 34.0833 65.7671 33.9583 65.8921C33.8411 66.0093 33.6809 66.064 33.4739 66.064C33.2629 66.064 33.0989 66.0093 32.9739 65.8921C32.8489 65.7671 32.7864 65.603 32.7864 65.3921Z" fill="#263238"/>
<path d="M37.109 67.0327C37.1168 67.0249 37.1285 67.0171 37.1403 67.0171C37.1598 67.0093 37.1754 67.0015 37.1871 67.0015C37.2379 67.0015 37.2653 67.0405 37.2653 67.1108V67.8765C37.2731 67.9077 37.2887 67.9233 37.3121 67.9233C37.3199 67.9233 37.3317 67.9233 37.3434 67.9233C37.3512 67.9233 37.3668 67.9194 37.3903 67.9077C37.5973 67.8062 37.7731 67.7163 37.9215 67.6421C38.066 67.5718 38.191 67.5093 38.2965 67.4546C38.3981 67.4038 38.4918 67.3687 38.5778 67.3452C38.6598 67.314 38.7418 67.2944 38.8278 67.2827C38.9098 67.2632 38.9996 67.2515 39.0934 67.2515C39.1949 67.2437 39.3199 67.2358 39.4684 67.2358C39.6324 67.2358 39.7731 67.2749 39.8903 67.3452C40.0035 67.4077 40.1012 67.4976 40.1871 67.6108C40.2692 67.728 40.3317 67.8569 40.3746 68.0015C40.4254 68.1499 40.4606 68.2983 40.484 68.4546C40.5153 68.603 40.5348 68.7476 40.5465 68.8921C40.5543 69.0405 40.5621 69.1733 40.5621 69.2983C40.5621 69.4155 40.5543 69.5249 40.5465 69.6265C40.5465 69.7202 40.5387 69.8257 40.5309 69.939C40.5309 70.0562 40.5231 70.1851 40.5153 70.3296C40.5153 70.478 40.5153 70.6538 40.5153 70.8608C40.5153 70.9546 40.5309 71.0405 40.5621 71.1108C40.6012 71.1733 40.6481 71.228 40.7028 71.2671C40.7653 71.3101 40.8278 71.3413 40.8903 71.3608C40.9606 71.3843 41.0309 71.3999 41.0934 71.4077C41.1637 71.4194 41.2262 71.4312 41.2809 71.439C41.3317 71.4507 41.3746 71.4624 41.4059 71.4702C41.4137 71.4819 41.4254 71.5093 41.4371 71.5483C41.4449 71.5796 41.4528 71.603 41.4528 71.6108C41.4528 71.6343 41.4449 71.6655 41.4371 71.7046C41.4371 71.7358 41.4254 71.7593 41.4059 71.7671H38.6871C38.6637 71.7593 38.6481 71.7358 38.6403 71.7046C38.6285 71.6655 38.6246 71.6343 38.6246 71.6108C38.6246 71.603 38.6285 71.5796 38.6403 71.5483C38.6481 71.5093 38.6637 71.4819 38.6871 71.4702C38.7262 71.4507 38.7809 71.4351 38.8434 71.4233C38.9137 71.4155 38.9879 71.3921 39.0621 71.3608C39.1324 71.3218 39.2028 71.2593 39.2653 71.1733C39.3278 71.0913 39.3668 70.9702 39.3903 70.814C39.3903 70.7749 39.3903 70.7319 39.3903 70.689C39.3981 70.6499 39.4059 70.6069 39.4059 70.564C39.4137 70.5132 39.4215 70.4624 39.4215 70.4077C39.4215 70.3569 39.4215 70.2983 39.4215 70.2358C39.4215 70.0796 39.4137 69.9233 39.4059 69.7671C39.4059 69.603 39.4059 69.4155 39.4059 69.2046C39.4059 69.0483 39.3981 68.8921 39.3903 68.7358C39.3785 68.5796 39.3434 68.439 39.2809 68.314C39.2262 68.189 39.1442 68.0913 39.0309 68.0171C38.9137 67.9351 38.7653 67.8921 38.5778 67.8921C38.5035 67.8921 38.441 67.8999 38.3903 67.9077C38.3356 67.9077 38.2692 67.9233 38.1871 67.9546C38.1129 67.9858 38.0153 68.0327 37.8903 68.0952C37.7653 68.1499 37.5973 68.228 37.3903 68.3296C37.3668 68.353 37.3434 68.3726 37.3121 68.3921C37.2887 68.4155 37.2731 68.439 37.2653 68.4702V70.8608C37.2653 71.0093 37.2887 71.1226 37.3434 71.2046C37.4059 71.2788 37.4723 71.3296 37.5465 71.3608C37.6285 71.3921 37.7067 71.4155 37.7809 71.4233C37.8629 71.4351 37.9293 71.4507 37.984 71.4702C37.9918 71.4819 38.0035 71.5093 38.0153 71.5483C38.0231 71.5796 38.0309 71.603 38.0309 71.6108C38.0309 71.6343 38.0231 71.6655 38.0153 71.7046C38.0035 71.7358 37.9918 71.7593 37.984 71.7671H35.4215C35.4098 71.7593 35.3981 71.7358 35.3903 71.7046C35.3785 71.6655 35.3746 71.6343 35.3746 71.6108C35.3746 71.603 35.3785 71.5796 35.3903 71.5483C35.3981 71.5093 35.4098 71.4819 35.4215 71.4702C35.4606 71.4507 35.5192 71.4351 35.5934 71.4233C35.6754 71.4155 35.7535 71.3921 35.8278 71.3608C35.9098 71.3296 35.984 71.2788 36.0465 71.2046C36.109 71.1226 36.1403 71.0093 36.1403 70.8608V68.3765C36.1403 68.3062 36.1168 68.2476 36.0778 68.2046C36.0348 68.1538 35.9762 68.1187 35.9059 68.0952C35.8434 68.0757 35.7731 68.0601 35.7028 68.0483C35.6285 68.0288 35.5543 68.0093 35.484 67.9858C35.4606 67.978 35.4449 67.9663 35.4371 67.9546C35.4254 67.9468 35.4215 67.9233 35.4215 67.8921C35.4215 67.8726 35.4254 67.8569 35.4371 67.8452C35.4449 67.8257 35.4684 67.8101 35.4996 67.7983L37.109 67.0327Z" fill="#263238"/>
<path d="M42.282 68.0015H41.9226C41.8679 68.0015 41.8289 67.9937 41.7976 67.9702C41.7742 67.9507 41.7664 67.9233 41.7664 67.8921C41.7664 67.8843 41.7664 67.8687 41.7664 67.8452C41.7742 67.8257 41.7859 67.8101 41.7976 67.7983C41.8679 67.7593 41.9421 67.7124 42.0164 67.6577C42.0867 67.5952 42.1609 67.5327 42.2351 67.4702C42.3171 67.4077 42.3914 67.3452 42.4539 67.2827C42.5242 67.2202 42.5945 67.1655 42.657 67.1108C42.6882 67.0796 42.7273 67.0288 42.782 66.9546C42.8445 66.8843 42.9109 66.814 42.9851 66.7515C43.0554 66.6812 43.1335 66.6187 43.2195 66.564C43.3015 66.5132 43.3835 66.4858 43.4695 66.4858C43.489 66.4858 43.5085 66.4937 43.532 66.5015C43.5632 66.5132 43.5789 66.5288 43.5789 66.5483C43.5789 66.5718 43.571 66.6069 43.5632 66.6577C43.5515 66.7007 43.5359 66.7515 43.5164 66.814C43.5046 66.8687 43.489 66.9312 43.4695 67.0015C43.446 67.064 43.4304 67.1265 43.4226 67.189C43.4226 67.2124 43.4226 67.2319 43.4226 67.2515C43.4304 67.2632 43.4578 67.2749 43.5007 67.2827H44.7351C44.7859 67.2827 44.821 67.2944 44.8445 67.314C44.864 67.3257 44.8796 67.3452 44.8914 67.3765C44.8992 67.3999 44.907 67.4351 44.907 67.4858C44.9148 67.5288 44.9226 67.5796 44.9226 67.6421C44.9304 67.7046 44.9382 67.7671 44.9382 67.8296C44.946 67.8843 44.9539 67.9312 44.9539 67.9702C44.9539 67.9937 44.9421 68.0015 44.9226 68.0015H43.4539C43.4304 68.0015 43.4226 68.0093 43.4226 68.0171C43.4226 68.0171 43.4226 68.0288 43.4226 68.0483V70.4702C43.4226 70.5757 43.4304 70.6694 43.4539 70.7515C43.4851 70.8257 43.5203 70.8882 43.5632 70.939C43.6023 70.9937 43.6492 71.0327 43.7039 71.064C43.7546 71.0874 43.8054 71.0952 43.8601 71.0952C44.0046 71.0952 44.1257 71.0757 44.2195 71.0327C44.3132 70.9937 44.3914 70.9468 44.4539 70.8921C44.5242 70.8413 44.5867 70.7944 44.6414 70.7515C44.6921 70.7007 44.7507 70.6733 44.8132 70.6733C44.864 70.6733 44.8914 70.6968 44.8914 70.7358C44.8992 70.7671 44.907 70.7944 44.907 70.814C44.907 70.8569 44.8992 70.8921 44.8914 70.9233C44.8796 70.9468 44.8757 70.9624 44.8757 70.9702C44.864 70.9819 44.8445 71.0132 44.8132 71.064C44.782 71.1069 44.7351 71.1655 44.6726 71.2358C44.6179 71.2983 44.5515 71.3726 44.4695 71.4546C44.3953 71.5288 44.3054 71.603 44.2039 71.6733C44.1101 71.7358 44.0046 71.7866 43.8914 71.8296C43.7742 71.8687 43.657 71.8921 43.532 71.8921C43.3523 71.8921 43.1882 71.8608 43.032 71.7983C42.8835 71.7358 42.7546 71.6538 42.6414 71.5483C42.5242 71.4351 42.4382 71.3101 42.3757 71.1733C42.3132 71.0288 42.282 70.8843 42.282 70.7358V68.0015Z" fill="#263238"/>
<path d="M47.0141 67.0327C47.0219 67.0249 47.0336 67.0171 47.0453 67.0171C47.0649 67.0093 47.0805 67.0015 47.0922 67.0015C47.143 67.0015 47.1703 67.0405 47.1703 67.1108V67.9233C47.1703 67.9468 47.186 67.9546 47.2172 67.9546C47.225 67.9546 47.2485 67.9507 47.2797 67.939C47.4243 67.8569 47.5649 67.7788 47.7016 67.7046C47.8461 67.6226 47.9868 67.5444 48.1235 67.4702C48.268 67.3999 48.4125 67.3413 48.561 67.2983C48.7055 67.2593 48.85 67.2358 48.9985 67.2358C49.143 67.2358 49.2641 67.2593 49.3578 67.2983C49.4594 67.3296 49.5453 67.3765 49.6078 67.439C49.6782 67.4937 49.7368 67.5562 49.7797 67.6265C49.8305 67.689 49.8735 67.7515 49.9047 67.814C49.9047 67.8257 49.9086 67.8413 49.9203 67.8608C49.9282 67.8726 49.9399 67.8882 49.9516 67.9077C49.9711 67.9194 49.9868 67.9312 49.9985 67.939C50.018 67.9507 50.0336 67.9546 50.0453 67.9546C50.0961 67.9546 50.143 67.939 50.186 67.9077C50.5063 67.7515 50.768 67.6343 50.9672 67.5483C51.1625 67.4546 51.3305 67.3882 51.4672 67.3452C51.6 67.2944 51.7172 67.2632 51.811 67.2515C51.9047 67.2437 51.9985 67.2358 52.0922 67.2358C52.2875 67.2358 52.4555 67.2749 52.5922 67.3452C52.725 67.4077 52.8422 67.4976 52.936 67.6108C53.0297 67.728 53.1 67.8569 53.1547 68.0015C53.2172 68.1499 53.2641 68.2983 53.2953 68.4546C53.3266 68.603 53.3461 68.7476 53.3578 68.8921C53.3657 69.0405 53.3735 69.1733 53.3735 69.2983C53.3735 69.4155 53.3657 69.5249 53.3578 69.6265C53.3578 69.7202 53.35 69.8257 53.3422 69.939C53.3422 70.0562 53.3344 70.1851 53.3266 70.3296C53.3266 70.478 53.3266 70.6538 53.3266 70.8608C53.3266 70.9546 53.3422 71.0405 53.3735 71.1108C53.4125 71.1733 53.4594 71.228 53.5141 71.2671C53.5766 71.3101 53.6391 71.3413 53.7016 71.3608C53.7719 71.3843 53.8422 71.3999 53.9047 71.4077C53.9672 71.4194 54.0219 71.4312 54.0766 71.439C54.1391 71.4507 54.1782 71.4624 54.2016 71.4702C54.2211 71.4819 54.2368 71.5093 54.2485 71.5483C54.2563 71.5796 54.2641 71.603 54.2641 71.6108C54.2641 71.6343 54.2563 71.6655 54.2485 71.7046C54.2368 71.7358 54.2211 71.7593 54.2016 71.7671H51.4828C51.4594 71.7593 51.4438 71.7358 51.436 71.7046C51.436 71.6655 51.436 71.6343 51.436 71.6108C51.436 71.603 51.4399 71.5796 51.4516 71.5483C51.4594 71.5093 51.4711 71.4819 51.4828 71.4702C51.5219 71.4507 51.5805 71.4351 51.6547 71.4233C51.7368 71.4155 51.8149 71.3921 51.8891 71.3608C51.9711 71.3218 52.0375 71.2632 52.0922 71.189C52.1547 71.1069 52.186 70.9858 52.186 70.8296V70.814C52.2055 70.7202 52.2172 70.6108 52.2172 70.4858C52.225 70.3608 52.2328 70.228 52.2328 70.0796C52.2328 70.0093 52.225 69.939 52.2172 69.8765C52.2172 69.814 52.2172 69.7515 52.2172 69.689C52.2172 69.6187 52.2172 69.5444 52.2172 69.4702C52.2172 69.3882 52.2172 69.2983 52.2172 69.2046C52.2172 69.0405 52.2055 68.8765 52.186 68.7202C52.1743 68.564 52.1391 68.4233 52.0766 68.2983C52.0219 68.1655 51.9399 68.0601 51.8266 67.9858C51.7211 67.9038 51.5688 67.8608 51.3735 67.8608C51.3422 67.8608 51.3032 67.8687 51.2641 67.8765C51.2328 67.8882 51.1782 67.9038 51.1078 67.9233C51.0336 67.9468 50.9399 67.9819 50.8266 68.0327C50.7211 68.0874 50.5766 68.1499 50.3891 68.2202C50.3578 68.2437 50.3266 68.2632 50.2953 68.2827C50.2719 68.3062 50.2641 68.3296 50.2641 68.3608V70.8608C50.2641 71.0093 50.2875 71.1226 50.3422 71.2046C50.4047 71.2788 50.4711 71.3296 50.5453 71.3608C50.6274 71.3921 50.7055 71.4155 50.7797 71.4233C50.8618 71.4351 50.9243 71.4507 50.9672 71.4702C50.975 71.4819 50.9868 71.5093 50.9985 71.5483C51.0063 71.5796 51.0141 71.603 51.0141 71.6108C51.0141 71.6343 51.0063 71.6655 50.9985 71.7046C50.9985 71.7358 50.9868 71.7593 50.9672 71.7671H48.4203C48.3969 71.7593 48.3813 71.7358 48.3735 71.7046C48.3735 71.6655 48.3735 71.6343 48.3735 71.6108C48.3735 71.603 48.3774 71.5796 48.3891 71.5483C48.3969 71.5093 48.4086 71.4819 48.4203 71.4702C48.4594 71.4507 48.518 71.4351 48.5922 71.4233C48.6743 71.4155 48.7524 71.3921 48.8266 71.3608C48.9086 71.3296 48.975 71.2788 49.0297 71.2046C49.0922 71.1226 49.1235 71.0093 49.1235 70.8608V68.7358C49.1235 68.603 49.1118 68.4819 49.0922 68.3765C49.0688 68.2749 49.0336 68.1851 48.9828 68.1108C48.9282 68.0288 48.85 67.9663 48.7485 67.9233C48.6547 67.8843 48.5219 67.8608 48.3578 67.8608C48.2836 67.8608 48.1899 67.8843 48.0766 67.9233C47.9594 67.9663 47.8422 68.0171 47.7172 68.0796C47.6 68.1421 47.4907 68.2124 47.3891 68.2827C47.2953 68.3452 47.2211 68.4077 47.1703 68.4702V70.8608C47.1703 71.0093 47.1938 71.1226 47.2485 71.2046C47.311 71.2788 47.3774 71.3296 47.4516 71.3608C47.5336 71.3921 47.6118 71.4155 47.686 71.4233C47.768 71.4351 47.8305 71.4507 47.8735 71.4702C47.893 71.4819 47.9086 71.5093 47.9203 71.5483C47.9282 71.5796 47.936 71.603 47.936 71.6108C47.936 71.6343 47.9282 71.6655 47.9203 71.7046C47.9086 71.7358 47.893 71.7593 47.8735 71.7671H45.3266C45.3032 71.7593 45.2875 71.7358 45.2797 71.7046C45.2797 71.6655 45.2797 71.6343 45.2797 71.6108C45.2797 71.603 45.2836 71.5796 45.2953 71.5483C45.3032 71.5093 45.3149 71.4819 45.3266 71.4702C45.3657 71.4507 45.4243 71.4351 45.4985 71.4233C45.5805 71.4155 45.6586 71.3921 45.7328 71.3608C45.8149 71.3296 45.8891 71.2788 45.9516 71.2046C46.0141 71.1343 46.0453 71.0171 46.0453 70.8608V68.3765C46.0453 68.3062 46.018 68.2476 45.9672 68.2046C45.9243 68.1538 45.8735 68.1187 45.811 68.0952C45.7485 68.0757 45.6782 68.0601 45.6078 68.0483C45.5336 68.0288 45.4594 68.0093 45.3891 67.9858C45.3657 67.9858 45.35 67.9819 45.3422 67.9702C45.3305 67.9624 45.3266 67.9351 45.3266 67.8921C45.3266 67.8843 45.3305 67.8687 45.3422 67.8452C45.35 67.8257 45.3735 67.8101 45.4047 67.7983L47.0141 67.0327Z" fill="#263238"/>
<path d="M54.6164 69.7827C54.6164 69.4077 54.6671 69.0601 54.7726 68.7358C54.8859 68.4155 55.0421 68.1382 55.2414 67.9077C55.4367 67.6694 55.6828 67.4858 55.9757 67.3608C56.2648 67.228 56.6007 67.1577 56.9757 67.1577C57.0773 67.1577 57.1711 67.1694 57.257 67.189C57.3507 67.2007 57.4328 67.2202 57.507 67.2515C57.5773 67.2749 57.6476 67.2983 57.7101 67.3296C57.7804 67.3608 57.8507 67.3999 57.9132 67.439C57.9836 67.4819 58.0695 67.5562 58.1632 67.6577C58.257 67.7515 58.3429 67.8687 58.4289 68.0015C58.5226 68.1382 58.5929 68.2827 58.6476 68.439C58.7101 68.5874 58.7414 68.728 58.7414 68.8608C58.7414 68.9155 58.7296 68.9663 58.7101 69.0171C58.6984 69.0718 58.6671 69.0952 58.6164 69.0952H55.7414C55.7101 69.0952 55.6867 69.1265 55.6789 69.189C55.6671 69.2437 55.6632 69.3101 55.6632 69.3921C55.6632 69.6851 55.7023 69.9468 55.7882 70.1733C55.8703 70.3921 55.9796 70.5796 56.1164 70.7358C56.2609 70.8843 56.4211 70.9976 56.6007 71.0796C56.7882 71.1655 56.9796 71.2046 57.1789 71.2046C57.3039 71.2046 57.4211 71.189 57.5382 71.1577C57.6632 71.1187 57.7765 71.0718 57.882 71.0171C57.9836 70.9663 58.0851 70.9038 58.1789 70.8296C58.2726 70.7593 58.3664 70.689 58.4601 70.6265C58.4679 70.6187 58.4796 70.6108 58.4914 70.6108C58.4992 70.6108 58.5148 70.6226 58.5382 70.6421C58.5578 70.6655 58.5851 70.6968 58.6164 70.7358C58.6476 70.7671 58.6711 70.7944 58.6945 70.814C58.6945 70.8257 58.6945 70.8374 58.6945 70.8452C58.6945 70.8569 58.6867 70.8687 58.6789 70.8765C58.5734 71.0015 58.4445 71.1265 58.2882 71.2515C58.132 71.3765 57.964 71.4858 57.7882 71.5796C57.6086 71.6733 57.4289 71.7476 57.2414 71.7983C57.0539 71.8608 56.8742 71.8921 56.7101 71.8921C56.3742 71.8921 56.0773 71.8335 55.8195 71.7202C55.5578 71.5952 55.339 71.4351 55.1632 71.2358C54.9836 71.0405 54.8507 70.814 54.757 70.564C54.6632 70.3062 54.6164 70.0444 54.6164 69.7827ZM57.4757 68.7202C57.5578 68.7202 57.6007 68.6851 57.6007 68.6108C57.6007 68.4858 57.5773 68.3687 57.5382 68.2515C57.507 68.1382 57.4484 68.0405 57.3664 67.9546C57.2921 67.8608 57.2023 67.7944 57.1007 67.7515C56.9953 67.7007 56.8742 67.6733 56.7414 67.6733C56.5851 67.6733 56.4484 67.7124 56.3351 67.7827C56.2179 67.8452 56.1203 67.9233 56.0382 68.0171C55.9523 68.1108 55.8898 68.2124 55.8507 68.314C55.8195 68.4077 55.8039 68.4937 55.8039 68.564C55.8039 68.6265 55.8078 68.6694 55.8195 68.689C55.839 68.7124 55.8586 68.7202 55.882 68.7202H57.4757Z" fill="#263238"/>
<path d="M61.206 67.0327C61.2138 67.0249 61.2255 67.0171 61.2372 67.0171C61.2568 67.0093 61.2724 67.0015 61.2841 67.0015C61.3349 67.0015 61.3622 67.0405 61.3622 67.1108V67.8765C61.3701 67.9077 61.3857 67.9233 61.4091 67.9233C61.4169 67.9233 61.4286 67.9233 61.4404 67.9233C61.4482 67.9233 61.4638 67.9194 61.4872 67.9077C61.6943 67.8062 61.8701 67.7163 62.0185 67.6421C62.163 67.5718 62.288 67.5093 62.3935 67.4546C62.4951 67.4038 62.5888 67.3687 62.6747 67.3452C62.7568 67.314 62.8388 67.2944 62.9247 67.2827C63.0068 67.2632 63.0966 67.2515 63.1904 67.2515C63.2919 67.2437 63.4169 67.2358 63.5654 67.2358C63.7294 67.2358 63.8701 67.2749 63.9872 67.3452C64.1005 67.4077 64.1982 67.4976 64.2841 67.6108C64.3661 67.728 64.4286 67.8569 64.4716 68.0015C64.5224 68.1499 64.5576 68.2983 64.581 68.4546C64.6122 68.603 64.6318 68.7476 64.6435 68.8921C64.6513 69.0405 64.6591 69.1733 64.6591 69.2983C64.6591 69.4155 64.6513 69.5249 64.6435 69.6265C64.6435 69.7202 64.6357 69.8257 64.6279 69.939C64.6279 70.0562 64.6201 70.1851 64.6122 70.3296C64.6122 70.478 64.6122 70.6538 64.6122 70.8608C64.6122 70.9546 64.6279 71.0405 64.6591 71.1108C64.6982 71.1733 64.7451 71.228 64.7997 71.2671C64.8622 71.3101 64.9247 71.3413 64.9872 71.3608C65.0576 71.3843 65.1279 71.3999 65.1904 71.4077C65.2607 71.4194 65.3232 71.4312 65.3779 71.439C65.4286 71.4507 65.4716 71.4624 65.5029 71.4702C65.5107 71.4819 65.5224 71.5093 65.5341 71.5483C65.5419 71.5796 65.5497 71.603 65.5497 71.6108C65.5497 71.6343 65.5419 71.6655 65.5341 71.7046C65.5341 71.7358 65.5224 71.7593 65.5029 71.7671H62.7841C62.7607 71.7593 62.7451 71.7358 62.7372 71.7046C62.7255 71.6655 62.7216 71.6343 62.7216 71.6108C62.7216 71.603 62.7255 71.5796 62.7372 71.5483C62.7451 71.5093 62.7607 71.4819 62.7841 71.4702C62.8232 71.4507 62.8779 71.4351 62.9404 71.4233C63.0107 71.4155 63.0849 71.3921 63.1591 71.3608C63.2294 71.3218 63.2997 71.2593 63.3622 71.1733C63.4247 71.0913 63.4638 70.9702 63.4872 70.814C63.4872 70.7749 63.4872 70.7319 63.4872 70.689C63.4951 70.6499 63.5029 70.6069 63.5029 70.564C63.5107 70.5132 63.5185 70.4624 63.5185 70.4077C63.5185 70.3569 63.5185 70.2983 63.5185 70.2358C63.5185 70.0796 63.5107 69.9233 63.5029 69.7671C63.5029 69.603 63.5029 69.4155 63.5029 69.2046C63.5029 69.0483 63.4951 68.8921 63.4872 68.7358C63.4755 68.5796 63.4404 68.439 63.3779 68.314C63.3232 68.189 63.2411 68.0913 63.1279 68.0171C63.0107 67.9351 62.8622 67.8921 62.6747 67.8921C62.6005 67.8921 62.538 67.8999 62.4872 67.9077C62.4326 67.9077 62.3661 67.9233 62.2841 67.9546C62.2099 67.9858 62.1122 68.0327 61.9872 68.0952C61.8622 68.1499 61.6943 68.228 61.4872 68.3296C61.4638 68.353 61.4404 68.3726 61.4091 68.3921C61.3857 68.4155 61.3701 68.439 61.3622 68.4702V70.8608C61.3622 71.0093 61.3857 71.1226 61.4404 71.2046C61.5029 71.2788 61.5693 71.3296 61.6435 71.3608C61.7255 71.3921 61.8036 71.4155 61.8779 71.4233C61.9599 71.4351 62.0263 71.4507 62.081 71.4702C62.0888 71.4819 62.1005 71.5093 62.1122 71.5483C62.1201 71.5796 62.1279 71.603 62.1279 71.6108C62.1279 71.6343 62.1201 71.6655 62.1122 71.7046C62.1005 71.7358 62.0888 71.7593 62.081 71.7671H59.5185C59.5068 71.7593 59.4951 71.7358 59.4872 71.7046C59.4755 71.6655 59.4716 71.6343 59.4716 71.6108C59.4716 71.603 59.4755 71.5796 59.4872 71.5483C59.4951 71.5093 59.5068 71.4819 59.5185 71.4702C59.5576 71.4507 59.6161 71.4351 59.6904 71.4233C59.7724 71.4155 59.8505 71.3921 59.9247 71.3608C60.0068 71.3296 60.081 71.2788 60.1435 71.2046C60.206 71.1226 60.2372 71.0093 60.2372 70.8608V68.3765C60.2372 68.3062 60.2138 68.2476 60.1747 68.2046C60.1318 68.1538 60.0732 68.1187 60.0029 68.0952C59.9404 68.0757 59.8701 68.0601 59.7997 68.0483C59.7255 68.0288 59.6513 68.0093 59.581 67.9858C59.5576 67.978 59.5419 67.9663 59.5341 67.9546C59.5224 67.9468 59.5185 67.9233 59.5185 67.8921C59.5185 67.8726 59.5224 67.8569 59.5341 67.8452C59.5419 67.8257 59.5654 67.8101 59.5966 67.7983L61.206 67.0327Z" fill="#263238"/>
<path d="M66.379 68.0015H66.0196C65.9649 68.0015 65.9259 67.9937 65.8946 67.9702C65.8712 67.9507 65.8634 67.9233 65.8634 67.8921C65.8634 67.8843 65.8634 67.8687 65.8634 67.8452C65.8712 67.8257 65.8829 67.8101 65.8946 67.7983C65.9649 67.7593 66.0392 67.7124 66.1134 67.6577C66.1837 67.5952 66.2579 67.5327 66.3321 67.4702C66.4142 67.4077 66.4884 67.3452 66.5509 67.2827C66.6212 67.2202 66.6915 67.1655 66.754 67.1108C66.7852 67.0796 66.8243 67.0288 66.879 66.9546C66.9415 66.8843 67.0079 66.814 67.0821 66.7515C67.1524 66.6812 67.2306 66.6187 67.3165 66.564C67.3985 66.5132 67.4806 66.4858 67.5665 66.4858C67.586 66.4858 67.6056 66.4937 67.629 66.5015C67.6602 66.5132 67.6759 66.5288 67.6759 66.5483C67.6759 66.5718 67.6681 66.6069 67.6602 66.6577C67.6485 66.7007 67.6329 66.7515 67.6134 66.814C67.6017 66.8687 67.586 66.9312 67.5665 67.0015C67.5431 67.064 67.5274 67.1265 67.5196 67.189C67.5196 67.2124 67.5196 67.2319 67.5196 67.2515C67.5274 67.2632 67.5548 67.2749 67.5977 67.2827H68.8321C68.8829 67.2827 68.9181 67.2944 68.9415 67.314C68.961 67.3257 68.9767 67.3452 68.9884 67.3765C68.9962 67.3999 69.004 67.4351 69.004 67.4858C69.0118 67.5288 69.0196 67.5796 69.0196 67.6421C69.0274 67.7046 69.0352 67.7671 69.0352 67.8296C69.0431 67.8843 69.0509 67.9312 69.0509 67.9702C69.0509 67.9937 69.0392 68.0015 69.0196 68.0015H67.5509C67.5274 68.0015 67.5196 68.0093 67.5196 68.0171C67.5196 68.0171 67.5196 68.0288 67.5196 68.0483V70.4702C67.5196 70.5757 67.5274 70.6694 67.5509 70.7515C67.5821 70.8257 67.6173 70.8882 67.6602 70.939C67.6993 70.9937 67.7462 71.0327 67.8009 71.064C67.8517 71.0874 67.9024 71.0952 67.9571 71.0952C68.1017 71.0952 68.2227 71.0757 68.3165 71.0327C68.4102 70.9937 68.4884 70.9468 68.5509 70.8921C68.6212 70.8413 68.6837 70.7944 68.7384 70.7515C68.7892 70.7007 68.8477 70.6733 68.9102 70.6733C68.961 70.6733 68.9884 70.6968 68.9884 70.7358C68.9962 70.7671 69.004 70.7944 69.004 70.814C69.004 70.8569 68.9962 70.8921 68.9884 70.9233C68.9767 70.9468 68.9727 70.9624 68.9727 70.9702C68.961 70.9819 68.9415 71.0132 68.9102 71.064C68.879 71.1069 68.8321 71.1655 68.7696 71.2358C68.7149 71.2983 68.6485 71.3726 68.5665 71.4546C68.4923 71.5288 68.4024 71.603 68.3009 71.6733C68.2071 71.7358 68.1017 71.7866 67.9884 71.8296C67.8712 71.8687 67.754 71.8921 67.629 71.8921C67.4493 71.8921 67.2852 71.8608 67.129 71.7983C66.9806 71.7358 66.8517 71.6538 66.7384 71.5483C66.6212 71.4351 66.5352 71.3101 66.4727 71.1733C66.4102 71.0288 66.379 70.8843 66.379 70.7358V68.0015Z" fill="#263238"/>
<path d="M73.7961 67.0327C73.804 67.0249 73.8157 67.0171 73.8274 67.0171C73.8469 67.0093 73.8625 67.0015 73.8743 67.0015C73.925 67.0015 73.9524 67.0405 73.9524 67.1108V67.9233C73.9524 67.9468 73.968 67.9546 73.9993 67.9546C74.0071 67.9546 74.0305 67.9507 74.0618 67.939C74.2063 67.8569 74.3469 67.7788 74.4836 67.7046C74.6282 67.6226 74.7688 67.5444 74.9055 67.4702C75.05 67.3999 75.1946 67.3413 75.343 67.2983C75.4875 67.2593 75.6321 67.2358 75.7805 67.2358C75.925 67.2358 76.0461 67.2593 76.1399 67.2983C76.2415 67.3296 76.3274 67.3765 76.3899 67.439C76.4602 67.4937 76.5188 67.5562 76.5618 67.6265C76.6125 67.689 76.6555 67.7515 76.6868 67.814C76.6868 67.8257 76.6907 67.8413 76.7024 67.8608C76.7102 67.8726 76.7219 67.8882 76.7336 67.9077C76.7532 67.9194 76.7688 67.9312 76.7805 67.939C76.8 67.9507 76.8157 67.9546 76.8274 67.9546C76.8782 67.9546 76.925 67.939 76.968 67.9077C77.2883 67.7515 77.55 67.6343 77.7493 67.5483C77.9446 67.4546 78.1125 67.3882 78.2493 67.3452C78.3821 67.2944 78.4993 67.2632 78.593 67.2515C78.6868 67.2437 78.7805 67.2358 78.8743 67.2358C79.0696 67.2358 79.2375 67.2749 79.3743 67.3452C79.5071 67.4077 79.6243 67.4976 79.718 67.6108C79.8118 67.728 79.8821 67.8569 79.9368 68.0015C79.9993 68.1499 80.0461 68.2983 80.0774 68.4546C80.1086 68.603 80.1282 68.7476 80.1399 68.8921C80.1477 69.0405 80.1555 69.1733 80.1555 69.2983C80.1555 69.4155 80.1477 69.5249 80.1399 69.6265C80.1399 69.7202 80.1321 69.8257 80.1243 69.939C80.1243 70.0562 80.1165 70.1851 80.1086 70.3296C80.1086 70.478 80.1086 70.6538 80.1086 70.8608C80.1086 70.9546 80.1243 71.0405 80.1555 71.1108C80.1946 71.1733 80.2415 71.228 80.2961 71.2671C80.3586 71.3101 80.4211 71.3413 80.4836 71.3608C80.554 71.3843 80.6243 71.3999 80.6868 71.4077C80.7493 71.4194 80.804 71.4312 80.8586 71.439C80.9211 71.4507 80.9602 71.4624 80.9836 71.4702C81.0032 71.4819 81.0188 71.5093 81.0305 71.5483C81.0383 71.5796 81.0461 71.603 81.0461 71.6108C81.0461 71.6343 81.0383 71.6655 81.0305 71.7046C81.0188 71.7358 81.0032 71.7593 80.9836 71.7671H78.2649C78.2415 71.7593 78.2258 71.7358 78.218 71.7046C78.218 71.6655 78.218 71.6343 78.218 71.6108C78.218 71.603 78.2219 71.5796 78.2336 71.5483C78.2415 71.5093 78.2532 71.4819 78.2649 71.4702C78.304 71.4507 78.3625 71.4351 78.4368 71.4233C78.5188 71.4155 78.5969 71.3921 78.6711 71.3608C78.7532 71.3218 78.8196 71.2632 78.8743 71.189C78.9368 71.1069 78.968 70.9858 78.968 70.8296V70.814C78.9875 70.7202 78.9993 70.6108 78.9993 70.4858C79.0071 70.3608 79.0149 70.228 79.0149 70.0796C79.0149 70.0093 79.0071 69.939 78.9993 69.8765C78.9993 69.814 78.9993 69.7515 78.9993 69.689C78.9993 69.6187 78.9993 69.5444 78.9993 69.4702C78.9993 69.3882 78.9993 69.2983 78.9993 69.2046C78.9993 69.0405 78.9875 68.8765 78.968 68.7202C78.9563 68.564 78.9211 68.4233 78.8586 68.2983C78.804 68.1655 78.7219 68.0601 78.6086 67.9858C78.5032 67.9038 78.3508 67.8608 78.1555 67.8608C78.1243 67.8608 78.0852 67.8687 78.0461 67.8765C78.0149 67.8882 77.9602 67.9038 77.8899 67.9233C77.8157 67.9468 77.7219 67.9819 77.6086 68.0327C77.5032 68.0874 77.3586 68.1499 77.1711 68.2202C77.1399 68.2437 77.1086 68.2632 77.0774 68.2827C77.054 68.3062 77.0461 68.3296 77.0461 68.3608V70.8608C77.0461 71.0093 77.0696 71.1226 77.1243 71.2046C77.1868 71.2788 77.2532 71.3296 77.3274 71.3608C77.4094 71.3921 77.4875 71.4155 77.5618 71.4233C77.6438 71.4351 77.7063 71.4507 77.7493 71.4702C77.7571 71.4819 77.7688 71.5093 77.7805 71.5483C77.7883 71.5796 77.7961 71.603 77.7961 71.6108C77.7961 71.6343 77.7883 71.6655 77.7805 71.7046C77.7805 71.7358 77.7688 71.7593 77.7493 71.7671H75.2024C75.179 71.7593 75.1633 71.7358 75.1555 71.7046C75.1555 71.6655 75.1555 71.6343 75.1555 71.6108C75.1555 71.603 75.1594 71.5796 75.1711 71.5483C75.179 71.5093 75.1907 71.4819 75.2024 71.4702C75.2415 71.4507 75.3 71.4351 75.3743 71.4233C75.4563 71.4155 75.5344 71.3921 75.6086 71.3608C75.6907 71.3296 75.7571 71.2788 75.8118 71.2046C75.8743 71.1226 75.9055 71.0093 75.9055 70.8608V68.7358C75.9055 68.603 75.8938 68.4819 75.8743 68.3765C75.8508 68.2749 75.8157 68.1851 75.7649 68.1108C75.7102 68.0288 75.6321 67.9663 75.5305 67.9233C75.4368 67.8843 75.304 67.8608 75.1399 67.8608C75.0657 67.8608 74.9719 67.8843 74.8586 67.9233C74.7415 67.9663 74.6243 68.0171 74.4993 68.0796C74.3821 68.1421 74.2727 68.2124 74.1711 68.2827C74.0774 68.3452 74.0032 68.4077 73.9524 68.4702V70.8608C73.9524 71.0093 73.9758 71.1226 74.0305 71.2046C74.093 71.2788 74.1594 71.3296 74.2336 71.3608C74.3157 71.3921 74.3938 71.4155 74.468 71.4233C74.55 71.4351 74.6125 71.4507 74.6555 71.4702C74.675 71.4819 74.6907 71.5093 74.7024 71.5483C74.7102 71.5796 74.718 71.603 74.718 71.6108C74.718 71.6343 74.7102 71.6655 74.7024 71.7046C74.6907 71.7358 74.675 71.7593 74.6555 71.7671H72.1086C72.0852 71.7593 72.0696 71.7358 72.0618 71.7046C72.0618 71.6655 72.0618 71.6343 72.0618 71.6108C72.0618 71.603 72.0657 71.5796 72.0774 71.5483C72.0852 71.5093 72.0969 71.4819 72.1086 71.4702C72.1477 71.4507 72.2063 71.4351 72.2805 71.4233C72.3625 71.4155 72.4407 71.3921 72.5149 71.3608C72.5969 71.3296 72.6711 71.2788 72.7336 71.2046C72.7961 71.1343 72.8274 71.0171 72.8274 70.8608V68.3765C72.8274 68.3062 72.8 68.2476 72.7493 68.2046C72.7063 68.1538 72.6555 68.1187 72.593 68.0952C72.5305 68.0757 72.4602 68.0601 72.3899 68.0483C72.3157 68.0288 72.2415 68.0093 72.1711 67.9858C72.1477 67.9858 72.1321 67.9819 72.1243 67.9702C72.1125 67.9624 72.1086 67.9351 72.1086 67.8921C72.1086 67.8843 72.1125 67.8687 72.1243 67.8452C72.1321 67.8257 72.1555 67.8101 72.1868 67.7983L73.7961 67.0327Z" fill="#263238"/>
<path d="M83.4286 71.6733C83.3232 71.7476 83.1982 71.8022 83.0536 71.8452C82.9052 71.8843 82.7607 71.9077 82.6161 71.9077C82.2177 71.9077 81.9169 71.8179 81.7099 71.6421C81.4989 71.4663 81.3974 71.2202 81.3974 70.9077C81.3974 70.7319 81.4325 70.5796 81.5067 70.4546C81.5888 70.3296 81.7099 70.2202 81.8661 70.1265C82.0224 70.0249 82.2138 69.9351 82.4442 69.8608C82.6708 69.7788 82.9364 69.6968 83.2411 69.6108C83.4052 69.5718 83.538 69.5288 83.6317 69.4858C83.7333 69.4351 83.8271 69.3882 83.913 69.3452C83.9638 69.314 83.995 69.2905 84.0067 69.2671C84.0146 69.2358 84.0224 69.2163 84.0224 69.2046V68.3452C84.0224 68.2437 84.0067 68.1421 83.9755 68.0483C83.9442 67.9546 83.8974 67.8765 83.8349 67.814C83.7724 67.7437 83.6942 67.6851 83.6005 67.6421C83.5146 67.603 83.4208 67.5796 83.3192 67.5796C83.2255 67.5796 83.1357 67.603 83.0536 67.6421C82.9677 67.6733 82.8974 67.7202 82.8349 67.7827C82.7802 67.8452 82.7333 67.9194 82.6942 68.0015C82.663 68.0874 82.6474 68.1812 82.6474 68.2827C82.6474 68.2944 82.6474 68.3101 82.6474 68.3296C82.6552 68.353 82.663 68.3726 82.663 68.3921C82.663 68.4155 82.663 68.4351 82.663 68.4546C82.6708 68.4663 82.6786 68.4702 82.6786 68.4702C82.6669 68.4819 82.6357 68.4976 82.5849 68.5171C82.5419 68.5405 82.4833 68.5601 82.413 68.5796C82.3388 68.603 82.2567 68.6265 82.163 68.6577C82.0771 68.6812 81.995 68.7007 81.913 68.7202C81.8388 68.7437 81.7724 68.7632 81.7099 68.7827C81.6474 68.8062 81.6044 68.814 81.5849 68.814C81.5419 68.814 81.5146 68.7983 81.5067 68.7671C81.5067 68.728 81.5067 68.689 81.5067 68.6577C81.5067 68.4624 81.5614 68.2749 81.6786 68.0952C81.7919 67.9194 81.9442 67.7632 82.1317 67.6265C82.3192 67.4937 82.538 67.3843 82.788 67.2983C83.038 67.2046 83.2919 67.1577 83.5536 67.1577C83.7919 67.1577 83.9989 67.189 84.1786 67.2515C84.3661 67.314 84.5224 67.3999 84.6474 67.5015C84.7802 67.6069 84.8817 67.7319 84.9442 67.8765C85.0146 68.0132 85.0536 68.1577 85.0536 68.314V70.6421C85.0536 70.728 85.0849 70.8062 85.1474 70.8765C85.2099 70.939 85.2919 70.9702 85.3974 70.9702C85.4599 70.9702 85.5107 70.9624 85.5536 70.939C85.6044 70.9194 85.6474 70.8921 85.6786 70.8608C85.7177 70.8296 85.7489 70.8062 85.7724 70.7827C85.8036 70.7632 85.8271 70.7515 85.8505 70.7515C85.87 70.7515 85.8817 70.7632 85.8817 70.7827C85.8896 70.8062 85.8974 70.8257 85.8974 70.8452C85.8974 70.8999 85.8857 70.9546 85.8661 71.0171C85.8544 71.0718 85.8349 71.1108 85.8036 71.1421C85.6357 71.2593 85.4911 71.3687 85.3661 71.4702C85.2489 71.564 85.1396 71.6499 85.038 71.7202C84.9325 71.7827 84.8388 71.8296 84.7567 71.8608C84.6825 71.8999 84.6083 71.9233 84.538 71.9233C84.4755 71.9233 84.4169 71.8999 84.3661 71.8608C84.3114 71.8296 84.2646 71.7866 84.2255 71.7358C84.1942 71.6851 84.163 71.6265 84.1317 71.564C84.1083 71.5015 84.0888 71.4468 84.0692 71.3921C84.0458 71.3413 84.0302 71.2983 84.0224 71.2671C84.0107 71.2358 84.0067 71.2202 84.0067 71.2202L83.4286 71.6733ZM82.538 70.7983C82.538 70.8843 82.5536 70.9546 82.5849 71.0171C82.6161 71.0718 82.6552 71.1108 82.7099 71.1421C82.7724 71.1655 82.8349 71.1851 82.8974 71.2046C82.9677 71.2163 83.0458 71.2202 83.1317 71.2202C83.1942 71.2202 83.2724 71.2046 83.3661 71.1733C83.4677 71.1343 83.5692 71.0874 83.663 71.0327C83.7646 70.9702 83.8505 70.9038 83.913 70.8296C83.9833 70.7593 84.0224 70.6851 84.0224 70.6108V69.7983C84.0224 69.7671 84.0107 69.7515 83.9911 69.7515C83.9794 69.7515 83.9677 69.7515 83.9599 69.7515L82.8349 70.2827C82.7802 70.314 82.7333 70.3452 82.6942 70.3765C82.663 70.3999 82.6317 70.4312 82.6005 70.4702C82.5771 70.5132 82.5614 70.5601 82.5536 70.6108C82.5419 70.6538 82.538 70.7163 82.538 70.7983Z" fill="#263238"/>
<path d="M90.7051 63.7671C90.713 63.7593 90.7247 63.7515 90.7364 63.7515C90.7559 63.7437 90.7715 63.7358 90.7833 63.7358C90.834 63.7358 90.8614 63.7749 90.8614 63.8452V70.6421C90.8614 70.7905 90.8965 70.8921 90.9708 70.9546C91.0411 71.0171 91.1505 71.0483 91.2989 71.0483L91.5801 71.0327C91.5997 71.0327 91.6114 71.0444 91.6114 71.064C91.6114 71.0757 91.6114 71.0913 91.6114 71.1108C91.6114 71.1226 91.6036 71.1343 91.5958 71.1421C91.5958 71.1538 91.5723 71.1655 91.5333 71.1733L89.877 71.8765C89.8653 71.8765 89.8458 71.8765 89.8145 71.8765C89.7911 71.8843 89.7833 71.8921 89.7833 71.8921C89.752 71.8921 89.7364 71.8765 89.7364 71.8452C89.7364 71.8218 89.7364 71.8022 89.7364 71.7827V71.439C89.7364 71.4077 89.7208 71.3921 89.6895 71.3921C89.6778 71.3921 89.6661 71.3999 89.6583 71.4077C89.5411 71.4702 89.4317 71.5327 89.3301 71.5952C89.2247 71.6577 89.1192 71.7124 89.0176 71.7515C88.9239 71.7905 88.8184 71.8218 88.7051 71.8452C88.588 71.8765 88.463 71.8921 88.3301 71.8921C88.0372 71.8921 87.7715 71.8335 87.5333 71.7202C87.3028 71.5952 87.1036 71.4351 86.9395 71.2358C86.7715 71.0405 86.6465 70.8101 86.5645 70.5483C86.4786 70.2905 86.4395 70.0132 86.4395 69.7202C86.4395 69.3882 86.5059 69.0757 86.6426 68.7827C86.7755 68.4819 86.9551 68.228 87.1739 68.0171C87.4005 67.7983 87.6622 67.6343 87.9551 67.5171C88.2559 67.3921 88.5723 67.3296 88.9083 67.3296C88.9903 67.3296 89.0645 67.3413 89.127 67.3608C89.1973 67.3726 89.2598 67.3882 89.3145 67.4077C89.377 67.4194 89.4317 67.4351 89.4864 67.4546C89.5372 67.4663 89.5997 67.4702 89.6739 67.4702C89.6817 67.4702 89.6934 67.4702 89.7051 67.4702C89.7247 67.4624 89.7364 67.439 89.7364 67.4077V65.1108C89.7364 65.0405 89.709 64.9819 89.6583 64.939C89.6153 64.8882 89.5645 64.853 89.502 64.8296C89.4395 64.8101 89.3692 64.7944 89.2989 64.7827C89.2247 64.7632 89.1505 64.7437 89.0801 64.7202C89.0567 64.7124 89.0411 64.7007 89.0333 64.689C89.0215 64.6812 89.0176 64.6577 89.0176 64.6265C89.0176 64.6069 89.0215 64.5913 89.0333 64.5796C89.0411 64.5601 89.0645 64.5444 89.0958 64.5327L90.7051 63.7671ZM87.5489 69.5015C87.5489 69.7437 87.5723 69.9702 87.627 70.189C87.6778 70.3999 87.7559 70.5874 87.8614 70.7515C87.9747 70.9194 88.1192 71.0562 88.2989 71.1577C88.4747 71.2515 88.6778 71.2983 88.9083 71.2983C88.9395 71.2983 89.002 71.2905 89.0958 71.2671C89.1895 71.2476 89.2833 71.2202 89.377 71.189C89.4708 71.1577 89.5528 71.1226 89.627 71.0796C89.6973 71.0405 89.7364 70.9937 89.7364 70.939V68.5171C89.7364 68.2905 89.6505 68.1069 89.4864 67.9702C89.3301 67.8257 89.0997 67.7515 88.7989 67.7515C88.5801 67.7515 88.3926 67.8062 88.2364 67.9077C88.0801 68.0132 87.9473 68.1499 87.8458 68.314C87.7403 68.4819 87.6622 68.6694 87.6114 68.8765C87.5684 69.0874 87.5489 69.2944 87.5489 69.5015Z" fill="#263238"/>
<path d="M92.0524 69.7827C92.0524 69.4077 92.1031 69.0601 92.2086 68.7358C92.3219 68.4155 92.4781 68.1382 92.6774 67.9077C92.8727 67.6694 93.1188 67.4858 93.4117 67.3608C93.7008 67.228 94.0367 67.1577 94.4117 67.1577C94.5133 67.1577 94.6071 67.1694 94.693 67.189C94.7867 67.2007 94.8688 67.2202 94.943 67.2515C95.0133 67.2749 95.0836 67.2983 95.1461 67.3296C95.2164 67.3608 95.2867 67.3999 95.3492 67.439C95.4196 67.4819 95.5055 67.5562 95.5992 67.6577C95.693 67.7515 95.7789 67.8687 95.8649 68.0015C95.9586 68.1382 96.0289 68.2827 96.0836 68.439C96.1461 68.5874 96.1774 68.728 96.1774 68.8608C96.1774 68.9155 96.1656 68.9663 96.1461 69.0171C96.1344 69.0718 96.1031 69.0952 96.0524 69.0952H93.1774C93.1461 69.0952 93.1227 69.1265 93.1149 69.189C93.1031 69.2437 93.0992 69.3101 93.0992 69.3921C93.0992 69.6851 93.1383 69.9468 93.2242 70.1733C93.3063 70.3921 93.4156 70.5796 93.5524 70.7358C93.6969 70.8843 93.8571 70.9976 94.0367 71.0796C94.2242 71.1655 94.4156 71.2046 94.6149 71.2046C94.7399 71.2046 94.8571 71.189 94.9742 71.1577C95.0992 71.1187 95.2125 71.0718 95.318 71.0171C95.4196 70.9663 95.5211 70.9038 95.6149 70.8296C95.7086 70.7593 95.8024 70.689 95.8961 70.6265C95.9039 70.6187 95.9156 70.6108 95.9274 70.6108C95.9352 70.6108 95.9508 70.6226 95.9742 70.6421C95.9938 70.6655 96.0211 70.6968 96.0524 70.7358C96.0836 70.7671 96.1071 70.7944 96.1305 70.814C96.1305 70.8257 96.1305 70.8374 96.1305 70.8452C96.1305 70.8569 96.1227 70.8687 96.1149 70.8765C96.0094 71.0015 95.8805 71.1265 95.7242 71.2515C95.568 71.3765 95.4 71.4858 95.2242 71.5796C95.0446 71.6733 94.8649 71.7476 94.6774 71.7983C94.4899 71.8608 94.3102 71.8921 94.1461 71.8921C93.8102 71.8921 93.5133 71.8335 93.2555 71.7202C92.9938 71.5952 92.775 71.4351 92.5992 71.2358C92.4196 71.0405 92.2867 70.814 92.193 70.564C92.0992 70.3062 92.0524 70.0444 92.0524 69.7827ZM94.9117 68.7202C94.9938 68.7202 95.0367 68.6851 95.0367 68.6108C95.0367 68.4858 95.0133 68.3687 94.9742 68.2515C94.943 68.1382 94.8844 68.0405 94.8024 67.9546C94.7281 67.8608 94.6383 67.7944 94.5367 67.7515C94.4313 67.7007 94.3102 67.6733 94.1774 67.6733C94.0211 67.6733 93.8844 67.7124 93.7711 67.7827C93.6539 67.8452 93.5563 67.9233 93.4742 68.0171C93.3883 68.1108 93.3258 68.2124 93.2867 68.314C93.2555 68.4077 93.2399 68.4937 93.2399 68.564C93.2399 68.6265 93.2438 68.6694 93.2555 68.689C93.275 68.7124 93.2946 68.7202 93.318 68.7202H94.9117Z" fill="#263238"/>
<path d="M100.311 71.7358C100.28 71.7358 100.249 71.7476 100.218 71.7671C100.194 71.7749 100.175 71.7905 100.155 71.814C100.132 71.8335 100.112 71.8491 100.093 71.8608C100.081 71.8804 100.061 71.8921 100.03 71.8921H99.8582C99.8465 71.8921 99.8348 71.8452 99.827 71.7515C99.8153 71.6577 99.7997 71.5483 99.7801 71.4233C99.7684 71.2905 99.7567 71.1538 99.7489 71.0171C99.7372 70.8726 99.7332 70.7515 99.7332 70.6577C99.7332 70.6069 99.7489 70.5757 99.7801 70.564C99.8192 70.5444 99.8622 70.5327 99.9051 70.5327C99.9247 70.5327 99.952 70.5444 99.9832 70.564C100.014 70.5757 100.038 70.5952 100.061 70.6265C100.081 70.6499 100.1 70.6733 100.124 70.7046C100.143 70.728 100.159 70.7476 100.171 70.7671C100.222 70.8843 100.272 70.9937 100.327 71.0952C100.389 71.189 100.456 71.2749 100.53 71.3452C100.6 71.4077 100.686 71.4624 100.78 71.5015C100.882 71.5327 101.003 71.5483 101.139 71.5483C101.241 71.5483 101.327 71.5327 101.389 71.5015C101.452 71.4624 101.499 71.4155 101.53 71.3608C101.569 71.2983 101.597 71.2319 101.608 71.1577C101.616 71.0874 101.624 71.0093 101.624 70.9233C101.624 70.7593 101.577 70.6226 101.483 70.5171C101.389 70.4038 101.268 70.2983 101.124 70.2046C100.975 70.103 100.815 70.0015 100.639 69.9077C100.472 69.8062 100.315 69.6851 100.171 69.5483C100.022 69.4155 99.8973 69.2593 99.7957 69.0796C99.702 68.8921 99.6551 68.6655 99.6551 68.3921C99.6551 68.2358 99.702 68.0874 99.7957 67.939C99.8973 67.7827 100.03 67.6499 100.186 67.5327C100.343 67.4194 100.514 67.3296 100.702 67.2671C100.897 67.1968 101.097 67.1577 101.296 67.1577C101.389 67.1577 101.487 67.1694 101.593 67.189C101.694 67.2124 101.788 67.2319 101.874 67.2515C101.968 67.2749 102.038 67.2944 102.093 67.314C102.155 67.3374 102.194 67.353 102.218 67.3608C102.237 67.3843 102.253 67.4155 102.264 67.4546C102.284 67.4858 102.296 67.5405 102.296 67.6108C102.304 67.6851 102.311 67.7827 102.311 67.9077C102.311 68.0327 102.311 68.1968 102.311 68.3921C102.311 68.4546 102.288 68.4976 102.249 68.5171C102.206 68.5405 102.163 68.5483 102.124 68.5483C102.093 68.5483 102.054 68.5444 102.014 68.5327C101.983 68.5249 101.968 68.5015 101.968 68.4702C101.925 68.3687 101.878 68.2671 101.827 68.1733C101.772 68.0718 101.718 67.978 101.655 67.8921C101.593 67.8101 101.518 67.7437 101.436 67.689C101.35 67.6382 101.253 67.6108 101.139 67.6108C101.077 67.6108 101.014 67.6226 100.952 67.6421C100.889 67.6538 100.831 67.6851 100.78 67.7358C100.725 67.7788 100.686 67.8413 100.655 67.9233C100.624 68.0093 100.608 68.1108 100.608 68.2358C100.608 68.353 100.655 68.4546 100.749 68.5483C100.85 68.6421 100.983 68.7358 101.139 68.8296C101.296 68.9233 101.46 69.0288 101.639 69.1421C101.815 69.2476 101.983 69.3726 102.139 69.5171C102.296 69.6655 102.421 69.8296 102.514 70.0171C102.616 70.2046 102.671 70.4233 102.671 70.6733C102.671 70.8608 102.624 71.0327 102.53 71.189C102.436 71.3374 102.311 71.4624 102.155 71.564C101.999 71.6694 101.827 71.7476 101.639 71.7983C101.452 71.8608 101.268 71.8921 101.093 71.8921C100.999 71.8921 100.905 71.8804 100.811 71.8608C100.725 71.8491 100.647 71.8335 100.577 71.814C100.503 71.7905 100.44 71.7749 100.389 71.7671C100.335 71.7476 100.311 71.7358 100.311 71.7358Z" fill="#263238"/>
<path d="M103.386 71.7671C103.363 71.7593 103.347 71.7358 103.339 71.7046C103.339 71.6655 103.339 71.6343 103.339 71.6108C103.339 71.603 103.343 71.5796 103.355 71.5483C103.363 71.5093 103.375 71.4819 103.386 71.4702C103.425 71.4507 103.484 71.4351 103.558 71.4233C103.64 71.4155 103.718 71.3921 103.793 71.3608C103.875 71.3296 103.941 71.2788 103.996 71.2046C104.058 71.1343 104.089 71.0249 104.089 70.8765V68.5327C104.089 68.4507 104.066 68.3882 104.027 68.3452C103.984 68.3062 103.933 68.2749 103.871 68.2515C103.808 68.2202 103.734 68.2007 103.652 68.189C103.578 68.1812 103.511 68.1655 103.449 68.1421C103.425 68.1343 103.41 68.1226 103.402 68.1108C103.39 68.103 103.386 68.0796 103.386 68.0483C103.386 68.0288 103.386 68.0132 103.386 68.0015C103.394 67.9819 103.418 67.9624 103.449 67.939L105.074 67.189C105.082 67.1812 105.093 67.1733 105.105 67.1733C105.125 67.1655 105.136 67.1577 105.136 67.1577C105.199 67.1577 105.23 67.1968 105.23 67.2671V70.8765C105.23 71.0249 105.254 71.1343 105.308 71.2046C105.371 71.2788 105.437 71.3296 105.511 71.3608C105.593 71.3921 105.672 71.4155 105.746 71.4233C105.828 71.4351 105.89 71.4507 105.933 71.4702C105.941 71.4819 105.953 71.5093 105.964 71.5483C105.972 71.5796 105.98 71.603 105.98 71.6108C105.98 71.6343 105.972 71.6655 105.964 71.7046C105.964 71.7358 105.953 71.7593 105.933 71.7671H103.386ZM103.886 65.3921C103.886 65.1851 103.949 65.0171 104.074 64.8921C104.199 64.7671 104.363 64.7046 104.574 64.7046C104.781 64.7046 104.941 64.7671 105.058 64.8921C105.183 65.0171 105.246 65.1851 105.246 65.3921C105.246 65.603 105.183 65.7671 105.058 65.8921C104.941 66.0093 104.781 66.064 104.574 66.064C104.363 66.064 104.199 66.0093 104.074 65.8921C103.949 65.7671 103.886 65.603 103.886 65.3921Z" fill="#263238"/>
<path d="M108.162 67.0327C108.17 67.0249 108.182 67.0171 108.193 67.0171C108.213 67.0093 108.229 67.0015 108.24 67.0015C108.291 67.0015 108.318 67.0405 108.318 67.1108V67.9233C108.318 67.9468 108.334 67.9546 108.365 67.9546C108.373 67.9546 108.396 67.9507 108.428 67.939C108.572 67.8569 108.713 67.7788 108.85 67.7046C108.994 67.6226 109.135 67.5444 109.271 67.4702C109.416 67.3999 109.561 67.3413 109.709 67.2983C109.854 67.2593 109.998 67.2358 110.146 67.2358C110.291 67.2358 110.412 67.2593 110.506 67.2983C110.607 67.3296 110.693 67.3765 110.756 67.439C110.826 67.4937 110.885 67.5562 110.928 67.6265C110.979 67.689 111.021 67.7515 111.053 67.814C111.053 67.8257 111.057 67.8413 111.068 67.8608C111.076 67.8726 111.088 67.8882 111.1 67.9077C111.119 67.9194 111.135 67.9312 111.146 67.939C111.166 67.9507 111.182 67.9546 111.193 67.9546C111.244 67.9546 111.291 67.939 111.334 67.9077C111.654 67.7515 111.916 67.6343 112.115 67.5483C112.311 67.4546 112.479 67.3882 112.615 67.3452C112.748 67.2944 112.865 67.2632 112.959 67.2515C113.053 67.2437 113.146 67.2358 113.24 67.2358C113.436 67.2358 113.604 67.2749 113.74 67.3452C113.873 67.4077 113.99 67.4976 114.084 67.6108C114.178 67.728 114.248 67.8569 114.303 68.0015C114.365 68.1499 114.412 68.2983 114.443 68.4546C114.475 68.603 114.494 68.7476 114.506 68.8921C114.514 69.0405 114.521 69.1733 114.521 69.2983C114.521 69.4155 114.514 69.5249 114.506 69.6265C114.506 69.7202 114.498 69.8257 114.49 69.939C114.49 70.0562 114.482 70.1851 114.475 70.3296C114.475 70.478 114.475 70.6538 114.475 70.8608C114.475 70.9546 114.49 71.0405 114.521 71.1108C114.561 71.1733 114.607 71.228 114.662 71.2671C114.725 71.3101 114.787 71.3413 114.85 71.3608C114.92 71.3843 114.99 71.3999 115.053 71.4077C115.115 71.4194 115.17 71.4312 115.225 71.439C115.287 71.4507 115.326 71.4624 115.35 71.4702C115.369 71.4819 115.385 71.5093 115.396 71.5483C115.404 71.5796 115.412 71.603 115.412 71.6108C115.412 71.6343 115.404 71.6655 115.396 71.7046C115.385 71.7358 115.369 71.7593 115.35 71.7671H112.631C112.607 71.7593 112.592 71.7358 112.584 71.7046C112.584 71.6655 112.584 71.6343 112.584 71.6108C112.584 71.603 112.588 71.5796 112.6 71.5483C112.607 71.5093 112.619 71.4819 112.631 71.4702C112.67 71.4507 112.729 71.4351 112.803 71.4233C112.885 71.4155 112.963 71.3921 113.037 71.3608C113.119 71.3218 113.186 71.2632 113.24 71.189C113.303 71.1069 113.334 70.9858 113.334 70.8296V70.814C113.354 70.7202 113.365 70.6108 113.365 70.4858C113.373 70.3608 113.381 70.228 113.381 70.0796C113.381 70.0093 113.373 69.939 113.365 69.8765C113.365 69.814 113.365 69.7515 113.365 69.689C113.365 69.6187 113.365 69.5444 113.365 69.4702C113.365 69.3882 113.365 69.2983 113.365 69.2046C113.365 69.0405 113.354 68.8765 113.334 68.7202C113.322 68.564 113.287 68.4233 113.225 68.2983C113.17 68.1655 113.088 68.0601 112.975 67.9858C112.869 67.9038 112.717 67.8608 112.521 67.8608C112.49 67.8608 112.451 67.8687 112.412 67.8765C112.381 67.8882 112.326 67.9038 112.256 67.9233C112.182 67.9468 112.088 67.9819 111.975 68.0327C111.869 68.0874 111.725 68.1499 111.537 68.2202C111.506 68.2437 111.475 68.2632 111.443 68.2827C111.42 68.3062 111.412 68.3296 111.412 68.3608V70.8608C111.412 71.0093 111.436 71.1226 111.49 71.2046C111.553 71.2788 111.619 71.3296 111.693 71.3608C111.775 71.3921 111.854 71.4155 111.928 71.4233C112.01 71.4351 112.072 71.4507 112.115 71.4702C112.123 71.4819 112.135 71.5093 112.146 71.5483C112.154 71.5796 112.162 71.603 112.162 71.6108C112.162 71.6343 112.154 71.6655 112.146 71.7046C112.146 71.7358 112.135 71.7593 112.115 71.7671H109.568C109.545 71.7593 109.529 71.7358 109.521 71.7046C109.521 71.6655 109.521 71.6343 109.521 71.6108C109.521 71.603 109.525 71.5796 109.537 71.5483C109.545 71.5093 109.557 71.4819 109.568 71.4702C109.607 71.4507 109.666 71.4351 109.74 71.4233C109.822 71.4155 109.9 71.3921 109.975 71.3608C110.057 71.3296 110.123 71.2788 110.178 71.2046C110.24 71.1226 110.271 71.0093 110.271 70.8608V68.7358C110.271 68.603 110.26 68.4819 110.24 68.3765C110.217 68.2749 110.182 68.1851 110.131 68.1108C110.076 68.0288 109.998 67.9663 109.896 67.9233C109.803 67.8843 109.67 67.8608 109.506 67.8608C109.432 67.8608 109.338 67.8843 109.225 67.9233C109.107 67.9663 108.99 68.0171 108.865 68.0796C108.748 68.1421 108.639 68.2124 108.537 68.2827C108.443 68.3452 108.369 68.4077 108.318 68.4702V70.8608C108.318 71.0093 108.342 71.1226 108.396 71.2046C108.459 71.2788 108.525 71.3296 108.6 71.3608C108.682 71.3921 108.76 71.4155 108.834 71.4233C108.916 71.4351 108.979 71.4507 109.021 71.4702C109.041 71.4819 109.057 71.5093 109.068 71.5483C109.076 71.5796 109.084 71.603 109.084 71.6108C109.084 71.6343 109.076 71.6655 109.068 71.7046C109.057 71.7358 109.041 71.7593 109.021 71.7671H106.475C106.451 71.7593 106.436 71.7358 106.428 71.7046C106.428 71.6655 106.428 71.6343 106.428 71.6108C106.428 71.603 106.432 71.5796 106.443 71.5483C106.451 71.5093 106.463 71.4819 106.475 71.4702C106.514 71.4507 106.572 71.4351 106.646 71.4233C106.729 71.4155 106.807 71.3921 106.881 71.3608C106.963 71.3296 107.037 71.2788 107.1 71.2046C107.162 71.1343 107.193 71.0171 107.193 70.8608V68.3765C107.193 68.3062 107.166 68.2476 107.115 68.2046C107.072 68.1538 107.021 68.1187 106.959 68.0952C106.896 68.0757 106.826 68.0601 106.756 68.0483C106.682 68.0288 106.607 68.0093 106.537 67.9858C106.514 67.9858 106.498 67.9819 106.49 67.9702C106.479 67.9624 106.475 67.9351 106.475 67.8921C106.475 67.8843 106.479 67.8687 106.49 67.8452C106.498 67.8257 106.521 67.8101 106.553 67.7983L108.162 67.0327Z" fill="#263238"/>
<path d="M117.217 67.0327C117.225 67.0249 117.237 67.0171 117.249 67.0171C117.268 67.0093 117.28 67.0015 117.28 67.0015C117.342 67.0015 117.374 67.0405 117.374 67.1108V67.6421C117.374 67.6538 117.378 67.6655 117.389 67.6733C117.409 67.6851 117.421 67.689 117.421 67.689C117.44 67.689 117.456 67.6851 117.467 67.6733C117.487 67.6655 117.503 67.6577 117.514 67.6577C117.647 67.5757 117.768 67.5093 117.874 67.4546C117.975 67.4038 118.077 67.3608 118.171 67.3296C118.264 67.2983 118.358 67.2788 118.452 67.2671C118.553 67.2593 118.671 67.2515 118.796 67.2515C119.077 67.2515 119.327 67.3218 119.546 67.4546C119.764 67.5796 119.944 67.7515 120.092 67.9702C120.249 68.1812 120.366 68.4194 120.452 68.689C120.534 68.9507 120.577 69.2163 120.577 69.4858C120.577 69.6851 120.546 69.8843 120.483 70.0796C120.428 70.2788 120.358 70.4663 120.264 70.6421C120.171 70.8218 120.05 70.9858 119.905 71.1421C119.768 71.2983 119.616 71.4351 119.452 71.5483C119.296 71.6538 119.124 71.7358 118.936 71.7983C118.749 71.8608 118.553 71.8921 118.358 71.8921C118.21 71.8921 118.065 71.8804 117.921 71.8608C117.784 71.8491 117.632 71.8218 117.467 71.7827C117.413 71.7827 117.382 71.8022 117.374 71.8452C117.374 71.8843 117.374 71.9272 117.374 71.9702V73.9546C117.374 74.0483 117.393 74.1265 117.436 74.189C117.475 74.2515 117.53 74.3022 117.592 74.3452C117.655 74.3843 117.721 74.4155 117.796 74.439C117.866 74.4585 117.94 74.4741 118.014 74.4858C118.085 74.5054 118.147 74.5171 118.202 74.5171C118.264 74.5249 118.311 74.5366 118.342 74.5483C118.374 74.5679 118.389 74.5952 118.389 74.6265C118.389 74.6655 118.374 74.6929 118.342 74.7046H115.53C115.499 74.6929 115.483 74.6655 115.483 74.6265C115.483 74.5952 115.499 74.5679 115.53 74.5483C115.569 74.5366 115.628 74.521 115.702 74.5015C115.784 74.4897 115.862 74.4702 115.936 74.439C116.018 74.4077 116.085 74.353 116.139 74.2827C116.202 74.2085 116.233 74.0991 116.233 73.9546V68.3765C116.233 68.3062 116.21 68.2476 116.171 68.2046C116.128 68.1538 116.077 68.1187 116.014 68.0952C115.952 68.0757 115.878 68.0601 115.796 68.0483C115.721 68.0288 115.655 68.0093 115.592 67.9858C115.569 67.978 115.553 67.9663 115.546 67.9546C115.534 67.9468 115.53 67.9233 115.53 67.8921C115.53 67.8726 115.53 67.8569 115.53 67.8452C115.538 67.8257 115.561 67.8101 115.592 67.7983L117.217 67.0327ZM118.358 67.7983C118.19 67.7983 118.034 67.8257 117.889 67.8765C117.741 67.9194 117.592 67.9976 117.436 68.1108C117.436 68.1108 117.428 68.1187 117.421 68.1265C117.409 68.1382 117.405 68.1421 117.405 68.1421L117.374 68.1733V70.7827C117.374 70.7944 117.374 70.8257 117.374 70.8765C117.374 70.9194 117.378 70.9546 117.389 70.9858C117.397 71.0601 117.44 71.1226 117.514 71.1733C117.585 71.228 117.671 71.2749 117.764 71.314C117.866 71.3569 117.967 71.3882 118.061 71.4077C118.155 71.4312 118.233 71.439 118.296 71.439C118.503 71.439 118.678 71.4038 118.827 71.3296C118.983 71.2476 119.1 71.1421 119.186 71.0171C119.28 70.8843 119.346 70.728 119.389 70.5483C119.428 70.3726 119.452 70.1851 119.452 69.9858C119.452 69.8413 119.44 69.6851 119.421 69.5171C119.409 69.3413 119.382 69.1733 119.342 69.0171C119.311 68.853 119.268 68.6968 119.217 68.5483C119.163 68.4038 119.096 68.2788 119.014 68.1733C118.928 68.0601 118.835 67.9702 118.733 67.9077C118.628 67.8374 118.503 67.7983 118.358 67.7983Z" fill="#263238"/>
<path d="M123.862 71.6265C123.862 71.6382 123.854 71.6655 123.846 71.7046C123.834 71.7358 123.823 71.7593 123.815 71.7671H121.252C121.241 71.7593 121.229 71.7358 121.221 71.7046C121.209 71.6655 121.205 71.6382 121.205 71.6265C121.205 71.6069 121.209 71.5796 121.221 71.5483C121.229 71.5093 121.241 71.4858 121.252 71.4858C121.291 71.4663 121.35 71.4507 121.424 71.439C121.506 71.4194 121.584 71.3921 121.659 71.3608C121.741 71.3296 121.815 71.2788 121.877 71.2046C121.94 71.1343 121.971 71.0249 121.971 70.8765V65.189C121.971 65.1069 121.948 65.0444 121.909 65.0015C121.866 64.9624 121.807 64.9312 121.737 64.9077C121.674 64.8765 121.604 64.8569 121.534 64.8452C121.459 64.8374 121.385 64.8218 121.315 64.7983C121.272 64.7788 121.252 64.7319 121.252 64.6577C121.252 64.6382 121.256 64.6187 121.268 64.5952C121.276 64.564 121.299 64.5444 121.33 64.5327L122.94 63.7671C122.948 63.7593 122.963 63.7515 122.987 63.7515C123.006 63.7437 123.022 63.7358 123.034 63.7358C123.065 63.7358 123.08 63.7476 123.08 63.7671C123.088 63.7788 123.096 63.8062 123.096 63.8452V70.8765C123.096 71.0249 123.119 71.1343 123.174 71.2046C123.237 71.2788 123.303 71.3296 123.377 71.3608C123.459 71.3921 123.537 71.4194 123.612 71.439C123.694 71.4507 123.76 71.4663 123.815 71.4858C123.823 71.4858 123.834 71.5093 123.846 71.5483C123.854 71.5796 123.862 71.6069 123.862 71.6265Z" fill="#263238"/>
<path d="M124.369 69.7827C124.369 69.4077 124.42 69.0601 124.526 68.7358C124.639 68.4155 124.795 68.1382 124.994 67.9077C125.19 67.6694 125.436 67.4858 125.729 67.3608C126.018 67.228 126.354 67.1577 126.729 67.1577C126.83 67.1577 126.924 67.1694 127.01 67.189C127.104 67.2007 127.186 67.2202 127.26 67.2515C127.33 67.2749 127.401 67.2983 127.463 67.3296C127.533 67.3608 127.604 67.3999 127.666 67.439C127.737 67.4819 127.823 67.5562 127.916 67.6577C128.01 67.7515 128.096 67.8687 128.182 68.0015C128.276 68.1382 128.346 68.2827 128.401 68.439C128.463 68.5874 128.494 68.728 128.494 68.8608C128.494 68.9155 128.483 68.9663 128.463 69.0171C128.451 69.0718 128.42 69.0952 128.369 69.0952H125.494C125.463 69.0952 125.44 69.1265 125.432 69.189C125.42 69.2437 125.416 69.3101 125.416 69.3921C125.416 69.6851 125.455 69.9468 125.541 70.1733C125.623 70.3921 125.733 70.5796 125.869 70.7358C126.014 70.8843 126.174 70.9976 126.354 71.0796C126.541 71.1655 126.733 71.2046 126.932 71.2046C127.057 71.2046 127.174 71.189 127.291 71.1577C127.416 71.1187 127.53 71.0718 127.635 71.0171C127.737 70.9663 127.838 70.9038 127.932 70.8296C128.026 70.7593 128.119 70.689 128.213 70.6265C128.221 70.6187 128.233 70.6108 128.244 70.6108C128.252 70.6108 128.268 70.6226 128.291 70.6421C128.311 70.6655 128.338 70.6968 128.369 70.7358C128.401 70.7671 128.424 70.7944 128.448 70.814C128.448 70.8257 128.448 70.8374 128.448 70.8452C128.448 70.8569 128.44 70.8687 128.432 70.8765C128.326 71.0015 128.198 71.1265 128.041 71.2515C127.885 71.3765 127.717 71.4858 127.541 71.5796C127.362 71.6733 127.182 71.7476 126.994 71.7983C126.807 71.8608 126.627 71.8921 126.463 71.8921C126.127 71.8921 125.83 71.8335 125.573 71.7202C125.311 71.5952 125.092 71.4351 124.916 71.2358C124.737 71.0405 124.604 70.814 124.51 70.564C124.416 70.3062 124.369 70.0444 124.369 69.7827ZM127.229 68.7202C127.311 68.7202 127.354 68.6851 127.354 68.6108C127.354 68.4858 127.33 68.3687 127.291 68.2515C127.26 68.1382 127.201 68.0405 127.119 67.9546C127.045 67.8608 126.955 67.7944 126.854 67.7515C126.748 67.7007 126.627 67.6733 126.494 67.6733C126.338 67.6733 126.201 67.7124 126.088 67.7827C125.971 67.8452 125.873 67.9233 125.791 68.0171C125.705 68.1108 125.643 68.2124 125.604 68.314C125.573 68.4077 125.557 68.4937 125.557 68.564C125.557 68.6265 125.561 68.6694 125.573 68.689C125.592 68.7124 125.612 68.7202 125.635 68.7202H127.229Z" fill="#263238"/>
<path d="M175.314 25.4297H209.978V54.9297H175.314V25.4297Z" fill="#263238"/>
<path d="M195.841 54.9297H209.978V44.0312C206.97 49.3555 201.896 53.3516 195.841 54.9297Z" fill="#4D9CE0"/>
<path d="M194.49 48.2891H198.916V52.7148H194.49V48.2891Z" fill="white"/>
<path d="M213.666 57.8789C213.666 58.4609 213.611 59.0352 213.498 59.6055C213.38 60.1758 213.216 60.7266 212.994 61.2656C212.771 61.8008 212.498 62.3125 212.173 62.7969C211.853 63.2773 211.486 63.7266 211.072 64.1367C210.662 64.5469 210.216 64.9141 209.732 65.2383C209.248 65.5586 208.74 65.832 208.201 66.0547C207.666 66.2773 207.111 66.4453 206.541 66.5586C205.974 66.6719 205.396 66.7266 204.814 66.7266C204.236 66.7266 203.658 66.6719 203.087 66.5586C202.521 66.4453 201.966 66.2773 201.427 66.0547C200.892 65.832 200.38 65.5586 199.9 65.2383C199.416 64.9141 198.97 64.5469 198.556 64.1367C198.146 63.7266 197.779 63.2773 197.458 62.7969C197.134 62.3125 196.861 61.8008 196.638 61.2656C196.416 60.7266 196.248 60.1758 196.134 59.6055C196.021 59.0352 195.966 58.4609 195.966 57.8789C195.966 57.2969 196.021 56.7227 196.134 56.1523C196.248 55.582 196.416 55.0273 196.638 54.4922C196.861 53.9531 197.134 53.4453 197.458 52.9609C197.779 52.4805 198.146 52.0312 198.556 51.6211C198.97 51.2109 199.416 50.8437 199.9 50.5195C200.38 50.1953 200.892 49.9258 201.427 49.7031C201.966 49.4805 202.521 49.3125 203.087 49.1992C203.658 49.0859 204.236 49.0273 204.814 49.0273C205.396 49.0273 205.974 49.0859 206.541 49.1992C207.111 49.3125 207.666 49.4805 208.201 49.7031C208.74 49.9258 209.248 50.1953 209.732 50.5195C210.216 50.8437 210.662 51.2109 211.072 51.6211C211.486 52.0312 211.853 52.4805 212.173 52.9609C212.498 53.4453 212.771 53.9531 212.994 54.4922C213.216 55.0273 213.38 55.582 213.498 56.1523C213.611 56.7227 213.666 57.2969 213.666 57.8789Z" fill="#4B8DF0"/>
<path d="M178.267 48.2891H182.689V52.7148H178.267V48.2891Z" fill="white"/>
<path d="M178.267 33.5391H182.689V37.9648H178.267V33.5391Z" fill="white"/>
<path d="M186.376 33.5391H190.802V37.9648H186.376V33.5391Z" fill="white"/>
<path d="M194.49 33.5391H198.916V37.9648H194.49V33.5391Z" fill="white"/>
<path d="M202.603 33.5391H207.029V37.9648H202.603V33.5391Z" fill="white"/>
<path d="M178.267 40.9141H182.689V45.3398H178.267V40.9141Z" fill="white"/>
<path d="M186.376 40.9141H190.802V45.3398H186.376V40.9141Z" fill="white"/>
<path d="M186.376 48.2891H190.802V52.7148H186.376V48.2891Z" fill="white"/>
<path d="M194.49 40.9141H198.916V45.3398H194.49V40.9141Z" fill="white"/>
<path d="M202.603 40.9141H207.029V45.3398H202.603V40.9141Z" fill="white"/>
<path d="M179.74 22.4766H183.427V26.9023H179.74V22.4766Z" fill="#4B8DF0"/>
<path d="M201.865 22.4766H205.552V26.9023H201.865V22.4766Z" fill="#4B8DF0"/>
<path d="M210.716 57.1406H212.927V58.6172H210.716V57.1406Z" fill="white"/>
<path d="M196.705 57.8789L196.732 57.1406H198.916V58.6172H196.732L196.705 57.8789Z" fill="white"/>
<path d="M204.08 49.0273H205.552V51.2422H204.08V49.0273Z" fill="white"/>
<path d="M177.529 29.1172H207.767V30.5898H177.529V29.1172Z" fill="#4B8DF0"/>
<path d="M204.08 57.8789C204.08 58.2852 204.408 58.6172 204.814 58.6172H207.767V57.1406H205.552V53.4531H204.08V57.8789Z" fill="white"/>
<path d="M177.529 51.9766H176.509C177.13 51.4375 177.529 50.6523 177.529 49.7656C177.529 48.1367 176.208 46.8164 174.58 46.8164C172.951 46.8164 171.626 48.1367 171.626 49.7656C171.626 50.6523 172.029 51.4375 172.646 51.9766H171.626C170.408 51.9766 169.416 52.9688 169.416 54.1914V58.6172L170.892 59.3516V66.7266H178.267V59.3516L179.74 58.6172V54.1914C179.74 52.9688 178.751 51.9766 177.529 51.9766Z" fill="#4B8DF0"/>
<path d="M179.693 58.6406L179.74 58.6172V58.5352C179.724 58.5703 179.708 58.6055 179.693 58.6406Z" fill="#CF130E"/>
<path d="M171.658 66.7266H178.267V61.1719C176.611 63.5703 174.33 65.5039 171.658 66.7266Z" fill="#156DF1"/>
<path d="M173.841 57.8789H175.314V54.9297H176.052V53.4531H173.103V54.9297H173.841V57.8789Z" fill="white"/>
<path d="M175.314 63.7773H176.791V65.2539H175.314V63.7773Z" fill="white"/>
<path d="M202.642 66.4492C203.341 66.625 204.064 66.7266 204.814 66.7266C209.408 66.7266 213.181 63.2305 213.623 58.7578C211.283 62.707 207.314 65.5781 202.642 66.4492Z" fill="#156DF1"/>
<path d="M204.814 65.9922L205.552 65.9609V63.7773H204.08V65.9609L204.814 65.9922Z" fill="white"/>
</svg>
