<svg width="300" height="248" viewBox="0 0 300 248" fill="none" xmlns="http://www.w3.org/2000/svg">
<ellipse opacity="0.8" cx="150" cy="233" rx="150" ry="15" transform="rotate(180 150 233)" fill="url(#paint0_linear_306_6225)"/>
<path d="M206.553 210.519L221.361 236.271L226.654 236.414L216.997 209.947L206.553 210.519Z" fill="#263238"/>
<path d="M50.1109 211.879L42.3138 236.2H46.2481L59.8393 211.95L50.1109 211.879Z" fill="#263238"/>
<path d="M46.7488 123.464L47.3211 154.938C47.3926 159.373 50.397 162.95 54.1167 163.093L201.546 167.027C205.48 167.099 208.699 163.379 208.699 158.73V120.817C208.699 109.658 201.76 100.144 192.533 98.642C165.565 94.207 109.841 87.4114 64.8466 97.0683C54.1882 99.3573 46.5342 110.516 46.7488 123.464Z" fill="#455A64"/>
<path d="M46.105 134.48C46.105 134.48 33.9444 127.756 31.4408 134.48C28.9372 141.204 31.7269 149.43 34.4452 154.08C37.235 158.73 37.1634 215.384 37.1634 215.384L221.361 213.023L223.578 158.443C223.578 158.443 232.448 145.424 231.876 139.845C231.304 134.265 223.864 126.111 215.28 134.48C206.696 142.849 204.479 160.303 204.479 160.303L57.6218 161.591C57.6934 161.662 58.1941 137.055 46.105 134.48Z" fill="#455A64"/>
<path d="M202.69 171.248C202.69 171.319 170.071 171.462 129.798 171.462C89.5255 171.462 56.9065 171.391 56.9065 171.248C56.9065 171.176 89.5255 171.033 129.798 171.033C170.071 171.033 202.69 171.105 202.69 171.248Z" fill="#263238"/>
<path d="M56.9781 195.211C56.9781 195.211 56.9781 195.14 56.9781 195.068C56.9781 194.925 56.9781 194.782 56.9781 194.568C56.9781 194.138 56.9781 193.495 56.9781 192.636C56.9781 190.919 56.9781 188.487 56.9781 185.483C56.9781 179.403 56.9781 171.105 56.7635 161.877C56.6204 157.299 56.4773 152.864 55.9051 148.93C55.8335 148.429 55.6905 148 55.6189 147.499C55.4759 147.07 55.3328 146.569 55.1898 146.14C54.9036 145.281 54.546 144.423 54.1883 143.636C53.473 142.062 52.7576 140.703 51.9708 139.487C51.1839 138.343 50.3971 137.341 49.6102 136.626C48.8233 135.911 48.108 135.338 47.4642 134.981C46.1766 134.265 45.3898 134.051 45.4613 133.979C45.4613 133.979 45.5328 133.979 45.6044 133.979C45.7474 133.979 45.8189 134.051 46.0335 134.122C46.3912 134.194 46.8919 134.48 47.5357 134.838C48.1795 135.195 48.9664 135.696 49.7533 136.483C50.5401 137.198 51.3985 138.2 52.1854 139.344C52.9722 140.489 53.7591 141.919 54.4744 143.493C54.8321 144.28 55.1898 145.138 55.4759 145.997C55.6189 146.426 55.762 146.855 55.9051 147.356C56.0481 147.857 56.1197 148.286 56.2627 148.787C56.835 152.792 56.9781 157.156 57.1211 161.806C57.3357 171.033 57.2642 179.403 57.1927 185.483C57.1927 188.487 57.1211 190.919 57.1211 192.636C57.1211 193.423 57.1211 194.138 57.1211 194.568C57.1211 194.782 57.1211 194.925 57.1211 195.068C56.9781 195.14 56.9781 195.211 56.9781 195.211Z" fill="#263238"/>
<path d="M44.6744 147.141C44.6744 147.141 44.8174 146.998 45.1751 146.927C45.5327 146.855 46.0335 146.927 46.5342 147.356C46.7488 147.57 47.0349 147.857 47.178 148.214C47.3211 148.572 47.3926 149.073 47.3211 149.573C47.178 150.503 46.5342 151.505 45.6043 151.791C44.6028 152.005 43.7444 151.29 43.3152 150.503C43.1006 150.074 43.0291 149.573 43.0291 149.144C43.0291 148.715 43.1722 148.286 43.3152 148C43.6014 147.356 44.0306 146.998 44.3167 146.855C44.6028 146.712 44.8174 146.712 44.8174 146.712C44.8174 146.712 44.6744 146.784 44.3882 146.998C44.1021 147.213 43.7444 147.57 43.5298 148.143C43.3152 148.715 43.1722 149.573 43.6014 150.289C43.959 151.004 44.7459 151.576 45.6043 151.433C46.3911 151.219 46.9634 150.36 47.1065 149.573C47.2495 148.715 46.8919 148 46.3911 147.57C45.9619 147.141 45.4612 147.07 45.1751 147.07C44.889 147.141 44.6744 147.213 44.6744 147.141Z" fill="#263238"/>
<path d="M45.5327 161.233C45.5327 161.233 45.1035 160.876 44.6743 160.089C44.2451 159.302 43.8159 158.014 43.8159 156.512C43.8159 155.01 44.1736 153.722 44.6028 152.935C45.032 152.077 45.3897 151.719 45.3897 151.719C45.4612 151.791 45.1035 152.22 44.7459 153.007C44.3882 153.794 44.0305 155.081 44.1021 156.441C44.1021 157.871 44.4597 159.087 44.8174 159.874C45.2466 160.804 45.5327 161.233 45.5327 161.233Z" fill="#263238"/>
<path d="M43.6014 140.06C43.6729 140.06 43.5299 140.489 43.3868 141.133C43.3153 141.776 43.2437 142.706 43.3868 143.708C43.5299 144.709 43.8875 145.496 44.2452 146.068C44.5313 146.641 44.8174 146.927 44.7459 146.927C44.7459 146.927 44.3882 146.712 44.0306 146.211C43.6729 145.711 43.2437 144.852 43.0291 143.779C42.8145 142.706 42.9576 141.776 43.1007 141.061C43.3868 140.346 43.5299 139.988 43.6014 140.06Z" fill="#263238"/>
<path d="M40.0248 147.928C40.0963 147.857 40.6686 148.5 41.527 149.073C42.3854 149.573 43.1722 149.788 43.1722 149.86C43.1722 149.931 42.3138 149.931 41.3839 149.359C40.454 148.858 39.9532 148 40.0248 147.928Z" fill="#263238"/>
<path d="M222.147 195.211C222.147 195.283 180.587 195.426 129.369 195.426C78.0802 195.426 36.5912 195.354 36.5912 195.211C36.5912 195.068 78.1517 194.997 129.369 194.997C180.587 195.068 222.147 195.14 222.147 195.211Z" fill="#263238"/>
<path d="M202.047 160.518C202.118 160.518 202.19 168.315 202.19 177.9C202.19 187.486 202.118 195.283 202.047 195.283C201.975 195.283 201.904 187.486 201.904 177.9C201.904 168.243 201.975 160.518 202.047 160.518Z" fill="#263238"/>
<path d="M178.298 100.43C178.298 100.43 178.155 100.43 177.869 100.43C177.582 100.43 177.153 100.43 176.652 100.502C175.579 100.502 174.077 100.573 172.074 100.645C168.069 100.716 162.346 100.859 155.264 101.003C141.029 101.217 121.429 101.575 99.6831 101.932C94.2466 102.076 88.9532 102.004 83.8743 102.29C78.7955 102.576 73.8597 103.149 69.4962 104.508C65.0612 105.795 61.27 107.941 58.5517 110.516C57.1926 111.804 56.0481 113.235 55.1897 114.665C54.2597 116.096 53.6875 117.598 53.1152 118.957C52.1138 121.819 51.6846 124.537 51.3984 126.897C51.1123 129.258 51.1123 131.332 51.1123 132.978C51.1123 134.623 51.1123 135.982 51.1838 136.841C51.1838 137.27 51.1838 137.627 51.1838 137.842C51.1838 138.057 51.1838 138.2 51.1838 138.2C51.1838 138.2 51.1838 138.057 51.1123 137.842C51.1123 137.627 51.0408 137.27 51.0408 136.841C50.9692 135.982 50.8977 134.695 50.8977 132.978C50.8977 131.332 50.8977 129.258 51.1123 126.897C51.3269 124.537 51.7561 121.819 52.7576 118.957C53.3298 117.527 53.9021 116.024 54.832 114.594C55.6904 113.092 56.8349 111.661 58.1941 110.373C60.9123 107.655 64.8466 105.509 69.2816 104.222C73.7167 102.862 78.724 102.29 83.8028 101.932C88.9532 101.646 94.2466 101.646 99.6116 101.575C121.286 101.217 140.958 100.931 155.193 100.716C162.274 100.645 168.069 100.573 172.003 100.502C174.006 100.502 175.508 100.502 176.581 100.43C177.082 100.43 177.511 100.43 177.797 100.43C178.155 100.43 178.298 100.43 178.298 100.43Z" fill="#263238"/>
<path d="M93.3882 124.966C93.3882 124.966 93.1736 125.109 92.8875 125.395C92.6014 125.681 92.1722 126.182 91.9576 126.969C91.743 127.756 91.743 128.757 92.3152 129.616C92.816 130.474 93.889 131.046 94.8904 130.76C95.8919 130.474 96.5357 129.401 96.7503 128.4C96.9649 127.327 96.5357 126.397 96.035 125.824C95.5342 125.252 94.962 125.038 94.6043 124.966C94.2466 124.895 94.032 124.895 94.032 124.895C94.032 124.895 94.2466 124.823 94.6758 124.823C95.105 124.895 95.6773 125.038 96.2496 125.681C96.5357 125.968 96.7503 126.325 96.9649 126.826C97.1079 127.327 97.1795 127.899 97.1079 128.471C96.9649 129.616 96.178 130.832 95.0335 131.189C93.889 131.476 92.7444 130.832 92.1722 129.902C91.886 129.401 91.743 128.9 91.6714 128.328C91.6714 127.827 91.743 127.327 91.886 126.897C92.1722 126.111 92.6014 125.538 92.959 125.324C93.1736 125.038 93.3882 124.966 93.3882 124.966Z" fill="#263238"/>
<path d="M90.8846 143.493C90.8846 143.493 90.5985 142.706 90.4554 141.347C90.2408 140.06 90.0977 138.128 90.5269 136.054C91.0276 133.979 92.1006 132.477 93.1021 131.833C93.6028 131.476 94.032 131.333 94.3897 131.261C94.6758 131.189 94.8904 131.189 94.8904 131.189C94.8904 131.261 94.1751 131.333 93.2452 132.048C92.3152 132.763 91.3138 134.265 90.813 136.197C90.3839 138.128 90.5269 139.988 90.67 141.347C90.813 142.706 90.9561 143.493 90.8846 143.493Z" fill="#263238"/>
<path d="M93.0306 113.95C93.1022 114.022 92.6014 114.522 92.1722 115.524C91.743 116.525 91.3138 118.171 91.6715 119.887C92.0292 121.604 92.9591 122.892 93.746 123.607C94.5328 124.322 95.1051 124.537 95.1051 124.537C95.1051 124.537 94.962 124.537 94.6759 124.394C94.3898 124.322 94.0321 124.108 93.6029 123.75C92.7445 123.106 91.743 121.747 91.3854 119.959C91.0277 118.099 91.4569 116.382 92.0292 115.381C92.3153 114.88 92.5299 114.451 92.7445 114.236C92.8876 114.022 93.0306 113.95 93.0306 113.95Z" fill="#263238"/>
<path d="M92.5298 128.257C92.5298 128.4 91.0277 128.4 89.3109 129.115C87.5941 129.83 86.3065 130.832 86.3065 130.76C86.235 130.689 87.451 129.473 89.2393 128.757C90.9561 128.042 92.5298 128.185 92.5298 128.257Z" fill="#263238"/>
<g opacity="0.3">
<g opacity="0.3">
<path opacity="0.3" d="M76.9357 172.607C84.4466 177.829 94.1036 180.404 103.546 179.832C101.543 188.13 99.6116 196.356 97.6087 204.654C97.108 206.871 96.6072 209.303 97.8948 211.235C99.6831 213.953 103.904 214.239 107.409 214.168C111.343 214.096 115.42 214.024 118.854 212.379C123.79 210.09 126.436 205.154 128.296 200.505C130.228 195.784 131.873 190.776 135.807 187.271C140.242 191.849 146.466 195.068 153.118 196.141C155.05 196.499 157.267 196.57 158.841 195.426C160.415 194.353 160.844 192.35 160.486 190.562C160.057 188.845 158.984 187.271 157.911 185.769C154.12 180.476 150.257 175.111 146.466 169.817C144.892 167.671 143.247 165.382 140.6 164.381C138.525 163.594 136.236 163.665 133.947 163.737C115.277 164.738 96.6788 167.242 78.5094 171.248" fill="black"/>
</g>
</g>
<g opacity="0.3">
<g opacity="0.3">
<path opacity="0.3" d="M138.096 93.4917C133.447 104.508 116.207 107.011 110.127 117.455C104.118 127.756 111.558 141.419 105.406 151.576C103.117 155.368 99.1824 158.157 96.9649 162.02C95.4627 164.595 94.6759 167.6 92.2438 169.531C89.3824 171.749 85.0189 171.677 81.6569 170.246C78.2233 168.816 75.6481 166.241 73.216 163.665C68.7094 158.801 64.4175 153.579 62.2715 147.571C58.6233 137.198 61.9854 125.467 69.2817 116.74C76.5781 108.013 87.4511 102.219 98.9678 98.7136C110.485 95.2085 122.574 93.8494 134.663 92.8479" fill="black"/>
</g>
</g>
<path d="M87.2366 62.661C88.8818 60.2288 91.0278 58.0113 93.6745 56.7237C96.3212 55.3646 99.4687 54.9354 102.258 55.8653C105.048 56.7953 107.409 59.1558 107.981 62.0172C108.41 64.3062 107.838 66.8814 108.983 68.8843C110.342 71.1734 113.632 71.9602 114.777 74.3923C115.492 75.823 115.206 77.6113 114.419 79.042C113.632 80.4726 112.488 81.6172 111.272 82.6901C111.987 83.1909 112.702 83.7631 113.203 84.4785C113.704 85.1938 113.99 86.1953 113.632 86.9821C113.275 87.8405 112.345 88.3412 111.486 88.6989C107.552 90.3442 103.045 90.7734 98.8249 89.915C97.6804 89.7004 96.3928 89.3427 95.4628 90.058" fill="#263238"/>
<path d="M115.85 71.1733L113.561 78.1835L129.226 87.0536L113.489 87.5543L114.634 100.287L144.892 92.8478C144.963 92.8478 146.752 80.4726 115.85 71.1733L113.704 70.6726C112.917 70.458 112.273 69.9573 111.987 69.1704C111.772 68.5981 111.343 68.0974 110.771 67.8113L108.196 66.4521V68.5266L109.626 70.1719L109.412 74.1062C109.269 75.8229 110.485 77.4682 112.13 77.8259L113.561 78.1835" fill="#FFAAA5"/>
<path d="M81.657 96.4959C81.0132 96.4959 75.2905 97.9266 71.9285 102.075C68.638 106.296 63.8453 122.033 63.8453 122.033L76.0059 124.108L81.2278 137.27C81.2278 137.27 112.273 133.192 110.628 131.547C108.983 129.902 105.549 127.398 105.549 127.398L112.702 103.578L121.286 98.928L118.425 87.0536L101.114 89.4142L81.657 96.4959Z" fill="#4B8DF0"/>
<path d="M78.5096 112.805C78.5811 112.805 78.0804 115.452 77.3651 118.671C76.6497 121.89 75.9344 124.465 75.8629 124.465C75.7913 124.465 76.2921 121.819 77.0074 118.6C77.7227 115.381 78.4381 112.805 78.5096 112.805Z" fill="#263238"/>
<path d="M112.344 202.078L103.331 230.692L114.204 231.765L124.505 206.943L112.344 202.078Z" fill="#FFAAA5"/>
<path d="M120.356 220.677L115.134 233.553C115.134 233.553 126.508 243.138 125.793 245.642L100.398 236.486L107.695 216.027L120.356 220.677Z" fill="#4B8DF0"/>
<path d="M107.695 229.619C107.123 229.547 106.622 229.976 106.55 230.549C106.479 231.121 106.908 231.622 107.48 231.693C108.052 231.765 108.696 231.264 108.696 230.692C108.696 230.119 108.124 229.547 107.623 229.619" fill="#E0E0E0"/>
<path d="M100.398 236.486L101.185 234.483L125.22 244.068C125.22 244.068 126.15 244.998 125.721 245.714L100.398 236.486Z" fill="#E0E0E0"/>
<path d="M115.635 233.553C115.563 233.696 114.92 233.482 114.204 233.696C113.417 233.839 112.917 234.268 112.845 234.197C112.774 234.125 113.203 233.482 114.133 233.267C114.991 233.052 115.707 233.482 115.635 233.553Z" fill="#263238"/>
<path d="M117.852 235.627C117.852 235.77 117.209 235.77 116.636 236.128C115.993 236.486 115.706 236.987 115.563 236.987C115.42 236.987 115.635 236.2 116.35 235.77C117.137 235.341 117.924 235.556 117.852 235.627Z" fill="#263238"/>
<path d="M118.21 239.347C118.067 239.347 118.139 238.632 118.711 238.06C119.283 237.487 119.927 237.416 119.999 237.559C119.999 237.702 119.498 237.917 119.069 238.417C118.568 238.918 118.353 239.419 118.21 239.347Z" fill="#263238"/>
<path d="M116.493 230.477C116.422 230.549 115.921 230.191 115.206 229.976C114.49 229.762 113.847 229.762 113.847 229.69C113.775 229.547 114.49 229.333 115.349 229.547C116.136 229.833 116.565 230.406 116.493 230.477Z" fill="#263238"/>
<path d="M117.495 227.902C117.495 227.973 116.994 227.83 116.207 227.401C115.85 227.187 115.42 226.9 114.991 226.543C114.777 226.328 114.562 226.114 114.419 225.899C114.347 225.756 114.204 225.684 114.133 225.47C114.061 225.255 114.061 224.969 114.347 224.754C114.562 224.611 114.777 224.611 114.991 224.683C115.206 224.755 115.349 224.826 115.42 224.898C115.706 225.041 115.921 225.255 116.136 225.47C116.565 225.899 116.851 226.257 116.994 226.686C117.352 227.473 117.423 227.973 117.352 227.973C117.28 227.973 117.137 227.473 116.708 226.829C116.493 226.471 116.207 226.114 115.778 225.756C115.563 225.613 115.349 225.398 115.134 225.255C114.92 225.112 114.633 224.969 114.562 225.112C114.49 225.184 114.49 225.184 114.562 225.255C114.562 225.327 114.705 225.47 114.777 225.541C114.92 225.756 115.134 225.971 115.277 226.185C115.635 226.543 115.993 226.9 116.35 227.115C117.066 227.616 117.495 227.83 117.495 227.902Z" fill="#263238"/>
<path d="M117.28 227.973C117.209 227.973 117.137 227.473 117.423 226.614C117.566 226.185 117.781 225.756 118.067 225.255C118.21 225.041 118.425 224.826 118.639 224.611C118.854 224.397 119.212 224.111 119.712 224.254C119.998 224.325 120.07 224.611 120.141 224.826C120.141 225.041 120.141 225.184 120.07 225.327C119.998 225.613 119.927 225.899 119.784 226.185C119.498 226.686 119.14 227.043 118.782 227.33C118.067 227.83 117.495 227.759 117.495 227.687C117.495 227.616 117.995 227.544 118.568 227.043C118.854 226.829 119.212 226.471 119.426 225.971C119.569 225.756 119.641 225.47 119.641 225.255C119.712 224.969 119.641 224.683 119.569 224.683C119.426 224.611 119.14 224.754 118.997 224.969C118.782 225.184 118.568 225.327 118.425 225.541C118.067 225.97 117.852 226.328 117.709 226.686C117.352 227.473 117.352 227.973 117.28 227.973Z" fill="#263238"/>
<path d="M146.752 175.254L160.272 198.716L171.288 191.635L157.768 167.743L146.752 175.254Z" fill="#FFAAA5"/>
<path d="M167.496 184.911L174.507 196.928C174.507 196.928 189.099 193.852 190.602 195.998L167.783 210.376L156.051 192.064L167.496 184.911Z" fill="#4B8DF0"/>
<path d="M166.781 200.362C166.423 200.791 166.423 201.435 166.781 201.864C167.139 202.221 167.854 202.221 168.212 201.864C168.569 201.506 168.569 200.648 168.212 200.29C167.782 199.932 166.996 200.004 166.709 200.505" fill="#E0E0E0"/>
<path d="M167.711 210.376L166.638 208.516L188.956 195.426C188.956 195.426 190.244 195.211 190.602 195.998L167.711 210.376Z" fill="#E0E0E0"/>
<path d="M174.793 196.57C174.864 196.713 174.363 197.071 174.006 197.786C173.648 198.502 173.72 199.146 173.577 199.146C173.434 199.217 173.219 198.43 173.648 197.572C174.006 196.785 174.721 196.499 174.793 196.57Z" fill="#263238"/>
<path d="M177.797 196.07C177.869 196.141 177.511 196.642 177.439 197.357C177.368 198.073 177.583 198.645 177.439 198.716C177.368 198.788 176.867 198.216 177.01 197.286C177.082 196.427 177.726 195.998 177.797 196.07Z" fill="#263238"/>
<path d="M180.945 198.073C180.873 198.144 180.372 197.715 180.229 196.928C180.158 196.141 180.515 195.569 180.587 195.64C180.73 195.712 180.587 196.213 180.658 196.856C180.801 197.5 181.088 198.001 180.945 198.073Z" fill="#263238"/>
<path d="M172.861 193.995C172.861 194.138 172.289 194.281 171.645 194.71C171.001 195.14 170.644 195.64 170.572 195.569C170.429 195.497 170.644 194.782 171.359 194.281C172.146 193.852 172.861 193.924 172.861 193.995Z" fill="#263238"/>
<path d="M171.431 191.635C171.431 191.706 171.073 191.992 170.286 192.35C169.929 192.493 169.428 192.636 168.856 192.708C168.569 192.779 168.283 192.779 167.997 192.779C167.854 192.779 167.711 192.779 167.496 192.708C167.282 192.636 167.067 192.421 167.067 192.135C167.067 191.921 167.21 191.706 167.425 191.563C167.568 191.42 167.783 191.42 167.926 191.348C168.212 191.277 168.498 191.205 168.784 191.134C169.356 191.062 169.857 191.062 170.286 191.134C171.145 191.277 171.574 191.563 171.574 191.635C171.574 191.706 171.073 191.492 170.286 191.42C169.857 191.42 169.428 191.42 168.927 191.492C168.641 191.563 168.426 191.635 168.14 191.706C167.854 191.778 167.639 191.921 167.639 192.064C167.639 192.135 167.639 192.135 167.711 192.207C167.783 192.207 167.926 192.207 168.069 192.278C168.355 192.278 168.641 192.278 168.856 192.278C169.356 192.207 169.857 192.135 170.215 191.992C170.93 191.778 171.431 191.563 171.431 191.635Z" fill="#263238"/>
<path d="M171.359 191.849C171.359 191.921 170.858 191.635 170.358 190.919C170.143 190.562 169.857 190.132 169.714 189.56C169.642 189.274 169.571 188.988 169.571 188.702C169.571 188.416 169.571 187.986 169.928 187.7C170.143 187.557 170.429 187.629 170.572 187.7C170.715 187.772 170.858 187.915 170.93 188.058C171.145 188.273 171.288 188.559 171.431 188.845C171.645 189.346 171.717 189.918 171.717 190.347C171.645 191.205 171.288 191.635 171.216 191.635C171.145 191.635 171.431 191.134 171.359 190.347C171.359 189.989 171.288 189.489 171.073 189.059C170.93 188.845 170.787 188.63 170.644 188.416C170.429 188.201 170.215 188.058 170.143 188.129C170 188.201 169.928 188.487 170 188.773C170 189.059 170.072 189.346 170.072 189.56C170.215 190.061 170.358 190.49 170.572 190.848C171.073 191.492 171.431 191.849 171.359 191.849Z" fill="#263238"/>
<path d="M106.479 171.892L133.018 153.865L149.756 186.484L164.993 178.258C164.993 178.258 147.467 135.481 141.172 134.122C137.667 133.335 97.1796 141.061 97.1796 141.061L92.673 138.772L81.2277 137.413L80.5124 139.273C76.5066 149.502 76.9358 160.947 81.8 170.819L82.3723 171.963H106.479V171.892Z" fill="#263238"/>
<path d="M97.1796 149.359C97.3942 150.289 119.355 170.819 119.355 170.819L106.693 213.309L125.578 216.957L144.534 165.668L109.841 131.619L94.0321 138.271L97.1796 149.359Z" fill="#263238"/>
<path d="M133.018 153.865C133.089 153.937 127.152 158.086 119.855 163.022C112.559 168.029 106.55 171.963 106.479 171.892C106.407 171.82 112.345 167.671 119.641 162.735C127.009 157.728 133.018 153.794 133.018 153.865Z" fill="#455A64"/>
<path d="M146.68 180.404C146.68 180.404 146.466 180.046 146.037 179.403C145.607 178.759 145.107 177.829 144.463 176.613C143.175 174.252 141.387 170.962 139.527 167.314C137.667 163.665 136.022 160.303 134.877 157.871C134.305 156.655 133.876 155.654 133.518 154.938C133.232 154.223 133.018 153.865 133.089 153.865C133.089 153.865 133.304 154.223 133.661 154.867C134.019 155.582 134.52 156.584 135.092 157.728C136.308 160.16 138.025 163.522 139.813 167.17C141.673 170.819 143.39 174.181 144.677 176.541C145.321 177.686 145.822 178.616 146.18 179.331C146.537 179.975 146.68 180.333 146.68 180.404Z" fill="#455A64"/>
<path d="M123.289 163.165C123.361 163.236 122.502 165.239 121.286 167.743C120.07 170.246 118.997 172.178 118.926 172.106C118.854 172.035 119.712 170.032 120.928 167.528C122.145 165.096 123.218 163.093 123.289 163.165Z" fill="#455A64"/>
<path d="M63.8453 122.033L59.5533 137.913C58.9811 139.988 59.2672 142.134 60.2687 143.994C62.057 147.284 65.8482 149.001 69.4964 148.143L103.474 139.773L99.8978 132.692L73.073 134.981L75.9343 124.108L63.8453 122.033Z" fill="#FFAAA5"/>
<path d="M78.9387 146.14L79.3679 143.851L97.8234 140.489L103.188 112.09L137.381 108.013L131.658 138.343L78.9387 146.14Z" fill="#EBEBEB"/>
<path d="M118.568 127.398C117.638 127.255 117.137 126.254 117.28 125.181C117.495 124.179 118.353 123.464 119.283 123.607C120.213 123.75 120.714 124.752 120.571 125.824C120.356 126.897 119.426 127.541 118.568 127.398Z" fill="#455A64"/>
<path d="M83.946 64.5924L84.0175 66.6668L84.8044 97.4259C84.8759 101.003 88.0234 103.792 91.8861 103.649C95.7489 103.506 98.8248 100.502 98.8248 96.8537C98.8248 93.0624 98.8248 89.0566 98.8248 89.0566C98.8248 89.0566 103.689 88.1982 104.619 81.8318C105.12 78.6843 104.834 73.4624 104.547 69.242C104.261 65.4508 100.828 62.5895 97.0365 63.0902L83.946 64.5924Z" fill="#FFAAA5"/>
<path d="M102.759 72.747C102.831 73.1762 102.473 73.5339 102.044 73.6054C101.615 73.677 101.185 73.3908 101.185 72.9616C101.114 72.5324 101.472 72.1748 101.901 72.1032C102.33 72.0317 102.759 72.3178 102.759 72.747Z" fill="#263238"/>
<path d="M103.403 71.8887C103.331 72.0317 102.688 71.6025 101.758 71.6741C100.899 71.7456 100.256 72.2463 100.184 72.1033C100.112 72.0317 100.256 71.8887 100.47 71.6025C100.756 71.3879 101.185 71.1733 101.758 71.1018C102.33 71.1018 102.759 71.2449 103.045 71.3879C103.331 71.6741 103.403 71.8171 103.403 71.8887Z" fill="#263238"/>
<path d="M94.1752 72.9616C94.3182 73.3908 94.0321 73.82 93.6029 73.9631C93.1737 74.1062 92.7445 73.8916 92.6015 73.4624C92.4584 73.0332 92.7445 72.604 93.1737 72.4609C93.6029 72.2463 94.0321 72.5324 94.1752 72.9616Z" fill="#263238"/>
<path d="M94.6044 71.8887C94.5329 72.0318 93.8176 71.7457 92.9592 71.8887C92.1008 72.1033 91.6001 72.6756 91.457 72.6041C91.3855 72.6041 91.457 72.3895 91.6716 72.1033C91.8862 71.8172 92.3154 71.5311 92.8161 71.388C93.3169 71.2449 93.8176 71.388 94.1753 71.5311C94.5329 71.6741 94.676 71.8887 94.6044 71.8887Z" fill="#263238"/>
<path d="M98.038 78.7559C98.038 78.6844 98.6103 78.6129 99.4687 78.4698C99.6833 78.4698 99.8979 78.3983 99.9694 78.2552C100.041 78.1121 99.8979 77.826 99.8264 77.6114C99.6118 77.0391 99.3972 76.5384 99.111 75.8946C98.1811 73.4625 97.4658 71.4596 97.5373 71.4596C97.6088 71.388 98.4672 73.3194 99.4687 75.7515C99.6833 76.3238 99.8979 76.8961 100.112 77.4683C100.184 77.7545 100.327 78.0406 100.256 78.3267C100.184 78.4698 100.041 78.6128 99.8979 78.6844C99.7548 78.7559 99.6118 78.7559 99.5402 78.7559C98.6103 78.7559 98.038 78.7559 98.038 78.7559Z" fill="#263238"/>
<path d="M98.7533 89.1282C98.7533 89.1282 94.4613 89.4858 90.1694 86.9822C90.1694 86.9822 92.3154 91.3457 98.6818 90.6304L98.7533 89.1282Z" fill="#C75B54"/>
<path d="M95.1051 69.2419C95.0336 69.4565 94.1752 69.385 93.1022 69.5281C92.1008 69.6711 91.2424 69.9573 91.0993 69.7427C91.0278 69.6711 91.1708 69.385 91.5285 69.1704C91.8862 68.9558 92.3869 68.6697 93.0307 68.5981C93.6745 68.5266 94.2468 68.5981 94.6044 68.7412C94.9621 68.9558 95.1767 69.0989 95.1051 69.2419Z" fill="#263238"/>
<path d="M103.045 70.1719C102.902 70.3865 102.258 70.2435 101.543 70.315C100.828 70.3865 100.256 70.6011 100.041 70.3865C99.9694 70.315 100.041 70.1004 100.256 69.8858C100.47 69.6712 100.899 69.4566 101.4 69.3851C101.901 69.3135 102.33 69.4566 102.616 69.6712C103.045 69.8858 103.117 70.1004 103.045 70.1719Z" fill="#263238"/>
<path d="M97.1081 82.4756C97.3227 82.5471 97.6088 82.4756 97.8234 82.4041C98.038 82.3325 98.3241 82.261 98.4672 82.1895C98.6818 82.1179 98.8964 82.0464 99.111 81.9749C99.3256 81.9033 99.6117 81.7603 99.7548 81.5457C99.8979 81.3311 99.8979 80.9734 99.5402 80.6873C99.2541 80.4011 98.5387 80.1865 97.8949 80.4011C97.1796 80.6157 96.8219 81.188 96.7504 81.6172C96.6789 82.1179 96.8219 82.4041 97.1081 82.4756Z" fill="#C75B54"/>
<path d="M97.8235 81.9748C97.895 82.0463 98.2527 81.1879 99.111 80.9018C99.9694 80.6157 100.613 81.1879 100.613 81.1164C100.613 81.1164 100.542 80.9018 100.256 80.6872C99.9694 80.5441 99.5402 80.4011 99.0395 80.5441C98.5388 80.6872 98.1811 81.1164 98.0381 81.4025C97.8235 81.6887 97.7519 81.9032 97.8235 81.9748Z" fill="#263238"/>
<path d="M91.3139 60.4434C93.3168 63.4478 92.816 67.9544 90.1693 70.458C88.6671 71.8887 86.3781 72.9617 86.235 75.0361C86.092 77.3252 88.7387 79.042 88.7387 81.331C88.7387 83.6916 86.0204 85.1938 85.4482 87.4829C85.019 89.3427 86.1635 91.2026 87.4511 92.6332C88.7387 94.0639 90.3124 95.2799 91.0277 96.9967C91.8861 98.9281 91.6715 101.217 90.8131 103.149C89.9547 105.08 88.5956 106.725 87.2365 108.299C85.3051 107.584 83.3737 107.154 81.3708 107.011C81.5139 106.224 81.6569 105.509 81.7285 104.722C81.8 105.581 81.0131 106.368 80.1547 106.654C79.2963 106.94 78.3664 106.797 77.508 106.654C74.8613 106.224 72.2146 105.581 69.6394 104.651C70.7124 103.578 71.8569 102.433 72.5007 101.074C73.1445 99.715 73.3591 97.9982 72.5723 96.6391C71.9285 95.5661 70.7839 94.8507 70.2117 93.7778C69.3533 92.1325 70.0686 90.058 71.2847 88.6274C72.5007 87.2683 74.2175 86.3383 75.6482 85.1938C77.0788 84.0493 78.4379 82.4756 78.581 80.6157C78.7241 78.1836 76.7927 76.0376 77.0073 73.6055C77.2934 70.8872 80.1547 69.1705 81.2993 66.6668C82.0861 64.8785 82.0146 62.5894 83.3022 61.0872C84.2321 59.9427 85.8058 59.442 87.2365 59.5135C88.7387 59.5851 90.0978 60.1573 91.3854 60.9442" fill="#263238"/>
<path d="M99.3255 89.7719C98.181 90.4157 98.2525 92.1325 98.9679 93.277C99.6832 94.4216 100.828 95.2084 101.472 96.2814C102.688 98.2843 102.187 101.146 100.327 102.576L103.045 103.649L103.618 103.292L105.334 102.362L104.547 104.293H106.336C108.196 104.293 109.984 103.22 110.842 101.575C111.701 99.9296 111.558 97.7836 110.485 96.2814C109.769 95.28 108.625 94.4931 108.41 93.277C108.124 91.8464 109.197 90.4873 109.769 89.1281C110.699 86.8391 109.841 83.9062 107.838 82.4756" fill="#263238"/>
<path d="M152.491 58.5055C152.491 58.5055 152.38 58.0591 152.045 57.2779C151.71 56.4966 151.04 55.3806 149.701 54.5993C149.031 54.1529 148.25 53.8181 147.357 53.8181C146.465 53.7065 145.572 53.8181 144.679 54.2645C142.893 55.1573 141.442 57.1663 141.554 59.3984C141.665 61.7421 143.451 63.5278 145.348 64.1975C146.241 64.5323 147.246 64.5323 148.139 64.3091C149.031 64.0859 149.701 63.6394 150.371 63.193C151.598 62.1886 152.156 61.0725 152.38 60.2913C152.603 59.51 152.603 58.952 152.603 58.952C152.603 58.952 152.603 59.0636 152.603 59.2868C152.603 59.3984 152.603 59.51 152.603 59.7332C152.603 59.9564 152.603 60.068 152.491 60.2913C152.268 61.1841 151.71 62.4118 150.594 63.4162C150.036 63.9743 149.255 64.4207 148.362 64.6439C147.469 64.8671 146.353 64.8671 145.348 64.5323C144.344 64.1975 143.34 63.5278 142.67 62.635C141.889 61.7421 141.442 60.6261 141.331 59.3984C141.219 58.1707 141.665 56.9431 142.335 56.0502C143.005 55.0457 143.786 54.3761 144.79 53.9297C145.795 53.4832 146.799 53.3716 147.692 53.4832C148.585 53.5949 149.478 53.9297 150.148 54.3761C151.487 55.269 152.156 56.385 152.491 57.2779C152.603 57.5011 152.603 57.7243 152.603 57.8359C152.603 57.9475 152.714 58.1707 152.714 58.2823C152.491 58.3939 152.491 58.5055 152.491 58.5055Z" fill="#263238"/>
<path d="M141.512 67.7397C141.512 67.7397 141.44 67.5251 141.368 67.239C141.225 66.9529 140.939 66.5237 140.439 66.166C139.938 65.8799 139.151 65.6653 138.436 66.0229C137.72 66.3806 137.148 67.1675 137.22 68.0974C137.291 69.0273 138.006 69.7427 138.722 69.9573C139.437 70.2434 140.224 69.9573 140.653 69.5996C141.154 69.2419 141.368 68.7412 141.44 68.4551C141.512 68.0974 141.512 67.9543 141.583 67.9543C141.583 67.9543 141.655 68.1689 141.583 68.5266C141.512 68.8843 141.297 69.385 140.796 69.8142C140.582 70.0288 140.224 70.2434 139.866 70.3149C139.509 70.3865 139.079 70.3865 138.65 70.2434C137.863 69.9573 137.076 69.1704 137.005 68.1689C136.933 67.0959 137.649 66.2375 138.436 65.8799C138.793 65.6653 139.294 65.6653 139.652 65.6653C140.009 65.7368 140.367 65.8799 140.653 66.0229C141.225 66.3806 141.44 66.8813 141.583 67.239C141.583 67.5251 141.512 67.7397 141.512 67.7397Z" fill="#263238"/>
<path d="M168.837 57.2244C168.837 57.2244 168.98 57.2244 169.338 57.2244C169.624 57.2244 170.125 57.2244 170.697 57.2244C170.983 57.2244 171.341 57.2244 171.698 57.2244C172.056 57.2244 172.485 57.1529 172.914 57.1529C173.344 57.1529 173.844 57.0814 174.345 57.0098C174.631 57.0098 174.846 56.9383 175.132 56.9383C175.418 56.8668 175.633 56.8668 175.919 56.7952C178.136 56.4376 180.855 55.6507 183.716 54.2201C186.577 52.7894 189.653 50.6434 192.371 47.639C192.729 47.2814 193.015 46.8522 193.373 46.4945C193.659 46.0653 194.017 45.6361 194.303 45.2069C194.446 44.9923 194.589 44.7777 194.803 44.5631C194.946 44.3485 195.09 44.1339 195.233 43.9193C195.519 43.4186 195.805 42.9894 196.091 42.4887C196.234 42.2741 196.377 41.9879 196.52 41.7733C196.663 41.4872 196.735 41.2726 196.878 40.9865C197.092 40.4858 197.379 39.985 197.593 39.4128C197.808 38.912 197.951 38.3398 198.165 37.7675C198.237 37.4814 198.38 37.1952 198.452 36.9091C198.523 36.766 198.523 36.623 198.595 36.4799L198.666 36.0507C198.952 34.9062 199.238 33.6901 199.382 32.4741C199.453 31.8303 199.525 31.258 199.596 30.6142C199.596 29.9704 199.596 29.3266 199.668 28.7544C199.668 28.4682 199.668 28.1106 199.668 27.8244C199.668 27.5383 199.596 27.1806 199.596 26.8945C199.525 26.2507 199.525 25.6069 199.453 24.9631C199.238 23.6755 199.024 22.3879 198.666 21.1004C198.595 20.7427 198.452 20.4566 198.38 20.0989C198.309 19.9558 198.309 19.7412 198.237 19.5982L198.022 19.0974C197.808 18.4536 197.522 17.8098 197.307 17.166C197.021 16.5223 196.663 15.95 196.377 15.3062C196.234 15.0201 196.091 14.6624 195.876 14.3763L195.304 13.5179C194.589 12.3018 193.659 11.2288 192.801 10.0843C192.3 9.58357 191.799 9.0113 191.298 8.51057L190.941 8.08138C190.798 7.93831 190.655 7.86678 190.511 7.72371L189.725 7.00838L188.866 6.29306L188.008 5.64926L187.078 5.00546L186.649 4.79087C186.506 4.71933 186.363 4.57627 186.148 4.50473C185.504 4.14707 184.86 3.78941 184.217 3.36021C183.573 3.07408 182.857 2.71641 182.142 2.43028C179.352 1.28576 176.348 0.570429 173.272 0.284297C170.196 0.0696986 167.12 0.35583 164.187 1.07116C163.472 1.28576 162.757 1.50036 162.041 1.64342C161.326 1.92955 160.682 2.21568 159.967 2.43028L159.466 2.64488L158.965 2.85948L157.964 3.36021L156.963 3.86094L156.033 4.4332L155.174 5.077L154.745 5.36313L154.244 5.64926C153.672 6.07846 153.1 6.50766 152.528 6.93685C151.455 7.93831 150.453 8.86824 149.523 9.94123L148.808 10.7281C148.593 11.0142 148.379 11.3004 148.164 11.5865C147.735 12.1587 147.306 12.731 146.948 13.3033C146.59 13.8755 146.233 14.5193 145.947 15.0916L145.66 15.5208C145.589 15.6639 145.517 15.8069 145.446 15.95C145.303 16.2361 145.16 16.5938 145.017 16.8799C144.373 18.096 144.015 19.3836 143.586 20.5996C143.371 21.2434 143.3 21.8872 143.157 22.4595C143.085 22.7456 143.014 23.1033 142.942 23.3894C142.871 23.6755 142.871 24.0332 142.799 24.3193C142.728 24.9631 142.656 25.6069 142.584 26.1792C142.513 26.823 142.513 27.3952 142.513 28.039C142.441 29.2551 142.584 30.4712 142.656 31.6872V32.1164C142.656 32.2595 142.728 32.4025 142.728 32.5456C142.799 32.8317 142.799 33.1179 142.871 33.404C143.014 33.9763 143.085 34.5485 143.157 35.1208C143.3 35.6931 143.443 36.1938 143.586 36.766C143.657 37.0522 143.729 37.3383 143.801 37.5529C143.872 37.839 144.015 38.0536 144.087 38.3398C144.301 38.8405 144.516 39.3412 144.659 39.842C144.73 40.1281 144.874 40.3427 145.017 40.5573C145.16 40.7719 145.231 41.058 145.374 41.2726C145.589 41.7733 145.875 42.2025 146.09 42.7033C146.376 43.1325 146.662 43.5617 146.876 43.9909C149.094 47.4244 151.741 49.9996 154.387 51.8595C154.745 52.0741 155.031 52.3602 155.389 52.5748C155.747 52.7894 156.033 52.9325 156.39 53.1471C156.748 53.3617 157.034 53.5047 157.32 53.7193C157.463 53.7909 157.606 53.9339 157.749 54.0055C157.892 54.077 158.036 54.1485 158.25 54.2201C158.894 54.5062 159.466 54.7923 160.038 55.0785C160.611 55.2931 161.183 55.5077 161.755 55.7223C162.041 55.7938 162.256 55.9369 162.542 56.0084C162.828 56.0799 163.043 56.1514 163.257 56.223C163.758 56.366 164.187 56.4376 164.617 56.5806C165.046 56.6522 165.403 56.7952 165.761 56.8668C166.119 56.9383 166.476 56.9383 166.763 57.0098C167.335 57.0814 167.836 57.1529 168.122 57.2244C168.694 57.2244 168.837 57.2244 168.837 57.2244C168.837 57.2244 168.694 57.2244 168.408 57.1529C168.122 57.0814 167.621 57.0814 167.049 57.0098C166.763 56.9383 166.405 56.9383 166.047 56.8668C165.69 56.7952 165.26 56.7237 164.831 56.5806C164.402 56.5091 163.973 56.3661 163.472 56.2945C163.257 56.223 162.971 56.1515 162.757 56.0799C162.471 56.0084 162.256 55.9369 161.97 55.7938C161.469 55.5792 160.825 55.4361 160.253 55.2215C159.681 54.9354 159.037 54.7208 158.465 54.4347C158.322 54.3631 158.179 54.2916 157.964 54.2201C157.821 54.1485 157.678 54.077 157.463 53.9339C157.177 53.7193 156.819 53.5763 156.533 53.3617C156.176 53.1471 155.89 53.004 155.532 52.7894C155.174 52.5748 154.888 52.3602 154.53 52.0741C151.884 50.2142 149.165 47.639 146.948 44.2055C146.662 43.7763 146.376 43.3471 146.09 42.9179C145.803 42.4887 145.589 41.9879 145.374 41.4872C145.231 41.2726 145.16 40.9865 145.017 40.7719C144.874 40.5573 144.802 40.2712 144.659 40.0566C144.444 39.5558 144.23 39.0551 144.087 38.4828C144.015 38.1967 143.872 37.9821 143.801 37.696C143.729 37.4098 143.657 37.1237 143.586 36.9091C143.443 36.3368 143.3 35.8361 143.085 35.2639C142.942 34.6916 142.871 34.1193 142.728 33.5471C142.656 33.2609 142.656 32.9748 142.584 32.6887C142.584 32.5456 142.513 32.4025 142.513 32.2595V31.8303C142.441 30.6142 142.298 29.3982 142.37 28.1821C142.37 27.5383 142.37 26.966 142.441 26.3223C142.513 25.6785 142.584 25.0347 142.656 24.4624C142.728 24.1763 142.728 23.8186 142.799 23.5325C142.871 23.2463 142.942 22.8887 143.014 22.6025C143.157 21.9587 143.3 21.315 143.443 20.6712C143.872 19.4551 144.23 18.1675 144.874 16.9515C145.017 16.6653 145.16 16.3077 145.303 16.0215C145.374 15.8785 145.446 15.7354 145.517 15.5923L145.803 15.1631C146.161 14.5909 146.519 13.9471 146.805 13.3748C147.163 12.8025 147.592 12.2303 148.021 11.658C148.236 11.3719 148.45 11.0858 148.665 10.7996L149.38 10.0128C150.238 8.93977 151.383 7.93831 152.384 6.93685C152.957 6.50766 153.529 6.07846 154.101 5.57773L154.53 5.22006L154.96 4.93393L155.89 4.36167L156.819 3.78941L157.821 3.28868L158.822 2.78795L159.323 2.50182L159.824 2.28722C160.539 2.00109 161.255 1.71495 161.898 1.50036C162.614 1.28576 163.329 1.07116 164.116 0.85656C167.049 0.141231 170.196 -0.1449 173.272 0.0696986C176.348 0.35583 179.424 1.07116 182.214 2.28722C182.929 2.57335 183.573 2.93101 184.288 3.21714C184.932 3.57481 185.576 4.004 186.219 4.36167C186.363 4.4332 186.577 4.57627 186.72 4.6478L187.149 5.00546L188.079 5.64926L189.009 6.29306L189.868 7.00838L190.726 7.72371C190.869 7.86678 191.012 7.93831 191.155 8.08138L191.513 8.51057C192.014 9.0113 192.514 9.58357 193.015 10.0843C193.874 11.2288 194.803 12.3018 195.519 13.5894L196.091 14.5193C196.306 14.8055 196.449 15.1631 196.592 15.4493C196.878 16.0931 197.236 16.6653 197.522 17.3091C197.808 17.9529 198.022 18.5967 198.237 19.2405L198.452 19.7412C198.523 19.8843 198.523 20.0989 198.595 20.242C198.666 20.5996 198.809 20.8858 198.881 21.2434C199.31 22.531 199.453 23.8901 199.668 25.1777C199.739 25.8215 199.739 26.4653 199.811 27.1091C199.811 27.4668 199.882 27.7529 199.882 28.1106C199.882 28.3967 199.882 28.7544 199.882 29.0405C199.882 29.6843 199.811 30.3281 199.811 30.9719C199.739 31.6157 199.668 32.1879 199.596 32.8317C199.525 34.0478 199.167 35.2639 198.881 36.4084L198.809 36.8376C198.738 36.9806 198.738 37.1237 198.666 37.2668C198.595 37.5529 198.452 37.839 198.38 38.1252C198.165 38.6974 198.022 39.2697 197.808 39.7704C197.593 40.2712 197.307 40.8434 197.092 41.3442C196.949 41.6303 196.878 41.8449 196.735 42.131C196.592 42.3456 196.449 42.6317 196.306 42.8463C196.019 43.3471 195.733 43.7763 195.447 44.277C195.304 44.4916 195.161 44.7062 195.018 44.9208C194.875 45.1354 194.732 45.35 194.517 45.5646C194.231 45.9938 193.874 46.423 193.587 46.8522C193.23 47.2098 192.872 47.639 192.586 47.9967C189.868 51.0726 186.792 53.2186 183.859 54.5777C180.926 56.0084 178.208 56.7952 175.99 57.0814C175.704 57.1529 175.418 57.1529 175.203 57.2244C174.917 57.296 174.703 57.296 174.417 57.296C173.916 57.296 173.415 57.3675 172.986 57.3675C172.557 57.3675 172.128 57.439 171.77 57.439C171.412 57.439 171.055 57.439 170.768 57.439C170.196 57.439 169.695 57.3675 169.409 57.3675C169.052 57.2244 168.837 57.2244 168.837 57.2244Z" fill="#263238"/>
<path d="M182.142 29.6128C185.647 26.3938 185.79 20.8858 182.571 17.3807C179.352 13.8756 173.844 13.7325 170.339 16.9515C167.335 19.7413 166.763 24.1048 168.694 27.5384L166.906 29.1836L167.335 32.1165L164.617 31.3296L162.399 33.4041L162.828 36.3369L160.11 35.5501L158.25 37.3384L158.536 39.1267L156.891 38.626L155.818 39.6274L155.675 42.3457L159.681 43.3471L172.771 31.1866C175.776 32.6172 179.495 32.1165 182.142 29.6128ZM180.855 19.026C181.785 20.0274 181.713 21.6011 180.712 22.5311C179.71 23.461 178.136 23.3895 177.206 22.388C176.276 21.3866 176.348 19.8128 177.349 18.8829C178.351 17.953 179.925 18.0245 180.855 19.026Z" fill="#263238"/>
<path d="M180.855 19.0258C180.855 19.0258 180.712 18.8828 180.354 18.6682C179.996 18.4536 179.495 18.239 178.78 18.3105C178.136 18.3821 177.278 18.8112 176.92 19.5981C176.491 20.385 176.563 21.5295 177.278 22.3164C177.993 23.1032 179.138 23.2463 179.925 22.8886C180.783 22.531 181.212 21.7441 181.355 21.1003C181.498 20.4565 181.284 19.8842 181.141 19.5266C180.998 19.1689 180.855 19.0258 180.855 19.0258C180.855 19.0258 180.926 19.0258 180.998 19.0974C181.069 19.1689 181.141 19.312 181.284 19.455C181.498 19.8127 181.713 20.385 181.57 21.1003C181.498 21.8156 180.998 22.674 180.068 23.0317C179.639 23.2463 179.066 23.3178 178.566 23.1748C178.065 23.1032 177.564 22.8171 177.135 22.3879C176.777 21.9587 176.491 21.458 176.491 20.9572C176.42 20.4565 176.563 19.8842 176.777 19.455C177.206 18.5966 178.065 18.1675 178.78 18.0959C179.495 18.0244 180.068 18.3105 180.425 18.5251C180.568 18.6682 180.712 18.7397 180.783 18.8112C180.783 18.9543 180.855 19.0258 180.855 19.0258Z" fill="#263238"/>
<path d="M182.142 29.6128C182.142 29.6128 182.071 29.6843 181.999 29.7558C181.928 29.8274 181.785 29.9704 181.641 30.1135C181.284 30.3996 180.783 30.8288 179.996 31.1865C179.209 31.5442 178.208 31.9018 176.92 32.0449C175.704 32.1164 174.202 31.9734 172.7 31.3296H172.771C169.409 34.477 164.903 38.6974 159.752 43.5617L159.681 43.6332H159.609C158.322 43.3471 156.963 42.9894 155.604 42.6318H155.532V42.5602C155.604 41.7018 155.604 40.7719 155.675 39.842V39.7704C156.033 39.4843 156.39 39.1266 156.748 38.769L156.82 38.6974H156.891C157.392 38.8405 157.964 38.9836 158.536 39.1266L158.393 39.2697C158.322 38.6974 158.25 38.1252 158.107 37.4814V37.4099L158.179 37.3383C158.751 36.7661 159.395 36.1938 160.039 35.55L160.11 35.4785H160.182C161.04 35.6931 161.97 35.9792 162.9 36.2653L162.757 36.4084C162.614 35.4785 162.471 34.477 162.328 33.4755V33.404L162.399 33.3325C162.614 33.1894 162.757 32.9748 162.971 32.7602C163.544 32.2595 164.044 31.7588 164.617 31.258L164.688 31.1865H164.76C165.69 31.4726 166.62 31.6872 167.478 31.9734L167.335 32.1164C167.192 31.115 167.049 30.185 166.906 29.1836V29.112L166.977 29.0405C167.549 28.4682 168.122 27.9675 168.766 27.3953V27.5383C168.05 26.3223 167.693 24.9631 167.621 23.604C167.621 22.9602 167.621 22.2449 167.764 21.6011C167.907 20.9573 168.05 20.3135 168.336 19.7412C169.338 17.3091 171.484 15.5923 173.701 14.9485C175.99 14.2332 178.351 14.5193 180.139 15.4493C181.999 16.3792 183.358 17.8814 184.145 19.3836C184.932 20.9573 185.147 22.531 185.004 23.8901C184.86 25.2493 184.503 26.3938 184.002 27.1807C183.931 27.2522 183.859 27.3953 183.859 27.4668C183.787 27.5383 183.716 27.6814 183.716 27.7529C183.573 27.896 183.501 28.1106 183.358 28.2536C183.144 28.5398 182.929 28.7544 182.786 28.969C182.643 29.112 182.5 29.2551 182.357 29.3982C182.142 29.6128 182.142 29.6128 182.142 29.6128C182.142 29.6128 182.214 29.5412 182.285 29.4697C182.357 29.3982 182.5 29.2551 182.643 29.0405C182.786 28.8974 183.001 28.6113 183.215 28.3252C183.358 28.1821 183.43 28.039 183.501 27.8245C183.573 27.7529 183.644 27.6099 183.644 27.5383C183.716 27.4668 183.716 27.3237 183.787 27.2522C184.217 26.3938 184.646 25.3208 184.717 23.9617C184.86 22.6026 184.574 21.0288 183.859 19.5266C183.072 18.0245 181.785 16.5223 179.925 15.6639C178.136 14.8055 175.776 14.5193 173.558 15.2347C171.341 15.95 169.338 17.5953 168.336 19.9558C168.122 20.5281 167.907 21.1719 167.764 21.8157C167.621 22.4595 167.621 23.1033 167.621 23.7471C167.693 25.0347 168.05 26.3938 168.694 27.6099L168.766 27.6814L168.694 27.7529C168.122 28.3252 167.549 28.8259 166.906 29.3982V29.3266C167.049 30.2566 167.192 31.258 167.335 32.2595V32.4026L167.192 32.331C166.262 32.0449 165.404 31.8303 164.474 31.5442H164.545C164.044 32.0449 163.472 32.5456 162.9 33.0463C162.685 33.2609 162.471 33.404 162.328 33.6186V33.5471C162.471 34.5485 162.614 35.55 162.757 36.4799V36.623L162.614 36.5515C161.684 36.2653 160.754 36.0507 159.895 35.7646H159.967C159.323 36.3369 158.679 36.9807 158.107 37.5529V37.4814C158.179 38.1252 158.25 38.6974 158.393 39.2697V39.4128L158.25 39.3412C157.678 39.1982 157.106 39.0551 156.605 38.8405H156.677C156.319 39.1982 155.89 39.5558 155.604 39.842V39.7704C155.532 40.7004 155.46 41.6303 155.46 42.4887L155.389 42.4172C156.82 42.7748 158.179 43.1325 159.395 43.4186H159.323C164.545 38.5544 169.052 34.4055 172.414 31.258H172.485C173.916 31.9018 175.418 32.0449 176.634 31.9734C177.85 31.9018 178.923 31.5442 179.71 31.1865C180.497 30.8288 180.998 30.3996 181.355 30.185C181.498 30.042 181.641 29.9704 181.713 29.8274C182.071 29.6843 182.142 29.6128 182.142 29.6128Z" fill="#263238"/>
<path d="M181.856 28.6829C185.361 25.4639 185.504 19.9559 182.285 16.4508C179.066 12.9457 173.558 12.8026 170.053 16.0216C167.049 18.8114 166.477 23.1749 168.408 26.6084L166.62 28.2537L167.049 31.1865L164.331 30.3997L162.113 32.4741L162.542 35.407L159.824 34.6201L157.964 36.4084L158.25 38.1968L156.605 37.696L155.532 38.6975L155.389 41.4157L159.395 42.4172L172.485 30.2566C175.49 31.6157 179.209 31.115 181.856 28.6829ZM180.568 18.0245C181.498 19.026 181.427 20.5997 180.425 21.5296C179.424 22.4595 177.85 22.388 176.92 21.3865C175.99 20.3851 176.062 18.8114 177.063 17.8814C178.065 17.023 179.639 17.023 180.568 18.0245Z" fill="#4B8DF0"/>
<path d="M180.568 18.0245C180.568 18.0245 180.425 17.8814 180.068 17.6668C179.71 17.4522 179.209 17.2376 178.494 17.3092C177.85 17.3807 176.992 17.8099 176.634 18.5968C176.205 19.3836 176.277 20.5282 176.992 21.315C177.707 22.1019 178.852 22.2449 179.639 21.8873C180.497 21.5296 180.926 20.7428 181.069 20.099C181.212 19.4552 180.998 18.8829 180.855 18.5252C180.712 18.2391 180.497 18.096 180.568 18.0245C180.568 18.0245 180.64 18.0245 180.712 18.096C180.783 18.1676 180.855 18.3106 180.998 18.4537C181.212 18.8114 181.427 19.3836 181.284 20.099C181.212 20.8143 180.712 21.6727 179.782 22.0303C179.352 22.2449 178.78 22.3165 178.279 22.1734C177.779 22.1019 177.278 21.8157 176.849 21.3865C176.491 20.9574 176.205 20.4566 176.205 19.9559C176.133 19.4552 176.277 18.8829 176.491 18.4537C176.92 17.5953 177.779 17.1661 178.494 17.0946C179.209 17.023 179.782 17.3092 180.139 17.5238C180.282 17.6668 180.425 17.7384 180.497 17.8099C180.497 18.0245 180.568 18.0245 180.568 18.0245Z" fill="#263238"/>
<path d="M181.856 28.6828C181.856 28.6828 181.784 28.7544 181.713 28.8259C181.641 28.8974 181.498 29.0405 181.355 29.1836C180.998 29.4697 180.497 29.8989 179.71 30.2566C178.923 30.6142 177.922 30.9719 176.634 31.115C175.418 31.1865 173.916 31.0434 172.414 30.3996H172.485C169.123 33.5471 164.617 37.7675 159.466 42.6317L159.395 42.7033H159.323C158.036 42.4171 156.676 42.0595 155.317 41.7018H155.246V41.6303C155.317 40.7719 155.317 39.842 155.389 38.912V38.8405C155.747 38.5544 156.104 38.1967 156.462 37.839L156.533 37.7675H156.605C157.106 37.9106 157.678 38.0536 158.25 38.1967L158.107 38.3398C158.036 37.7675 157.964 37.1952 157.821 36.5515V36.4799L157.893 36.4084C158.465 35.8361 159.109 35.2639 159.752 34.6201L159.824 34.5485H159.895C160.754 34.7631 161.684 35.0493 162.614 35.3354L162.471 35.4785C162.328 34.5485 162.184 33.5471 162.041 32.5456V32.4741L162.113 32.4025C162.328 32.2595 162.471 32.0449 162.685 31.8303C163.257 31.3296 163.758 30.8288 164.33 30.3281L164.402 30.2566H164.474C165.403 30.5427 166.333 30.7573 167.192 31.0434L167.049 31.1865C166.906 30.185 166.763 29.2551 166.62 28.2536V28.1821L166.691 28.1106C167.263 27.5383 167.836 27.0376 168.479 26.4653V26.6084C167.764 25.3923 167.406 24.0332 167.335 22.6741C167.335 22.0303 167.335 21.315 167.478 20.6712C167.621 20.0274 167.764 19.3836 168.05 18.8113C169.052 16.3792 171.198 14.6624 173.415 14.0186C175.704 13.3033 178.065 13.5894 179.853 14.5193C181.713 15.4493 183.072 16.9515 183.859 18.4536C184.646 20.0274 184.86 21.6011 184.717 22.9602C184.574 24.3193 184.217 25.4639 183.716 26.2507C183.644 26.3223 183.573 26.4653 183.573 26.5369C183.501 26.6084 183.43 26.7515 183.43 26.823C183.287 26.9661 183.215 27.1807 183.072 27.3237C182.857 27.6098 182.643 27.8244 182.5 28.039C182.357 28.1821 182.214 28.3252 182.071 28.4682C181.856 28.6113 181.856 28.6828 181.856 28.6828C181.856 28.6828 181.928 28.6113 181.999 28.5398C182.071 28.4682 182.214 28.3252 182.357 28.1106C182.5 27.896 182.714 27.6814 182.929 27.3953C183.072 27.2522 183.144 27.1091 183.215 26.8945C183.287 26.823 183.358 26.6799 183.358 26.6084C183.43 26.5369 183.43 26.3938 183.501 26.3223C183.93 25.4639 184.36 24.3909 184.431 23.0317C184.574 21.6726 184.288 20.0989 183.573 18.5967C182.786 17.0945 181.498 15.5923 179.638 14.7339C177.85 13.8755 175.49 13.5894 173.272 14.3047C171.055 15.0201 169.052 16.6653 168.05 19.0259C167.836 19.5982 167.621 20.242 167.478 20.8858C167.335 21.5296 167.335 22.1734 167.335 22.8171C167.406 24.1047 167.764 25.4639 168.408 26.6799L168.479 26.7515L168.408 26.823C167.836 27.3952 167.263 27.896 166.62 28.4682V28.3967C166.763 29.3266 166.906 30.3281 167.049 31.3296V31.4726L166.906 31.4011C165.976 31.115 165.117 30.9004 164.187 30.6142H164.259C163.758 31.115 163.186 31.6157 162.614 32.1164C162.399 32.331 162.184 32.4741 162.041 32.6887V32.6171C162.184 33.6186 162.328 34.6201 162.471 35.55V35.6931L162.328 35.6215C161.398 35.3354 160.468 35.1208 159.609 34.8347H159.681C159.037 35.4069 158.393 36.0507 157.821 36.623V36.5515C157.893 37.1952 157.964 37.7675 158.107 38.3398V38.4828L157.964 38.4113C157.392 38.2682 156.82 38.1252 156.319 37.9106H156.39C156.033 38.2682 155.603 38.6259 155.317 38.912V38.8405C155.246 39.7704 155.174 40.7004 155.174 41.5588L155.103 41.4872C156.533 41.8449 157.893 42.2025 159.109 42.4887H159.037C164.259 37.6244 168.765 33.4755 172.128 30.3281H172.199C173.63 30.9719 175.132 31.115 176.348 31.0434C177.564 30.9719 178.637 30.6142 179.424 30.2566C180.211 29.8989 180.711 29.4697 181.069 29.2551C181.212 29.112 181.355 29.0405 181.427 28.8974C181.784 28.6828 181.856 28.6828 181.856 28.6828Z" fill="#263238"/>
<path d="M180.998 27.9676C180.998 27.9676 181.498 27.5384 182.142 26.5369C182.5 26.0362 182.786 25.3924 183.001 24.534C183.215 23.7471 183.358 22.7457 183.215 21.6727C183.072 20.5997 182.786 19.4552 182.071 18.3822C181.355 17.3092 180.425 16.3793 179.138 15.7355C178.494 15.3778 177.85 15.1632 177.063 15.0201C176.706 14.9486 176.348 14.9486 175.99 14.8771C175.633 14.8771 175.204 14.8771 174.846 14.9486C173.344 15.0917 171.842 15.807 170.625 16.88C169.481 18.0245 168.623 19.4552 168.408 20.9574C168.336 21.315 168.336 21.7442 168.265 22.1019C168.265 22.4596 168.265 22.8172 168.336 23.2464C168.408 23.9617 168.623 24.6771 168.909 25.3209C169.409 26.6085 170.339 27.6815 171.341 28.3968C172.342 29.1836 173.487 29.5413 174.488 29.7559C175.561 29.9705 176.491 29.899 177.35 29.6844C178.208 29.4698 178.852 29.2552 179.424 28.969C180.569 28.4683 180.998 27.9676 180.998 27.9676C180.998 27.9676 180.998 27.9676 180.926 28.0391C180.855 28.1107 180.783 28.1822 180.64 28.2537C180.497 28.3968 180.354 28.4683 180.211 28.6114C179.996 28.7544 179.782 28.8975 179.567 29.0406C179.066 29.3267 178.351 29.6128 177.493 29.8274C176.634 30.042 175.633 30.1136 174.56 29.899C173.487 29.6844 172.342 29.3267 171.269 28.5398C170.268 27.753 169.266 26.68 168.766 25.3924C168.479 24.7486 168.265 24.0333 168.193 23.2464C168.122 22.8888 168.122 22.4596 168.122 22.1019C168.122 21.7442 168.193 21.315 168.265 20.9574C168.551 19.3836 169.338 17.8815 170.554 16.7369C171.77 15.5924 173.344 14.8771 174.917 14.734C175.275 14.6625 175.704 14.6625 176.062 14.6625C176.42 14.6625 176.849 14.734 177.206 14.8055C177.922 14.9486 178.637 15.1632 179.281 15.5209C180.569 16.1647 181.57 17.1661 182.285 18.2391C183.001 19.3121 183.287 20.5282 183.43 21.6012C183.501 22.6742 183.43 23.6756 183.144 24.534C182.858 25.3924 182.571 26.0362 182.214 26.5369C182.071 26.8231 181.856 27.0377 181.713 27.1807C181.57 27.3953 181.427 27.5384 181.284 27.6099C181.212 27.6815 181.069 27.8245 180.998 27.8961C181.069 27.9676 181.069 27.9676 180.998 27.9676Z" fill="#263238"/>
<path d="M180.711 21.8872C180.711 21.8872 180.926 21.6726 181.141 21.315C181.355 20.9573 181.641 20.3135 181.57 19.4551C181.498 19.0259 181.427 18.5967 181.141 18.2391C180.855 17.8814 180.497 17.4522 180.068 17.2376C179.567 17.023 179.066 16.8799 178.494 16.9515C177.922 17.023 177.349 17.2376 176.92 17.6668C176.491 18.096 176.205 18.5967 176.062 19.169C175.919 19.7412 175.99 20.3135 176.205 20.8142C176.42 21.315 176.777 21.6726 177.135 21.9588C177.493 22.2449 177.922 22.388 178.351 22.4595C179.138 22.6026 179.782 22.388 180.211 22.1734C180.497 22.0303 180.64 21.8157 180.711 21.8872C180.711 21.8872 180.64 21.9588 180.568 22.0303C180.497 22.1018 180.354 22.2449 180.139 22.3164C179.71 22.531 179.066 22.8172 178.208 22.6741C177.779 22.6026 177.349 22.4595 176.92 22.1734C176.491 21.8872 176.133 21.458 175.919 20.9573C175.704 20.4566 175.633 19.8128 175.704 19.2405C175.776 18.6683 176.133 18.0245 176.634 17.5953C177.135 17.1661 177.707 16.8799 178.351 16.8084C178.995 16.7369 179.567 16.8799 180.068 17.0945C180.568 17.3807 180.926 17.7383 181.212 18.1675C181.498 18.5967 181.641 19.0259 181.641 19.4551C181.713 20.3135 181.427 20.9573 181.141 21.315C180.998 21.5296 180.855 21.6726 180.783 21.7442C180.711 21.8157 180.711 21.8872 180.711 21.8872Z" fill="#263238"/>
<path d="M158.25 41.9164C158.179 41.8449 161.183 39.0551 164.831 35.6216C168.479 32.188 171.484 29.4697 171.555 29.4697C171.627 29.5413 168.623 32.331 164.974 35.7646C161.326 39.2697 158.322 41.988 158.25 41.9164Z" fill="#263238"/>
<path d="M159.895 24.8201L160.039 24.5339L160.182 24.7485C160.325 24.9631 160.468 25.1062 160.682 25.1777L160.968 25.3208L160.754 25.4639C160.539 25.6069 160.396 25.75 160.325 25.9646L160.182 26.2507L160.039 26.0361C159.895 25.8215 159.752 25.6785 159.538 25.6069L159.252 25.4639L159.466 25.3208C159.681 25.2493 159.824 25.0347 159.895 24.8201Z" fill="#4B8DF0"/>
<path d="M151.884 22.8171L151.955 22.6741L152.027 22.8171C152.098 22.9602 152.241 23.0317 152.313 23.1033L152.456 23.1748L152.313 23.2463C152.17 23.3179 152.098 23.4609 152.027 23.5325L151.955 23.6755L151.884 23.5325C151.812 23.3894 151.669 23.3179 151.598 23.2463L151.455 23.1748L151.598 23.1033C151.741 23.1033 151.812 22.9602 151.884 22.8171Z" fill="#4B8DF0"/>
<path d="M177.063 36.48L177.135 36.3369L177.206 36.48C177.278 36.623 177.421 36.6946 177.492 36.7661L177.636 36.8376L177.492 36.9092C177.349 36.9807 177.278 37.1238 177.206 37.1953L177.135 37.3384L177.063 37.1953C176.992 37.0522 176.849 36.9807 176.777 36.9092L176.634 36.8376L176.777 36.7661C176.92 36.6946 177.063 36.623 177.063 36.48Z" fill="#4B8DF0"/>
<path d="M189.438 29.4697L189.582 29.1836L189.725 29.3982C189.868 29.6128 190.011 29.7559 190.225 29.8274L190.511 29.9705L190.297 30.1135C190.082 30.2566 189.939 30.3997 189.868 30.6143L189.725 30.9004L189.582 30.6858C189.438 30.4712 189.295 30.3281 189.081 30.2566L188.795 30.1135L189.009 29.9705C189.152 29.8989 189.367 29.6843 189.438 29.4697Z" fill="#4B8DF0"/>
<path d="M187.793 19.6697L188.008 19.2405L188.294 19.6697C188.509 20.0273 188.795 20.2419 189.152 20.385L189.582 20.5996L189.152 20.8857C188.795 21.1003 188.58 21.3865 188.437 21.7441L188.222 22.1733L187.936 21.7441C187.722 21.3865 187.436 21.1719 187.078 21.0288L186.649 20.8142L187.078 20.5281C187.436 20.385 187.65 20.0273 187.793 19.6697Z" fill="#4B8DF0"/>
<path d="M157.392 16.6654L157.606 16.2362L157.892 16.6654C158.107 17.0231 158.393 17.2377 158.751 17.3807L159.18 17.5953L158.751 17.8815C158.393 18.0961 158.179 18.3822 158.036 18.7399L157.821 19.1691L157.535 18.7399C157.32 18.3822 157.034 18.1676 156.676 18.0245L156.247 17.8099L156.676 17.5238C156.963 17.3092 157.249 17.0231 157.392 16.6654Z" fill="#4B8DF0"/>
<path d="M262.635 219.103C262.635 219.103 262.635 219.032 262.492 218.817C262.42 218.603 262.277 218.316 262.134 217.959C261.777 217.243 261.347 216.099 260.99 214.597C260.203 211.592 259.988 207.086 261.061 201.649C261.562 198.931 262.42 195.998 263.493 192.922C264.495 189.846 265.711 186.556 266.641 183.051C267.571 179.546 268.358 175.683 268.215 171.677C268.071 167.671 266.855 163.594 265.568 159.66C264.28 155.654 262.921 151.719 262.492 147.785C262.063 143.851 262.85 139.988 264.638 136.841C266.355 133.622 268.572 130.903 270.217 128.042C271.863 125.252 272.936 122.319 273.58 119.601C274.796 114.165 274.366 109.587 273.794 106.511C273.15 103.435 272.435 101.932 272.435 101.932C272.435 101.932 272.435 102.004 272.507 102.219C272.578 102.433 272.65 102.719 272.793 103.077C273.007 103.864 273.365 105.008 273.651 106.511C274.223 109.515 274.581 114.093 273.293 119.458C272.65 122.105 271.577 124.966 269.931 127.756C268.286 130.546 266.14 133.264 264.352 136.483C262.492 139.702 261.634 143.636 262.134 147.642C262.563 151.648 263.923 155.582 265.21 159.588C266.498 163.594 267.714 167.6 267.857 171.534C268 175.468 267.285 179.259 266.355 182.836C265.425 186.341 264.209 189.632 263.207 192.708C262.206 195.784 261.347 198.716 260.847 201.435C259.774 206.871 260.06 211.521 260.847 214.454C261.276 215.956 261.705 217.1 262.063 217.816C262.277 218.173 262.42 218.46 262.492 218.603C262.563 219.032 262.635 219.103 262.635 219.103Z" fill="#263238"/>
<path d="M268 130.832C268 130.832 271.291 120.245 265.353 114.022C265.139 113.807 264.781 113.879 264.709 114.236C264.423 115.881 263.994 121.246 268 130.832Z" fill="#4B8DF0"/>
<path d="M265.997 117.527C265.926 117.527 266.069 118.314 266.212 119.458C266.426 120.817 266.712 122.391 266.999 124.108C267.285 125.825 267.499 127.47 267.714 128.757C267.928 129.973 268 130.689 268.072 130.689C268.143 130.689 268.143 129.902 268 128.686C267.857 127.47 267.642 125.825 267.356 123.965C267.07 122.105 266.712 120.46 266.498 119.315C266.283 118.242 266.069 117.527 265.997 117.527Z" fill="#263238"/>
<path d="M264.066 155.868C264.066 155.868 262.063 144.924 253.837 142.206C253.55 142.134 253.264 142.349 253.336 142.635C253.98 144.352 256.126 149.287 264.066 155.868Z" fill="#4B8DF0"/>
<path d="M256.125 144.995C256.054 145.067 256.483 145.639 257.27 146.64C258.128 147.713 259.058 149.001 260.131 150.432C261.204 151.862 262.134 153.15 262.993 154.223C263.708 155.224 264.137 155.797 264.209 155.797C264.28 155.797 263.923 155.081 263.207 154.08C262.563 153.078 261.562 151.719 260.417 150.217C259.273 148.715 258.271 147.427 257.485 146.497C256.698 145.567 256.197 144.995 256.125 144.995Z" fill="#263238"/>
<path d="M266.283 183.265C266.283 183.265 267.499 172.178 260.489 167.242C260.274 167.099 259.917 167.242 259.917 167.528C259.917 169.316 260.561 174.681 266.283 183.265Z" fill="#4B8DF0"/>
<path d="M261.848 170.604C261.777 170.604 262.063 171.319 262.42 172.464C262.921 173.752 263.422 175.254 264.066 176.899C264.638 178.544 265.21 180.046 265.711 181.334C266.14 182.479 266.355 183.194 266.426 183.194C266.498 183.194 266.355 182.407 265.997 181.263C265.639 180.118 265.139 178.473 264.495 176.756C263.851 175.039 263.207 173.465 262.707 172.321C262.206 171.248 261.848 170.604 261.848 170.604Z" fill="#263238"/>
<path d="M260.131 210.877C260.131 210.877 260.99 199.789 253.765 195.068C253.479 194.925 253.193 195.068 253.193 195.354C253.264 197.143 254.123 202.436 260.131 210.877Z" fill="#4B8DF0"/>
<path d="M255.196 198.359C255.124 198.359 255.41 199.074 255.839 200.219C256.34 201.506 256.984 202.937 257.628 204.582C258.272 206.227 258.915 207.73 259.416 208.946C259.845 210.09 260.131 210.805 260.203 210.734C260.274 210.734 260.06 210.019 259.702 208.803C259.345 207.658 258.701 206.084 258.057 204.368C257.342 202.651 256.698 201.149 256.126 200.004C255.625 199.003 255.267 198.359 255.196 198.359Z" fill="#263238"/>
<path d="M272.793 121.461C272.793 121.461 282.664 116.311 282.879 107.727C282.879 107.441 282.521 107.226 282.306 107.441C280.804 108.442 276.727 111.947 272.793 121.461Z" fill="#4B8DF0"/>
<path d="M280.804 110.66C280.733 110.66 280.304 111.232 279.588 112.233C278.801 113.306 277.871 114.665 276.798 116.096C275.725 117.527 274.795 118.814 274.009 119.959C273.293 120.96 272.864 121.533 272.864 121.604C272.936 121.604 273.436 121.103 274.223 120.173C275.01 119.243 276.012 117.884 277.085 116.382C278.158 114.88 279.087 113.521 279.803 112.448C280.447 111.375 280.804 110.731 280.804 110.66Z" fill="#263238"/>
<path d="M262.206 144.28C262.206 144.28 272.363 139.773 273.079 131.189C273.079 130.903 272.793 130.689 272.507 130.832C271.004 131.762 266.712 134.981 262.206 144.28Z" fill="#4B8DF0"/>
<path d="M270.79 133.979C270.718 133.979 270.217 134.48 269.502 135.41C268.644 136.483 267.642 137.699 266.498 139.058C265.353 140.417 264.352 141.633 263.493 142.706C262.707 143.636 262.206 144.208 262.277 144.28C262.349 144.351 262.85 143.779 263.708 142.921C264.566 142.062 265.639 140.775 266.855 139.344C268 137.913 269.073 136.554 269.788 135.624C270.432 134.623 270.861 134.051 270.79 133.979Z" fill="#263238"/>
<path d="M268 169.674C268 169.674 274.939 161.019 271.72 153.079C271.577 152.792 271.219 152.792 271.076 153.007C270.146 154.509 267.785 159.373 268 169.674Z" fill="#4B8DF0"/>
<path d="M271.004 156.584C270.933 156.584 270.79 157.299 270.504 158.515C270.217 159.874 269.86 161.448 269.502 163.165C269.145 164.881 268.787 166.455 268.501 167.814C268.215 169.03 268.072 169.746 268.143 169.746C268.215 169.746 268.501 169.03 268.787 167.886C269.145 166.741 269.574 165.096 269.931 163.236C270.289 161.448 270.647 159.803 270.79 158.587C271.004 157.37 271.076 156.584 271.004 156.584Z" fill="#263238"/>
<path d="M261.133 199.646C261.133 199.646 271.219 194.925 271.791 186.341C271.791 186.055 271.505 185.84 271.219 185.984C269.717 186.913 265.496 190.276 261.133 199.646Z" fill="#4B8DF0"/>
<path d="M269.574 189.203C269.502 189.203 269.073 189.775 268.286 190.705C267.428 191.778 266.426 193.065 265.353 194.424C264.28 195.784 263.279 197.071 262.42 198.144C261.633 199.074 261.204 199.646 261.204 199.718C261.276 199.789 261.777 199.217 262.635 198.359C263.422 197.429 264.566 196.141 265.711 194.711C266.855 193.28 267.857 191.921 268.572 190.919C269.216 189.846 269.645 189.203 269.574 189.203Z" fill="#263238"/>
<path d="M241.032 155.868C241.032 155.868 241.032 155.94 241.032 156.083C241.032 156.297 241.032 156.512 241.032 156.798C241.032 157.442 241.104 158.372 241.175 159.516C241.318 161.877 241.461 165.167 241.676 169.173C242.391 173.179 244.466 177.686 247.184 181.978C249.187 185.197 251.333 188.058 253.121 190.776C254.981 193.494 256.483 195.927 257.556 198.144C258.629 200.362 259.273 202.221 259.631 203.581C259.774 204.224 259.917 204.797 259.988 205.083C260.06 205.44 260.131 205.655 260.131 205.583C260.131 205.583 260.131 205.369 260.06 205.011C259.988 204.654 259.917 204.153 259.774 203.438C259.416 202.078 258.844 200.147 257.771 197.929C256.698 195.712 255.196 193.137 253.336 190.49C251.547 187.772 249.401 184.839 247.398 181.692C244.68 177.4 242.606 172.965 241.89 169.03C241.604 165.096 241.39 161.805 241.247 159.445C241.175 158.3 241.104 157.442 241.032 156.727C241.032 156.44 240.961 156.226 240.961 156.011C241.104 156.011 241.032 155.868 241.032 155.868Z" fill="#263238"/>
<path d="M247.041 181.191C247.041 181.191 242.749 170.89 248.114 164.166C248.328 163.951 248.686 164.023 248.758 164.309C249.258 166.026 250.117 171.319 247.041 181.191Z" fill="#4B8DF0"/>
<path d="M247.828 167.743C247.756 167.743 247.613 168.458 247.47 169.674C247.327 170.89 247.184 172.535 247.041 174.395C246.898 176.255 246.826 177.9 246.826 179.116C246.826 180.332 246.898 181.119 246.969 181.119C247.041 181.119 247.041 180.404 247.112 179.188C247.184 177.829 247.327 176.255 247.399 174.467C247.542 172.678 247.613 171.105 247.756 169.746C247.828 168.53 247.899 167.814 247.828 167.743Z" fill="#263238"/>
<g opacity="0.3">
<g opacity="0.3">
<g opacity="0.3">
<g opacity="0.3">
<path opacity="0.3" d="M247.041 181.191C247.041 181.191 242.749 170.89 248.114 164.166C248.328 163.951 248.686 164.023 248.758 164.309C249.258 166.026 250.117 171.319 247.041 181.191Z" fill="black"/>
</g>
</g>
</g>
</g>
<path d="M260.274 205.941C260.274 205.941 256.841 195.354 262.778 189.059C262.993 188.845 263.35 188.916 263.422 189.203C263.708 190.991 264.137 196.356 260.274 205.941Z" fill="#4B8DF0"/>
<path d="M262.134 192.636C262.063 192.636 261.92 193.351 261.634 194.568C261.419 195.784 261.061 197.429 260.775 199.217C260.489 201.077 260.274 202.722 260.203 203.938C260.131 205.154 260.131 205.941 260.131 205.941C260.203 205.941 260.274 205.226 260.489 204.01C260.704 202.651 260.918 201.077 261.204 199.289C261.49 197.572 261.705 195.927 261.92 194.568C262.063 193.423 262.206 192.636 262.134 192.636Z" fill="#263238"/>
<g opacity="0.3">
<g opacity="0.3">
<g opacity="0.3">
<g opacity="0.3">
<path opacity="0.3" d="M260.274 205.941C260.274 205.941 256.841 195.354 262.778 189.059C262.993 188.845 263.35 188.916 263.422 189.203C263.708 190.991 264.137 196.356 260.274 205.941Z" fill="black"/>
</g>
</g>
</g>
</g>
<path d="M241.604 168.673C241.604 168.673 232.52 162.306 233.378 153.722C233.378 153.436 233.736 153.293 234.022 153.508C235.381 154.652 238.958 158.658 241.604 168.673Z" fill="#4B8DF0"/>
<g opacity="0.3">
<g opacity="0.3">
<g opacity="0.3">
<g opacity="0.3">
<path opacity="0.3" d="M241.604 168.673C241.604 168.673 232.52 162.306 233.378 153.722C233.378 153.436 233.736 153.293 234.022 153.508C235.381 154.652 238.958 158.658 241.604 168.673Z" fill="black"/>
</g>
</g>
</g>
</g>
<path d="M235.095 156.87C235.023 156.87 235.309 157.585 235.882 158.658C236.382 159.731 237.169 161.233 238.028 162.878C238.886 164.524 239.744 165.954 240.388 167.027C241.032 168.029 241.533 168.673 241.533 168.601C241.604 168.601 241.247 167.886 240.603 166.884C239.959 165.668 239.172 164.309 238.314 162.735C237.455 161.162 236.74 159.802 236.025 158.586C235.524 157.513 235.095 156.87 235.095 156.87Z" fill="#263238"/>
<path d="M256.555 195.426C256.555 195.426 245.539 193.709 242.606 185.626C242.534 185.34 242.749 185.054 243.035 185.125C244.823 185.626 249.759 187.629 256.555 195.426Z" fill="#4B8DF0"/>
<g opacity="0.3">
<g opacity="0.3">
<g opacity="0.3">
<g opacity="0.3">
<path opacity="0.3" d="M256.555 195.426C256.555 195.426 245.539 193.709 242.606 185.626C242.534 185.34 242.749 185.054 243.035 185.125C244.823 185.626 249.759 187.629 256.555 195.426Z" fill="black"/>
</g>
</g>
</g>
</g>
<path d="M245.539 187.772C245.539 187.843 246.039 188.344 247.041 189.059C247.971 189.846 249.33 190.848 250.832 191.921C252.334 192.994 253.765 193.924 254.766 194.567C255.839 195.211 256.483 195.569 256.483 195.497C256.483 195.426 255.911 194.997 254.91 194.353C253.765 193.566 252.477 192.636 251.047 191.635C249.616 190.633 248.328 189.703 247.184 188.916C246.182 188.201 245.61 187.772 245.539 187.772Z" fill="#263238"/>
<path d="M269.574 215.67L266.426 236.343H253.837L249.616 215.67H269.574Z" fill="#455A64"/>
<path d="M258.128 222.322C258.486 221.822 258.701 221.249 258.701 220.605C258.772 219.962 258.486 219.175 257.842 218.817C257.199 218.459 256.34 218.603 255.768 218.96C255.124 219.389 254.766 220.105 254.552 220.892C254.337 221.678 254.337 222.465 254.409 223.252C254.48 224.039 254.623 224.897 254.909 225.613C255.196 226.4 255.696 227.115 256.34 227.687C256.984 228.259 257.842 228.689 258.772 228.689C259.702 228.76 260.561 228.403 261.276 227.973C261.991 227.544 262.635 226.9 263.136 226.257C263.636 225.613 264.066 224.826 264.066 223.968C264.137 223.181 263.851 222.322 263.207 221.75C262.563 221.249 261.634 221.249 260.99 221.607C260.346 221.965 259.845 222.608 259.702 223.324C259.488 224.754 260.274 226.042 261.276 226.614C262.277 227.186 263.422 227.186 264.28 227.043C265.21 226.9 265.926 226.543 266.426 226.185C266.999 225.827 267.356 225.541 267.642 225.398C267.928 225.184 268.072 225.112 268 225.041C268 225.041 267.857 225.112 267.571 225.327C267.285 225.541 266.855 225.756 266.355 226.114C265.782 226.4 265.067 226.757 264.209 226.9C263.35 227.043 262.277 226.972 261.347 226.471C260.418 225.899 259.702 224.754 259.917 223.467C260.06 222.823 260.489 222.322 261.061 221.965C261.634 221.678 262.42 221.607 262.921 222.108C263.493 222.537 263.708 223.324 263.708 224.039C263.636 224.754 263.279 225.47 262.85 226.114C262.349 226.757 261.777 227.33 261.061 227.759C260.346 228.188 259.559 228.474 258.772 228.403C257.985 228.331 257.199 227.973 256.555 227.473C255.911 226.972 255.482 226.257 255.196 225.541C254.909 224.826 254.766 224.039 254.695 223.252C254.623 222.465 254.695 221.75 254.838 221.035C254.981 220.319 255.339 219.676 255.911 219.318C256.483 218.96 257.199 218.817 257.699 219.175C258.272 219.461 258.486 220.105 258.415 220.677C258.415 221.249 258.2 221.822 257.914 222.251C257.27 223.181 256.412 223.753 255.553 224.039C254.695 224.325 253.908 224.397 253.336 224.325C252.048 224.182 251.476 223.753 251.476 223.753C251.476 223.753 251.476 223.753 251.547 223.824C251.619 223.896 251.762 223.968 251.905 224.039C252.191 224.182 252.692 224.397 253.336 224.468C253.98 224.54 254.766 224.54 255.625 224.254C256.483 223.824 257.413 223.252 258.128 222.322Z" fill="#263238"/>
<defs>
<linearGradient id="paint0_linear_306_6225" x1="149.479" y1="218.042" x2="149.479" y2="249.218" gradientUnits="userSpaceOnUse">
<stop stop-color="#D9E8FF" stop-opacity="0.5"/>
<stop offset="1" stop-color="#5B9DFF"/>
</linearGradient>
</defs>
</svg>
