<svg width="300" height="224" viewBox="0 0 300 224" fill="none" xmlns="http://www.w3.org/2000/svg">
<circle opacity="0.8" cx="49.4684" cy="199.886" r="10.9127" transform="rotate(180 49.4684 199.886)" fill="url(#paint0_linear_342_1361)"/>
<ellipse opacity="0.8" cx="150" cy="209" rx="150" ry="15" transform="rotate(180 150 209)" fill="url(#paint1_linear_342_1361)"/>
<circle opacity="0.8" cx="18.2566" cy="99.9234" r="8.82214" transform="rotate(-169.707 18.2566 99.9234)" fill="url(#paint2_linear_342_1361)"/>
<circle opacity="0.8" cx="277.136" cy="104.537" r="10.9127" transform="rotate(-169.707 277.136 104.537)" fill="url(#paint3_linear_342_1361)"/>
<circle opacity="0.8" cx="288.107" cy="176.619" r="7.20818" transform="rotate(-169.707 288.107 176.619)" fill="url(#paint4_linear_342_1361)"/>
<circle opacity="0.8" cx="137.453" cy="80.5285" r="10.9127" transform="rotate(-169.707 137.453 80.5285)" fill="url(#paint5_linear_342_1361)"/>
<ellipse opacity="0.8" cx="77.1305" cy="28.936" rx="6.54764" ry="6.54764" transform="rotate(105 77.1305 28.936)" fill="url(#paint6_linear_342_1361)"/>
<ellipse opacity="0.8" cx="253.917" cy="45.3052" rx="6.54764" ry="6.54764" transform="rotate(105 253.917 45.3052)" fill="url(#paint7_linear_342_1361)"/>
<path d="M187.327 0V44.4406H123.539L121.208 0.325175L187.327 0Z" fill="#A5C9FF"/>
<path d="M121.208 0.314785V44.3218L184.997 44.3218V0.314785L121.208 0.314785Z" fill="#DCEAFF"/>
<path d="M178.114 5.79883H128.145V38.8583H178.114V5.79883Z" fill="white"/>
<path d="M178.114 5.79882C178.114 5.79882 178.005 5.79882 177.843 5.79882C177.68 5.79882 177.463 5.79882 177.138 5.79882C176.488 5.79882 175.566 5.79882 174.374 5.79882C171.99 5.79882 168.467 5.79882 164.077 5.85301C155.243 5.85301 142.778 5.90721 128.091 5.90721L128.254 5.74462C128.254 15.8792 128.254 27.0436 128.254 38.8041L128.091 38.6415C146.951 38.6415 164.348 38.6415 178.059 38.6957L177.951 38.8041C178.005 28.7236 178.005 20.4859 178.005 14.7411C178.005 11.8687 178.005 9.64672 178.059 8.07504C178.059 7.3163 178.059 6.72015 178.059 6.34078C178.114 6.0156 178.114 5.79882 178.114 5.79882C178.114 5.79882 178.114 6.0156 178.114 6.39497C178.114 6.77434 178.114 7.3705 178.114 8.12924C178.114 9.64672 178.114 11.9229 178.168 14.7411C178.168 20.4859 178.222 28.7778 178.222 38.9125V39.0208H178.114C164.348 39.0208 147.005 39.0208 128.145 39.075L127.983 39.0208V38.8583C127.983 27.0978 127.983 15.8792 127.983 5.79882V5.63623H128.145C142.886 5.69043 155.406 5.69043 164.24 5.69043C168.629 5.69043 172.098 5.74462 174.483 5.74462C175.675 5.74462 176.596 5.74462 177.192 5.74462C177.518 5.74462 177.734 5.74462 177.897 5.74462C178.059 5.79882 178.114 5.79882 178.114 5.79882Z" fill="#A5C9FF"/>
<path d="M121.208 0.1626C121.208 0.108404 121.642 0.379384 122.292 0.867146C122.942 1.35491 123.809 2.00526 124.785 2.764C125.761 3.52274 126.573 4.28148 127.17 4.82344C127.766 5.3654 128.091 5.74477 128.091 5.74477C128.037 5.79896 126.519 4.55246 124.568 3.03498C122.726 1.5175 121.154 0.270992 121.208 0.1626Z" fill="#A5C9FF"/>
<path d="M185.051 0.325206C185.105 0.379402 183.587 1.6801 181.691 3.19758C179.794 4.71507 178.168 5.85318 178.114 5.79898C178.059 5.74479 179.577 4.44409 181.474 2.9266C183.371 1.40912 184.997 0.216815 185.051 0.325206Z" fill="#A5C9FF"/>
<path d="M184.997 44.3322C182.612 42.4353 180.227 40.4843 177.897 38.5874L184.997 44.3322Z" fill="white"/>
<path d="M177.843 38.5874C177.897 38.5332 179.523 39.7797 181.474 41.3514C183.425 42.9231 184.997 44.278 184.942 44.3322C184.888 44.3864 183.262 43.1398 181.311 41.5682C179.36 39.9965 177.788 38.6416 177.843 38.5874Z" fill="#A5C9FF"/>
<path d="M121.208 44.3321C121.154 44.2779 122.617 42.9772 124.514 41.5139C126.411 39.9964 127.983 38.8583 128.037 38.9125C128.091 38.9667 126.628 40.2674 124.731 41.7307C122.834 43.2482 121.262 44.3863 121.208 44.3321Z" fill="#A5C9FF"/>
<path d="M138.286 16.1098V27.1658L169.72 27.1658V16.1098H138.286Z" fill="#A5C9FF"/>
<path d="M185.282 73.9938C184.98 73.9183 184.074 73.1638 181.962 73.1638C180.83 73.1638 172.908 78.068 172.908 78.068L165.363 86.4427L163.1 92.4032L167.928 95.0439L174.87 80.256L182.037 75.9554L185.282 73.9938Z" fill="#FFAAA5"/>
<path d="M162.949 89.6116C162.949 89.6116 152.084 109.455 151.782 109.002C151.481 108.625 142.05 100.174 142.05 100.174C142.05 100.174 137.447 89.5362 135.486 85.6883C134.052 82.8213 129.072 81.0105 129.072 81.0105L131.789 116.169C131.336 115.189 146.954 125.827 150.424 127.26C153.744 128.618 157.215 125.45 159.78 123.865C162.345 122.281 173.436 97.3828 173.436 97.3828L162.949 89.6116Z" fill="#C7D9F3"/>
<path d="M151.556 119.036C151.481 119.036 151.028 117.075 151.103 114.585C151.179 112.095 151.707 110.134 151.782 110.134C151.933 110.134 151.481 112.095 151.481 114.585C151.33 116.999 151.631 119.036 151.556 119.036Z" fill="#263238"/>
<path d="M128.243 21.8592C124.998 20.8029 121.603 23.5945 118.283 22.84C116.246 22.3873 114.813 20.7274 113.002 19.6712C110.361 18.0868 106.589 17.785 103.797 19.0676C101.006 20.3502 99.1949 21.7837 98.7422 24.8771C96.2524 23.3681 92.0273 26.3861 90.5183 29.404C89.0093 32.422 89.3111 35.5153 89.9902 38.8351C91.1973 44.4937 93.5362 49.8506 96.856 54.6038C97.1578 55.0565 97.6105 55.5092 98.0632 55.2828C98.3649 55.1319 98.5158 54.7547 98.5913 54.3775C99.1194 51.435 98.8931 48.417 98.6667 45.3991C98.5158 42.3812 98.4404 39.2878 99.4967 36.4962C100.553 33.7046 102.816 31.1393 105.759 30.6112C107.947 30.234 110.21 30.9884 112.097 32.1202C113.983 33.2519 115.643 34.7609 117.453 36.0435C119.264 37.3261 121.301 38.4578 123.489 38.6087C125.677 38.7596 128.092 37.7788 129.148 35.8171C130.129 33.8555 129.148 30.913 127.035 30.4603C129.072 30.3094 130.808 28.6495 131.11 26.6879C131.487 24.5753 130.129 22.5382 128.243 21.8592Z" fill="#263238"/>
<path d="M125.225 57.32C125.225 53.1703 124.621 44.7201 123.942 37.0998C123.188 28.8759 116.322 22.5383 108.022 22.6137H107.192C98.365 23.1418 94.8944 31.2903 95.7243 40.1177L95.7997 69.5426L112.851 83.8024L115.944 77.7665L116.925 67.0528C116.925 67.1283 125.149 65.7702 125.225 57.32Z" fill="#FFAAA5"/>
<path d="M116.925 67.1283C116.925 67.1283 111.267 67.6564 105.533 64.1104C105.533 64.1104 108.249 70.0708 116.699 69.2408L116.925 67.1283Z" fill="#C75B54"/>
<path d="M120.245 45.1726C120.245 45.8517 119.717 46.3798 119.113 46.3798C118.434 46.4552 117.906 45.9271 117.831 45.3235C117.831 44.6445 118.359 44.1163 118.962 44.1163C119.717 44.0409 120.245 44.569 120.245 45.1726Z" fill="#263238"/>
<path d="M122.131 41.174C121.98 41.3249 121.075 40.6458 119.717 40.6458C118.434 40.6458 117.453 41.3249 117.303 41.174C117.227 41.0985 117.378 40.7967 117.831 40.4949C118.208 40.1932 118.962 39.8914 119.792 39.8914C120.622 39.8914 121.301 40.1932 121.679 40.4949C122.056 40.8722 122.207 41.174 122.131 41.174Z" fill="#263238"/>
<path d="M107.57 45.1726C107.57 45.8517 107.042 46.3798 106.438 46.3798C105.759 46.4552 105.231 45.9271 105.155 45.3235C105.155 44.6445 105.683 44.1163 106.287 44.1163C106.966 44.0409 107.57 44.569 107.57 45.1726Z" fill="#263238"/>
<path d="M109.305 41.5512C109.154 41.7021 108.249 41.023 106.891 41.023C105.608 41.023 104.627 41.7021 104.476 41.5512C104.401 41.4757 104.552 41.1739 105.004 40.8721C105.382 40.5703 106.136 40.2686 106.966 40.2686C107.796 40.2686 108.475 40.5703 108.852 40.8721C109.23 41.1739 109.38 41.4757 109.305 41.5512Z" fill="#263238"/>
<path d="M114.058 51.2085C114.058 51.1331 114.888 50.9822 116.171 50.8313C116.473 50.8313 116.85 50.7558 116.85 50.5295C116.925 50.3031 116.774 49.9259 116.623 49.5487C116.322 48.7187 115.944 47.8888 115.643 46.9834C114.209 43.3619 113.228 40.4194 113.379 40.3439C113.53 40.2685 114.813 43.211 116.171 46.7571C116.473 47.6624 116.85 48.4924 117.152 49.3223C117.303 49.6996 117.529 50.1522 117.303 50.6049C117.227 50.8313 117.001 51.0576 116.774 51.1331C116.623 51.2085 116.397 51.2085 116.246 51.2085C114.888 51.284 114.058 51.284 114.058 51.2085Z" fill="#263238"/>
<path d="M109.38 34.8363C109.23 35.2135 107.947 35.0626 106.438 35.2135C104.929 35.3644 103.646 35.8171 103.495 35.5153C103.42 35.3644 103.646 35.0626 104.099 34.6854C104.627 34.3081 105.382 34.0063 106.287 33.9309C107.192 33.8554 108.022 33.9309 108.626 34.1572C109.154 34.3836 109.38 34.6854 109.38 34.8363Z" fill="#263238"/>
<path d="M121.603 37.4015C121.377 37.7033 120.471 37.4015 119.415 37.4015C118.359 37.3261 117.378 37.6279 117.227 37.3261C117.152 37.1752 117.303 36.8734 117.68 36.5716C118.057 36.2698 118.736 36.0435 119.491 36.0435C120.245 36.0435 120.849 36.3453 121.226 36.647C121.603 36.9488 121.754 37.2506 121.603 37.4015Z" fill="#263238"/>
<path d="M96.1015 46.078C95.9506 46.0026 89.5375 44.4182 89.7638 50.2277C89.9902 56.0372 95.7997 54.6037 95.7997 54.4528C95.7997 54.3019 96.1015 46.078 96.1015 46.078Z" fill="#FFAAA5"/>
<path d="M93.989 52.3404C93.989 52.3404 93.9135 52.4158 93.6872 52.4913C93.5363 52.5667 93.2345 52.6422 92.9327 52.5667C92.3291 52.3404 91.7255 51.435 91.6501 50.3787C91.6501 49.8506 91.7255 49.3225 91.8764 48.9452C92.0273 48.4925 92.3291 48.1907 92.6309 48.1153C92.9327 48.0398 93.159 48.1907 93.2345 48.3416C93.3099 48.4925 93.3099 48.6434 93.3099 48.6434C93.3099 48.6434 93.4608 48.568 93.3854 48.2662C93.3854 48.1153 93.3099 48.0398 93.159 47.8889C93.0081 47.8135 92.7818 47.738 92.5555 47.738C92.1028 47.8135 91.7255 48.1907 91.4992 48.7189C91.2728 49.1716 91.1974 49.7751 91.1974 50.3787C91.2728 51.5859 91.9519 52.6422 92.7818 52.8685C93.159 52.944 93.5363 52.7931 93.6872 52.6422C93.989 52.4913 93.989 52.3404 93.989 52.3404Z" fill="#C75B54"/>
<path d="M124.017 29.1023C123.263 27.4424 121.905 26.0843 120.396 25.028C117.227 22.6891 113.304 21.1802 109.38 21.1802C105.382 21.1802 101.383 22.6137 98.5913 25.3298C96.3278 27.5178 94.8189 30.4603 94.1398 33.6292C93.4608 36.7226 93.159 40.8722 93.7626 44.0411C93.9889 45.3991 94.8189 45.9273 95.7242 46.9081C96.3278 47.5117 97.3841 47.9644 98.0631 47.4362C98.4404 47.1344 98.5913 46.6063 98.7422 46.0782C99.7985 41.5513 100.93 36.7226 99.1949 32.422C100.327 30.9885 101.609 29.6304 103.194 28.725C104.778 27.8196 106.74 27.4424 108.475 27.9705C111.04 28.725 112.7 31.2903 114.813 33.0256C117.755 35.5154 121.98 36.4208 125.753 35.4399L124.017 29.1023Z" fill="#263238"/>
<path d="M89.6884 36.7225C89.6884 36.647 90.292 36.7225 91.2728 36.647C92.2537 36.5716 93.6117 36.3452 94.9698 35.6662C96.3279 34.9872 97.3842 34.1572 98.0632 33.4027C98.7422 32.7237 99.044 32.1956 99.1195 32.1956C99.1195 32.1956 98.8931 32.7991 98.2141 33.5536C97.5351 34.3081 96.4788 35.2889 95.1207 35.968C93.6872 36.647 92.3291 36.8734 91.2728 36.8734C90.292 36.9488 89.613 36.7225 89.6884 36.7225Z" fill="#E0E0E0"/>
<path d="M89.7638 39.5896C89.7638 39.5142 90.4429 39.4387 91.4991 39.2124C92.5554 38.986 93.9135 38.4579 95.347 37.5525C96.7051 36.6471 97.7614 35.5909 98.4404 34.7609C99.1194 33.931 99.4212 33.3274 99.4967 33.4029C99.4967 33.4029 99.2703 34.0819 98.6667 34.9873C98.0632 35.8926 97.0069 37.0244 95.5734 37.9298C94.1398 38.8351 92.7063 39.3633 91.65 39.5142C90.4429 39.6651 89.7638 39.5896 89.7638 39.5896Z" fill="#E0E0E0"/>
<path d="M128.544 32.2712C128.62 32.2712 128.544 32.6485 128.243 33.2521C127.941 33.7802 127.337 34.5347 126.507 35.0628C125.677 35.591 124.772 35.7419 124.093 35.7419C123.414 35.7419 123.037 35.591 123.112 35.5155C123.112 35.4401 123.489 35.5155 124.093 35.4401C124.696 35.3646 125.526 35.2137 126.281 34.761C127.035 34.3083 127.639 33.6293 127.941 33.1766C128.318 32.6485 128.469 32.2712 128.544 32.2712Z" fill="#E0E0E0"/>
<path d="M129.223 33.4782C129.299 33.4782 129.223 33.8554 128.922 34.3836C128.62 34.9117 128.092 35.5908 127.337 36.1943C126.583 36.7225 125.753 37.0243 125.149 37.0997C124.546 37.1752 124.168 37.1752 124.168 37.0997C124.168 37.0243 125.677 36.9488 127.186 35.8926C128.544 34.8363 129.148 33.4028 129.223 33.4782Z" fill="#E0E0E0"/>
<path d="M110.361 52.793C111.568 53.2457 112.776 53.8492 113.983 54.5283L115.19 55.2073C114.662 55.8864 114.058 57.0181 113.304 57.2444C112.549 57.5462 111.342 57.4708 110.814 56.8672C110.361 56.4145 110.135 55.66 110.135 54.9055C110.059 54.2265 110.21 53.472 110.361 52.793Z" fill="#C75B54"/>
<path d="M114.586 56.0373C114.586 56.0373 114.435 56.1882 114.209 56.49C113.983 56.7163 113.606 57.0936 113.002 57.169C112.398 57.2445 111.644 57.169 110.965 56.7163C110.361 56.2636 110.135 55.2828 110.286 54.3774C110.361 53.8493 110.512 53.3212 110.663 52.793L110.361 52.8685C111.795 53.5475 113.002 54.2265 113.907 54.6038C114.813 55.0565 115.341 55.2828 115.341 55.2074C115.341 55.1319 114.888 54.8301 113.983 54.3774C113.153 53.9247 111.946 53.2457 110.512 52.4912L110.286 52.4158L110.21 52.6421C109.984 53.1703 109.833 53.6984 109.758 54.302C109.682 55.2828 109.833 56.4145 110.663 57.0181C111.418 57.5463 112.323 57.6217 113.002 57.4708C113.681 57.3199 114.134 56.8672 114.285 56.5654C114.586 56.2636 114.586 56.0373 114.586 56.0373Z" fill="#263238"/>
<path d="M129.676 162.649C129.676 162.649 132.09 165.738 131.26 169.496C130.883 170.954 115.944 211.146 115.944 211.146H96L101.659 173.376H99.5C99.5 173.376 92.1191 190.616 91.2137 193.212C90.3838 195.56 80.5 214 80.5 214L58 212.926L65.0922 189.147L71.958 167.518L74.5232 161.215L129.676 162.649Z" fill="#263238"/>
<path d="M99.4213 169.52C99.4213 169.52 99.7231 169.594 100.251 169.669C100.779 169.743 101.609 169.891 102.741 169.965C103.269 169.99 103.948 170.015 104.627 169.965C105.306 169.916 105.985 169.842 106.589 169.669C107.192 169.496 107.57 169.248 107.796 169.001C108.022 168.754 108.173 168.482 108.324 168.21C109.003 167.123 109.38 166.134 109.682 165.392C109.833 165.022 109.909 164.75 109.909 164.527C109.984 164.329 109.984 164.206 109.909 164.206C109.909 164.206 109.833 164.305 109.682 164.527C109.607 164.75 109.456 165.046 109.305 165.368C109.003 166.084 108.475 167.073 107.871 168.161C107.57 168.705 107.343 169.248 106.287 169.57C105.231 169.891 103.873 169.916 102.816 169.866C101.76 169.817 100.93 169.693 100.327 169.619C99.7985 169.545 99.4213 169.496 99.4213 169.52Z" fill="#263238"/>
<path d="M105.533 164.379C105.533 164.379 105.382 164.354 105.08 164.329C104.778 164.329 104.401 164.354 103.948 164.453C103.571 164.552 103.118 164.725 103.118 164.972C103.118 165.219 103.646 165.442 104.401 165.541C105.155 165.639 106.061 165.59 106.513 165.392C106.966 165.219 107.042 164.972 106.891 164.824C106.74 164.651 106.513 164.552 106.287 164.502C106.061 164.453 105.91 164.428 105.91 164.453C105.834 164.478 106.513 164.552 106.589 164.873C106.664 165.021 106.589 165.194 106.212 165.343C105.834 165.491 105.155 165.516 104.552 165.442C103.948 165.368 103.495 165.194 103.495 164.997C103.495 164.824 103.797 164.651 104.175 164.552C104.854 164.354 105.533 164.404 105.533 164.379Z" fill="#263238"/>
<path d="M73.467 167.123C73.467 167.123 73.6933 167.147 74.146 167.147C74.5987 167.172 75.2777 167.172 76.0322 167.147C77.6166 167.123 79.8801 166.999 82.1436 166.678C84.407 166.356 86.2178 165.936 87.4249 165.565C88.0285 165.392 88.4812 165.219 88.7076 165.12C89.0094 164.997 89.1603 164.947 89.0848 164.923C89.0094 164.898 88.4058 165.145 87.1986 165.491C85.9914 165.837 84.1807 166.233 81.9927 166.529C79.8046 166.826 77.6166 166.974 76.0322 167.024C74.4478 167.098 73.467 167.098 73.467 167.123Z" fill="#263238"/>
<path d="M122.584 164.502C122.508 164.502 122.886 164.774 123.489 165.17C124.168 165.565 125.225 166.084 126.583 166.604C128.016 167.098 129.45 167.469 130.506 167.716C131.638 167.938 132.317 168.062 132.392 168.037C132.392 168.012 131.713 167.889 130.657 167.617C129.601 167.37 128.167 166.974 126.809 166.505C125.451 166.01 124.395 165.516 123.64 165.12C123.037 164.75 122.659 164.502 122.584 164.502Z" fill="#263238"/>
<path d="M218.479 69.4671L218.932 34.3081C219.309 25.5561 214.556 18.0112 205.804 17.8604H204.974C196.825 18.1621 190.261 24.7262 189.959 32.8746C189.658 40.4949 189.431 48.8697 189.658 52.8684C190.11 61.2432 198.561 62.224 198.561 62.224C198.561 62.224 198.636 67.3545 198.636 69.7689L196.674 75.503L203.616 73.8431L218.479 69.4671Z" fill="#FFAAA5"/>
<path d="M198.561 62.2995C198.561 62.2995 203.842 62.375 209.35 58.6025C209.35 58.6025 207.011 65.0157 198.561 64.6384V62.2995Z" fill="#C75B54"/>
<path d="M194.26 40.4193C194.26 41.0229 194.788 41.5511 195.467 41.5511C196.146 41.5511 196.674 41.0229 196.674 40.4193C196.674 39.8157 196.146 39.2876 195.467 39.2876C194.788 39.2876 194.26 39.8157 194.26 40.4193Z" fill="#263238"/>
<path d="M191.921 36.5715C192.072 36.7223 192.977 36.0433 194.26 35.9679C195.543 35.8924 196.523 36.496 196.674 36.3451C196.75 36.2697 196.599 35.9679 196.146 35.7415C195.693 35.4397 195.014 35.2134 194.185 35.2134C193.355 35.2888 192.751 35.5906 192.374 35.8924C191.997 36.1942 191.846 36.496 191.921 36.5715Z" fill="#263238"/>
<path d="M206.483 40.1176C206.483 40.7212 207.011 41.2493 207.69 41.2493C208.369 41.2493 208.897 40.7212 208.897 40.1176C208.897 39.514 208.369 38.9858 207.69 38.9858C207.011 38.9858 206.483 39.514 206.483 40.1176Z" fill="#263238"/>
<path d="M204.596 36.3451C204.747 36.496 205.653 35.817 206.935 35.7415C208.218 35.6661 209.199 36.2697 209.35 36.1188C209.425 36.0433 209.274 35.7415 208.821 35.5152C208.369 35.2134 207.69 34.9871 206.86 34.9871C206.03 35.0625 205.426 35.3643 205.049 35.6661C204.596 35.9679 204.521 36.2697 204.596 36.3451Z" fill="#263238"/>
<path d="M200.371 46.4553C200.371 46.3799 199.541 46.3044 198.259 46.1535C197.957 46.1535 197.58 46.0781 197.58 45.8518C197.504 45.6254 197.58 45.2482 197.731 44.8709C198.032 44.041 198.334 43.2111 198.636 42.3057C199.843 38.6841 200.673 35.6662 200.522 35.6662C200.371 35.5908 199.315 38.5333 198.108 42.1548C197.806 43.0602 197.504 43.8901 197.278 44.72C197.202 45.0973 196.976 45.55 197.127 46.0026C197.202 46.229 197.504 46.3799 197.655 46.4553C197.882 46.5308 198.032 46.5308 198.183 46.5308C199.541 46.5308 200.371 46.5308 200.371 46.4553Z" fill="#263238"/>
<path d="M203.993 32.2708C204.219 32.5726 205.426 32.1954 206.935 32.1199C208.444 31.969 209.727 32.1954 209.878 31.8936C209.953 31.7427 209.651 31.4409 209.123 31.2146C208.595 30.9882 207.765 30.7619 206.86 30.8373C205.955 30.9128 205.125 31.2146 204.672 31.5163C204.144 31.8181 203.917 32.1199 203.993 32.2708Z" fill="#263238"/>
<path d="M191.695 32.7238C191.997 33.0256 192.977 32.6483 194.26 32.6483C195.543 32.5729 196.599 32.7992 196.825 32.4974C196.901 32.3466 196.75 32.0448 196.297 31.8184C195.844 31.5166 195.09 31.3657 194.185 31.3657C193.355 31.4412 192.6 31.6675 192.147 32.0448C191.695 32.3466 191.619 32.6483 191.695 32.7238Z" fill="#263238"/>
<path d="M218.479 40.4949C218.63 40.4194 224.213 38.5332 224.213 44.2673C224.288 50.0014 218.479 48.8696 218.479 48.7188C218.479 48.5679 218.479 40.4949 218.479 40.4949Z" fill="#FFAAA5"/>
<path d="M220.214 46.606C220.214 46.606 220.29 46.6815 220.516 46.7569C220.667 46.8324 220.969 46.9078 221.271 46.7569C221.874 46.5306 222.402 45.5497 222.402 44.4934C222.402 43.9653 222.327 43.4372 222.1 43.0599C221.95 42.6072 221.648 42.3809 221.346 42.3054C221.044 42.23 220.818 42.4563 220.742 42.6072C220.667 42.7581 220.667 42.909 220.667 42.909C220.667 42.909 220.516 42.8336 220.591 42.6072C220.591 42.4563 220.667 42.3809 220.818 42.23C220.969 42.0791 221.12 42.0791 221.346 42.0791C221.799 42.0791 222.176 42.5318 222.402 42.9845C222.629 43.4372 222.779 43.9653 222.779 44.5689C222.779 45.7006 222.176 46.8324 221.346 47.0587C220.969 47.1341 220.591 47.0587 220.441 46.9078C220.214 46.6815 220.214 46.606 220.214 46.606Z" fill="#C75B54"/>
<path d="M204.446 47.21C204.219 47.21 204.219 48.4926 203.087 49.4734C201.956 50.3788 200.522 50.2279 200.522 50.4542C200.522 50.5297 200.824 50.6806 201.428 50.756C202.031 50.756 202.861 50.6051 203.54 50.0016C204.219 49.398 204.521 48.6435 204.596 48.1153C204.672 47.5118 204.521 47.21 204.446 47.21Z" fill="#263238"/>
<path d="M178.416 25.3297C178.491 25.0279 178.718 24.7261 179.019 24.4997C179.698 24.1225 180.453 24.1225 181.132 24.1225C182.943 24.047 184.753 23.5944 186.338 22.7644C185.734 22.4626 185.206 22.1608 184.753 21.7081C183.848 20.8028 183.244 19.3692 183.697 18.1621C183.773 17.9357 183.924 17.7094 184.15 17.6339C184.527 17.483 184.829 17.8603 185.131 18.1621C185.961 19.1429 186.791 19.5201 188.073 19.3692C188.828 19.2938 189.658 19.0675 190.261 18.6902L190.337 18.6148C190.638 18.313 190.94 18.0112 191.242 17.7094C193.355 15.5214 195.241 14.0124 197.127 13.2579C199.919 12.1262 204.596 11.5981 207.539 12.3525C210.481 13.107 213.122 15.4459 213.575 18.3884C215.235 16.9549 217.649 16.9549 219.686 17.7094H219.762C222.025 18.4639 223.308 20.8028 223.987 23.0662C223.987 23.2171 224.062 23.2926 224.062 23.4435C224.817 24.6506 225.873 25.6315 227.08 26.3105C227.306 26.4614 227.533 26.6123 227.608 26.8386C227.608 27.065 227.457 27.2913 227.231 27.4422C226.703 27.8195 226.099 28.1213 225.42 28.1967C225.646 28.7249 225.873 29.253 226.175 29.7811C226.401 30.2338 226.703 30.6865 226.552 31.1392C226.401 31.5164 225.948 31.5919 225.571 31.5919C225.194 31.5164 224.892 31.3656 224.515 31.1392C224.741 31.7428 225.043 32.3464 225.269 32.95C224.439 33.1009 223.609 33.0254 222.855 32.7991C222.402 34.9116 222.1 38.8349 221.572 40.2685C220.063 40.3439 219.686 40.1176 218.932 40.4194C217.951 40.7966 218.328 42.5319 217.045 42.0038C216.366 41.7774 215.31 39.2876 215.084 38.6086C213.575 34.1571 213.047 29.4039 213.499 24.7261C212.594 23.7453 211.462 22.9908 210.18 22.3872L210.255 22.4626C207.916 21.7081 205.2 20.8782 203.012 22.0099C201.277 22.9153 200.296 24.7261 199.013 26.1596C196.599 28.8757 193.807 30.3847 190.186 30.6111C189.884 33.1763 189.808 37.326 189.733 39.6649L187.62 34.9871C187.47 34.6853 187.319 34.4589 187.168 34.1571L187.092 34.0817C186.866 33.629 186.715 33.1763 186.413 32.7236C185.131 33.8553 183.244 32.1955 184.225 30.762C184.452 30.4602 184.678 30.2338 184.904 30.0075C184.301 30.5356 183.471 30.8374 182.716 30.6111C181.962 30.3847 181.358 29.6302 181.434 28.8003C181.509 28.2722 181.886 27.744 182.339 27.5177C181.283 27.5931 180.227 27.3668 179.321 26.9141C178.793 26.6123 178.189 26.0842 178.416 25.3297Z" fill="#263238"/>
<path d="M210.934 19.3691C210.934 19.3691 211.311 19.5955 211.764 20.1236C212.292 20.6518 212.82 21.6326 213.122 22.9152C213.273 23.5943 213.348 24.2733 213.348 25.0278C213.348 25.7823 213.273 26.6122 213.273 27.5176C213.198 28.423 213.198 29.3283 213.273 30.3092C213.273 30.7619 213.348 31.29 213.499 31.7427C213.575 32.1954 213.726 32.7235 214.103 33.1762C214.405 33.478 214.857 33.6289 215.31 33.5534C215.763 33.478 216.065 33.2517 216.366 32.9499C216.895 32.3463 217.045 31.5163 217.121 30.8373H216.97C217.272 31.4409 217.574 32.1199 218.026 32.5726C218.479 33.1008 219.083 33.4026 219.686 33.478C219.988 33.478 220.29 33.478 220.516 33.3271C220.742 33.1762 220.969 32.9499 221.12 32.7235C221.271 32.4972 221.271 32.1954 221.271 31.969C221.271 31.7427 221.12 31.5163 220.969 31.29L220.893 31.3654C221.572 32.1199 222.251 32.4972 222.704 32.7235C222.93 32.799 223.157 32.8744 223.232 32.9499C223.383 32.9499 223.459 33.0253 223.459 33.0253C223.459 33.0253 223.383 33.0253 223.232 32.9499C223.081 32.8744 222.93 32.799 222.704 32.7235C222.251 32.4972 221.572 32.1199 220.969 31.3654L220.893 31.4409C221.195 31.7427 221.195 32.2708 220.969 32.7235C220.818 32.9499 220.667 33.1008 220.441 33.2517C220.214 33.4026 219.912 33.4026 219.686 33.4026C219.158 33.3271 218.554 33.0253 218.177 32.5726C217.724 32.1199 217.498 31.5163 217.196 30.8373L217.045 30.5355L216.97 30.8373C216.819 31.5163 216.744 32.3463 216.215 32.8744C215.989 33.1762 215.612 33.3271 215.235 33.4026C214.857 33.478 214.48 33.3271 214.254 33.1008C213.952 32.7235 213.801 32.2708 213.726 31.8181C213.65 31.3654 213.575 30.8373 213.499 30.3846C213.424 29.4038 213.499 28.4984 213.499 27.6685C213.575 26.7631 213.575 25.9332 213.575 25.1787C213.575 24.4242 213.424 23.6697 213.273 22.9907C212.971 21.708 212.368 20.7272 211.839 20.1991C211.311 19.52 210.934 19.3691 210.934 19.3691Z" fill="#455A64"/>
<path d="M184.98 27.8194C184.98 27.8194 185.055 27.8194 184.98 27.8194C185.131 27.8949 185.206 27.9703 185.282 28.0458C185.357 28.1212 185.508 28.1967 185.659 28.2721C185.81 28.3476 185.961 28.423 186.187 28.4985C186.941 28.8757 188.224 29.1775 189.809 29.102C191.393 29.0266 193.204 28.423 194.864 27.1404C196.523 25.9332 197.957 24.1225 199.164 22.0853C199.768 21.0291 200.22 20.0482 200.824 19.0674C201.352 18.0866 201.956 17.1812 202.71 16.5022C203.389 15.8231 204.219 15.2195 205.125 14.9932C205.577 14.8423 205.954 14.8423 206.407 14.8423C206.86 14.8423 207.237 14.9177 207.614 15.0686C208.369 15.295 208.897 15.6722 209.35 16.1249C209.802 16.5022 210.104 16.9549 210.33 17.3321C210.708 18.0866 210.783 18.6147 210.783 18.6147C210.783 18.6147 210.783 18.6147 210.783 18.5393C210.783 18.4638 210.783 18.3884 210.708 18.3129C210.632 18.0866 210.557 17.7848 210.406 17.3321C210.18 16.9549 209.878 16.5022 209.425 16.0495C208.972 15.5968 208.369 15.2195 207.614 14.9932C207.237 14.8423 206.86 14.7668 206.407 14.7668C205.954 14.7668 205.502 14.7668 205.049 14.9177C204.144 15.1441 203.314 15.7477 202.559 16.4267C201.805 17.1812 201.201 18.0866 200.673 19.0674C200.145 20.0482 199.617 21.1045 199.013 22.0853C197.806 24.1225 196.373 25.9332 194.788 27.1404C193.204 28.423 191.393 28.9512 189.809 29.102C188.3 29.2529 187.017 28.8757 186.262 28.5739C185.357 28.1212 184.98 27.8194 184.98 27.8194Z" fill="#455A64"/>
<path d="M184.225 24.1226C184.225 24.1226 184.301 24.198 184.527 24.3489C184.753 24.4998 185.055 24.6507 185.433 24.8016C185.81 24.9525 186.338 25.1034 186.866 25.2543C187.394 25.4052 187.998 25.4806 188.677 25.4806C189.356 25.4806 189.959 25.4052 190.488 25.3297C191.016 25.2543 191.544 25.1034 191.921 24.9525C192.298 24.8016 192.6 24.6507 192.826 24.5753C193.053 24.4244 193.128 24.4244 193.128 24.3489C193.128 24.3489 192.676 24.5753 191.846 24.8016C191.468 24.9525 190.94 25.0279 190.412 25.1788C189.884 25.2543 189.28 25.3297 188.601 25.3297C187.998 25.3297 187.394 25.2543 186.791 25.1034C186.262 24.9525 185.81 24.877 185.357 24.7261C184.678 24.3489 184.225 24.1226 184.225 24.1226Z" fill="#455A64"/>
<path d="M177.404 153.322C177.404 153.322 174.596 156.74 174.975 160.963C175.127 162.602 184.918 207.916 184.918 207.916L205.182 208.222L203.679 171.193H206.5C206.5 171.193 212.393 185.083 213 188C213.531 190.639 220.5 208.805 220.5 208.805H241.763L238.803 183.995L234.705 159.657L232.959 152.572L177.404 153.322Z" fill="#263238"/>
<path d="M207.916 163.136C207.916 163.136 207.614 163.199 207.086 163.327C206.483 163.423 205.653 163.582 204.521 163.646C203.993 163.678 203.314 163.678 202.635 163.614C201.956 163.55 201.277 163.423 200.748 163.199C200.22 162.976 199.843 162.625 199.692 162.306C199.466 161.955 199.39 161.636 199.24 161.286C198.711 159.882 198.41 158.574 198.259 157.649C198.183 157.171 198.108 156.788 198.108 156.533C198.108 156.278 198.108 156.118 198.108 156.118C198.108 156.118 198.183 156.246 198.259 156.533C198.334 156.82 198.41 157.203 198.56 157.649C198.787 158.574 199.164 159.85 199.617 161.286C199.843 161.987 199.994 162.689 200.975 163.136C201.956 163.55 203.389 163.614 204.445 163.582C205.502 163.518 206.407 163.391 206.935 163.327C207.539 163.199 207.916 163.136 207.916 163.136Z" fill="#455A64"/>
<path d="M202.484 156.437C202.484 156.437 202.635 156.405 202.936 156.405C203.238 156.405 203.616 156.437 204.068 156.565C204.445 156.692 204.898 156.916 204.823 157.235C204.823 157.554 204.219 157.841 203.465 157.936C202.71 158.032 201.805 157.968 201.352 157.713C200.899 157.458 200.899 157.171 201.05 156.979C201.201 156.756 201.503 156.629 201.729 156.565C201.956 156.501 202.107 156.501 202.107 156.501C202.182 156.533 201.503 156.629 201.352 157.011C201.277 157.203 201.352 157.426 201.654 157.617C202.031 157.809 202.71 157.873 203.314 157.777C203.917 157.681 204.37 157.458 204.445 157.235C204.445 157.011 204.144 156.788 203.842 156.66C203.163 156.405 202.484 156.469 202.484 156.437Z" fill="#455A64"/>
<path d="M234.097 160.52C234.097 160.52 233.87 160.552 233.418 160.552C232.965 160.552 232.286 160.552 231.531 160.52C229.947 160.456 227.759 160.265 225.496 159.818C223.308 159.372 221.497 158.798 220.365 158.319C219.837 158.064 219.384 157.872 219.082 157.713C218.781 157.554 218.705 157.49 218.705 157.458C218.781 157.426 219.384 157.777 220.516 158.223C221.648 158.67 223.458 159.244 225.571 159.659C227.759 160.105 229.872 160.297 231.456 160.392C233.116 160.488 234.097 160.488 234.097 160.52Z" fill="#455A64"/>
<path d="M185.432 156.31C185.508 156.31 185.131 156.66 184.301 157.171C183.471 157.681 182.264 158.319 180.604 158.957C178.944 159.563 177.284 160.042 176.001 160.297C174.719 160.584 173.889 160.711 173.889 160.68C173.889 160.648 174.643 160.488 175.851 160.201C177.058 159.882 178.718 159.436 180.302 158.829C181.886 158.223 183.169 157.585 183.999 157.107C184.904 156.597 185.357 156.278 185.432 156.31Z" fill="#455A64"/>
<path d="M94.0644 67.5809L95.5734 64.9402L109.23 77.9173L111.342 81.7652C111.493 81.6143 113.379 77.6155 113.379 77.6155L116.322 73.2395L117.453 74.7485L125.149 157.063C125.149 157.063 117.152 160.005 110.512 160.232C103.948 160.458 96.856 160.232 96.856 160.232C96.856 160.232 90.1411 150.046 90.1411 149.518C90.1411 149.065 95.347 86.7448 95.347 86.7448L94.0644 67.5809Z" fill="#F5F5F5"/>
<path d="M101.685 88.4045C100.1 81.6896 93.3854 65.9209 93.3854 65.9209L88.4058 72.2586C88.4058 72.2586 73.5424 78.0681 72.6371 78.8226C71.7317 79.5771 76.1831 124.695 76.1831 124.695L72.5616 137.446L60.2635 182.112C60.2635 182.112 79.6538 188.147 86.9723 186.714C94.2153 185.28 95.1962 176.377 96.4033 171.775C97.6105 167.173 102.439 133.749 103.269 119.716C104.175 105.758 103.269 95.1194 101.685 88.4045Z" fill="#C7D9F3"/>
<path d="M103.043 123.186C103.043 123.186 102.967 123.036 102.816 122.658C102.666 122.281 102.515 121.753 102.288 121.074C101.836 119.64 101.157 117.603 100.327 115.113C98.6668 110.058 96.4033 103.042 93.9135 95.4214C93.0836 92.7807 92.2536 90.14 91.4237 87.7257V87.6503L91.4992 87.5748C92.5554 86.3676 93.6117 85.1604 94.5925 84.0287L94.7434 84.3305C93.0081 84.3305 91.4237 84.3305 89.9902 84.3305H89.8393V84.1796C89.4621 80.6335 89.0848 77.7665 88.8585 75.6539C88.783 74.6731 88.7076 73.9186 88.6321 73.315C88.6321 73.0887 88.5567 72.8624 88.5567 72.7115C88.5567 72.5606 88.5567 72.4851 88.5567 72.4851C88.5567 72.4851 88.5567 72.5606 88.6321 72.7115C88.6321 72.8624 88.7076 73.0887 88.7076 73.315C88.783 73.9186 88.9339 74.6731 89.0094 75.6539C89.3112 77.6911 89.6884 80.6335 90.1411 84.1796L89.9902 84.0287C91.4992 84.0287 93.0836 84.0287 94.7434 84.0287H95.1207L94.8943 84.3305C93.9135 85.4622 92.8572 86.6694 91.801 87.8766V87.7257C92.5554 90.14 93.4608 92.7807 94.2908 95.4214C96.7806 103.117 98.9686 110.058 100.628 115.189C101.383 117.679 102.062 119.716 102.515 121.225C102.741 121.904 102.892 122.432 103.043 122.885C102.967 122.96 103.043 123.111 103.043 123.186Z" fill="#263238"/>
<path d="M117.453 74.2202C117.68 74.5975 119.792 78.0681 119.792 78.0681C119.792 78.0681 129.676 80.1806 131.789 82.9722C133.977 85.7638 134.957 92.9314 134.957 92.9314L132.09 125.902L130.581 149.065C130.581 149.065 132.468 175.246 132.694 179.471C132.92 183.696 132.166 188.525 130.581 188.298C128.922 188.072 128.167 188.902 127.337 184.375C126.507 179.848 120.773 141.973 120.773 141.973L118.434 109.077L116.322 83.4249L117.453 74.2202Z" fill="#C7D9F3"/>
<path d="M121.905 125.374C121.905 125.374 121.905 125.223 121.905 124.846C121.98 124.469 121.98 124.016 122.056 123.413C122.207 122.13 122.433 120.395 122.659 118.282C123.187 113.906 124.017 107.87 124.847 101.306C125.225 98.3637 125.602 95.4967 125.979 92.9315L126.055 93.0823C124.772 92.0261 123.565 91.0452 122.508 90.1399L122.358 90.0644L122.433 89.9135C122.886 89.3099 123.338 88.7818 123.791 88.1782V88.3291C122.584 85.9147 121.603 83.8776 120.924 82.4441C120.622 81.7651 120.32 81.2369 120.17 80.7842C120.019 80.407 119.943 80.1807 119.943 80.1807C119.943 80.1807 120.094 80.3316 120.245 80.7088C120.471 81.086 120.773 81.6142 121.075 82.2932C121.829 83.7267 122.81 85.6884 124.093 88.1028L124.168 88.1782L124.093 88.2536C123.64 88.7818 123.263 89.3854 122.81 89.989V89.7626C123.942 90.668 125.149 91.6488 126.432 92.6297L126.507 92.7051V92.7806C126.205 95.3458 125.828 98.2128 125.451 101.155C124.546 107.795 123.791 113.755 123.187 118.131C122.886 120.244 122.659 121.979 122.433 123.262C122.358 123.865 122.282 124.318 122.207 124.695C121.98 125.223 121.98 125.374 121.905 125.374Z" fill="#263238"/>
<path d="M72.1089 151.102C72.1089 151.102 72.1089 151.253 71.958 151.63C71.8826 152.008 71.7317 152.46 71.5808 152.989C71.4299 153.592 71.2036 154.347 70.9772 155.177C70.8263 155.629 70.7509 156.082 70.6 156.535C70.5245 156.987 70.2227 157.515 70.3736 157.968C70.5245 158.496 70.9018 158.873 71.5054 158.949C72.1089 159.1 72.7125 159.326 73.3161 159.477C74.5987 159.854 75.8814 160.232 77.3149 160.609C78.7484 160.986 80.1819 161.363 81.7663 161.741C82.5208 161.891 83.3508 162.042 84.1052 162.193C84.4825 162.269 84.9352 162.344 85.3124 162.344C85.5388 162.344 85.6897 162.344 85.916 162.344C85.9915 162.344 86.0669 162.344 86.2178 162.269C86.2933 162.269 86.3687 162.193 86.4442 162.118C86.8968 161.741 87.1232 160.986 87.2741 160.382C87.425 159.779 87.5759 159.1 87.6513 158.421C87.8777 157.138 87.9531 155.856 88.0286 154.648L88.1795 154.875C83.5017 153.818 79.5029 152.838 76.6359 152.159C75.2023 151.857 74.0706 151.555 73.3161 151.329C72.9389 151.253 72.6371 151.178 72.4107 151.102C72.2598 151.178 72.1089 151.102 72.1089 151.102C72.1089 151.102 72.1844 151.102 72.4107 151.178C72.6371 151.253 72.9389 151.253 73.3161 151.329C74.1461 151.48 75.2778 151.706 76.6359 152.008C79.5783 152.611 83.5771 153.517 88.3304 154.573H88.4813V154.724C88.4058 155.931 88.3304 157.214 88.104 158.572C88.0286 159.251 87.8777 159.854 87.7268 160.533C87.5004 161.212 87.3495 161.891 86.7459 162.42C86.6705 162.495 86.5196 162.57 86.4442 162.646C86.2933 162.646 86.2178 162.721 86.0669 162.721C85.8406 162.721 85.6142 162.721 85.3879 162.721C84.9352 162.721 84.5579 162.646 84.1052 162.57C83.2753 162.42 82.5208 162.269 81.6909 162.118C80.1065 161.741 78.673 161.363 77.2394 160.986C75.8059 160.609 74.5233 160.232 73.2407 159.854C72.6371 159.628 72.0335 159.477 71.4299 159.326C71.1281 159.251 70.8263 159.1 70.6 158.873C70.3736 158.647 70.2227 158.345 70.1473 158.044C70.0718 157.742 70.0718 157.44 70.1473 157.138C70.2227 156.912 70.2982 156.61 70.3736 156.384C70.5245 155.931 70.6754 155.478 70.7509 155.026C70.9772 154.196 71.2036 153.441 71.4299 152.838C71.5808 152.309 71.7317 151.857 71.8826 151.48C72.0335 151.253 72.1089 151.102 72.1089 151.102Z" fill="#263238"/>
<path d="M134.278 90.5171C134.278 90.5171 134.354 90.9698 134.354 91.7997C134.429 92.6296 134.429 93.7614 134.429 95.2703C134.429 98.2128 134.203 102.212 133.75 106.663C133.298 111.115 132.92 115.113 132.694 117.98C132.619 119.414 132.468 120.546 132.392 121.451C132.317 122.281 132.317 122.734 132.241 122.734C132.241 122.734 132.241 122.281 132.241 121.451C132.241 120.621 132.317 119.489 132.392 117.98C132.543 115.038 132.92 111.039 133.373 106.588C133.826 102.136 134.052 98.1374 134.128 95.1949C134.203 93.7614 134.203 92.5542 134.203 91.7243C134.203 90.9698 134.203 90.5171 134.278 90.5171Z" fill="#263238"/>
<g opacity="0.3">
<path opacity="0.3" d="M115.114 139.634C107.57 139.634 100.1 139.03 92.7063 137.748L73.9951 135.409C73.8442 138.276 74.825 141.143 76.6358 143.331C78.4466 145.519 81.1627 147.028 83.9543 147.405C86.9722 147.782 89.9902 146.953 93.0081 146.424C98.1386 145.519 103.42 145.368 108.626 145.142C110.361 145.066 112.097 144.915 113.53 144.01C115.039 143.105 115.944 141.143 115.114 139.634Z" fill="black"/>
</g>
<path d="M85.0106 92.4033C84.9351 92.4033 85.0106 91.347 84.6333 89.7626C84.2561 88.1781 83.3507 86.0656 81.6154 84.2548C79.8801 82.5195 77.6921 81.5387 76.1077 81.1614C74.5233 80.7842 73.467 80.7842 73.467 80.7087C73.467 80.7087 73.6933 80.6333 74.2215 80.6333C74.6742 80.6333 75.3532 80.7088 76.1831 80.8596C77.843 81.1614 80.031 82.0668 81.9172 83.953C83.728 85.7638 84.6334 88.0272 84.9351 89.6871C85.086 90.517 85.1615 91.1961 85.1615 91.6488C85.086 92.1769 85.086 92.4033 85.0106 92.4033Z" fill="#263238"/>
<path d="M72.7125 78.8228C72.7125 78.8228 67.4311 82.2179 66.3748 87.4993C65.3185 92.7807 68.9401 120.319 70.3736 126.431C72.4861 135.409 77.0885 143.105 81.3891 143.633C85.6896 144.161 113.681 141.52 113.681 141.52L116.02 126.355L89.6129 124.318L88.4058 122.658L85.2369 97.9867" fill="#C7D9F3"/>
<path d="M85.2369 97.9866C85.2369 97.9866 85.2369 98.1375 85.3124 98.4393C85.3878 98.7411 85.3878 99.1938 85.4633 99.7219C85.6142 100.854 85.8405 102.514 86.1423 104.626C86.6704 108.927 87.5004 115.113 88.4812 122.734V122.658C88.8585 123.186 89.3111 123.715 89.6884 124.318L89.6129 124.243C97.0823 124.771 106.061 125.45 116.02 126.204H116.246V126.431C115.492 131.259 114.737 136.314 113.907 141.596V141.747H113.756C108.098 142.275 102.288 142.803 96.2524 143.256C93.3099 143.482 90.3674 143.708 87.4249 143.784C85.9914 143.859 84.5579 143.935 83.1244 143.935C82.7471 143.935 82.3699 143.935 82.0681 143.935H81.54C81.3891 143.935 81.1627 143.859 81.0118 143.859C80.2573 143.708 79.6537 143.331 79.0502 142.954C77.843 142.124 76.9376 141.068 76.1077 139.936C75.2777 138.804 74.5232 137.673 73.9197 136.465C72.637 134.051 71.7317 131.561 70.9772 129.071C70.2227 126.582 69.8454 124.092 69.3928 121.677C69.0155 119.263 68.6383 116.924 68.3365 114.661C67.7329 110.134 67.2047 105.833 66.8275 101.985C66.4503 98.0621 66.2239 94.5914 66.1485 91.4226C66.1485 89.8382 66.1485 88.4047 66.5257 87.122C66.903 85.8394 67.4311 84.7077 68.0347 83.8023C69.2419 81.9916 70.5245 80.7844 71.4299 80.1053C71.8825 79.7281 72.2598 79.5018 72.4861 79.3509C72.7125 79.2 72.8634 79.1245 72.8634 79.1245C72.8634 79.1245 72.7125 79.2 72.4861 79.4263C72.2598 79.5772 71.8825 79.879 71.5053 80.2562C70.6754 81.0107 69.3928 82.1424 68.1856 84.0287C67.582 84.934 67.0538 86.0658 66.7521 87.3484C66.4503 88.631 66.4503 90.0645 66.4503 91.649C66.5257 94.7423 66.8275 98.2884 67.2047 102.136C67.582 105.984 68.1101 110.285 68.7137 114.812C69.0155 117.075 69.3928 119.414 69.77 121.828C70.1472 124.243 70.5999 126.732 71.3544 129.222C72.1089 131.712 73.0143 134.202 74.2215 136.541C74.825 137.748 75.5795 138.88 76.334 140.011C77.1639 141.068 78.0693 142.124 79.201 142.878C79.8046 143.256 80.4082 143.557 81.0873 143.708C81.2382 143.708 81.3891 143.784 81.6154 143.784H82.1435C82.5208 143.784 82.8226 143.784 83.1998 143.784C84.6333 143.784 86.0669 143.708 87.5004 143.633C90.3674 143.482 93.3099 143.256 96.3278 143.029C102.288 142.577 108.173 142.049 113.832 141.52L113.681 141.671C114.511 136.39 115.265 131.335 116.02 126.506L116.171 126.732C106.287 125.978 97.3087 125.299 89.7638 124.695H89.6884L89.6129 124.62C89.1602 124.016 88.783 123.488 88.4058 122.96C87.5004 115.264 86.7459 109.078 86.2178 104.852C85.9914 102.74 85.7651 101.08 85.6142 99.9483C85.5387 99.4201 85.5387 98.9674 85.4633 98.6657C85.2369 98.1375 85.2369 97.9866 85.2369 97.9866Z" fill="#263238"/>
<path d="M157.215 123.639C157.215 123.639 157.29 122.356 157.743 121.828C158.196 121.3 160.384 120.923 160.384 120.923L167.4 110.285L168.079 103.796L170.871 84.7077C170.871 84.7077 176.228 74.9748 183.094 74.3712C185.885 74.1449 182.641 94.9686 182.415 96.3267C182.339 96.6285 179.774 124.469 179.774 124.469L178.039 134.353C178.039 134.353 172.531 136.465 170.569 137.371C168.532 138.351 167.476 137.144 167.476 137.144L157.215 123.639Z" fill="#4B8DF0"/>
<path d="M224.288 152.687C224.288 152.687 224.138 152.762 223.911 152.913C223.609 153.064 223.232 153.215 222.704 153.366C221.648 153.818 220.139 154.347 218.253 154.95C216.366 155.554 214.103 156.233 211.538 156.912C208.972 157.515 206.105 158.119 203.087 158.647C200.069 159.1 197.202 159.402 194.562 159.628C191.921 159.779 189.507 159.854 187.545 159.854C185.583 159.854 183.923 159.779 182.792 159.703C182.264 159.628 181.811 159.628 181.509 159.628C181.207 159.628 181.056 159.553 181.056 159.553C181.056 159.553 181.207 159.553 181.509 159.553C181.811 159.553 182.264 159.553 182.792 159.553C183.923 159.553 185.508 159.628 187.545 159.553C189.507 159.553 191.921 159.402 194.562 159.251C197.202 159.024 200.069 158.723 203.087 158.27C206.105 157.817 208.897 157.214 211.462 156.61C214.027 156.006 216.291 155.327 218.253 154.799C220.139 154.196 221.723 153.743 222.704 153.366C223.232 153.215 223.609 153.064 223.911 152.989C224.138 152.687 224.288 152.687 224.288 152.687Z" fill="#263238"/>
<path d="M183.169 74.2958L199.692 68.8635C199.692 68.8635 199.617 73.3149 206.03 73.4658C213.424 73.6167 219.611 67.1282 219.611 67.1282C219.611 67.1282 235.002 71.9569 238.246 74.5221C241.491 77.1628 230.928 131.561 230.928 131.561L229.947 147.783C229.947 147.783 231.531 150.423 231.531 153.215C231.531 156.006 231.607 157.893 231.607 157.893C211.915 163.853 192.298 168.984 174.266 163.25C174.266 163.25 174.719 153.668 175.775 151.102C176.831 148.537 176.605 148.235 176.605 148.235L178.34 118.282L178.642 95.7986L183.169 74.2958Z" fill="#4B8DF0"/>
<path d="M238.397 74.5222C238.397 74.5222 243.226 77.8419 244.584 84.6323C245.942 91.4227 248.885 130.58 248.885 130.58L230.098 129.901C230.098 129.901 226.326 97.4585 226.326 96.7041C226.326 95.9496 230.4 79.8791 230.626 79.5018C230.928 79.1246 238.397 74.5222 238.397 74.5222Z" fill="#4B8DF0"/>
<path d="M234.776 74.8994C234.851 74.9749 233.116 75.8802 231.381 77.5401C229.645 79.2 228.74 80.9353 228.664 80.8598C228.589 80.8598 229.343 78.9736 231.154 77.3138C232.89 75.5785 234.776 74.824 234.776 74.8994Z" fill="#263238"/>
<path d="M247.074 130.58C247.074 130.58 247.074 130.58 247.074 135.258C247.074 138.729 239.529 175.02 239.529 175.02L228.287 171.247L232.21 136.013L232.361 130.052L247.074 130.58Z" fill="#FFAAA5"/>
<path d="M228.061 173.737C228.061 173.737 223.609 177.132 222.629 178.415C221.648 179.773 219.233 184.526 217.423 185.884C217.423 185.884 217.8 187.77 219.611 186.79C221.421 185.884 223.534 183.847 224.364 182.715C225.118 181.584 225.948 182.263 225.948 183.244C226.024 184.224 225.118 191.09 225.118 191.09C225.118 191.09 223.006 198.71 223.534 199.54C224.138 200.37 225.345 200.219 225.722 199.616C226.024 199.239 228.438 192.825 228.438 192.825L229.042 189.355C229.042 189.355 227.759 200.37 228.514 201.2C229.193 202.03 229.947 201.728 230.475 201.276C230.928 200.823 231.456 195.994 231.456 195.994L232.588 189.506L232.361 201.879C232.361 201.879 232.512 203.086 233.418 203.086C234.323 203.162 234.927 201.804 234.927 201.804L236.285 189.053C236.285 189.053 235.832 196.145 236.36 196.522C236.964 197.051 237.567 196.824 237.794 196.296C238.246 195.164 238.85 188.827 238.85 188.827L239.454 176.679L240.057 170.87L228.74 170.115L228.061 173.737Z" fill="#FFAAA5"/>
<path d="M195.995 71.8059C196.222 70.146 198.485 65.2419 198.485 65.2419L202.861 70.9005L218.479 61.5449L222.327 67.958L210.029 76.4837L203.842 75.5029L199.013 74.5975L195.995 71.8059Z" fill="#4B8DF0"/>
<path d="M226.401 94.9685C226.476 94.9685 227.231 101.004 227.91 108.474C228.664 115.943 229.117 121.979 229.042 122.054C228.966 122.054 228.212 116.019 227.533 108.549C226.778 101.004 226.25 94.9685 226.401 94.9685Z" fill="#263238"/>
<path d="M248.885 130.58C248.885 130.58 248.734 130.58 248.432 130.656C248.13 130.656 247.677 130.656 247.074 130.656C245.942 130.656 244.282 130.656 242.245 130.58C240.208 130.505 237.794 130.354 235.078 130.354C234.398 130.354 233.719 130.354 232.965 130.354C232.286 130.354 231.456 130.203 230.777 129.826C230.098 129.448 229.57 128.769 229.268 128.015C228.966 127.26 228.74 126.506 228.589 125.751C228.438 124.997 228.363 124.167 228.438 123.413C228.438 123.035 228.513 122.658 228.664 122.281C228.74 122.054 228.815 121.904 228.966 121.753C229.117 121.602 229.343 121.451 229.494 121.451C229.872 121.3 230.249 121.375 230.626 121.3C231.003 121.3 231.381 121.3 231.682 121.225C232.361 121.225 233.116 121.149 233.795 121.149C236.511 121.074 238.925 121.074 241.038 121.149C243.075 121.149 244.659 121.225 245.867 121.225C246.395 121.225 246.847 121.225 247.149 121.225C247.451 121.225 247.602 121.225 247.602 121.3C247.602 121.3 247.451 121.3 247.149 121.375C246.772 121.375 246.395 121.375 245.791 121.451C244.584 121.451 242.924 121.451 240.962 121.526C238.925 121.526 236.436 121.526 233.795 121.602C233.116 121.602 232.437 121.677 231.682 121.677C231.305 121.677 231.003 121.753 230.626 121.753C230.249 121.753 229.872 121.753 229.57 121.904C228.966 122.054 228.815 122.884 228.74 123.639C228.664 124.393 228.74 125.148 228.891 125.902C229.042 126.657 229.193 127.411 229.494 128.09C229.796 128.769 230.249 129.373 230.852 129.675C232.06 130.354 233.569 130.127 234.927 130.203C237.643 130.278 240.057 130.429 242.094 130.505C244.131 130.656 245.791 130.731 246.923 130.731C247.451 130.731 247.904 130.731 248.206 130.807C248.734 130.58 248.885 130.58 248.885 130.58Z" fill="#263238"/>
<path d="M178.34 90.5171C178.34 90.5171 178.34 90.668 178.34 91.0452C178.34 91.4225 178.34 91.9506 178.265 92.5542C178.189 93.9123 178.114 95.7985 178.038 98.1374C177.888 102.815 177.661 109.304 177.51 116.471C177.359 123.639 177.359 130.128 177.359 134.805C177.359 137.144 177.359 139.03 177.359 140.389C177.359 140.992 177.359 141.52 177.359 141.897C177.359 142.275 177.359 142.426 177.359 142.426C177.359 142.426 177.359 142.275 177.284 141.897C177.284 141.52 177.284 140.992 177.209 140.389C177.133 139.106 177.133 137.144 177.058 134.805C176.982 130.128 176.982 123.639 177.133 116.471C177.284 109.304 177.51 102.815 177.737 98.1374C177.888 95.7985 177.963 93.9123 178.038 92.5542C178.114 91.9506 178.114 91.4225 178.189 91.0452C178.265 90.668 178.34 90.5171 178.34 90.5171Z" fill="#263238"/>
<path d="M173.738 134.126C173.663 134.126 173.285 133.07 172.531 131.41C171.776 129.75 170.72 127.487 168.909 125.45C167.099 123.413 164.76 122.205 163.024 121.828C161.289 121.451 160.157 121.677 160.157 121.602C160.157 121.602 160.459 121.526 160.912 121.451C161.44 121.375 162.194 121.375 163.1 121.602C164.911 121.904 167.325 123.111 169.211 125.223C171.097 127.336 172.154 129.675 172.833 131.335C173.134 132.165 173.436 132.844 173.587 133.372C173.663 133.824 173.738 134.126 173.738 134.126Z" fill="#263238"/>
<path d="M172.003 113.68C171.927 113.755 170.871 113.378 169.739 112.699C168.532 112.02 167.702 111.265 167.778 111.19C167.853 111.115 168.758 111.718 169.966 112.397C171.097 113.001 172.078 113.604 172.003 113.68Z" fill="#263238"/>
<path d="M222.1 68.0334C222.1 68.0334 222.025 68.1089 221.799 68.3352C221.572 68.4861 221.27 68.7879 220.893 69.0897C220.063 69.7688 218.932 70.5987 217.423 71.7304C214.405 73.843 210.104 76.5591 204.974 79.0489L204.823 79.1244L204.747 78.9735C204.521 78.6717 204.37 78.3699 204.144 78.0681C203.163 76.4082 202.484 74.6729 202.182 72.9376H202.559C202.408 74.2202 201.805 75.2765 201.277 76.3328C200.749 77.3136 200.145 78.219 199.541 79.0489L199.39 79.2753L199.315 78.9735C198.41 76.4082 197.655 74.2202 197.127 72.7112C196.901 71.9568 196.674 71.4286 196.523 70.9759C196.373 70.5987 196.297 70.3723 196.372 70.3723C196.372 70.3723 196.448 70.5987 196.674 70.9759C196.825 71.4286 197.052 71.9568 197.353 72.7112C197.957 74.2202 198.711 76.4082 199.692 78.9735H199.39C199.994 78.1435 200.522 77.2382 201.05 76.2573C201.578 75.2765 202.182 74.2202 202.333 73.013L202.484 71.9568L202.71 73.013C203.087 74.6729 203.691 76.4082 204.672 78.0681C204.823 78.3699 205.049 78.6717 205.275 78.9735L205.049 78.898C210.18 76.4837 214.48 73.7675 217.498 71.7304C219.007 70.6741 220.214 69.8442 221.044 69.2406C221.421 68.9388 221.723 68.7125 222.025 68.5616C221.95 68.1089 222.1 68.0334 222.1 68.0334Z" fill="#263238"/>
<path d="M199.39 164.758C199.39 164.758 199.39 164.683 199.39 164.532C199.39 164.381 199.39 164.155 199.39 163.853C199.39 163.249 199.39 162.419 199.466 161.363C199.541 159.175 199.617 156.006 199.692 152.158C199.919 144.387 200.296 133.598 200.673 121.753C201.126 109.907 201.503 99.1936 201.729 91.347C201.88 87.4991 202.031 84.3303 202.107 82.1423C202.182 81.086 202.182 80.256 202.258 79.6524C202.258 79.3507 202.258 79.1998 202.333 78.9734C202.333 78.8225 202.333 78.7471 202.333 78.7471C202.333 78.7471 202.333 78.8225 202.333 78.9734C202.333 79.1243 202.333 79.3507 202.333 79.6524C202.333 80.256 202.333 81.086 202.258 82.1423C202.182 84.3303 202.107 87.4991 202.031 91.347C201.805 99.1181 201.428 109.907 201.05 121.753C200.598 133.598 200.22 144.312 199.994 152.158C199.843 156.006 199.692 159.175 199.617 161.363C199.541 162.419 199.541 163.249 199.466 163.853C199.466 164.155 199.466 164.306 199.39 164.532C199.39 164.683 199.39 164.758 199.39 164.758Z" fill="#263238"/>
<path d="M169.437 94.5158C169.437 94.5158 172.154 92.3278 172.682 89.6116C173.21 86.8955 174.115 83.7267 174.115 83.7267C174.115 83.7267 177.359 81.8405 177.284 80.5578C177.209 79.1998 175.549 78.8225 175.549 78.8225C175.549 78.8225 172.606 80.4824 171.022 82.2177C169.437 83.953 165.439 91.5733 165.439 91.5733L169.437 94.5158Z" fill="#FFAAA5"/>
<path d="M134.429 128.09C134.429 128.09 141.597 128.392 144.011 127.864C146.426 127.336 158.497 123.111 158.497 123.111C158.497 123.111 168.23 128.468 168.834 132.24C169.437 136.088 168.004 137.295 168.004 137.295L136.24 138.955L131.789 135.183L134.429 128.09Z" fill="#FFAAA5"/>
<path d="M122.443 128.119L122.443 128.118L115.834 127.533L113.964 139.257L121.769 139.403L121.813 139.403L121.844 139.434L127.946 145.224L127.946 145.224L127.955 145.231C127.963 145.238 127.975 145.248 127.992 145.261C128.024 145.286 128.072 145.323 128.133 145.367C128.256 145.456 128.431 145.574 128.641 145.692C129.064 145.93 129.616 146.16 130.159 146.16C130.684 146.16 131.095 145.854 131.381 145.53C131.523 145.37 131.631 145.209 131.704 145.087C131.74 145.027 131.767 144.977 131.785 144.942C131.794 144.925 131.801 144.911 131.805 144.902L131.81 144.892L131.811 144.89L131.811 144.89L131.811 144.89L131.811 144.89L131.855 144.794L122.443 128.119ZM122.443 128.119H122.453H127.919L127.938 128.128L128.064 128.194C128.175 128.251 128.338 128.335 128.545 128.443C128.959 128.658 129.551 128.966 130.263 129.339C131.687 130.085 133.592 131.09 135.513 132.124C137.434 133.159 139.371 134.224 140.861 135.09C141.606 135.523 142.238 135.905 142.699 136.209C142.93 136.361 143.117 136.492 143.253 136.6C143.322 136.653 143.376 136.7 143.416 136.739C143.458 136.78 143.479 136.807 143.488 136.823C143.675 137.169 143.799 137.479 143.858 137.744C143.917 138.01 143.909 138.221 143.845 138.377C143.783 138.529 143.662 138.642 143.466 138.708C143.265 138.774 142.984 138.79 142.613 138.736C142.511 138.719 142.309 138.655 142.024 138.549C141.743 138.444 141.389 138.302 140.989 138.135C140.189 137.801 139.208 137.37 138.254 136.943C137.301 136.517 136.377 136.094 135.69 135.779C135.347 135.621 135.063 135.49 134.865 135.398L134.636 135.292L134.576 135.264L134.561 135.257L134.557 135.255L134.556 135.255L134.556 135.255L134.508 135.357L134.556 135.255L134.432 135.197L134.398 135.329L134.246 135.923L134.229 135.989L134.279 136.035L134.355 135.951L134.279 136.035L134.279 136.035L134.28 136.036L134.282 136.037L134.289 136.044L134.319 136.072C134.345 136.096 134.383 136.131 134.432 136.176C134.53 136.267 134.67 136.398 134.837 136.559C135.173 136.879 135.62 137.317 136.066 137.784C136.514 138.252 136.958 138.747 137.291 139.184C137.457 139.403 137.593 139.604 137.688 139.779C137.784 139.957 137.828 140.093 137.828 140.184C137.828 140.639 137.609 141.3 137.207 141.772C137.007 142.007 136.766 142.189 136.49 142.28C136.216 142.37 135.899 142.372 135.541 142.232L135.431 142.189L135.393 142.301L135.393 142.301L135.393 142.301L135.392 142.302L135.391 142.307L135.384 142.325C135.379 142.341 135.37 142.365 135.359 142.395C135.337 142.456 135.304 142.543 135.261 142.65C135.176 142.862 135.054 143.149 134.903 143.447C134.752 143.745 134.574 144.052 134.38 144.305C134.184 144.561 133.979 144.751 133.779 144.832C133.346 145.008 132.89 145.009 132.539 144.964C132.363 144.941 132.216 144.908 132.113 144.88C132.061 144.866 132.021 144.853 131.993 144.844C131.98 144.84 131.969 144.836 131.963 144.834L131.955 144.831L131.954 144.831L131.954 144.831L131.954 144.831L131.953 144.831L122.443 128.119Z" fill="#FFAAA5" stroke="url(#paint8_linear_342_1361)" stroke-width="0.226345"/>
<mask id="path-96-inside-1_342_1361" fill="white">
<path d="M130.144 143.105C130.222 143.029 130.611 143.407 130.923 144.01C131.313 144.538 131.468 145.066 131.391 145.066C131.313 145.142 130.923 144.765 130.611 144.161C130.222 143.633 130.066 143.18 130.144 143.105Z"/>
</mask>
<path d="M130.144 143.105C130.222 143.029 130.611 143.407 130.923 144.01C131.313 144.538 131.468 145.066 131.391 145.066C131.313 145.142 130.923 144.765 130.611 144.161C130.222 143.633 130.066 143.18 130.144 143.105Z" fill="#FF9A6C"/>
<path d="M130.923 144.01L130.253 144.356L130.28 144.41L130.316 144.458L130.923 144.01ZM131.391 145.066V144.312H131.085L130.866 144.524L131.391 145.066ZM130.611 144.161L131.282 143.815L131.254 143.761L131.218 143.713L130.611 144.161ZM130.668 143.647C130.418 143.889 130.123 143.857 130.019 143.833C129.912 143.809 129.849 143.766 129.842 143.761C129.819 143.746 129.835 143.753 129.888 143.811C129.985 143.917 130.124 144.107 130.253 144.356L131.593 143.664C131.411 143.31 131.199 143.009 131.003 142.795C130.91 142.692 130.795 142.581 130.667 142.498C130.608 142.459 130.498 142.395 130.355 142.362C130.213 142.329 129.888 142.302 129.619 142.563L130.668 143.647ZM130.316 144.458C130.471 144.668 130.575 144.874 130.63 145.013C130.659 145.087 130.664 145.115 130.661 145.101C130.66 145.095 130.658 145.079 130.656 145.055C130.655 145.034 130.654 144.987 130.663 144.925C130.671 144.874 130.698 144.74 130.802 144.603C130.932 144.433 131.144 144.312 131.391 144.312V145.821C131.647 145.821 131.867 145.696 132.003 145.517C132.113 145.372 132.144 145.226 132.154 145.16C132.176 145.022 132.158 144.903 132.149 144.85C132.127 144.72 132.083 144.584 132.034 144.46C131.933 144.203 131.765 143.881 131.53 143.562L130.316 144.458ZM130.866 144.524C131.116 144.282 131.411 144.315 131.515 144.338C131.622 144.363 131.685 144.405 131.692 144.41C131.716 144.425 131.699 144.418 131.646 144.36C131.549 144.254 131.411 144.065 131.282 143.815L129.941 144.507C130.124 144.861 130.336 145.162 130.531 145.377C130.624 145.479 130.739 145.59 130.867 145.673C130.926 145.712 131.036 145.777 131.18 145.81C131.322 145.842 131.646 145.869 131.915 145.608L130.866 144.524ZM131.218 143.713C131.053 143.489 130.95 143.297 130.899 143.175C130.873 143.11 130.871 143.09 130.874 143.109C130.875 143.117 130.883 143.166 130.875 143.239C130.868 143.299 130.837 143.484 130.668 143.647L129.619 142.563C129.431 142.745 129.388 142.96 129.376 143.062C129.363 143.176 129.373 143.277 129.384 143.346C129.406 143.487 129.454 143.628 129.505 143.751C129.61 144.006 129.78 144.305 130.004 144.609L131.218 143.713Z" fill="#C85C55" mask="url(#path-96-inside-1_342_1361)"/>
<mask id="path-98-inside-2_342_1361" fill="white">
<path d="M133.105 140.464C133.183 140.389 133.65 140.841 134.274 141.445C134.819 142.048 135.287 142.577 135.209 142.652C135.131 142.727 134.508 142.35 133.962 141.747C133.339 141.143 132.949 140.539 133.105 140.464Z"/>
</mask>
<path d="M133.105 140.464C133.183 140.389 133.65 140.841 134.274 141.445C134.819 142.048 135.287 142.577 135.209 142.652C135.131 142.727 134.508 142.35 133.962 141.747C133.339 141.143 132.949 140.539 133.105 140.464Z" fill="#FF9A6C"/>
<path d="M133.105 140.464L133.434 141.143L133.543 141.09L133.63 141.006L133.105 140.464ZM134.274 141.445L134.834 140.939L134.817 140.92L134.799 140.903L134.274 141.445ZM133.962 141.747L134.522 141.241L134.505 141.222L134.487 141.205L133.962 141.747ZM133.63 141.006C133.332 141.294 132.983 141.197 132.938 141.183C132.892 141.17 132.86 141.154 132.847 141.148C132.84 141.144 132.834 141.141 132.831 141.139C132.829 141.138 132.828 141.137 132.827 141.137C132.827 141.137 132.827 141.137 132.827 141.136C132.826 141.136 132.826 141.136 132.826 141.136C132.826 141.136 132.827 141.136 132.827 141.137C132.828 141.137 132.829 141.138 132.83 141.139C132.833 141.14 132.836 141.143 132.84 141.146C132.849 141.153 132.861 141.161 132.876 141.173C132.905 141.197 132.942 141.228 132.988 141.267C133.175 141.431 133.431 141.679 133.749 141.987L134.799 140.903C134.493 140.607 134.204 140.327 133.982 140.132C133.875 140.039 133.754 139.938 133.639 139.865C133.587 139.832 133.489 139.773 133.366 139.736C133.278 139.71 132.897 139.615 132.58 139.922L133.63 141.006ZM133.714 141.951C133.99 142.256 134.228 142.523 134.388 142.721C134.472 142.824 134.512 142.881 134.524 142.902C134.534 142.919 134.507 142.88 134.487 142.807C134.476 142.769 134.455 142.682 134.466 142.566C134.477 142.439 134.529 142.26 134.684 142.11L135.734 143.194C136.068 142.871 135.958 142.463 135.94 142.4C135.907 142.281 135.852 142.184 135.821 142.131C135.75 142.013 135.654 141.886 135.562 141.772C135.371 141.536 135.103 141.237 134.834 140.939L133.714 141.951ZM134.684 142.11C134.83 141.969 134.993 141.926 135.085 141.913C135.177 141.901 135.248 141.91 135.28 141.915C135.342 141.926 135.375 141.942 135.361 141.936C135.342 141.928 135.283 141.897 135.188 141.832C135.002 141.704 134.754 141.498 134.522 141.241L133.402 142.253C133.715 142.599 134.052 142.883 134.334 143.076C134.472 143.171 134.618 143.258 134.755 143.318C134.819 143.346 134.917 143.385 135.031 143.404C135.088 143.413 135.181 143.424 135.291 143.408C135.401 143.393 135.578 143.345 135.734 143.194L134.684 142.11ZM134.487 141.205C134.204 140.931 133.989 140.67 133.871 140.491C133.806 140.394 133.797 140.361 133.804 140.383C133.806 140.388 133.836 140.477 133.82 140.608C133.8 140.774 133.697 141.016 133.434 141.143L132.776 139.785C132.474 139.931 132.349 140.208 132.322 140.425C132.3 140.605 132.34 140.758 132.366 140.84C132.422 141.016 132.521 141.185 132.612 141.323C132.805 141.616 133.097 141.959 133.437 142.289L134.487 141.205Z" fill="#C85C55" mask="url(#path-98-inside-2_342_1361)"/>
<path d="M135.854 129.08L134.083 131.063C131.724 130.722 130.346 129.963 129.561 129.296C129.164 128.959 128.917 128.645 128.769 128.417C128.695 128.303 128.646 128.21 128.616 128.147C128.601 128.115 128.591 128.091 128.584 128.075C128.581 128.067 128.579 128.061 128.577 128.058L128.576 128.054L128.576 128.054L128.576 128.053L128.576 128.053L128.576 128.053L128.557 127.999L128.502 127.982L127.521 127.68L127.412 127.647L127.38 127.756L127.488 127.789L127.38 127.756L127.38 127.756L127.38 127.756L127.379 127.758L127.378 127.762L127.372 127.781L127.349 127.854C127.329 127.917 127.3 128.009 127.263 128.123C127.188 128.351 127.08 128.665 126.948 129.012C126.685 129.709 126.331 130.527 125.963 131.042C125.572 131.575 125.059 131.752 124.621 131.788C124.401 131.806 124.201 131.788 124.048 131.761C123.928 131.74 123.841 131.714 123.796 131.698C123.795 131.694 123.793 131.69 123.792 131.686C123.782 131.65 123.77 131.595 123.756 131.523C123.73 131.379 123.701 131.174 123.674 130.925C123.619 130.427 123.569 129.759 123.555 129.059C123.541 128.36 123.562 127.633 123.647 127.018C123.69 126.71 123.748 126.433 123.824 126.202C123.901 125.97 123.993 125.793 124.1 125.678C124.325 125.436 124.744 125.226 125.282 125.053C125.815 124.881 126.447 124.75 127.08 124.656C127.713 124.562 128.343 124.506 128.871 124.483C129.402 124.459 129.821 124.469 130.035 124.505L130.035 124.505L130.044 124.506C130.082 124.509 130.141 124.526 130.224 124.562C130.305 124.597 130.402 124.648 130.512 124.713C130.732 124.844 131 125.027 131.299 125.247C131.898 125.687 132.612 126.268 133.3 126.847C133.988 127.426 134.647 128.003 135.135 128.436C135.378 128.652 135.579 128.832 135.719 128.957C135.774 129.007 135.819 129.048 135.854 129.08Z" fill="#FFAAA5" stroke="url(#paint9_linear_342_1361)" stroke-width="0.226345"/>
<path d="M119.695 139.434C119.713 139.445 119.729 139.454 119.742 139.463L119.392 141.356C119.352 141.367 119.296 141.382 119.226 141.398C119.081 141.433 118.878 141.474 118.647 141.502C118.181 141.558 117.624 141.554 117.202 141.343C116.796 141.14 116.619 140.731 116.546 140.348C116.51 140.159 116.501 139.983 116.501 139.853C116.501 139.789 116.503 139.736 116.505 139.7C116.506 139.684 116.507 139.671 116.508 139.662C116.703 139.211 116.996 138.981 117.323 138.879C117.66 138.774 118.045 138.803 118.417 138.895C118.787 138.986 119.135 139.138 119.391 139.268C119.519 139.333 119.623 139.392 119.695 139.434Z" fill="#FFAAA5" stroke="#C85C55" stroke-width="0.226345"/>
<path d="M123.459 140.121L123.459 140.121L123.459 140.123C123.085 141.13 122.6 141.952 122.208 142.522C122.012 142.806 121.839 143.028 121.716 143.178C121.654 143.253 121.605 143.31 121.572 143.348C121.565 143.355 121.559 143.362 121.554 143.368C121.532 143.367 121.504 143.366 121.47 143.365C121.384 143.361 121.262 143.353 121.118 143.337C120.828 143.306 120.45 143.244 120.093 143.12C119.735 142.996 119.41 142.815 119.21 142.554C119.015 142.299 118.929 141.956 119.071 141.477C119.368 140.476 119.868 139.679 120.366 139.135C120.615 138.863 120.863 138.655 121.081 138.516C121.304 138.376 121.484 138.314 121.603 138.314C121.948 138.314 122.599 138.316 123.072 138.547C123.303 138.661 123.482 138.825 123.565 139.065C123.649 139.307 123.642 139.646 123.459 140.121Z" fill="#FFAAA5" stroke="#C85C55" stroke-width="0.226345"/>
<path d="M121.731 144.027C121.683 143.895 121.67 143.726 121.714 143.506C121.938 142.573 122.367 141.454 122.896 140.619C123.161 140.2 123.447 139.86 123.739 139.647C124.028 139.437 124.313 139.36 124.588 139.44C125.191 139.629 125.736 139.849 126.085 140.145C126.258 140.291 126.377 140.451 126.434 140.629C126.49 140.806 126.488 141.011 126.401 141.256C126.217 141.77 125.753 142.551 125.327 143.213C125.116 143.542 124.916 143.838 124.769 144.052C124.696 144.159 124.636 144.245 124.594 144.305L124.553 144.363C124.529 144.369 124.494 144.377 124.451 144.387C124.36 144.408 124.231 144.436 124.077 144.463C123.768 144.518 123.363 144.571 122.972 144.566C122.577 144.562 122.216 144.498 121.979 144.337C121.863 144.258 121.778 144.157 121.731 144.027Z" fill="#FFAAA5" stroke="#C85C55" stroke-width="0.226345"/>
<path d="M128.431 143.934V143.934V143.934V143.966L128.447 143.993L128.859 144.679C128.83 144.715 128.787 144.766 128.734 144.826C128.624 144.952 128.469 145.118 128.288 145.285C128.108 145.452 127.904 145.616 127.698 145.737C127.49 145.86 127.289 145.934 127.111 145.934C126.932 145.934 126.693 145.851 126.424 145.711C126.159 145.573 125.878 145.388 125.621 145.201C125.365 145.014 125.133 144.827 124.966 144.687C124.883 144.617 124.815 144.559 124.769 144.518C124.767 144.517 124.766 144.516 124.765 144.514L126.873 140.806C126.909 140.809 126.959 140.814 127.018 140.823C127.148 140.843 127.321 140.884 127.498 140.963C127.848 141.121 128.211 141.43 128.281 142.061C128.356 142.738 128.394 143.208 128.413 143.508C128.422 143.658 128.427 143.765 128.429 143.834C128.43 143.869 128.431 143.895 128.431 143.911L128.431 143.929L128.431 143.933L128.431 143.934L128.431 143.934V143.934Z" fill="#FFAAA5" stroke="#C85C55" stroke-width="0.226345"/>
<path d="M126.523 141.295C126.544 141.266 126.565 141.238 126.586 141.211C126.573 141.237 126.56 141.264 126.547 141.291C126.37 141.655 126.107 142.143 125.807 142.669C125.79 142.694 125.774 142.72 125.757 142.746C125.438 143.242 125.156 143.681 124.934 143.991C124.861 144.094 124.796 144.181 124.738 144.25C124.776 144.162 124.825 144.057 124.883 143.937C125.06 143.573 125.322 143.087 125.622 142.561C125.96 142.073 126.279 141.623 126.523 141.295ZM124.554 144.432C124.554 144.432 124.554 144.431 124.556 144.431L124.554 144.432Z" fill="#C75B54" stroke="#C85C55" stroke-width="0.226345"/>
<path d="M121.726 142.999C121.731 142.982 121.735 142.964 121.74 142.947C121.86 142.522 122.083 141.947 122.454 141.354L122.454 141.354L122.456 141.349C122.791 140.754 123.163 140.27 123.46 139.946C123.484 139.92 123.507 139.895 123.53 139.871C123.508 139.901 123.486 139.932 123.463 139.964C123.208 140.323 122.866 140.817 122.561 141.389C122.219 141.959 121.953 142.509 121.765 142.915C121.751 142.944 121.738 142.972 121.726 142.999Z" fill="#C75B54" stroke="#C85C55" stroke-width="0.226345"/>
<path d="M120.539 138.97C120.612 138.915 120.679 138.871 120.738 138.836C120.712 138.864 120.684 138.894 120.653 138.927C120.626 138.956 120.598 138.987 120.568 139.019C120.331 139.275 120.005 139.639 119.698 140.099C119.39 140.561 119.198 141.003 119.065 141.326C119.05 141.363 119.036 141.397 119.023 141.43C119.008 141.467 118.994 141.501 118.98 141.533C118.988 141.468 119 141.396 119.017 141.317C119.089 140.972 119.253 140.516 119.581 140.079L119.582 140.08L119.589 140.067C119.882 139.554 120.249 139.188 120.539 138.97Z" fill="#C75B54" stroke="#C85C55" stroke-width="0.226345"/>
<defs>
<linearGradient id="paint0_linear_342_1361" x1="49.4306" y1="189.004" x2="49.4306" y2="211.684" gradientUnits="userSpaceOnUse">
<stop stop-color="#D9E8FF" stop-opacity="0.5"/>
<stop offset="1" stop-color="#5B9DFF"/>
</linearGradient>
<linearGradient id="paint1_linear_342_1361" x1="149.479" y1="194.042" x2="149.479" y2="225.218" gradientUnits="userSpaceOnUse">
<stop stop-color="#D9E8FF" stop-opacity="0.5"/>
<stop offset="1" stop-color="#5B9DFF"/>
</linearGradient>
<linearGradient id="paint2_linear_342_1361" x1="18.226" y1="91.1261" x2="18.226" y2="109.462" gradientUnits="userSpaceOnUse">
<stop stop-color="#D9E8FF" stop-opacity="0.5"/>
<stop offset="1" stop-color="#5B9DFF"/>
</linearGradient>
<linearGradient id="paint3_linear_342_1361" x1="277.098" y1="93.6546" x2="277.098" y2="116.335" gradientUnits="userSpaceOnUse">
<stop stop-color="#D9E8FF" stop-opacity="0.5"/>
<stop offset="1" stop-color="#5B9DFF"/>
</linearGradient>
<linearGradient id="paint4_linear_342_1361" x1="288.082" y1="169.431" x2="288.082" y2="184.412" gradientUnits="userSpaceOnUse">
<stop stop-color="#D9E8FF" stop-opacity="0.5"/>
<stop offset="1" stop-color="#5B9DFF"/>
</linearGradient>
<linearGradient id="paint5_linear_342_1361" x1="137.415" y1="69.6465" x2="137.415" y2="92.3272" gradientUnits="userSpaceOnUse">
<stop stop-color="#D9E8FF" stop-opacity="0.5"/>
<stop offset="1" stop-color="#5B9DFF"/>
</linearGradient>
<linearGradient id="paint6_linear_342_1361" x1="77.1077" y1="22.4068" x2="77.1077" y2="36.0153" gradientUnits="userSpaceOnUse">
<stop stop-color="#D9E8FF" stop-opacity="0.5"/>
<stop offset="1" stop-color="#5B9DFF"/>
</linearGradient>
<linearGradient id="paint7_linear_342_1361" x1="253.894" y1="38.776" x2="253.894" y2="52.3844" gradientUnits="userSpaceOnUse">
<stop stop-color="#D9E8FF" stop-opacity="0.5"/>
<stop offset="1" stop-color="#5B9DFF"/>
</linearGradient>
<linearGradient id="paint8_linear_342_1361" x1="138.578" y1="140.704" x2="122.295" y2="132.974" gradientUnits="userSpaceOnUse">
<stop stop-color="#C75B54"/>
<stop offset="1" stop-color="#FFAAA5"/>
</linearGradient>
<linearGradient id="paint9_linear_342_1361" x1="121.377" y1="127.789" x2="133.826" y2="128.92" gradientUnits="userSpaceOnUse">
<stop stop-color="#C85C55"/>
<stop offset="1" stop-color="#FFAAA5"/>
</linearGradient>
</defs>
</svg>
