<svg width="40" height="40" viewBox="0 0 40 40" fill="none" xmlns="http://www.w3.org/2000/svg">
<g filter="url(#filter0_d_104_3428)">
<rect x="5" y="1" width="30" height="30" rx="10" fill="#4B8DF0"/>
<rect x="5.5" y="1.5" width="29" height="29" rx="9.5" stroke="#4B8DF0"/>
</g>
<path fill-rule="evenodd" clip-rule="evenodd" d="M24.5 16C24.5 15.586 24.836 15.25 25.25 15.25C25.664 15.25 26 15.586 26 16C26 16.414 25.664 16.75 25.25 16.75C24.836 16.75 24.5 16.414 24.5 16ZM25.25 18.25C26.4905 18.25 27.5 17.2405 27.5 16C27.5 14.7595 26.4905 13.75 25.25 13.75C24.2735 13.75 23.4492 14.3792 23.1387 15.25L13.25 15.25C12.8352 15.25 12.5 15.5852 12.5 16C12.5 16.4147 12.8352 16.75 13.25 16.75L23.1387 16.75C23.4492 17.6208 24.2735 18.25 25.25 18.25ZM15.5 11.5C15.5 11.086 15.836 10.75 16.25 10.75C16.664 10.75 17 11.086 17 11.5C17 11.914 16.664 12.25 16.25 12.25C15.836 12.25 15.5 11.914 15.5 11.5ZM18.3612 12.25L26.75 12.25C27.1647 12.25 27.5 11.9148 27.5 11.5C27.5 11.0853 27.1647 10.75 26.75 10.75L18.3612 10.75C18.0507 9.87925 17.2265 9.25 16.25 9.25C15.2735 9.25 14.4492 9.87925 14.1387 10.75L13.25 10.75C12.8352 10.75 12.5 11.0852 12.5 11.5C12.5 11.9147 12.8352 12.25 13.25 12.25L14.1387 12.25C14.4492 13.1207 15.2735 13.75 16.25 13.75C17.2265 13.75 18.0507 13.1207 18.3612 12.25ZM18.5 20.5C18.5 20.086 18.836 19.75 19.25 19.75C19.664 19.75 20 20.086 20 20.5C20 20.914 19.664 21.25 19.25 21.25C18.836 21.25 18.5 20.914 18.5 20.5ZM19.25 22.75C20.2265 22.75 21.0507 22.1208 21.3612 21.25L26.75 21.25C27.1647 21.25 27.5 20.9148 27.5 20.5C27.5 20.0852 27.1647 19.75 26.75 19.75L21.3612 19.75C21.0507 18.8792 20.2265 18.25 19.25 18.25C18.2735 18.25 17.4492 18.8792 17.1387 19.75L13.25 19.75C12.8352 19.75 12.5 20.0852 12.5 20.5C12.5 20.9147 12.8352 21.25 13.25 21.25L17.1387 21.25C17.4492 22.1207 18.2735 22.75 19.25 22.75Z" fill="#231F20"/>
<mask id="mask0_104_3428" style="mask-type:alpha" maskUnits="userSpaceOnUse" x="12" y="9" width="16" height="14">
<path fill-rule="evenodd" clip-rule="evenodd" d="M24.5 16C24.5 15.586 24.836 15.25 25.25 15.25C25.664 15.25 26 15.586 26 16C26 16.414 25.664 16.75 25.25 16.75C24.836 16.75 24.5 16.414 24.5 16ZM25.25 18.25C26.4905 18.25 27.5 17.2405 27.5 16C27.5 14.7595 26.4905 13.75 25.25 13.75C24.2735 13.75 23.4492 14.3792 23.1387 15.25L13.25 15.25C12.8352 15.25 12.5 15.5852 12.5 16C12.5 16.4147 12.8352 16.75 13.25 16.75L23.1387 16.75C23.4492 17.6208 24.2735 18.25 25.25 18.25ZM15.5 11.5C15.5 11.086 15.836 10.75 16.25 10.75C16.664 10.75 17 11.086 17 11.5C17 11.914 16.664 12.25 16.25 12.25C15.836 12.25 15.5 11.914 15.5 11.5ZM18.3612 12.25L26.75 12.25C27.1647 12.25 27.5 11.9148 27.5 11.5C27.5 11.0853 27.1647 10.75 26.75 10.75L18.3612 10.75C18.0507 9.87925 17.2265 9.25 16.25 9.25C15.2735 9.25 14.4492 9.87925 14.1387 10.75L13.25 10.75C12.8352 10.75 12.5 11.0852 12.5 11.5C12.5 11.9147 12.8352 12.25 13.25 12.25L14.1387 12.25C14.4492 13.1207 15.2735 13.75 16.25 13.75C17.2265 13.75 18.0507 13.1207 18.3612 12.25ZM18.5 20.5C18.5 20.086 18.836 19.75 19.25 19.75C19.664 19.75 20 20.086 20 20.5C20 20.914 19.664 21.25 19.25 21.25C18.836 21.25 18.5 20.914 18.5 20.5ZM19.25 22.75C20.2265 22.75 21.0507 22.1208 21.3612 21.25L26.75 21.25C27.1647 21.25 27.5 20.9148 27.5 20.5C27.5 20.0852 27.1647 19.75 26.75 19.75L21.3612 19.75C21.0507 18.8792 20.2265 18.25 19.25 18.25C18.2735 18.25 17.4492 18.8792 17.1387 19.75L13.25 19.75C12.8352 19.75 12.5 20.0852 12.5 20.5C12.5 20.9147 12.8352 21.25 13.25 21.25L17.1387 21.25C17.4492 22.1207 18.2735 22.75 19.25 22.75Z" fill="white"/>
</mask>
<g mask="url(#mask0_104_3428)">
<rect x="29" y="7" width="18" height="18" transform="rotate(90 29 7)" fill="#ffff"/>
</g>
<defs>
<filter id="filter0_d_104_3428" x="0" y="0" width="40" height="40" filterUnits="userSpaceOnUse" color-interpolation-filters="sRGB">
<feFlood flood-opacity="0" result="BackgroundImageFix"/>
<feColorMatrix in="SourceAlpha" type="matrix" values="0 0 0 0 0 0 0 0 0 0 0 0 0 0 0 0 0 0 127 0" result="hardAlpha"/>
<feOffset dy="4"/>
<feGaussianBlur stdDeviation="2.5"/>
<feComposite in2="hardAlpha" operator="out"/>
<feColorMatrix type="matrix" values="0 0 0 0 0.294118 0 0 0 0 0.552941 0 0 0 0 0.941176 0 0 0 0.15 0"/>
<feBlend mode="normal" in2="BackgroundImageFix" result="effect1_dropShadow_104_3428"/>
<feBlend mode="normal" in="SourceGraphic" in2="effect1_dropShadow_104_3428" result="shape"/>
</filter>
</defs>
</svg>
