<svg width="299" height="247" viewBox="0 0 299 247" fill="none" xmlns="http://www.w3.org/2000/svg">
<ellipse opacity="0.8" cx="153.557" cy="123.173" rx="127.557" ry="123.173" transform="rotate(180 153.557 123.173)" fill="url(#paint0_linear_342_1360)"/>
<path d="M208.67 30.513H131.473V158.146H208.67V30.513Z" fill="#A5C9FF"/>
<path d="M204.41 36.1733H135.66V152.532H204.41V36.1733Z" fill="#DCEAFF"/>
<path d="M206.583 55.7209H134.033V61.1078H206.583V55.7209Z" fill="#A5C9FF"/>
<path d="M196.069 72.4217C196.136 72.495 186.162 82.1955 173.795 94.096C161.428 105.997 151.341 115.59 151.274 115.517C151.207 115.444 161.181 105.75 173.548 93.8427C185.916 81.9354 195.996 72.355 196.069 72.4217Z" fill="#A5C9FF"/>
<path d="M182.496 72.6883C182.562 72.7617 176.215 79.042 168.328 86.729C160.441 94.416 153.981 100.583 153.914 100.51C153.848 100.436 160.188 94.156 168.082 86.509C175.975 78.862 182.402 72.6417 182.496 72.6883Z" fill="#A5C9FF"/>
<path d="M57.5431 93.6827C59.3334 96.5351 61.4427 99.1744 63.8301 101.55L57.5431 93.6827Z" fill="white"/>
<path d="M15.321 101.356L21.608 93.596L15.321 101.356Z" fill="white"/>
<path d="M150.194 144.692L148.861 149.785L132.193 152.812V159.539C132.193 159.539 155.568 162.579 157.708 161.539C159.848 160.499 161.868 147.652 161.868 147.652L150.194 144.692Z" fill="#FFAAA5"/>
<path d="M149.201 150.025C149.154 150.105 150.134 150.632 151.041 151.585C151.948 152.539 152.428 153.505 152.521 153.465C152.334 152.658 151.904 151.927 151.288 151.372C150.735 150.733 150.011 150.265 149.201 150.025Z" fill="#C75B54"/>
<path d="M173.362 80.562C173.488 77.3665 174.813 74.3356 177.072 72.0724C179.332 69.8092 182.36 68.4796 185.556 68.3481H186.222C193.343 68.4681 197.216 74.5817 196.89 81.6821L195.99 110.317L184.736 114.61L180.389 110.61C180.389 108.61 180.389 104.456 180.349 104.456C180.309 104.456 173.475 103.676 173.108 96.8561C172.935 93.5426 173.122 86.729 173.362 80.562Z" fill="#FFAAA5"/>
<path d="M180.349 104.443C183.513 104.31 186.572 103.271 189.163 101.45C189.163 101.45 187.236 106.67 180.396 106.337L180.349 104.443Z" fill="#C75B54"/>
<path d="M175.882 86.689C175.889 86.943 175.996 87.1841 176.179 87.36C176.363 87.536 176.608 87.6326 176.862 87.629C176.988 87.6345 177.114 87.6141 177.232 87.5691C177.35 87.5242 177.458 87.4556 177.548 87.3675C177.639 87.2795 177.71 87.1739 177.759 87.0572C177.807 86.9405 177.831 86.8152 177.829 86.689C177.822 86.4343 177.715 86.1925 177.532 86.0155C177.349 85.8385 177.104 85.7404 176.849 85.7422C176.722 85.7377 176.596 85.759 176.478 85.8047C176.36 85.8504 176.253 85.9196 176.162 86.0082C176.072 86.0967 176 86.2027 175.952 86.3198C175.904 86.4368 175.88 86.5624 175.882 86.689Z" fill="#263238"/>
<path d="M174.942 83.5155C175.069 83.6422 175.782 83.0621 176.829 83.0221C177.875 82.9821 178.669 83.4755 178.776 83.3422C178.882 83.2088 178.702 83.0555 178.355 82.8288C177.89 82.5294 177.342 82.3847 176.789 82.4154C176.242 82.4341 175.716 82.6281 175.289 82.9688C174.975 83.2288 174.875 83.4622 174.942 83.5155Z" fill="#263238"/>
<path d="M184.836 86.449C184.844 86.7031 184.952 86.9439 185.134 87.1205C185.317 87.2972 185.562 87.3958 185.816 87.3957C185.94 87.4001 186.065 87.3797 186.181 87.3358C186.298 87.2918 186.405 87.225 186.495 87.1394C186.586 87.0538 186.658 86.951 186.709 86.8371C186.759 86.7231 186.787 86.6002 186.789 86.4756C186.779 86.2221 186.671 85.9822 186.489 85.8059C186.306 85.6296 186.063 85.5304 185.809 85.5289C185.685 85.5245 185.56 85.5448 185.444 85.5888C185.327 85.6328 185.22 85.6996 185.13 85.7852C185.039 85.8708 184.967 85.9736 184.916 86.0875C184.866 86.2015 184.838 86.3243 184.836 86.449Z" fill="#263238"/>
<path d="M185.229 83.3555C185.356 83.4755 186.076 82.9022 187.123 82.8622C188.17 82.8222 188.963 83.3155 189.07 83.1822C189.176 83.0488 188.99 82.8955 188.643 82.6688C188.18 82.3682 187.634 82.2233 187.083 82.2555C186.536 82.2741 186.01 82.4681 185.583 82.8088C185.269 83.0488 185.163 83.2822 185.229 83.3555Z" fill="#263238"/>
<path d="M181.829 91.5492C181.268 91.3984 180.69 91.32 180.109 91.3159C179.842 91.3159 179.589 91.2558 179.536 91.0758C179.499 90.7982 179.55 90.516 179.682 90.2691C179.909 89.6024 180.142 88.9357 180.389 88.2024C181.369 85.2489 182.069 82.8288 181.949 82.7888C181.829 82.7488 180.936 85.1156 179.949 88.0624L179.282 90.1425C179.13 90.4744 179.097 90.849 179.189 91.2025C179.231 91.2952 179.294 91.3771 179.372 91.4418C179.451 91.5065 179.543 91.5524 179.642 91.5759C179.793 91.6092 179.948 91.6248 180.102 91.6225C180.679 91.6731 181.259 91.6485 181.829 91.5492Z" fill="#263238"/>
<path d="M184.756 80.0687C184.909 80.3287 185.916 80.0087 187.156 79.9287C188.396 79.8486 189.436 80.002 189.549 79.722C189.596 79.5886 189.376 79.3553 188.929 79.1553C188.341 78.9205 187.707 78.8225 187.075 78.8687C186.443 78.9149 185.83 79.1041 185.282 79.422C184.869 79.682 184.689 79.942 184.756 80.0687Z" fill="#263238"/>
<path d="M174.762 80.4353C174.989 80.6687 175.835 80.3953 176.862 80.362C177.889 80.3287 178.762 80.4687 178.962 80.2153C179.042 80.0886 178.902 79.8553 178.516 79.642C177.983 79.3839 177.394 79.2645 176.803 79.2948C176.212 79.3251 175.639 79.5041 175.135 79.8153C174.775 80.0753 174.662 80.322 174.762 80.4353Z" fill="#263238"/>
<path d="M196.543 86.7423C196.657 86.689 201.177 85.1622 201.21 89.8358C201.243 94.5094 196.543 93.5893 196.543 93.456C196.543 93.3226 196.543 86.7423 196.543 86.7423Z" fill="#FFAAA5"/>
<path d="M197.963 91.6692C197.963 91.6692 198.043 91.7292 198.183 91.7892C198.378 91.8675 198.595 91.8675 198.79 91.7892C199.09 91.596 199.333 91.3259 199.494 91.0071C199.654 90.6882 199.727 90.3321 199.703 89.9758C199.716 89.5742 199.636 89.175 199.47 88.8091C199.423 88.6639 199.343 88.532 199.235 88.4242C199.127 88.3163 198.995 88.2357 198.85 88.1891C198.756 88.1671 198.657 88.1775 198.57 88.2187C198.483 88.2598 198.412 88.3293 198.37 88.4157C198.31 88.5491 198.37 88.6424 198.317 88.6491C198.263 88.6558 198.217 88.5758 198.25 88.3824C198.275 88.267 198.338 88.1636 198.43 88.0891C198.493 88.0391 198.566 88.0022 198.644 87.9805C198.722 87.9588 198.803 87.9526 198.883 87.9624C199.075 87.9991 199.255 88.0847 199.404 88.2108C199.554 88.3369 199.668 88.4993 199.737 88.6824C199.942 89.082 200.043 89.5269 200.03 89.9758C200.03 90.9225 199.537 91.8092 198.863 92.0092C198.738 92.047 198.605 92.0558 198.476 92.035C198.347 92.0142 198.224 91.9644 198.117 91.8892C197.97 91.7826 197.95 91.6826 197.963 91.6692Z" fill="#C75B54"/>
<path d="M185.096 92.2026C184.936 92.2026 184.929 93.2626 184.009 94.0227C183.089 94.7827 181.942 94.656 181.936 94.8027C181.929 94.9494 182.189 95.016 182.669 95.0294C183.299 95.0425 183.913 94.8323 184.403 94.436C184.871 94.056 185.172 93.5082 185.243 92.9093C185.289 92.4626 185.163 92.1959 185.096 92.2026Z" fill="#263238"/>
<path d="M163.935 74.4151C163.972 74.2754 164.036 74.1445 164.124 74.03C164.212 73.9155 164.323 73.8198 164.448 73.7484C164.991 73.4956 165.592 73.3921 166.188 73.4483C167.678 73.4014 169.137 73.016 170.455 72.3216C169.989 72.1034 169.561 71.8106 169.188 71.4549C168.79 71.0968 168.498 70.6367 168.343 70.1243C168.188 69.6119 168.176 69.0668 168.308 68.5481C168.331 68.4516 168.376 68.3613 168.438 68.2841C168.5 68.2068 168.579 68.1444 168.668 68.1014C168.975 68.0014 169.242 68.2948 169.455 68.5281C169.724 68.8922 170.087 69.1767 170.505 69.3515C170.923 69.5264 171.38 69.5851 171.828 69.5215C172.453 69.4763 173.059 69.2917 173.602 68.9815L173.662 68.9148L174.362 68.1814C176.095 66.4213 177.595 65.1946 179.142 64.5479C181.842 63.5275 184.77 63.2647 187.609 63.7879C189.996 64.3813 192.156 66.288 192.516 68.7215C193.85 67.5814 195.85 67.5681 197.47 68.2014H197.51C199.33 68.8281 200.376 70.7282 200.93 72.5616C200.963 72.6683 200.99 72.7683 201.017 72.8683C201.637 73.8375 202.481 74.6444 203.477 75.2218C203.657 75.3151 203.857 75.4418 203.877 75.6418C203.897 75.8418 203.737 76.0085 203.577 76.1285C203.142 76.4418 202.643 76.6557 202.117 76.7552C202.287 77.1908 202.492 77.6122 202.73 78.0152C202.937 78.3619 203.19 78.7686 203.01 79.1353C202.93 79.2682 202.811 79.3733 202.669 79.4364C202.527 79.4996 202.369 79.5178 202.217 79.4886C201.912 79.4256 201.624 79.3008 201.37 79.122C201.577 79.602 201.783 80.082 201.997 80.562C201.331 80.6809 200.646 80.6444 199.996 80.4553C199.63 82.1821 199.383 85.3822 198.95 86.5556C197.71 86.5556 197.403 86.4623 196.783 86.6756C195.976 86.949 196.303 88.3824 195.243 88.009C194.703 87.8024 193.863 85.7823 193.676 85.2356C192.442 81.6138 192.003 77.7685 192.389 73.9617C191.629 73.1687 190.724 72.5283 189.723 72.075L189.803 72.1483C187.883 71.4816 185.716 70.8816 183.916 71.7949C182.516 72.5083 181.709 73.975 180.669 75.1284C179.796 76.1889 178.71 77.0539 177.481 77.6673C176.252 78.2806 174.907 78.6286 173.535 78.6886C173.295 80.7554 173.249 84.1289 173.175 86.0223L171.482 82.1888C171.348 81.9621 171.235 81.7354 171.128 81.5221L171.088 81.4554C170.924 81.0811 170.739 80.7161 170.535 80.362C170.313 80.5448 170.032 80.6421 169.745 80.6363C169.457 80.6306 169.181 80.5222 168.966 80.3306C168.751 80.1391 168.612 79.8771 168.573 79.5919C168.534 79.3067 168.599 79.0171 168.755 78.7753C168.914 78.5489 169.108 78.3487 169.328 78.1819C169.095 78.4121 168.806 78.5784 168.489 78.6648C168.173 78.7512 167.84 78.7548 167.522 78.6753C167.208 78.5817 166.933 78.3874 166.74 78.1224C166.547 77.8573 166.447 77.5362 166.455 77.2085C166.475 76.9869 166.555 76.7748 166.685 76.5943C166.815 76.4137 166.991 76.2713 167.195 76.1818C166.349 76.2575 165.5 76.0812 164.755 75.6751C164.255 75.4684 163.775 75.0218 163.935 74.4151Z" fill="#263238"/>
<path d="M190.389 69.5282C190.625 69.7196 190.848 69.9267 191.056 70.1482C191.603 70.7965 191.972 71.575 192.129 72.4083C192.255 72.9778 192.322 73.5586 192.329 74.1417C192.329 74.7751 192.296 75.4751 192.256 76.1418C192.209 76.8878 192.209 77.636 192.256 78.3819C192.282 78.7789 192.338 79.1733 192.423 79.562C192.489 79.9793 192.659 80.3735 192.916 80.7087C193.038 80.8393 193.192 80.9366 193.362 80.9914C193.533 81.0462 193.714 81.0568 193.89 81.022C194.223 80.9532 194.525 80.7777 194.75 80.522C195.122 80.0085 195.351 79.406 195.416 78.7753H195.27C195.481 79.2889 195.769 79.7677 196.123 80.1953C196.458 80.596 196.937 80.8496 197.456 80.902C197.699 80.9252 197.944 80.8814 198.163 80.7754C198.366 80.6671 198.531 80.4997 198.636 80.2954C198.737 80.1094 198.785 79.8998 198.776 79.6887C198.763 79.4925 198.683 79.3067 198.55 79.162L198.476 79.222C198.886 79.6861 199.391 80.0567 199.957 80.3087C200.107 80.3746 200.26 80.4324 200.417 80.482L200.577 80.522C200.577 80.522 200.53 80.522 200.423 80.4554C200.317 80.3887 200.17 80.3554 199.983 80.262C199.437 79.9946 198.949 79.6206 198.55 79.162L198.476 79.2286C198.591 79.3702 198.658 79.544 198.669 79.7257C198.68 79.9074 198.633 80.0879 198.536 80.242C198.44 80.4223 198.292 80.5689 198.11 80.662C197.903 80.7619 197.672 80.8012 197.443 80.7754C196.958 80.7204 196.512 80.4819 196.196 80.1087C195.862 79.6844 195.588 79.2154 195.383 78.7153L195.283 78.4953L195.236 78.7353C195.188 79.3355 194.979 79.9114 194.63 80.402C194.431 80.6354 194.158 80.7931 193.856 80.8487C193.708 80.8804 193.554 80.8724 193.41 80.8256C193.266 80.7787 193.137 80.6947 193.036 80.582C192.795 80.2711 192.637 79.9041 192.576 79.5153C192.492 79.1356 192.436 78.75 192.409 78.3619C192.366 77.6203 192.366 76.8768 192.409 76.1352C192.443 75.4218 192.483 74.7484 192.469 74.1351C192.456 73.5425 192.382 72.9528 192.249 72.375C192.092 71.5373 191.717 70.7556 191.163 70.1082C190.941 69.8706 190.68 69.6742 190.389 69.5282Z" fill="#455A64"/>
<path d="M169.315 76.4218C169.315 76.4218 169.315 76.4218 169.368 76.4685L169.542 76.5952C169.632 76.6632 169.728 76.7234 169.828 76.7752C169.964 76.8543 170.104 76.9256 170.248 76.9885C171.17 77.395 172.178 77.5646 173.182 77.4819C174.675 77.3665 176.104 76.8225 177.295 75.9151C178.727 74.7901 179.916 73.3861 180.789 71.7883C181.282 70.9549 181.676 70.1015 182.122 69.3082C182.52 68.5405 183.025 67.8333 183.622 67.2081C184.165 66.6567 184.836 66.2489 185.576 66.0214C185.91 65.919 186.26 65.874 186.609 65.888C186.933 65.9026 187.254 65.961 187.563 66.0614C188.098 66.2337 188.589 66.5203 189.003 66.9014C189.317 67.1863 189.58 67.5222 189.783 67.8948C189.942 68.2201 190.065 68.5623 190.149 68.9148C190.151 68.8904 190.151 68.8659 190.149 68.8415C190.149 68.7882 190.149 68.7148 190.116 68.6348C190.054 68.3698 189.962 68.1126 189.843 67.8681C189.647 67.4811 189.385 67.1314 189.069 66.8347C188.653 66.4378 188.155 66.1374 187.609 65.9547C187.29 65.8476 186.958 65.7826 186.623 65.7613C186.258 65.7472 185.893 65.7922 185.542 65.8947C184.781 66.1304 184.092 66.5573 183.542 67.1347C182.928 67.7647 182.409 68.4812 182.002 69.2615C181.562 70.0549 181.162 70.9082 180.669 71.735C179.803 73.3147 178.629 74.7045 177.215 75.8218C176.059 76.7163 174.671 77.2622 173.215 77.3952C172.228 77.4882 171.232 77.3395 170.315 76.9619C169.968 76.8092 169.633 76.6286 169.315 76.4218Z" fill="#455A64"/>
<path d="M168.655 73.4284C168.73 73.4945 168.813 73.5505 168.902 73.595C169.137 73.7321 169.382 73.8524 169.635 73.9551C170.009 74.1086 170.395 74.2312 170.788 74.3217C171.274 74.4226 171.767 74.4828 172.262 74.5017C172.758 74.5046 173.253 74.4644 173.742 74.3817C174.139 74.3093 174.53 74.2022 174.909 74.0617C175.163 73.9705 175.41 73.8613 175.649 73.735C175.822 73.6417 175.909 73.5884 175.902 73.575C175.895 73.5617 175.515 73.7484 174.869 73.9551C174.492 74.0779 174.106 74.1715 173.715 74.2351C173.234 74.3098 172.748 74.3454 172.262 74.3417C171.776 74.3234 171.292 74.2677 170.815 74.1751C170.428 74.0947 170.046 73.9855 169.675 73.8484C169.035 73.615 168.668 73.4017 168.655 73.4284Z" fill="#455A64"/>
<path d="M204.55 110.69L195.836 107.75L179.856 108.483L172.555 111.97L183.903 135.171L191.376 134.085L204.55 110.69Z" fill="#FFAAA5"/>
<path d="M147.034 144.692C147.034 144.692 157.934 115.697 159.241 115.17C161.861 114.11 178.862 107.523 178.862 107.523L186.736 115.11L196.59 107.817C196.59 107.817 212.844 111.557 213.61 113.677C214.377 115.797 208.123 152.645 208.123 152.645C208.123 152.645 210.73 173.44 210.524 182.74L212.844 192.381L156.841 192.527C156.841 192.527 158.114 173.6 160.241 156.439L161.521 141.265L160.688 151.185L147.034 144.692Z" fill="white"/>
<path d="M163.628 118.064C163.594 118.165 163.572 118.271 163.562 118.377C163.528 118.624 163.482 118.924 163.428 119.297C163.315 120.097 163.168 121.257 163.002 122.691C162.662 125.557 162.262 129.524 161.908 133.918C161.555 138.311 161.321 142.285 161.175 145.172C161.108 146.585 161.061 147.739 161.021 148.585C161.021 148.965 161.021 149.252 161.021 149.512C161.011 149.621 161.011 149.73 161.021 149.839C161.053 149.735 161.068 149.627 161.068 149.519C161.068 149.272 161.115 148.965 161.148 148.592C161.208 147.745 161.288 146.592 161.388 145.185C161.588 142.305 161.855 138.325 162.208 133.938C162.562 129.551 162.928 125.584 163.215 122.711C163.355 121.304 163.468 120.151 163.555 119.311C163.588 118.937 163.615 118.644 163.635 118.384C163.647 118.277 163.645 118.17 163.628 118.064Z" fill="#263238"/>
<path d="M208.777 111.457L211.477 112.23C213.33 112.741 215.005 113.756 216.314 115.163C217.623 116.57 218.515 118.313 218.891 120.197L223.925 148.499L207.984 154.272L202.497 149.972L208.777 111.457Z" fill="white"/>
<path d="M157.161 186.8H157.294L157.674 186.867L159.141 187.107C160.408 187.314 162.255 187.594 164.541 187.774C165.789 187.87 167.041 187.87 168.288 187.774C168.627 187.75 168.963 187.703 169.295 187.634C169.468 187.634 169.642 187.574 169.808 187.527L170.302 187.36C170.968 187.174 171.342 186.474 171.635 185.814C171.924 185.098 172.147 184.357 172.302 183.6C172.475 182.834 172.615 182.033 172.729 181.213C172.962 179.58 173.109 177.88 173.215 176.12C173.442 172.293 173.475 168.653 173.422 165.453L173.555 165.586L162.888 165.359L159.868 165.279L159.068 165.246H158.788C158.881 165.233 158.975 165.233 159.068 165.246H162.895L173.562 165.359H173.695V165.486C173.769 168.72 173.749 172.36 173.522 176.2C173.409 177.953 173.262 179.667 173.022 181.313C172.902 182.14 172.762 182.947 172.582 183.727C172.419 184.498 172.185 185.253 171.882 185.98C171.732 186.338 171.539 186.676 171.308 186.987C171.185 187.138 171.049 187.279 170.902 187.407C170.742 187.519 170.567 187.606 170.382 187.667L169.862 187.834C169.682 187.88 169.508 187.907 169.335 187.94C168.992 188.009 168.644 188.056 168.295 188.08C167.036 188.167 165.772 188.156 164.515 188.047C162.7 187.896 160.895 187.647 159.108 187.3C158.441 187.187 157.981 187.08 157.648 187L157.274 186.914L157.161 186.8Z" fill="#263238"/>
<path d="M173.389 169.153C173.389 169.233 169.995 169.3 165.808 169.3C161.622 169.3 158.221 169.233 158.221 169.153C158.221 169.073 161.622 169.006 165.808 169.006C169.995 169.006 173.389 169.066 173.389 169.153Z" fill="#263238"/>
<path d="M206.717 192.534C206.717 192.614 195.73 192.681 182.169 192.681C168.608 192.681 157.621 192.614 157.621 192.534C157.621 192.454 168.608 192.387 182.169 192.387C195.73 192.387 206.717 192.454 206.717 192.534Z" fill="#263238"/>
<path d="M192.27 143.065H203.35V135.171H192.27V143.065Z" fill="#4B8DF0"/>
<path d="M199.317 139.458C199.315 139.7 199.386 139.936 199.519 140.138C199.652 140.339 199.842 140.497 200.065 140.59C200.288 140.683 200.534 140.709 200.771 140.662C201.008 140.616 201.226 140.5 201.397 140.33C201.568 140.159 201.685 139.942 201.733 139.705C201.78 139.468 201.757 139.223 201.665 138.999C201.572 138.776 201.416 138.585 201.215 138.451C201.014 138.316 200.778 138.245 200.537 138.245C200.377 138.244 200.218 138.275 200.07 138.335C199.922 138.396 199.788 138.485 199.674 138.598C199.561 138.711 199.471 138.845 199.41 138.992C199.348 139.14 199.317 139.298 199.317 139.458Z" fill="#E0E0E0"/>
<path d="M194.176 139.738H198.103C198.269 139.738 198.403 139.604 198.403 139.438V139.258C198.403 139.092 198.269 138.958 198.103 138.958H194.176C194.011 138.958 193.876 139.092 193.876 139.258V139.438C193.876 139.604 194.011 139.738 194.176 139.738Z" fill="#E0E0E0"/>
<path d="M198.49 136.398L199.403 133.945H196.223L196.997 136.398H198.49Z" fill="#263238"/>
<path d="M178.782 132.598C178.811 132.695 178.852 132.789 178.902 132.878L179.296 133.651C179.636 134.318 180.176 135.271 180.876 136.418C181.576 137.565 182.456 138.911 183.496 140.352C184.536 141.792 185.763 143.325 187.116 144.872C188.469 146.418 189.863 147.805 191.156 149.025C192.45 150.245 193.683 151.279 194.743 152.112C195.803 152.945 196.676 153.592 197.296 154.019L198.016 154.499C198.183 154.612 198.27 154.666 198.276 154.652C198.208 154.578 198.132 154.511 198.05 154.452L197.383 153.925C196.783 153.479 195.923 152.805 194.89 151.925C193.856 151.045 192.65 150.019 191.363 148.805C190.076 147.592 188.696 146.185 187.363 144.658C186.029 143.132 184.796 141.592 183.736 140.172C182.676 138.751 181.782 137.418 181.069 136.285C180.356 135.151 179.789 134.225 179.422 133.571L178.976 132.824C178.918 132.744 178.853 132.668 178.782 132.598Z" fill="#263238"/>
<path d="M195.03 168.906C194.956 168.796 194.871 168.693 194.776 168.599L194.01 167.766C193.67 167.413 193.256 166.966 192.796 166.433C192.336 165.899 191.79 165.326 191.223 164.653C190.07 163.319 188.743 161.699 187.329 159.852C185.916 158.006 184.443 155.912 182.983 153.659C181.522 151.405 180.242 149.185 179.129 147.138C178.016 145.092 177.129 143.212 176.369 141.605C175.989 140.812 175.702 140.078 175.396 139.438C175.089 138.798 174.882 138.245 174.695 137.791L174.249 136.745C174.206 136.618 174.148 136.497 174.075 136.385C174.105 136.514 174.145 136.641 174.195 136.765L174.589 137.831C174.762 138.291 174.975 138.858 175.256 139.505C175.536 140.151 175.822 140.892 176.196 141.692C176.902 143.305 177.822 145.198 178.909 147.265C179.996 149.332 181.296 151.545 182.749 153.812C184.203 156.079 185.709 158.159 187.123 160.012C188.536 161.866 189.903 163.473 191.076 164.786C191.656 165.453 192.21 166.026 192.683 166.539C193.156 167.053 193.583 167.486 193.936 167.833L194.743 168.626C194.83 168.728 194.926 168.821 195.03 168.906Z" fill="#263238"/>
<path d="M212.857 122.744C212.777 122.744 211.524 130.311 210.05 139.665C208.577 149.019 207.443 156.626 207.523 156.639C207.603 156.652 208.857 149.072 210.33 139.712C211.804 130.351 212.937 122.757 212.857 122.744Z" fill="#263238"/>
<path d="M209.711 211.962C209.791 212.076 209.897 212.171 210.021 212.239C210.144 212.306 210.281 212.345 210.421 212.351C210.561 212.358 210.701 212.332 210.83 212.276C210.959 212.22 211.073 212.135 211.164 212.028C211.531 211.688 211.917 207.961 211.917 207.961L212.784 202.974L212.631 212.468C212.631 212.468 212.731 213.368 213.431 213.402C214.131 213.435 214.611 212.395 214.611 212.395L215.631 202.614C215.631 202.614 215.304 208.055 215.664 208.335C216.158 208.715 216.604 208.595 216.764 208.175C217.091 207.328 217.564 202.434 217.564 202.434L218.018 193.101L218.491 188.614L209.831 188.074L209.437 190.741C209.437 190.741 205.997 193.341 205.244 194.367C204.49 195.394 202.617 199.034 201.244 200.121C201.267 200.302 201.338 200.475 201.448 200.62C201.559 200.766 201.705 200.881 201.874 200.953C202.042 201.025 202.226 201.052 202.408 201.031C202.589 201.01 202.763 200.942 202.91 200.834C204.321 200.038 205.557 198.965 206.544 197.681C207.13 196.788 207.744 197.308 207.777 198.088C207.811 198.868 207.144 204.141 207.144 204.141C207.144 204.141 205.49 210.001 205.937 210.662C206.031 210.793 206.153 210.901 206.295 210.978C206.436 211.055 206.593 211.1 206.754 211.107C206.915 211.115 207.076 211.086 207.224 211.023C207.373 210.959 207.505 210.863 207.611 210.742C207.837 210.435 209.691 205.535 209.691 205.535" fill="#FFAAA5"/>
<path d="M218.864 150.352C218.864 150.352 219.458 168.819 219.531 171.726C219.638 176.227 218.364 189.454 218.364 189.454L209.424 190.734L209.117 153.879L218.864 150.352Z" fill="#FFAAA5"/>
<path d="M118.773 146.945C118.103 146.648 117.488 146.24 116.953 145.738C116.763 145.488 116.644 145.191 116.609 144.879C116.574 144.567 116.624 144.251 116.753 143.965L118.393 144.558C117.844 144.375 117.374 144.011 117.06 143.525C116.967 143.418 116.897 143.294 116.854 143.159C116.811 143.024 116.797 142.882 116.811 142.742C116.826 142.601 116.869 142.465 116.938 142.342C117.007 142.218 117.1 142.111 117.213 142.025C117.213 142.025 120.06 143.165 121.18 143.525C121.333 143.638 127.133 145.852 127.44 146.192L132.84 151.985L140.807 150.172L141.521 161.079C141.521 161.079 131.474 160.046 129.78 159.552C128.087 159.059 123.707 154.886 123.707 154.886L121.706 152.252L118.18 150.299C117.573 149.872 116.94 149.099 117.513 148.339C116.399 147.625 116.98 146.218 116.98 146.218L118.773 146.945Z" fill="#659BED"/>
<path d="M123.233 147.772C123.58 147.594 123.9 147.37 124.186 147.105L124.313 147.012L124.173 146.938C123.17 146.387 122.14 145.887 121.086 145.438C119.919 144.932 118.846 144.532 118.059 144.278C117.633 144.105 117.184 143.993 116.726 143.945C117.116 144.165 117.527 144.346 117.953 144.485C118.719 144.792 119.773 145.225 120.933 145.725C122.093 146.225 123.3 146.778 124.046 147.119V146.945C123.741 147.185 123.468 147.463 123.233 147.772Z" fill="#263238"/>
<path d="M120.786 147.772C120.216 147.373 119.592 147.058 118.932 146.838C118.303 146.518 117.629 146.293 116.932 146.172C117.504 146.572 118.13 146.886 118.792 147.105C119.42 147.426 120.092 147.651 120.786 147.772Z" fill="#263238"/>
<path d="M108.694 167.7H103.855V242.226H108.694V167.7Z" fill="#E0E0E0"/>
<path d="M108.486 242.226C108.486 242.226 108.486 242.091 108.486 241.829C108.486 241.567 108.486 241.186 108.486 240.689C108.486 239.684 108.486 238.214 108.486 236.32C108.486 232.522 108.486 227.032 108.435 220.228C108.435 206.638 108.391 187.821 108.366 166.891L108.53 166.994H104.019L104.183 166.891C104.183 203.194 104.133 233.71 104.063 242.226L104.019 242.199H107.424H108.53C108.53 242.199 108.189 242.199 107.45 242.199H104.019H103.981V242.171C103.912 233.654 103.855 203.138 103.855 166.835V166.732H108.694V166.835C108.694 187.793 108.644 206.638 108.631 220.251C108.631 227.04 108.587 232.526 108.58 236.316C108.58 238.202 108.58 239.668 108.58 240.665C108.58 241.158 108.58 241.535 108.58 241.793C108.58 242.052 108.486 242.226 108.486 242.226Z" fill="#263238"/>
<path d="M89.1512 167.826H125.453V122.871H89.1512V167.826Z" fill="#E1EDFF"/>
<path d="M99.805 167.913H125.453V122.864H99.805V167.913Z" fill="#F5F5F5"/>
<path d="M122.22 127.211H103.065V146.365H122.22V127.211Z" fill="white"/>
<path d="M103.065 146.372C103.057 146.259 103.057 146.145 103.065 146.032C103.065 145.778 103.065 145.445 103.065 145.025C103.065 144.105 103.065 142.798 103.025 141.152C103.025 137.758 102.972 132.958 102.939 127.211V127.051H103.105H122.26L122.446 127.244V132.391C122.446 134.085 122.446 135.725 122.446 137.345C122.446 140.558 122.446 143.598 122.446 146.385V146.545H122.286L108.346 146.465L104.472 146.418H103.465H103.132C103.254 146.41 103.377 146.41 103.499 146.418H104.539L108.452 146.378L122.286 146.292L122.12 146.458C122.12 143.672 122.12 140.632 122.12 137.418C122.12 135.814 122.12 134.162 122.12 132.464V127.318L122.306 127.504H103.152L103.312 127.338C103.312 133.045 103.252 137.805 103.232 141.172C103.232 142.838 103.232 144.152 103.185 145.085C103.185 145.53 103.185 145.876 103.185 146.125C103.072 146.238 103.065 146.365 103.065 146.372Z" fill="#263238"/>
<path d="M89.7712 122.864C89.7712 122.764 97.7716 122.677 107.565 122.677C117.359 122.677 125.353 122.764 125.353 122.864C125.353 122.964 117.393 123.057 107.565 123.057C97.7383 123.057 89.7712 122.971 89.7712 122.864Z" fill="#263238"/>
<path d="M89.158 167.826C89.058 167.826 88.9713 157.826 88.9713 145.518C88.9713 133.211 89.058 123.204 89.158 123.204C89.258 123.204 89.3447 133.205 89.3447 145.518C89.3447 157.832 89.2513 167.826 89.158 167.826Z" fill="#263238"/>
<path d="M99.8251 167.826C99.7184 167.826 99.6384 157.826 99.6384 145.518C99.6384 133.211 99.7184 123.204 99.8251 123.204C99.9318 123.204 100.012 133.205 100.012 145.518C100.012 157.832 99.9118 167.826 99.8251 167.826Z" fill="#263238"/>
<path d="M119.279 153.025H122.22V150.085H119.279V153.025Z" fill="#455A64"/>
<path d="M115.226 153.025H118.166V150.085H115.226V153.025Z" fill="#455A64"/>
<path d="M111.166 153.025H114.106V150.085H111.166V153.025Z" fill="#455A64"/>
<path d="M107.112 153.025H110.052V150.085H107.112V153.025Z" fill="#455A64"/>
<path d="M103.059 153.025H105.999V150.085H103.059V153.025Z" fill="#455A64"/>
<path d="M119.279 156.926H122.22V153.985H119.279V156.926Z" fill="#455A64"/>
<path d="M115.226 156.926H118.166V153.985H115.226V156.926Z" fill="#455A64"/>
<path d="M111.166 156.926H114.106V153.985H111.166V156.926Z" fill="#455A64"/>
<path d="M107.112 156.926H110.052V153.985H107.112V156.926Z" fill="#455A64"/>
<path d="M103.059 156.926H105.999V153.985H103.059V156.926Z" fill="#455A64"/>
<path d="M119.279 160.819H122.22V157.879H119.279V160.819Z" fill="#455A64"/>
<path d="M115.226 160.819H118.166V157.879H115.226V160.819Z" fill="#455A64"/>
<path d="M111.166 160.819H114.106V157.879H111.166V160.819Z" fill="#455A64"/>
<path d="M103.059 160.819H110.052V157.879H103.059V160.819Z" fill="#4B8DF0"/>
<path d="M104.026 137.105C104.026 137.105 104.126 137.058 104.339 137.011C104.552 136.965 104.852 136.905 105.252 136.851C105.748 136.784 106.25 136.784 106.746 136.851C107.411 136.956 108.024 137.274 108.492 137.758C108.764 138.055 108.953 138.418 109.039 138.811C109.116 139.227 109.143 139.65 109.119 140.072C109.086 140.498 109.086 140.926 109.119 141.352C109.186 141.78 109.373 142.18 109.659 142.505C109.79 142.667 109.971 142.781 110.173 142.83C110.375 142.88 110.588 142.861 110.779 142.778C111.185 142.546 111.493 142.174 111.646 141.732C112.019 140.747 112.265 139.718 112.379 138.671C112.526 137.591 112.379 136.538 112.499 135.465C112.52 134.927 112.703 134.408 113.024 133.976C113.346 133.544 113.79 133.219 114.299 133.045C114.552 132.991 114.814 132.996 115.065 133.06C115.316 133.123 115.549 133.244 115.746 133.411C116.095 133.716 116.373 134.094 116.559 134.518C116.906 135.331 117.026 136.111 117.353 136.731C117.648 137.286 118.116 137.728 118.686 137.991C119.118 138.193 119.589 138.298 120.066 138.298C120.477 138.285 120.884 138.211 121.273 138.078C121.273 138.078 121.186 138.151 120.993 138.238C120.701 138.362 120.39 138.432 120.073 138.445C119.568 138.475 119.062 138.384 118.6 138.178C117.968 137.917 117.445 137.446 117.119 136.845C116.753 136.178 116.613 135.385 116.273 134.645C116.104 134.266 115.851 133.931 115.533 133.665C115.375 133.53 115.188 133.434 114.987 133.384C114.785 133.334 114.575 133.332 114.373 133.378C113.943 133.506 113.572 133.782 113.326 134.158C113.065 134.558 112.907 135.016 112.866 135.491C112.766 136.478 112.899 137.585 112.753 138.691C112.634 139.776 112.377 140.84 111.986 141.858C111.796 142.386 111.419 142.825 110.926 143.092C110.665 143.2 110.377 143.223 110.103 143.157C109.828 143.091 109.582 142.94 109.399 142.725C109.076 142.346 108.866 141.884 108.792 141.392C108.753 140.948 108.753 140.502 108.792 140.058C108.854 139.687 108.839 139.307 108.75 138.942C108.661 138.576 108.498 138.232 108.272 137.931C107.844 137.474 107.277 137.169 106.659 137.065C106.187 136.976 105.704 136.953 105.226 136.998C104.492 137.065 104.026 137.138 104.026 137.105Z" fill="#4B8DF0"/>
<path d="M123.633 192.207H90.9447V200.201H123.633V192.207Z" fill="#E0E0E0"/>
<path d="M100.899 200.101C100.667 197.689 100.667 195.26 100.899 192.847C101.13 195.26 101.13 197.689 100.899 200.101Z" fill="#263238"/>
<path d="M123.286 192.201C123.286 192.301 116.039 192.374 107.105 192.374C98.1716 192.374 90.9246 192.301 90.9246 192.201C90.9246 192.101 98.1716 192.027 107.105 192.027C116.039 192.027 123.286 192.107 123.286 192.201Z" fill="#263238"/>
<path d="M124.046 200.374C124.046 200.468 116.546 200.548 107.306 200.548C98.0651 200.548 90.5581 200.468 90.5581 200.374C90.5581 200.281 98.0518 200.201 107.306 200.201C116.559 200.201 124.046 200.274 124.046 200.374Z" fill="#263238"/>
<path d="M127.393 150.512L124.246 148.259L118.693 147.939C118.752 148.386 118.924 148.81 119.192 149.173C119.46 149.536 119.816 149.824 120.226 150.012C121.56 150.492 123.593 151.139 123.593 151.139C123.593 151.139 123.333 155.952 126.4 156.279L128.3 154.186L127.393 150.512Z" fill="#659BED"/>
<path d="M92.2578 231.516L10.674 154.692C10.0799 154.107 9.37472 153.646 8.6 153.337C7.82529 153.028 6.99661 152.877 6.16266 152.892C5.3287 152.908 4.50628 153.09 3.7437 153.428C2.98113 153.766 2.29377 154.253 1.72201 154.86C1.15025 155.468 0.705612 156.183 0.414219 156.964C0.122826 157.746 -0.00944636 158.578 0.0251689 159.411C0.0597842 160.245 0.260589 161.063 0.615791 161.817C0.970992 162.572 1.47343 163.248 2.09358 163.806L83.2241 240.196C85.0442 241.916 87.531 241.983 89.8044 241.823H275.973V231.516H92.2578Z" fill="#E0E0E0"/>
<path d="M92.2582 231.516H93.1316H95.7051H105.706L143.414 231.469L275.974 231.363H276.127V231.516C276.127 234.703 276.127 238.25 276.127 241.823V241.983H275.967H154.855H91.3449C90.6782 241.983 90.0581 241.983 89.4248 241.983C88.7808 242.02 88.1353 242.02 87.4913 241.983C86.1794 241.94 84.9034 241.544 83.7978 240.836C83.2858 240.449 82.8023 240.026 82.3511 239.57L80.9644 238.236L78.2109 235.643L67.3171 225.389C60.1389 218.624 53.1119 212.008 46.2361 205.541L7.26753 168.9L2.73398 164.626C1.92573 163.969 1.2474 163.166 0.733884 162.259C0.00962478 160.879 -0.186815 159.283 0.181347 157.768C0.549508 156.254 1.45703 154.926 2.73398 154.032C3.97872 153.172 5.48688 152.779 6.99298 152.922C8.49908 153.065 9.90658 153.734 10.9677 154.812L13.0545 156.779L17.1547 160.693L25.155 168.16L74.284 214.482C80.0777 219.962 84.5845 224.209 87.618 227.096L91.0849 230.383C91.8716 231.129 92.2649 231.516 92.2649 231.516C92.2649 231.516 91.8582 231.149 91.0715 230.416L87.5913 227.162L74.2041 214.602L24.975 168.353L16.9747 160.853L12.8545 156.972L10.761 155.006C9.74664 153.967 8.39716 153.322 6.95209 153.184C5.50702 153.046 4.05981 153.424 2.86732 154.252C2.06107 154.817 1.40263 155.567 0.947717 156.44C0.492804 157.312 0.254805 158.282 0.25386 159.266C0.246023 160.263 0.486612 161.246 0.953894 162.126C1.45577 163.006 2.11839 163.784 2.90732 164.419L7.46754 168.693L46.4894 205.361L67.5837 225.202L78.4709 235.449L81.231 238.043L82.6111 239.376C83.053 239.82 83.5253 240.232 84.0245 240.61C85.0782 241.283 86.2947 241.659 87.5447 241.696C88.1752 241.736 88.8076 241.736 89.4381 241.696C90.1048 241.65 90.7248 241.696 91.3649 241.696H154.888H276.007L275.84 241.856C275.84 238.283 275.84 234.736 275.84 231.549L276 231.709L143.394 231.643L105.699 231.596H95.6984H93.1316L92.2582 231.516Z" fill="#263238"/>
<path d="M70.8969 158.446C68.0819 160.608 64.7209 161.944 61.1898 162.306C61.1898 162.306 66.6567 165.313 72.277 160.246L70.8969 158.446Z" fill="#C75B54"/>
<path d="M48.176 151.692C49.0342 152.971 49.7076 154.365 50.1761 155.832C50.3136 156.126 50.3775 156.449 50.3624 156.773C50.3473 157.097 50.2536 157.413 50.0894 157.692C49.8754 157.9 49.6007 158.033 49.3056 158.072C49.0104 158.112 48.7103 158.056 48.4493 157.912C47.9248 157.618 47.4806 157.199 47.1559 156.692C45.9548 154.956 44.8723 153.141 43.9158 151.259" fill="#263238"/>
<path d="M60.4167 168.92C62.9252 168.451 65.344 167.589 67.5837 166.366C69.8 165.139 71.8671 163.661 73.744 161.959L74.1306 161.833L81.5843 163.899C85.5845 165.353 91.3715 167.233 94.3049 169.233C98.4251 172.073 103.485 180.433 103.485 180.433L122.1 192.834C122.1 192.834 125.513 194.047 123.486 200.954C121.46 207.861 103.932 216.915 103.932 216.915C103.932 216.915 99.6452 218.695 97.1317 216.122C94.965 213.902 84.4645 203.908 84.4645 203.908C84.4645 203.908 69.0371 190.194 66.4169 187.207C61.0034 181.053 56.8098 179.627 60.4167 168.92Z" fill="#4B8DF0"/>
<path d="M90.7513 209.528L104.899 181.173L122.233 185.327L140.727 192.094L186.789 188.16L260.793 187.607C262.789 187.59 264.718 188.328 266.193 189.674C267.906 191.241 270.56 193.747 270.947 196.961C272.5 209.855 273.567 218.055 273.46 217.569L102.199 218.695L90.7513 209.528Z" fill="#455A64"/>
<path d="M81.8976 178.907C82.5643 179.253 96.0583 193.994 96.0583 193.994L127.12 185.754L129.513 193.961C129.513 193.961 100.078 208.028 96.845 208.115C93.6115 208.201 90.6914 206.501 82.531 201.601C74.0706 196.528 70.8971 187.66 70.8971 187.66L81.8976 178.907Z" fill="#FFAAA5"/>
<path d="M86.6245 182.694L72.4905 195.207C72.4905 195.207 65.2901 185.774 62.27 181.007C59.6032 176.753 60.7099 173.353 64.6835 170.926C68.657 168.5 74.8639 171.786 77.3507 173.593C80.2242 175.633 86.6245 182.694 86.6245 182.694Z" fill="#4B8DF0"/>
<path d="M86.6246 182.694C86.5198 182.623 86.4236 182.54 86.3379 182.447L85.5845 181.707C84.9178 181.04 83.9978 180.107 82.8177 178.967C81.6377 177.827 80.2109 176.473 78.5509 175.073C76.7925 173.521 74.8594 172.178 72.7906 171.073C70.7094 169.991 68.2871 169.769 66.0436 170.453C65.1308 170.709 64.2795 171.147 63.5414 171.742C62.8033 172.337 62.1939 173.075 61.7501 173.913C61.1687 175.063 60.9568 176.365 61.1434 177.64C61.2341 178.104 61.3589 178.561 61.5167 179.007C61.2637 178.599 61.0917 178.146 61.01 177.673C60.7633 176.364 60.9456 175.01 61.5301 173.813C61.9746 172.933 62.596 172.154 63.3555 171.526C64.1149 170.897 64.996 170.432 65.9436 170.16C67.053 169.813 68.2177 169.677 69.3771 169.76C70.6237 169.84 71.8392 170.183 72.9439 170.766C75.0399 171.886 76.9921 173.256 78.7575 174.846C80.4176 176.267 81.8244 177.633 82.9911 178.8C84.1578 179.967 85.0645 180.94 85.6579 181.627L86.3646 182.414C86.4602 182.498 86.5473 182.592 86.6246 182.694Z" fill="#263238"/>
<path d="M72.5105 195.201L86.6245 182.714L84.1177 180.107L70.8771 193.147L72.5105 195.201Z" fill="#E0E0E0"/>
<path d="M271.733 215.108H98.745C97.0218 215.108 95.6249 216.505 95.6249 218.229V228.396C95.6249 230.119 97.0218 231.516 98.745 231.516H271.733C273.456 231.516 274.853 230.119 274.853 228.396V218.229C274.853 216.505 273.456 215.108 271.733 215.108Z" fill="#6B8896"/>
<path d="M263.706 215.108C263.706 215.208 228.371 215.442 184.856 215.635C141.34 215.828 106.005 215.908 105.999 215.815C105.992 215.722 141.334 215.482 184.856 215.288C228.378 215.095 263.706 215.015 263.706 215.108Z" fill="#263238"/>
<path d="M92.2581 231.516L16.5612 160.333C15.8819 159.687 15.4859 158.798 15.4596 157.861C15.4334 156.924 15.7791 156.015 16.4212 155.332L23.1549 148.159C23.4764 147.815 23.863 147.539 24.2923 147.347C24.7215 147.154 25.1848 147.049 25.6551 147.037C26.1254 147.025 26.5934 147.107 27.0317 147.278C27.4701 147.449 27.8701 147.705 28.2084 148.032L103.659 220.889C105.065 222.222 106.105 227.289 104.739 228.696L104.672 231.516H92.2581Z" fill="#6B8896"/>
<path d="M182.196 224.549H175.382V241.91H182.196V224.549Z" fill="#E0E0E0"/>
<path d="M182.196 241.916C182.188 241.799 182.188 241.681 182.196 241.563C182.196 241.31 182.196 240.983 182.196 240.583C182.196 239.696 182.196 238.47 182.149 236.949C182.149 233.843 182.102 229.536 182.069 224.556L182.236 224.722H175.389C175.729 224.376 175.482 224.629 175.555 224.549V229.522C175.555 231.122 175.555 232.669 175.555 234.143C175.555 237.076 175.555 239.703 175.515 241.903L175.395 241.783L180.349 241.85H181.716C181.88 241.839 182.045 241.839 182.209 241.85C182.06 241.858 181.911 241.858 181.762 241.85H180.429L175.402 241.916H175.282V241.796C175.282 239.596 175.282 236.969 175.242 234.036C175.242 232.563 175.242 231.016 175.242 229.416C175.242 228.609 175.242 227.789 175.242 226.962V224.562L175.422 224.389H182.362V224.556C182.329 229.582 182.302 233.929 182.282 237.063C182.282 238.57 182.249 239.776 182.236 240.656C182.236 241.043 182.236 241.356 182.236 241.603C182.232 241.708 182.219 241.813 182.196 241.916Z" fill="#263238"/>
<path d="M121.379 224.549H114.566V241.91H121.379V224.549Z" fill="#E0E0E0"/>
<path d="M121.373 241.916C121.365 241.799 121.365 241.681 121.373 241.563C121.373 241.31 121.373 240.983 121.373 240.583C121.373 239.696 121.373 238.47 121.326 236.949C121.326 233.843 121.28 229.536 121.246 224.556L121.413 224.722H114.566L114.739 224.549V227.069C114.739 227.896 114.739 228.716 114.739 229.522C114.739 231.122 114.739 232.669 114.739 234.143C114.739 237.076 114.739 239.703 114.699 241.903L114.579 241.783L119.533 241.85H120.866C121.03 241.839 121.195 241.839 121.36 241.85C121.211 241.858 121.062 241.858 120.913 241.85H119.579L114.553 241.916H114.433V241.796C114.433 239.596 114.433 236.969 114.393 234.036C114.393 232.563 114.393 231.016 114.393 229.416V224.562L114.566 224.389H121.54V224.556C121.54 229.582 121.486 233.929 121.466 237.063C121.466 238.57 121.426 239.776 121.42 240.656C121.42 241.043 121.42 241.356 121.42 241.603C121.414 241.709 121.398 241.814 121.373 241.916Z" fill="#263238"/>
<path d="M212.964 195.521H85.3312C75.9575 195.521 71.6506 205.455 78.4442 212.622L92.9249 227.682C94.7773 229.469 97.2516 230.466 99.8253 230.462H195.73C198.836 230.464 201.84 229.352 204.197 227.329C207.87 224.169 214.251 217.589 219.858 211.922C226.498 205.181 223.831 195.521 212.964 195.521ZM104.019 221.409C104.019 222.043 103.828 222.664 103.471 223.188C103.113 223.713 102.606 224.118 102.016 224.35C101.425 224.582 100.778 224.632 100.159 224.491C99.5399 224.35 98.9776 224.027 98.5452 223.562L84.0512 207.955C83.6251 207.505 83.3407 206.94 83.2331 206.33C83.1255 205.72 83.1995 205.092 83.446 204.524C83.6925 203.955 84.1005 203.472 84.6194 203.134C85.1383 202.796 85.7452 202.617 86.3646 202.621H100.165C100.672 202.621 101.174 202.721 101.641 202.915C102.109 203.109 102.535 203.394 102.892 203.752C103.25 204.111 103.534 204.536 103.727 205.005C103.921 205.473 104.02 205.975 104.019 206.481V221.409ZM129.547 220.289C129.547 221.173 129.195 222.021 128.57 222.646C127.945 223.271 127.097 223.622 126.213 223.622H113.433C112.548 223.622 111.701 223.271 111.075 222.646C110.45 222.021 110.099 221.173 110.099 220.289V206.541C110.099 205.657 110.45 204.809 111.075 204.184C111.701 203.559 112.548 203.208 113.433 203.208H126.2C127.084 203.208 127.932 203.559 128.557 204.184C129.182 204.809 129.533 205.657 129.533 206.541L129.547 220.289ZM189.343 219.489C189.343 220.373 188.992 221.221 188.366 221.846C187.741 222.471 186.893 222.822 186.009 222.822H173.229C172.345 222.822 171.497 222.471 170.872 221.846C170.246 221.221 169.895 220.373 169.895 219.489V205.748C169.895 204.864 170.246 204.016 170.872 203.391C171.497 202.766 172.345 202.414 173.229 202.414H185.996C186.88 202.414 187.728 202.766 188.353 203.391C188.978 204.016 189.329 204.864 189.329 205.748L189.343 219.489ZM215.377 207.161L200.883 222.762C200.451 223.226 199.89 223.55 199.271 223.691C198.653 223.831 198.006 223.783 197.416 223.551C196.826 223.32 196.319 222.916 195.961 222.392C195.603 221.869 195.411 221.25 195.41 220.615V205.701C195.41 204.679 195.816 203.699 196.538 202.976C197.261 202.254 198.241 201.848 199.263 201.848H213.064C213.679 201.848 214.282 202.027 214.796 202.365C215.311 202.702 215.716 203.182 215.962 203.746C216.208 204.311 216.283 204.935 216.179 205.541C216.076 206.148 215.797 206.711 215.377 207.161Z" fill="#E0E0E0"/>
<path d="M215.377 207.161C215.377 207.161 215.544 206.968 215.771 206.561C215.983 206.18 216.112 205.758 216.151 205.324C216.189 204.889 216.136 204.451 215.993 204.038C215.851 203.626 215.624 203.248 215.326 202.929C215.028 202.61 214.666 202.357 214.264 202.188C213.633 201.97 212.962 201.891 212.297 201.954H210.004H204.75H200.297C199.781 201.94 199.264 201.955 198.75 202.001C198.234 202.075 197.739 202.257 197.298 202.535C196.856 202.813 196.479 203.181 196.19 203.615C195.893 204.064 195.699 204.574 195.623 205.108C195.574 205.669 195.558 206.232 195.576 206.795C195.576 209.108 195.576 211.502 195.576 213.948C195.576 215.175 195.576 216.382 195.576 217.575V219.355C195.576 219.935 195.576 220.542 195.616 221.075C195.694 221.602 195.912 222.097 196.246 222.511C196.581 222.925 197.02 223.241 197.519 223.427C198.017 223.613 198.557 223.662 199.08 223.568C199.604 223.475 200.093 223.242 200.497 222.895C203.41 219.862 206.01 217.015 208.21 214.688L213.424 209.155L214.857 207.661L215.231 207.281C215.315 207.197 215.362 207.157 215.371 207.161C215.339 207.215 215.301 207.264 215.257 207.308L214.904 207.708L213.524 209.248L208.39 214.855C206.203 217.215 203.657 220.042 200.71 223.142C200.278 223.512 199.76 223.766 199.203 223.882C198.768 223.963 198.32 223.957 197.887 223.865C197.453 223.772 197.043 223.595 196.678 223.344C196.313 223.092 196.001 222.771 195.761 222.399C195.52 222.027 195.356 221.611 195.276 221.175C195.228 220.586 195.212 219.993 195.23 219.402V217.622C195.23 216.428 195.23 215.222 195.23 213.995C195.23 211.548 195.23 209.155 195.23 206.841C195.211 206.263 195.229 205.684 195.283 205.108C195.368 204.527 195.579 203.971 195.903 203.481C196.219 203.009 196.631 202.609 197.113 202.306C197.594 202.004 198.134 201.807 198.696 201.728C199.226 201.685 199.758 201.672 200.29 201.688H204.743H209.997H212.29C212.984 201.63 213.683 201.724 214.337 201.961C214.851 202.19 215.297 202.547 215.633 202.997C215.969 203.448 216.184 203.977 216.257 204.535C216.343 205.231 216.19 205.936 215.824 206.535C215.734 206.693 215.624 206.838 215.497 206.968C215.467 207.038 215.427 207.103 215.377 207.161Z" fill="#263238"/>
<path d="M189.343 219.489C189.335 219.427 189.335 219.364 189.343 219.302C189.343 219.155 189.343 218.969 189.343 218.735C189.343 218.222 189.343 217.495 189.309 216.582C189.309 214.682 189.276 211.975 189.256 208.648C189.256 207.808 189.256 206.928 189.256 206.015C189.285 205.557 189.218 205.098 189.06 204.667C188.902 204.237 188.655 203.844 188.336 203.515C187.989 203.168 187.571 202.903 187.11 202.737C186.649 202.571 186.157 202.509 185.669 202.555H182.436H175.489H173.662C173.07 202.511 172.477 202.614 171.935 202.855C171.391 203.112 170.93 203.519 170.607 204.027C170.284 204.536 170.111 205.125 170.108 205.728C170.108 208.281 170.108 210.775 170.108 213.188V216.735C170.108 217.315 170.108 217.889 170.108 218.455C170.087 219.005 170.107 219.555 170.168 220.102C170.273 220.608 170.498 221.082 170.824 221.484C171.15 221.885 171.568 222.203 172.042 222.409C172.502 222.599 172.998 222.687 173.495 222.669H174.995H180.476H184.996C185.606 222.714 186.218 222.689 186.823 222.595C187.312 222.479 187.769 222.251 188.156 221.929C188.707 221.474 189.097 220.855 189.269 220.162C189.383 219.689 189.369 219.422 189.389 219.422C189.41 219.674 189.392 219.928 189.336 220.175C189.204 220.796 188.901 221.367 188.46 221.824C188.019 222.28 187.458 222.603 186.843 222.755C186.226 222.859 185.6 222.897 184.976 222.869H180.456H174.975H173.429C172.889 222.926 172.343 222.867 171.829 222.695C171.308 222.471 170.849 222.125 170.489 221.686C170.13 221.248 169.88 220.73 169.762 220.175C169.695 219.607 169.67 219.034 169.688 218.462V216.742C169.688 215.582 169.688 214.402 169.688 213.195V205.748C169.687 205.083 169.874 204.431 170.228 203.868C170.582 203.305 171.088 202.854 171.689 202.568C172.276 202.303 172.919 202.186 173.562 202.228H185.563C186.091 202.186 186.623 202.26 187.12 202.444C187.617 202.628 188.069 202.918 188.443 203.295C188.784 203.653 189.047 204.077 189.215 204.542C189.384 205.007 189.455 205.501 189.423 205.995C189.423 206.908 189.423 207.788 189.423 208.628C189.423 211.962 189.383 214.662 189.369 216.562C189.369 217.475 189.369 218.202 189.336 218.715V219.282C189.348 219.35 189.351 219.42 189.343 219.489Z" fill="#263238"/>
<path d="M129.546 220.289C129.538 220.225 129.538 220.16 129.546 220.095C129.546 219.949 129.546 219.762 129.546 219.535C129.546 219.015 129.546 218.295 129.513 217.375C129.513 215.475 129.513 212.775 129.46 209.442C129.46 208.602 129.46 207.728 129.46 206.815C129.489 206.357 129.423 205.898 129.264 205.467C129.106 205.037 128.859 204.644 128.54 204.315C128.194 203.967 127.775 203.701 127.314 203.533C126.853 203.366 126.361 203.303 125.873 203.348H122.639H113.826C113.234 203.307 112.64 203.412 112.099 203.655C111.554 203.911 111.094 204.316 110.77 204.823C110.447 205.331 110.274 205.92 110.272 206.521C110.272 209.082 110.272 211.575 110.272 213.982V217.535C110.272 218.115 110.272 218.689 110.272 219.255C110.251 219.803 110.271 220.351 110.332 220.895C110.436 221.402 110.66 221.877 110.986 222.278C111.312 222.68 111.731 222.997 112.206 223.202C112.666 223.392 113.161 223.481 113.659 223.462H115.159H120.639H125.159C125.77 223.502 126.382 223.475 126.986 223.382C127.477 223.269 127.934 223.04 128.32 222.716C128.87 222.261 129.261 221.642 129.433 220.949C129.546 220.475 129.533 220.209 129.553 220.215C129.574 220.468 129.556 220.722 129.5 220.969C129.372 221.591 129.07 222.163 128.628 222.619C128.186 223.075 127.624 223.395 127.006 223.542C126.391 223.652 125.764 223.69 125.139 223.656H120.619H115.139H113.639C113.101 223.674 112.564 223.579 112.066 223.376C111.544 223.153 111.083 222.807 110.724 222.369C110.364 221.93 110.115 221.411 109.999 220.855C109.931 220.289 109.907 219.719 109.925 219.149V217.429C109.925 216.269 109.925 215.082 109.925 213.875V206.541C109.925 205.877 110.113 205.226 110.467 204.663C110.821 204.1 111.326 203.649 111.926 203.361C112.512 203.095 113.156 202.98 113.799 203.028H115.626H122.573H125.826C126.355 202.984 126.887 203.057 127.385 203.241C127.882 203.426 128.334 203.717 128.706 204.095C129.048 204.452 129.311 204.877 129.48 205.342C129.649 205.807 129.719 206.301 129.686 206.795C129.686 207.708 129.686 208.582 129.686 209.422C129.686 212.755 129.646 215.455 129.633 217.355C129.633 218.275 129.633 218.995 129.6 219.515C129.6 219.742 129.6 219.929 129.6 220.075C129.593 220.149 129.575 220.221 129.546 220.289Z" fill="#263238"/>
<path d="M104.019 221.409C104.013 221.349 104.013 221.289 104.019 221.229V220.689C104.019 220.189 104.019 219.495 103.985 218.622C103.985 216.795 103.952 214.208 103.932 211.015C103.932 210.215 103.932 209.368 103.932 208.495V207.161C103.948 206.715 103.921 206.269 103.852 205.828C103.67 204.897 103.138 204.072 102.365 203.521C101.965 203.236 101.512 203.034 101.032 202.928C100.529 202.835 100.016 202.804 99.5052 202.834H87.5047C86.9101 202.807 86.3143 202.834 85.7246 202.914C85.1653 203.045 84.6555 203.334 84.256 203.747C83.8564 204.159 83.584 204.678 83.4711 205.241C83.3573 205.792 83.4036 206.363 83.6045 206.888C83.8309 207.404 84.1598 207.869 84.5712 208.255L89.0981 213.142L96.7451 221.429L98.2985 223.115L98.6585 223.509L99.0252 223.855C99.1586 223.949 99.2986 224.035 99.4252 224.129L99.8586 224.322C100.362 224.499 100.901 224.546 101.427 224.457C101.953 224.369 102.448 224.148 102.865 223.815C103.399 223.39 103.774 222.799 103.932 222.135C104.045 221.682 104.032 221.429 104.052 221.429C104.06 221.491 104.06 221.553 104.052 221.615C104.053 221.795 104.035 221.973 103.999 222.149C103.863 222.845 103.488 223.473 102.939 223.922C102.508 224.282 101.991 224.525 101.439 224.628C100.886 224.731 100.317 224.69 99.7852 224.509L99.3252 224.302L98.8919 224.016L98.4919 223.655L98.1252 223.269L96.5584 221.595L88.8314 213.362L84.2912 208.488C83.8479 208.075 83.494 207.576 83.2511 207.021C83.0264 206.435 82.9754 205.796 83.1045 205.181C83.23 204.553 83.5338 203.975 83.9795 203.515C84.4253 203.055 84.9941 202.733 85.6179 202.588C86.231 202.495 86.852 202.464 87.4713 202.494H92.8049H99.4719C100.008 202.467 100.545 202.503 101.072 202.601C101.829 202.775 102.519 203.166 103.058 203.726C103.597 204.286 103.961 204.991 104.105 205.755C104.173 206.223 104.196 206.696 104.172 207.168C104.172 207.621 104.172 208.068 104.172 208.501C104.172 209.375 104.172 210.222 104.172 211.022C104.172 214.215 104.125 216.802 104.119 218.629C104.119 219.502 104.119 220.195 104.085 220.695V221.235C104.072 221.296 104.049 221.355 104.019 221.409Z" fill="#263238"/>
<path d="M212.964 195.521L213.817 195.554L214.871 195.607L216.311 195.854C216.6 195.898 216.883 195.972 217.157 196.074L218.091 196.374C218.423 196.507 218.748 196.658 219.064 196.828L219.577 197.081C219.738 197.188 219.898 197.308 220.064 197.428C221.637 198.472 222.774 200.056 223.258 201.881C223.541 202.968 223.614 204.1 223.471 205.215C223.292 206.434 222.904 207.614 222.324 208.701C221.703 209.887 220.915 210.979 219.984 211.942L216.964 215.015C214.877 217.142 212.644 219.409 210.244 221.789C209.044 222.982 207.804 224.195 206.504 225.416C205.837 226.022 205.17 226.642 204.503 227.242C203.807 227.867 203.048 228.416 202.237 228.882C200.549 229.847 198.668 230.423 196.73 230.569C195.736 230.642 194.73 230.602 193.743 230.616H190.709H177.956H149.808H118.713H100.158C99.4484 230.629 98.7386 230.575 98.0384 230.456C96.6244 230.207 95.2806 229.657 94.0982 228.842C93.5034 228.438 92.9556 227.968 92.4648 227.442L90.9914 225.909L88.0313 222.822L82.1176 216.695L79.1908 213.648C78.7041 213.142 78.2108 212.642 77.7708 212.088C77.5508 211.808 77.3107 211.548 77.1041 211.262L76.5374 210.368L76.2574 209.915L76.0374 209.435L75.604 208.468L75.3106 207.455L75.164 206.948L75.0973 206.428C74.866 205.04 74.9549 203.617 75.3573 202.268C75.7537 200.939 76.4366 199.712 77.3582 198.676C78.2797 197.639 79.4173 196.817 80.6909 196.267C81.3215 196.004 81.9755 195.801 82.6443 195.661C82.9777 195.594 83.311 195.514 83.6444 195.461L84.6578 195.387C85.3245 195.327 85.9912 195.354 86.6579 195.347H111.732L164.402 195.387L199.91 195.441L209.564 195.474H212.077H212.931H212.077H209.564H199.91L164.402 195.534L111.732 195.567H86.6912C86.0245 195.567 85.3578 195.567 84.6911 195.607L83.7044 195.674C83.3777 195.727 83.0377 195.807 82.731 195.867C82.0848 196.005 81.4531 196.204 80.8442 196.461C79.6127 196.986 78.5116 197.775 77.6188 198.773C76.7259 199.771 76.0632 200.952 75.6773 202.234C75.2914 203.532 75.207 204.9 75.4307 206.235L75.4973 206.741L75.6373 207.228L75.924 208.208L76.344 209.148L76.5574 209.615L76.8307 210.048L77.3774 210.922C77.5774 211.202 77.8174 211.455 78.0441 211.722C78.4862 212.261 78.9557 212.777 79.4509 213.268C80.4176 214.282 81.3976 215.268 82.371 216.308L88.2846 222.455L91.2447 225.542C92.1673 226.603 93.1898 227.572 94.2982 228.436C95.442 229.22 96.7397 229.752 98.1051 229.996C98.7852 230.113 99.4751 230.165 100.165 230.149H149.828H177.976H193.763C194.77 230.149 195.763 230.182 196.73 230.116C198.632 229.973 200.478 229.411 202.137 228.469C203.672 227.492 205.093 226.345 206.37 225.049C207.704 223.829 208.917 222.615 210.117 221.435C212.517 219.062 214.784 216.768 216.851 214.682L219.878 211.615C220.803 210.668 221.587 209.592 222.204 208.421C222.778 207.352 223.165 206.194 223.351 204.995C223.492 203.905 223.424 202.799 223.151 201.734C222.68 199.936 221.571 198.37 220.031 197.328L219.551 196.988L219.044 196.734C218.732 196.565 218.412 196.411 218.084 196.274L217.164 195.967C216.893 195.863 216.611 195.787 216.324 195.741L214.891 195.474L213.844 195.407C213.251 195.554 212.964 195.521 212.964 195.521Z" fill="#263238"/>
<path d="M191.33 199.061C191.33 199.154 168.128 199.234 139.514 199.234C110.899 199.234 87.6913 199.154 87.6913 199.061C87.6913 198.968 110.886 198.888 139.514 198.888C168.142 198.888 191.33 198.961 191.33 199.061Z" fill="white"/>
<path d="M127.006 185.747L130.247 185.327C130.78 185.447 144.027 189.214 144.027 189.214L148.547 194.494C148.414 194.764 148.193 194.981 147.921 195.109C147.648 195.237 147.341 195.27 147.047 195.201C146.256 195.09 145.539 194.677 145.047 194.047L142.814 191.854L139.194 190.641L143.094 193.394L146.494 197.494C146.494 197.494 146.387 198.421 145.647 198.601C144.907 198.781 144.141 197.834 144.141 197.834C144.141 197.834 143.974 199.021 143.181 199.121C142.387 199.221 138.454 197.061 138.454 197.061C138.454 197.061 135.707 194.961 135.787 195.121C135.867 195.281 137.98 197.341 137.98 197.341C137.98 197.341 141.174 199.161 141.04 199.761C141.008 199.949 140.935 200.128 140.826 200.286C140.718 200.443 140.578 200.576 140.414 200.674C140.247 200.774 136.267 198.674 135.56 198.408C134.853 198.141 128.693 194.307 128.693 194.307L125.893 191.581L127.006 185.747Z" fill="#FFAAA5"/>
<path d="M137.16 193.087C137.476 193.365 137.834 193.59 138.22 193.754C139.114 194.22 139.982 194.735 140.82 195.294C141.754 195.994 142.527 196.761 143.147 197.241C143.459 197.527 143.82 197.753 144.214 197.908C143.933 197.593 143.628 197.3 143.301 197.034C142.577 196.314 141.816 195.633 141.02 194.994C140.177 194.423 139.284 193.928 138.354 193.514C137.971 193.332 137.571 193.19 137.16 193.087Z" fill="#C75B54"/>
<path d="M48.3692 143.358C44.3477 139.26 39.4659 136.107 34.0769 134.126C28.6878 132.145 22.926 131.387 17.2078 131.904C20.6479 145.025 26.5415 156.899 36.542 166.026C39.539 168.867 42.963 171.22 46.6892 173C50.4414 174.792 54.6386 175.439 58.7564 174.86C59.4623 169.168 58.8968 163.39 57.1006 157.943C55.3044 152.495 52.3224 147.514 48.3692 143.358Z" fill="#455A64"/>
<path d="M58.2829 174.186L58.1429 174.113L57.7629 173.886C57.4295 173.673 56.9295 173.38 56.3162 172.953C54.5706 171.771 52.8883 170.498 51.2759 169.14C48.8964 167.117 46.6306 164.965 44.4889 162.693C42.0421 160.152 39.4887 157.226 36.8752 154.106L29.5416 145.265C27.2748 142.598 25.1814 140.185 23.3613 138.238C21.5412 136.291 20.0278 134.771 18.9277 133.745C18.3944 133.225 17.961 132.838 17.681 132.565L17.361 132.258C17.2943 132.185 17.2543 132.145 17.261 132.138C17.3067 132.164 17.3493 132.195 17.3876 132.231L17.7277 132.511C18.0277 132.771 18.4744 133.138 19.0211 133.645C20.1344 134.645 21.6879 136.145 23.5346 138.071C25.3814 139.998 27.5348 142.372 29.7816 145.065C32.0283 147.759 34.5218 150.759 37.1153 153.879C39.7087 156.999 42.2622 159.926 44.6889 162.473C46.8291 164.743 49.0833 166.904 51.4426 168.946C53.4427 170.673 55.1828 171.98 56.4028 172.84C57.0029 173.28 57.4895 173.586 57.8096 173.82L58.1696 174.08C58.2116 174.111 58.2497 174.146 58.2829 174.186Z" fill="#263238"/>
<path d="M65.8235 139.685C66.0016 138.618 65.8724 137.522 65.451 136.526C65.0295 135.529 64.3332 134.673 63.4434 134.058C63.2434 133.925 63.0167 133.785 62.95 133.551C62.914 133.346 62.9419 133.134 63.03 132.945C63.2126 132.399 63.282 131.822 63.2338 131.249C63.1857 130.676 63.021 130.118 62.75 129.611C62.4733 129.11 62.0693 128.691 61.5789 128.396C61.0884 128.101 60.5288 127.941 59.9565 127.931C60.7432 126.358 59.6965 124.257 58.0364 123.664C57.1916 123.411 56.2903 123.418 55.4496 123.685C54.609 123.951 53.8679 124.464 53.3229 125.158C53.1896 124.635 52.891 124.17 52.4717 123.831C52.0524 123.492 51.5348 123.298 50.9961 123.277C49.9174 123.264 48.8639 123.603 47.996 124.244C46.7959 125.044 45.6825 126.338 45.9225 127.764C45.2558 127.178 44.2091 127.358 43.4424 127.764C42.416 128.396 41.6624 129.388 41.3294 130.546C40.9964 131.704 41.108 132.945 41.6423 134.025C40.7316 134.085 39.8623 134.427 39.1555 135.005C38.8124 135.304 38.5779 135.708 38.4886 136.154C38.3994 136.6 38.4604 137.064 38.6622 137.471C38.2271 137.366 37.7724 137.372 37.3402 137.488C36.9079 137.605 36.5119 137.828 36.1887 138.138C35.6642 138.517 35.2649 139.044 35.042 139.652C34.9395 139.959 34.9337 140.291 35.0255 140.602C35.1173 140.913 35.3022 141.189 35.5554 141.392C34.9215 141.604 34.3978 142.059 34.0996 142.657C33.8014 143.256 33.7531 143.948 33.9653 144.582C34.1775 145.216 34.6328 145.739 35.2311 146.038C35.8293 146.336 36.5216 146.384 37.1555 146.172C36.9974 146.698 36.9763 147.255 37.0942 147.791C37.2121 148.327 37.4651 148.824 37.8292 149.235C38.1932 149.646 38.6563 149.957 39.1743 150.138C39.6923 150.32 40.2481 150.366 40.789 150.272C40.712 150.386 40.6627 150.516 40.645 150.652C40.6274 150.788 40.6418 150.926 40.6871 151.056C40.7325 151.186 40.8075 151.303 40.9062 151.398C41.0049 151.494 41.1246 151.565 41.2556 151.605C41.5195 151.672 41.7953 151.675 42.0606 151.615C42.3259 151.555 42.5732 151.433 42.7824 151.259L46.1959 155.739C46.8767 156.744 47.714 157.633 48.676 158.372C49.1571 158.743 49.718 158.996 50.314 159.111C50.91 159.227 51.5247 159.202 52.1095 159.039" fill="#263238"/>
<path d="M62.4899 135.391C59.5497 131.925 52.9294 131.204 49.6093 134.278L39.5754 145.238L41.0688 147.165L61.3554 169.709L74.1204 162.494L70.9236 158.426C70.9236 158.426 74.9771 154.206 71.4103 147.425C69.6102 144.078 65.77 139.245 62.4899 135.391Z" fill="#FFAAA5"/>
<path d="M64.7902 141.852C64.9415 142.051 65.0094 142.302 64.9795 142.551C64.9497 142.799 64.8244 143.027 64.6302 143.185C64.5372 143.268 64.4283 143.332 64.3101 143.372C64.1919 143.413 64.0667 143.429 63.9422 143.419C63.8176 143.41 63.6963 143.375 63.5854 143.318C63.4745 143.261 63.3763 143.181 63.2968 143.085C63.1455 142.885 63.0776 142.635 63.1075 142.386C63.1373 142.137 63.2626 141.91 63.4568 141.752C63.5498 141.668 63.6587 141.605 63.7769 141.564C63.8951 141.524 64.0203 141.508 64.1448 141.517C64.2694 141.527 64.3907 141.561 64.5016 141.619C64.6126 141.676 64.7107 141.755 64.7902 141.852Z" fill="#263238"/>
<path d="M63.35 138.758C63.35 138.932 62.4166 138.938 61.5832 139.558C60.7499 140.178 60.4565 141.058 60.2898 141.018C60.1232 140.978 60.1698 140.752 60.2898 140.352C60.4653 139.834 60.7958 139.382 61.2366 139.058C61.668 138.73 62.1948 138.552 62.7366 138.551C63.1567 138.565 63.3633 138.691 63.35 138.758Z" fill="#263238"/>
<path d="M57.703 147.685C57.856 147.884 57.9249 148.135 57.895 148.385C57.8651 148.634 57.7387 148.861 57.543 149.019C57.4496 149.102 57.3404 149.165 57.2219 149.205C57.1034 149.244 56.9782 149.26 56.8536 149.25C56.729 149.24 56.6078 149.205 56.4971 149.147C56.3865 149.089 56.2887 149.009 56.2096 148.912C56.0583 148.712 55.9905 148.462 56.0203 148.213C56.0502 147.964 56.1754 147.737 56.3697 147.579C56.4631 147.496 56.5723 147.432 56.6908 147.393C56.8093 147.353 56.9345 147.338 57.0591 147.348C57.1837 147.358 57.3049 147.393 57.4156 147.451C57.5262 147.509 57.624 147.588 57.703 147.685Z" fill="#263238"/>
<path d="M55.4296 145.185C55.4296 145.358 54.4962 145.358 53.6628 145.985C52.8295 146.612 52.5361 147.479 52.3694 147.445C52.2028 147.412 52.2494 147.179 52.3694 146.779C52.5437 146.258 52.8743 145.804 53.3161 145.478C53.7507 145.157 54.2755 144.979 54.8162 144.972C55.2162 144.985 55.4429 145.105 55.4296 145.185Z" fill="#263238"/>
<path d="M62.93 148.972C63.2666 148.506 63.6609 148.085 64.1034 147.719C64.2967 147.539 64.4701 147.345 64.3968 147.172C64.3234 146.999 64.0701 146.819 63.7834 146.645L61.9366 145.485C59.3298 143.825 57.2697 142.392 57.3431 142.285C57.4164 142.178 59.5765 143.445 62.1833 145.112L64.0034 146.298C64.2701 146.485 64.6101 146.652 64.7434 147.052C64.7684 147.15 64.7706 147.253 64.7498 147.352C64.729 147.452 64.6858 147.545 64.6234 147.625C64.5342 147.748 64.4262 147.856 64.3034 147.945C63.8928 148.346 63.431 148.692 62.93 148.972Z" fill="#263238"/>
<path d="M64.0834 151.252C63.7757 151.171 63.4525 151.169 63.1437 151.246C62.8349 151.323 62.5504 151.476 62.3166 151.692C62.1465 151.848 62.0089 152.036 61.9116 152.246C61.8144 152.455 61.7594 152.681 61.7499 152.912C61.7437 153.133 61.8039 153.351 61.9228 153.538C62.0416 153.724 62.2136 153.871 62.4166 153.959C62.6675 154.017 62.93 153.996 63.1685 153.899C63.4071 153.803 63.6101 153.635 63.75 153.419C64.0404 152.985 64.2421 152.498 64.3434 151.985C64.3834 151.849 64.4014 151.707 64.3967 151.565C64.3921 151.496 64.3677 151.43 64.3263 151.374C64.2849 151.319 64.2283 151.276 64.1634 151.252" fill="#C75B54"/>
<path d="M60.9101 151.359C61.0368 151.252 61.7168 152.159 62.9769 152.225C64.2369 152.292 65.117 151.472 65.2236 151.599C65.3303 151.725 65.137 151.932 64.737 152.265C64.214 152.67 63.5641 152.876 62.9035 152.845C62.2666 152.814 61.6666 152.537 61.2301 152.072C60.9101 151.719 60.8434 151.419 60.9101 151.359Z" fill="#263238"/>
<path d="M53.4497 142.025C53.5363 142.312 52.623 142.825 51.7362 143.672C50.8495 144.518 50.2562 145.372 49.9695 145.265C49.8428 145.212 49.8162 144.898 49.9695 144.438C50.1918 143.849 50.5478 143.32 51.0095 142.892C51.466 142.459 52.0191 142.141 52.623 141.965C53.0896 141.832 53.403 141.872 53.4497 142.025Z" fill="#263238"/>
<path d="M61.2366 136.571C61.2366 136.865 60.5099 137.098 59.8099 137.605C59.1099 138.111 58.6298 138.678 58.3498 138.585C58.2165 138.531 58.1698 138.271 58.2898 137.918C58.4712 137.446 58.7898 137.04 59.2046 136.751C59.6194 136.462 60.1112 136.304 60.6166 136.298C61.0033 136.291 61.23 136.425 61.2366 136.571Z" fill="#263238"/>
<path d="M54.7962 130.264C55.4107 130.67 55.8887 131.251 56.1678 131.932C56.447 132.613 56.5143 133.362 56.3609 134.082C56.2076 134.802 55.8407 135.459 55.3082 135.968C54.7758 136.476 54.1024 136.812 53.3761 136.931C53.7155 137.008 54.0149 137.206 54.2177 137.489C54.4205 137.772 54.5125 138.119 54.4762 138.465C54.3737 139.158 54.0025 139.783 53.4428 140.205C52.881 140.672 52.2252 141.013 51.52 141.204C50.8148 141.395 50.0767 141.431 49.3559 141.312C49.646 141.82 49.8111 142.391 49.8377 142.976C49.8643 143.561 49.7515 144.144 49.5087 144.678C49.2659 145.211 48.9 145.679 48.4411 146.043C47.9823 146.407 47.4435 146.657 46.8691 146.772C47.3941 146.834 47.8974 147.017 48.3392 147.307C48.7809 147.597 49.1489 147.987 49.4139 148.444C49.679 148.901 49.8337 149.414 49.866 149.942C49.8982 150.469 49.8069 150.997 49.5995 151.483C49.3921 151.969 49.0742 152.4 48.671 152.742C48.2679 153.084 47.7906 153.327 47.277 153.452C46.7635 153.577 46.2278 153.581 45.7126 153.463C45.1974 153.345 44.7168 153.108 44.309 152.772C43.7392 152.909 43.1453 152.914 42.5735 152.785C42.0017 152.656 41.4673 152.397 41.0116 152.028C40.5558 151.659 40.1911 151.191 39.9455 150.659C39.7 150.126 39.5802 149.545 39.5955 148.959C39.2115 149.069 38.8052 149.078 38.4169 148.983C38.0287 148.888 37.6719 148.694 37.382 148.419C36.8068 147.858 36.3884 147.157 36.1686 146.385C35.8279 145.469 35.6753 144.495 35.72 143.519C35.7647 142.543 36.0057 141.586 36.4287 140.705C36.873 139.835 37.5693 139.118 38.4268 138.65C39.2843 138.181 40.2631 137.982 41.2355 138.078C41.4521 138.149 41.6857 138.149 41.9022 138.078C42.0207 137.986 42.1158 137.868 42.1795 137.732C42.2433 137.597 42.2739 137.448 42.2689 137.298C42.4223 135.965 42.5689 134.565 43.3823 133.511C43.894 132.886 44.6023 132.453 45.3917 132.283C46.1811 132.112 47.005 132.214 47.7292 132.571C47.6104 131.683 47.7818 130.779 48.2179 129.996C48.654 129.213 49.3314 128.591 50.1493 128.224C51.816 127.558 54.0095 128.638 54.3162 130.398" fill="#263238"/>
<path d="M47.5694 153.632C47.4694 153.632 43.7226 154.839 45.9827 157.966C48.2428 161.093 50.9096 158.199 50.8496 158.106C50.7896 158.012 47.5694 153.632 47.5694 153.632Z" fill="#FFAAA5"/>
<path d="M49.0428 157.606C49.0428 157.606 49.0427 157.679 48.9561 157.792C48.8667 157.941 48.7233 158.048 48.5561 158.092C48.2639 158.111 47.9719 158.053 47.7089 157.924C47.4459 157.796 47.2209 157.601 47.056 157.359C46.855 157.098 46.7159 156.795 46.6493 156.472C46.6066 156.354 46.594 156.227 46.6126 156.102C46.6312 155.978 46.6805 155.86 46.756 155.759C46.8058 155.697 46.8762 155.655 46.9545 155.64C47.0328 155.625 47.1137 155.639 47.1827 155.679C47.2893 155.732 47.3093 155.812 47.3293 155.806C47.3493 155.799 47.3293 155.706 47.2427 155.592C47.1688 155.527 47.0745 155.489 46.976 155.486C46.8455 155.484 46.7192 155.531 46.6226 155.619C46.5119 155.738 46.4335 155.883 46.395 156.04C46.3565 156.198 46.3591 156.363 46.4026 156.519C46.465 156.885 46.6161 157.231 46.8426 157.526C47.0301 157.814 47.2978 158.042 47.6129 158.181C47.9279 158.319 48.2766 158.363 48.6161 158.306C48.7169 158.27 48.8083 158.212 48.8833 158.136C48.9584 158.059 49.0152 157.967 49.0494 157.866C49.0894 157.686 49.0561 157.606 49.0428 157.606Z" fill="#C75B54"/>
<path d="M48.7494 140.805L48.8627 140.758L49.1827 140.585C49.5791 140.363 49.9445 140.089 50.2695 139.772C50.507 139.544 50.7112 139.283 50.8762 138.998C51.0828 138.668 51.2148 138.298 51.2628 137.911C51.3217 137.461 51.269 137.003 51.1095 136.578C50.9311 136.105 50.5878 135.712 50.1428 135.471V135.631C51.2376 135.613 52.2962 135.236 53.1563 134.558C53.6295 134.189 54.0317 133.737 54.343 133.225C54.5107 132.959 54.6345 132.669 54.7097 132.365C54.8028 132.049 54.8028 131.713 54.7097 131.398C54.5839 131.04 54.3814 130.715 54.1163 130.444C53.8655 130.185 53.5959 129.944 53.3096 129.724C53.0368 129.497 52.7311 129.313 52.4029 129.178C52.24 129.102 52.0625 129.063 51.8829 129.063C51.7032 129.063 51.5257 129.102 51.3628 129.178L51.4362 129.351C52.0733 129.117 52.615 128.679 52.9763 128.104C53.3085 127.586 53.4908 126.986 53.5029 126.371C53.5091 125.822 53.3512 125.283 53.0496 124.824C52.7918 124.436 52.4529 124.108 52.0562 123.864C51.4946 123.513 50.8369 123.348 50.1761 123.391C49.9469 123.404 49.7216 123.456 49.5094 123.544C49.7298 123.501 49.9524 123.47 50.1761 123.451C50.8166 123.434 51.4471 123.613 51.9829 123.964C52.3628 124.202 52.6859 124.521 52.9296 124.897C53.2082 125.337 53.3498 125.85 53.3363 126.371C53.3189 126.954 53.1413 127.522 52.8229 128.011C52.4824 128.55 51.9704 128.958 51.3695 129.171L51.4495 129.344C51.5868 129.278 51.7372 129.244 51.8895 129.244C52.0419 129.244 52.1923 129.278 52.3296 129.344C52.6391 129.473 52.9269 129.648 53.1829 129.864C53.7685 130.251 54.2312 130.797 54.5163 131.438C54.5895 131.723 54.5987 132.021 54.5434 132.31C54.4881 132.6 54.3696 132.873 54.1963 133.111C53.7701 133.807 53.1778 134.385 52.4726 134.795C51.7673 135.204 50.9713 135.432 50.1561 135.458H49.7561L50.0695 135.611C50.4835 135.828 50.8037 136.188 50.9695 136.625C51.1337 137.026 51.1977 137.46 51.1562 137.891C51.1127 138.261 50.9924 138.618 50.8028 138.938C50.6451 139.215 50.4524 139.471 50.2295 139.698C49.9054 140.021 49.5452 140.305 49.1561 140.545C49.0143 140.622 48.8784 140.708 48.7494 140.805Z" fill="white"/>
<path d="M57.2632 132.351C57.2632 132.351 57.3632 132.351 57.5432 132.298C57.7894 132.209 58.0159 132.074 58.2099 131.898C58.5134 131.641 58.73 131.296 58.8299 130.911C58.895 130.668 58.8614 130.409 58.7366 130.191C58.6663 130.069 58.5621 129.97 58.4367 129.906C58.3112 129.842 58.1699 129.816 58.0299 129.831L58.0765 130.018H58.1432C58.5572 129.858 58.9312 129.609 59.2387 129.288C59.5462 128.968 59.7799 128.585 59.9233 128.164C60.0106 127.913 60.0578 127.65 60.0633 127.384C60.0787 127.289 60.0787 127.193 60.0633 127.098C60.013 127.445 59.9304 127.786 59.8166 128.118C59.6638 128.506 59.4329 128.859 59.1382 129.155C58.8435 129.451 58.4912 129.683 58.1032 129.838H58.0432L57.1565 130.184L58.0899 130.024C58.1925 130.017 58.2951 130.039 58.3859 130.087C58.4767 130.136 58.552 130.209 58.6032 130.298C58.7022 130.474 58.7308 130.681 58.6832 130.878C58.5989 131.233 58.4109 131.556 58.1432 131.805C57.8806 132.032 57.5836 132.217 57.2632 132.351Z" fill="white"/>
<path d="M59.9432 170.406C59.9432 170.406 66.5436 169.5 70.0171 166.826C71.9718 165.377 73.8251 163.795 75.564 162.093L73.8039 161.726C73.8039 161.726 69.097 166.746 60.4166 168.92L59.9432 170.406Z" fill="#E0E0E0"/>
<path d="M61.0231 169.693C61.0187 169.772 61.0053 169.85 60.9831 169.926C60.9304 170.153 60.8614 170.376 60.7765 170.593C60.4568 171.38 59.9778 172.093 59.3697 172.686C58.9482 173.104 58.4702 173.461 57.9497 173.746C57.7862 173.853 57.5892 173.896 57.3963 173.866C57.2934 173.836 57.2002 173.779 57.1255 173.702C57.0508 173.625 56.9971 173.53 56.9696 173.426C56.9168 173.042 57.0095 172.652 57.2296 172.333C57.5998 171.623 58.1085 170.994 58.7256 170.483C59.3428 169.972 60.056 169.59 60.8231 169.36L62.1565 168.98L60.9898 169.646C60.5701 169.894 60.1225 170.091 59.6564 170.233C57.9662 170.658 56.2109 170.76 54.4828 170.533C54.2442 170.545 54.0088 170.474 53.8161 170.333C53.7625 170.286 53.7207 170.227 53.6941 170.161C53.6674 170.095 53.6567 170.024 53.6628 169.953C53.6721 169.829 53.7185 169.71 53.7961 169.613C53.9234 169.45 54.088 169.319 54.2761 169.233C54.4375 169.144 54.6046 169.066 54.7762 169C55.5325 168.694 56.3428 168.544 57.1585 168.559C57.9741 168.574 58.7784 168.753 59.5231 169.086C59.7555 169.194 59.9785 169.321 60.1898 169.466C60.3364 169.566 60.4098 169.626 60.4031 169.64C60.3964 169.653 60.0764 169.453 59.4564 169.213C58.5875 168.873 57.6526 168.737 56.7229 168.813C56.0865 168.861 55.4624 169.014 54.8762 169.266C54.5555 169.371 54.265 169.552 54.0295 169.793C53.9361 169.926 53.9295 170.033 54.0295 170.106C54.1662 170.187 54.3244 170.224 54.4828 170.213C56.1699 170.413 57.8792 170.309 59.5297 169.906C59.9627 169.769 60.3787 169.584 60.7698 169.353L60.9098 169.666C59.4471 170.101 58.2168 171.098 57.4896 172.44C57.3104 172.692 57.2212 172.997 57.2363 173.306C57.2496 173.363 57.2766 173.416 57.315 173.46C57.3533 173.504 57.4018 173.539 57.4563 173.56C57.5815 173.572 57.707 173.539 57.8097 173.466C58.316 173.207 58.7829 172.877 59.1964 172.486C59.8023 171.919 60.2935 171.24 60.6431 170.486C60.9098 170.026 60.9965 169.686 61.0231 169.693Z" fill="#E0E0E0"/>
<path d="M59.1165 175.033C59.1165 175.033 59.0698 175.033 58.9631 175.033L58.5031 175.067C58.0964 175.067 57.5031 175.16 56.7297 175.12C54.55 175.087 52.3834 174.776 50.2827 174.193C47.1671 173.321 44.1956 171.998 41.4623 170.266C38.1187 168.157 35.0964 165.577 32.4885 162.606C29.8895 159.625 27.5999 156.389 25.6549 152.946C24.0555 150.145 22.6261 147.251 21.3747 144.278C20.308 141.745 19.5546 139.652 19.0679 138.191C18.8212 137.465 18.6545 136.858 18.5345 136.505L18.4079 136.058C18.4007 136.007 18.4007 135.956 18.4079 135.905C18.4366 135.95 18.459 136 18.4745 136.051L18.6345 136.478C18.7812 136.885 18.9812 137.445 19.2279 138.145C19.7546 139.585 20.5613 141.665 21.6347 144.178C22.9107 147.127 24.3576 149.999 25.9682 152.779C27.9166 156.194 30.199 159.408 32.7819 162.373C35.3579 165.328 38.3386 167.905 41.6356 170.026C44.339 171.751 47.2726 173.084 50.3494 173.986C52.4289 174.585 54.5738 174.928 56.7364 175.007C57.5031 175.073 58.0697 175.007 58.5031 175.007H58.9631L59.1165 175.033Z" fill="#263238"/>
<path d="M253.832 113.73C253.912 112.084 253.292 110.497 252.779 108.93C252.265 107.363 251.825 105.67 252.265 104.083C252.819 102.083 254.619 100.696 255.599 98.8629C256.579 97.0295 256.639 94.8627 256.806 92.776C256.972 90.6892 257.332 88.5024 258.706 86.9423C260.446 84.9423 265.006 84.6022 267.153 86.129C267.486 97.9295 270.28 109.883 267.759 121.417C261.962 121.644 256.216 120.26 251.159 117.417C252.759 117.124 253.759 115.357 253.832 113.73Z" fill="#263238"/>
<path d="M278.987 125.144L280.614 92.5559C280.646 91.9234 280.439 91.3019 280.033 90.8152C279.628 90.3284 279.055 90.0121 278.427 89.9292L265.126 86.1623C260.846 85.5889 257.846 90.7892 257.452 95.0894C257.012 99.863 256.666 105.717 257.132 109.297C258.066 116.51 263.546 117.584 263.546 117.584C263.546 124.684 263.393 125.211 263.393 125.211L266.106 130.798L278.987 125.144Z" fill="#FFAAA5"/>
<path d="M259.052 101.05C259.041 101.29 259.126 101.525 259.287 101.703C259.448 101.881 259.672 101.989 259.912 102.003C260.029 102.016 260.147 102.005 260.26 101.972C260.372 101.938 260.477 101.883 260.568 101.808C260.658 101.734 260.733 101.642 260.788 101.538C260.843 101.434 260.876 101.32 260.886 101.203C260.893 100.963 260.808 100.73 260.648 100.551C260.488 100.372 260.265 100.262 260.026 100.243C259.909 100.23 259.79 100.241 259.677 100.275C259.564 100.309 259.459 100.365 259.368 100.44C259.277 100.515 259.203 100.608 259.148 100.713C259.094 100.818 259.061 100.932 259.052 101.05Z" fill="#263238"/>
<path d="M258.632 98.1696C258.746 98.2962 259.459 97.7962 260.446 97.8296C261.433 97.8629 262.153 98.3762 262.259 98.2562C262.366 98.1362 262.206 97.9829 261.893 97.7429C261.473 97.433 260.967 97.2607 260.446 97.2495C259.93 97.234 259.424 97.3835 258.999 97.6762C258.686 97.9029 258.579 98.1162 258.632 98.1696Z" fill="#263238"/>
<path d="M267.453 101.356C267.442 101.596 267.526 101.831 267.687 102.01C267.848 102.188 268.073 102.296 268.313 102.31C268.43 102.322 268.548 102.31 268.661 102.276C268.774 102.242 268.878 102.185 268.969 102.11C269.059 102.035 269.134 101.943 269.189 101.839C269.243 101.734 269.276 101.62 269.287 101.503C269.297 101.263 269.213 101.028 269.052 100.85C268.891 100.671 268.666 100.563 268.426 100.55C268.309 100.538 268.191 100.549 268.079 100.583C267.966 100.618 267.861 100.674 267.771 100.749C267.68 100.824 267.605 100.917 267.551 101.021C267.496 101.125 267.463 101.239 267.453 101.356Z" fill="#263238"/>
<path d="M268.366 98.6296C268.479 98.7563 269.193 98.2562 270.18 98.2896C271.166 98.3229 271.88 98.8362 271.993 98.7162C272.106 98.5962 271.94 98.4429 271.626 98.2029C271.205 97.8966 270.7 97.7267 270.18 97.7162C269.665 97.6992 269.158 97.8463 268.733 98.1362C268.419 98.3629 268.313 98.5762 268.366 98.6296Z" fill="#263238"/>
<path d="M264.559 105.877C264.042 105.7 263.504 105.588 262.959 105.543C262.706 105.51 262.472 105.45 262.432 105.277C262.419 105.014 262.487 104.753 262.626 104.53L263.426 102.623C264.546 99.9096 265.359 97.6762 265.253 97.6362C265.146 97.5962 264.146 99.7563 263.026 102.47C262.759 103.136 262.499 103.803 262.259 104.383C262.089 104.684 262.032 105.037 262.099 105.377C262.133 105.467 262.187 105.549 262.257 105.615C262.328 105.681 262.413 105.729 262.506 105.757C262.645 105.798 262.788 105.822 262.932 105.83C263.471 105.912 264.017 105.928 264.559 105.877Z" fill="#263238"/>
<path d="M263.546 117.584C266.925 117.73 270.278 116.936 273.233 115.29C273.66 114.297 271.306 118.871 263.506 119.464L263.546 117.584Z" fill="#FF8262"/>
<path d="M264.639 108.237C264.871 107.915 265.179 107.655 265.534 107.479C265.89 107.304 266.283 107.218 266.68 107.23C266.938 107.24 267.189 107.314 267.413 107.444C267.636 107.574 267.824 107.757 267.96 107.977C268.113 108.23 268.185 108.525 268.166 108.821C268.147 109.116 268.038 109.399 267.854 109.631C267.67 109.864 267.419 110.034 267.135 110.119C266.851 110.205 266.548 110.202 266.266 110.11C265.719 109.914 265.228 109.589 264.833 109.163C264.707 109.06 264.604 108.93 264.533 108.783C264.497 108.703 264.483 108.614 264.492 108.526C264.501 108.438 264.534 108.355 264.586 108.283" fill="#FF8262"/>
<path d="M267.46 106.643C267.3 106.643 267.266 107.703 266.32 108.443C265.373 109.183 264.239 109.03 264.226 109.177C264.213 109.323 264.473 109.397 264.959 109.423C265.588 109.447 266.206 109.251 266.706 108.87C267.184 108.497 267.501 107.956 267.593 107.357C267.646 106.91 267.533 106.643 267.46 106.643Z" fill="#263238"/>
<path d="M268.046 94.5427C268.133 94.8094 269.126 94.7094 270.286 94.8827C271.446 95.0561 272.373 95.4028 272.533 95.1627C272.606 95.0494 272.453 94.7961 272.08 94.496C271.587 94.1563 271.02 93.9392 270.426 93.8627C269.833 93.774 269.228 93.8265 268.659 94.016C268.226 94.2027 268.006 94.4094 268.046 94.5427Z" fill="#E0E0E0"/>
<path d="M259.079 94.7694C259.246 95.0027 259.932 94.7694 260.759 94.7694C261.586 94.7694 262.266 94.9627 262.432 94.7694C262.506 94.656 262.432 94.4294 262.106 94.2027C261.707 93.9336 261.237 93.7898 260.756 93.7898C260.275 93.7898 259.804 93.9336 259.406 94.2027C259.106 94.4294 259.006 94.6894 259.079 94.7694Z" fill="#263238"/>
<path d="M263.539 86.1156C264.773 83.1688 267.44 82.5421 270.3 82.2355C273.16 81.9288 277.4 83.1155 279.76 84.6622C281.729 85.8577 283.498 87.3561 285 89.1025C286.267 90.7359 286.834 92.6093 287.621 94.4894C288.841 97.4295 288.767 100.676 288.954 103.823C289.171 107.79 289.806 111.723 290.847 115.557C291.221 116.93 291.601 118.577 289.654 119.371C289.29 119.512 288.909 119.603 288.521 119.644C285.494 120.011 282.567 120.977 279.187 121.204H277.107C274.48 121.204 273.107 119.511 273.227 117.364C273.493 110.877 276.66 100.23 277.007 98.1829C277.013 98.1829 278.107 84.1955 263.539 86.1156Z" fill="#263238"/>
<path d="M264.499 86.0223C264.939 86.3881 265.3 86.84 265.559 87.3501C265.818 87.8603 265.97 88.418 266.006 88.9891C266.159 90.1225 266.099 91.2759 266.306 92.3959C266.529 93.519 267.018 94.5722 267.733 95.4667C268.448 96.3613 269.367 97.071 270.413 97.5362C271.08 97.8295 272 97.9429 272.413 97.3428C272.386 98.1387 272.601 98.924 273.03 99.5953C273.458 100.267 274.08 100.792 274.813 101.103C275.873 101.53 277.067 101.463 278.187 101.71C279.307 101.956 280.48 102.73 280.54 103.876L281.007 95.8761L278.767 88.8291L271.88 84.7289L264.499 86.0223Z" fill="#263238"/>
<path d="M276.7 99.1829C276.462 99.0256 276.239 98.8471 276.033 98.6496C275.517 98.079 275.144 97.3933 274.946 96.6495C274.67 95.5379 274.509 94.4007 274.466 93.256C274.413 91.8455 274.25 90.4412 273.98 89.0558C273.703 87.6555 273.056 86.3549 272.106 85.2889C271.678 84.8361 271.166 84.4695 270.6 84.2089C270.103 83.9911 269.573 83.8603 269.033 83.8222C268.246 83.759 267.46 83.9457 266.786 84.3556C266.682 84.423 266.582 84.4965 266.486 84.5756C266.414 84.6271 266.349 84.6876 266.293 84.7556C266.237 84.8063 266.185 84.8621 266.139 84.9223C266.347 84.7314 266.57 84.5575 266.806 84.4022C267.477 84.019 268.25 83.8514 269.02 83.9222C270.163 84.012 271.23 84.5313 272.006 85.3756C272.933 86.4311 273.565 87.7118 273.84 89.0891C274.11 90.4658 274.275 91.861 274.333 93.2627C274.383 94.4154 274.555 95.5596 274.846 96.6761C275.055 97.4283 275.45 98.1159 275.993 98.6762C276.196 98.8866 276.436 99.0584 276.7 99.1829Z" fill="#78AEFF"/>
<path d="M282.687 98.2229C282.326 98.1839 281.971 98.0964 281.634 97.9629C280.739 97.5288 279.979 96.8607 279.434 96.0294C279.039 95.4699 278.7 94.8738 278.42 94.2493C278.125 93.5223 277.937 92.7567 277.86 91.9759C277.76 91.1559 277.727 90.2758 277.633 89.3758C277.586 88.9143 277.512 88.4557 277.413 88.0024C277.302 87.5444 277.148 87.098 276.953 86.669C276.183 84.9937 274.809 83.6702 273.107 82.9621C271.716 82.3949 270.18 82.292 268.726 82.6688C267.757 82.9088 266.848 83.3495 266.06 83.9622C265.767 84.1847 265.499 84.4372 265.26 84.7156L265.313 84.6689L265.473 84.5222C265.54 84.4622 265.62 84.3822 265.726 84.2955C265.833 84.2089 265.946 84.1089 266.093 84.0089C266.886 83.4126 267.794 82.988 268.76 82.7621C270.192 82.4059 271.701 82.5157 273.067 83.0755C274.723 83.7773 276.063 85.0633 276.833 86.689C277.024 87.1184 277.174 87.5648 277.28 88.0224C277.375 88.463 277.449 88.908 277.5 89.3558C277.593 90.2558 277.633 91.1292 277.733 91.9559C277.816 92.7492 278.014 93.5262 278.32 94.2627C278.605 94.8908 278.951 95.4892 279.354 96.0494C279.911 96.891 280.694 97.5587 281.614 97.9762C281.867 98.0752 282.131 98.1424 282.4 98.1762H282.614L282.687 98.2229Z" fill="#455A64"/>
<path d="M272.406 97.3562V97.4228V97.6228C272.406 97.7095 272.406 97.8229 272.446 97.9495L272.54 98.3829C272.641 98.781 272.793 99.1642 272.993 99.5229C273.269 99.9989 273.639 100.414 274.08 100.743C275.301 101.544 276.759 101.904 278.213 101.763C279.078 101.727 279.937 101.595 280.773 101.37C281.689 101.141 282.568 100.786 283.387 100.316L283.553 100.223H283.367C282.324 100.072 281.311 99.7568 280.367 99.2896H280.313L280.273 99.4229C282.409 99.7666 284.597 99.374 286.48 98.3095L286.607 98.2362L286.467 98.1962C285.14 97.794 283.895 97.1622 282.787 96.3295C282.057 95.7972 281.47 95.0924 281.079 94.278C280.688 93.4636 280.505 92.565 280.547 91.6626C280.547 91.4292 280.547 91.2359 280.593 91.1025V90.9092C280.592 90.9247 280.592 90.9404 280.593 90.9559V91.1025C280.593 91.2359 280.553 91.4226 280.527 91.6626C280.49 92.3766 280.587 93.0911 280.813 93.7693C281.2 94.8027 281.867 95.7077 282.74 96.3828C283.854 97.2314 285.109 97.8769 286.447 98.2895V98.1695C284.587 99.2166 282.427 99.602 280.32 99.2629L279.86 99.1829L280.28 99.3896H280.333C281.292 99.8588 282.317 100.176 283.373 100.33V100.203C282.566 100.663 281.7 101.013 280.8 101.243C279.972 101.468 279.123 101.605 278.267 101.65C276.836 101.792 275.399 101.449 274.186 100.676C273.749 100.359 273.382 99.9547 273.106 99.4896C272.902 99.1376 272.743 98.7613 272.633 98.3695C272.633 98.2095 272.566 98.0629 272.533 97.9429C272.5 97.8229 272.5 97.7095 272.486 97.6228L272.453 97.4228L272.406 97.3562Z" fill="#455A64"/>
<path d="M287.167 116.984C287.207 116.984 286.774 113.144 286.194 108.417C285.614 103.69 285.127 99.8563 285.087 99.8563C285.047 99.8563 285.487 103.696 286.06 108.43C286.634 113.164 287.107 116.99 287.167 116.984Z" fill="#455A64"/>
<path d="M216.657 202.354C216.126 202.859 215.515 203.273 214.85 203.581C214.546 203.66 214.226 203.656 213.923 203.569C213.621 203.483 213.347 203.316 213.13 203.088L214.304 201.801C213.927 202.245 213.409 202.546 212.837 202.655C212.703 202.7 212.561 202.718 212.419 202.707C212.278 202.695 212.14 202.655 212.015 202.588C211.89 202.521 211.78 202.429 211.692 202.318C211.604 202.206 211.54 202.078 211.504 201.941C211.504 201.941 213.637 199.741 214.39 198.841C214.55 198.741 218.804 194.214 219.231 194.054L226.638 191.261L232.325 183.894L241.205 188.027C241.205 188.027 233.585 195.588 232.498 196.961C231.411 198.334 225.831 200.808 225.831 200.808L222.638 201.641L219.491 204.161C218.871 204.568 217.917 204.861 217.417 204.061C216.331 204.828 215.251 203.755 215.251 203.755L216.657 202.354Z" fill="#FFAAA5"/>
<path d="M218.191 200.801C217.073 201.632 216.088 202.628 215.27 203.755C216.388 202.924 217.372 201.928 218.191 200.801Z" fill="#C17560"/>
<path d="M219.224 196.534C218.402 197.596 217.511 198.603 216.557 199.548C215.693 200.573 214.76 201.537 213.764 202.434C214.499 201.309 215.351 200.263 216.304 199.314C217.174 198.285 218.153 197.353 219.224 196.534Z" fill="#FF8262"/>
<path d="M221.717 198.194C220.893 199.096 219.987 199.92 219.011 200.654C218.107 201.477 217.127 202.211 216.084 202.848C217.81 201.118 219.696 199.555 221.717 198.181V198.194Z" fill="#FF8262"/>
<path d="M290.501 131.791C292.56 133.656 293.938 136.155 294.414 138.892C295.834 147.072 298.788 164.406 298.621 166.279C298.394 168.74 297.161 172.66 294.368 173.333C292.598 173.73 290.763 173.73 288.994 173.333L287.041 128.664L290.501 131.791Z" fill="#78AEFF"/>
<path d="M290.232 173.863L290.232 173.879L290.235 173.894L293.124 187.279C293.124 187.279 293.124 187.279 293.124 187.279C293.991 191.312 294.507 195.405 294.665 199.518L296.258 241.138L242.476 241.848L248.545 178.931L248.545 178.931L248.545 178.926L250.61 148.015L256.456 125.38L259.99 124.422L260.073 124.399L260.095 124.316L260.809 121.657C260.811 121.656 260.813 121.655 260.814 121.653C260.848 121.631 260.899 121.598 260.966 121.556C261.101 121.472 261.303 121.35 261.568 121.204C262.099 120.912 262.886 120.521 263.902 120.126C265.935 119.337 268.889 118.535 272.569 118.488C275.12 118.508 277.608 119.233 279.727 120.573L280.191 123.253L280.202 123.317L280.256 123.352L280.338 123.227L280.256 123.352L280.256 123.353L280.257 123.353L280.26 123.355L280.272 123.363L280.319 123.394L280.499 123.513C280.654 123.617 280.878 123.766 281.15 123.948C281.694 124.312 282.432 124.81 283.206 125.344C284.762 126.415 286.447 127.619 287.028 128.18L287.028 128.18C288.311 129.419 289.107 130.459 289.583 131.186C289.82 131.55 289.978 131.835 290.075 132.029C290.124 132.126 290.157 132.199 290.179 132.248C290.184 132.261 290.189 132.272 290.193 132.281C290.195 132.286 290.197 132.291 290.199 132.295L290.232 173.863Z" fill="#78AEFF" stroke="black" stroke-width="0.299452"/>
<path d="M260.306 124.991L260.506 124.944L261.086 124.791C261.586 124.664 262.319 124.491 263.233 124.317C265.608 123.878 268.008 123.582 270.42 123.431C272.83 123.254 275.25 123.254 277.66 123.431C278.587 123.511 279.327 123.631 279.84 123.717L280.427 123.837C280.495 123.848 280.565 123.848 280.633 123.837L280.433 123.777L279.853 123.631C279.134 123.475 278.406 123.36 277.673 123.284C275.259 123.066 272.831 123.042 270.413 123.211C267.992 123.362 265.585 123.676 263.206 124.151C262.293 124.344 261.566 124.537 261.066 124.684L260.499 124.864C260.366 124.957 260.299 124.984 260.306 124.991Z" fill="#263238"/>
<g opacity="0.3">
<path opacity="0.3" d="M280.5 123.851C274.4 124.931 268.22 123.851 261.766 124.624C268 123.337 274.487 122.724 280.5 123.851Z" fill="black"/>
</g>
<path d="M290.614 135.405C290.701 135.405 290.741 144.592 290.694 155.926C290.647 167.259 290.541 176.453 290.447 176.453C290.354 176.453 290.314 167.266 290.361 155.926C290.407 144.585 290.501 135.405 290.614 135.405Z" fill="#263238"/>
<path d="M253.881 242.226C253.874 242.146 253.874 242.066 253.881 241.986C253.881 241.808 253.881 241.574 253.881 241.27C253.881 240.636 253.925 239.705 253.963 238.533C254.05 236.139 254.175 232.705 254.332 228.473C254.67 219.959 255.146 208.233 255.666 195.278C256.185 182.323 256.724 170.572 257.087 162.089C257.287 157.857 257.444 154.424 257.557 152.029C257.619 150.857 257.669 149.939 257.701 149.299C257.701 148.995 257.738 148.76 257.744 148.589C257.735 148.507 257.735 148.424 257.744 148.342C257.749 148.424 257.749 148.507 257.744 148.589C257.744 148.767 257.744 149.001 257.744 149.299C257.744 149.932 257.701 150.863 257.663 152.035C257.575 154.43 257.45 157.864 257.294 162.095C256.949 170.61 256.48 182.336 255.96 195.297C255.44 208.258 254.902 220.003 254.532 228.486C254.338 232.718 254.175 236.151 254.069 238.539C254.006 239.711 253.956 240.63 253.925 241.276C253.925 241.574 253.887 241.808 253.881 241.986C253.89 242.066 253.89 242.146 253.881 242.226Z" fill="#263238"/>
<path d="M290.447 176.453C290.171 176.547 289.888 176.616 289.6 176.66C289.06 176.773 288.267 176.907 287.274 177.053C284.701 177.42 282.105 177.607 279.507 177.613C276.908 177.613 274.312 177.426 271.74 177.053C270.753 176.913 269.959 176.773 269.413 176.653C269.125 176.619 268.843 176.55 268.573 176.447C268.861 176.446 269.149 176.472 269.433 176.527C269.986 176.607 270.766 176.707 271.773 176.82C274.34 177.116 276.922 177.268 279.507 177.273C282.093 177.262 284.677 177.109 287.247 176.813L289.58 176.527C289.866 176.472 290.156 176.447 290.447 176.453Z" fill="#263238"/>
<path d="M280.633 123.884L280.78 123.951L281.193 124.164C281.553 124.357 282.073 124.657 282.727 125.084C284.558 126.303 286.308 127.639 287.967 129.084C289.122 130.07 290.217 131.123 291.247 132.238C291.833 132.859 292.352 133.541 292.794 134.271C293.007 134.666 293.19 135.076 293.341 135.498C293.474 135.925 293.627 136.358 293.754 136.798C294.767 140.338 295.561 144.298 296.334 148.465C297.107 152.632 297.707 156.619 298.174 160.266C298.401 162.086 298.601 163.819 298.734 165.446C298.922 166.974 298.748 168.524 298.227 169.973C297.739 171.161 296.856 172.146 295.727 172.76C294.883 173.204 293.967 173.496 293.021 173.62C292.43 173.712 291.831 173.744 291.234 173.713C291.027 173.713 290.874 173.713 290.767 173.68H290.614C290.614 173.68 290.827 173.68 291.234 173.68C291.826 173.678 292.417 173.626 293.001 173.526C293.924 173.383 294.816 173.078 295.634 172.626C296.711 172.018 297.548 171.061 298.007 169.913C298.498 168.499 298.653 166.99 298.461 165.506C298.314 163.886 298.101 162.173 297.867 160.339C297.387 156.706 296.747 152.719 296.001 148.559C295.254 144.398 294.447 140.438 293.461 136.918C293.334 136.485 293.187 136.058 293.054 135.631C292.91 135.223 292.737 134.827 292.534 134.445C292.105 133.729 291.604 133.059 291.04 132.445C290.027 131.327 288.947 130.272 287.807 129.284C286.17 127.836 284.449 126.484 282.653 125.237C281.987 124.791 281.507 124.477 281.16 124.264L280.76 124.017C280.673 123.924 280.627 123.891 280.633 123.884Z" fill="#263238"/>
<path d="M290.279 175.309C290.279 175.309 290.279 175.414 290.366 175.619C290.452 175.824 290.492 176.134 290.585 176.53C290.772 177.349 291.051 178.539 291.411 180.083C291.77 181.626 292.209 183.542 292.742 185.774C293.274 188.006 293.92 190.554 294.359 193.455C294.579 194.899 294.745 196.437 294.845 198.043C294.945 199.648 294.972 201.328 295.045 203.07C295.178 206.561 295.318 210.324 295.471 214.322C295.77 222.32 296.103 231.272 296.463 240.925L296.463 241.511H295.979L257.99 241.898L242.448 242.226H242.261V242.053C244.578 217.447 246.621 195.718 248.086 180.132C248.831 172.352 249.417 166.103 249.843 161.788C250.056 159.643 250.222 157.981 250.335 156.828C250.395 156.27 250.435 155.843 250.468 155.551C250.502 155.26 250.528 155.117 250.528 155.117C250.528 155.117 250.528 155.266 250.528 155.551C250.528 155.836 250.468 156.277 250.422 156.835C250.322 157.969 250.176 159.637 249.989 161.794C249.603 166.134 249.037 172.333 248.332 180.145L242.621 242.071L242.448 241.904L257.997 241.569L296.31 240.763L296.156 240.918C295.81 231.266 295.491 222.32 295.211 214.31C295.074 210.313 294.943 206.563 294.819 203.058C294.752 201.314 294.692 199.64 294.639 198.036C294.546 196.431 294.386 194.937 294.173 193.461C293.754 190.572 293.075 188.024 292.602 185.786C292.129 183.548 291.683 181.639 291.337 180.083C290.991 178.527 290.738 177.336 290.559 176.524C290.472 176.121 290.412 175.817 290.366 175.607L290.279 175.309Z" fill="#78AEFF"/>
<path d="M253.832 189.221H245.498C245.498 189.221 241.632 213.175 245.825 214.735C246.891 215.219 248.102 215.273 249.206 214.885C250.311 214.498 251.223 213.699 251.752 212.655L253.832 189.221Z" fill="#78AEFF"/>
<path d="M253.832 189.221C253.841 189.365 253.841 189.51 253.832 189.654C253.832 189.967 253.779 190.401 253.739 190.941C253.646 192.101 253.519 193.747 253.352 195.801C252.999 200.008 252.505 205.881 251.932 212.668V212.695C251.579 213.348 251.093 213.92 250.505 214.375C249.89 214.839 249.164 215.134 248.399 215.228C247.619 215.313 246.831 215.222 246.092 214.962C245.893 214.912 245.702 214.833 245.525 214.728C245.347 214.613 245.189 214.469 245.058 214.302C244.812 213.976 244.619 213.614 244.485 213.228C244.108 212.083 243.884 210.892 243.818 209.688C243.732 208.515 243.712 207.361 243.725 206.228C243.725 203.961 243.898 201.794 244.078 199.754C244.438 195.668 244.932 192.067 245.412 189.174V189.081H245.512L251.672 189.147H253.299H253.712C253.806 189.147 253.852 189.147 253.846 189.147H253.692H253.259H251.599L245.512 189.214L245.618 189.121C245.192 192.007 244.725 195.608 244.378 199.688C244.212 201.728 244.078 203.888 244.052 206.135C244.052 207.261 244.052 208.408 244.152 209.568C244.214 210.741 244.424 211.902 244.778 213.022C245.045 213.728 245.445 214.408 246.179 214.548C246.87 214.797 247.609 214.884 248.339 214.802C249.032 214.703 249.692 214.44 250.263 214.034C250.833 213.628 251.298 213.091 251.619 212.468V212.522C252.245 205.781 252.792 199.954 253.186 195.781C253.386 193.714 253.546 192.061 253.666 190.887C253.719 190.334 253.766 189.894 253.799 189.554C253.832 189.214 253.832 189.227 253.832 189.221Z" fill="#263238"/>
<path d="M250.532 132.505L243.098 162.453L224.718 189.981L236.498 198.808L255.926 173.26C255.892 176.113 263.526 143.452 263.526 143.452L270.986 128.691C265.506 125.511 259.192 123.844 253.886 127.551C252.209 128.746 251.018 130.504 250.532 132.505Z" fill="#78AEFF"/>
<path d="M252.799 129.044C252.827 128.974 252.868 128.908 252.919 128.851C253.05 128.673 253.195 128.506 253.352 128.351C253.945 127.788 254.662 127.373 255.445 127.138C256.614 126.775 257.862 126.759 259.039 127.091C260.471 127.534 261.73 128.412 262.639 129.604C263.548 130.776 264.165 132.147 264.439 133.605C264.654 134.788 264.69 135.997 264.546 137.191C264.459 137.992 264.303 138.784 264.079 139.558C264.017 139.847 263.919 140.127 263.786 140.392C263.719 140.392 264.126 139.172 264.306 137.165C264.405 135.995 264.345 134.818 264.126 133.665C263.85 132.258 263.247 130.936 262.366 129.804C261.501 128.669 260.31 127.825 258.952 127.384C257.83 127.064 256.641 127.064 255.519 127.384C254.759 127.593 254.052 127.961 253.445 128.464C253.019 128.811 252.832 129.071 252.799 129.044Z" fill="#263238"/>
<path d="M263.166 143.452C263.172 143.516 263.172 143.581 263.166 143.645C263.133 143.798 263.099 143.985 263.053 144.225C262.939 144.752 262.779 145.492 262.579 146.432C262.146 148.365 261.533 151.099 260.779 154.532L258.066 166.533C257.792 167.653 257.586 168.82 257.226 170C256.856 171.192 256.358 172.342 255.739 173.426C255.072 174.53 254.332 175.587 253.526 176.593L251.139 179.753L236.665 198.888L236.585 198.994L236.478 198.914L227.831 192.427L225.491 190.634L224.884 190.154C224.751 190.047 224.684 189.987 224.691 189.981L224.911 190.121L225.538 190.567L227.924 192.307L236.591 198.701H236.405L250.819 179.527L253.199 176.367C253.999 175.374 254.732 174.33 255.392 173.24C256.004 172.186 256.498 171.068 256.866 169.906C257.219 168.766 257.432 167.586 257.706 166.466C258.752 161.959 259.706 157.899 260.493 154.466C261.279 151.032 261.946 148.319 262.399 146.385C262.626 145.452 262.806 144.718 262.939 144.192C262.999 143.958 263.046 143.772 263.086 143.625C263.126 143.478 263.166 143.445 263.166 143.452Z" fill="#263238"/>
<defs>
<linearGradient id="paint0_linear_342_1360" x1="153.114" y1="0.346546" x2="153.114" y2="256.347" gradientUnits="userSpaceOnUse">
<stop stop-color="#D9E8FF" stop-opacity="0.5"/>
<stop offset="1" stop-color="#5B9DFF"/>
</linearGradient>
</defs>
</svg>
