<svg width="256" height="247" viewBox="0 0 256 247" fill="none" xmlns="http://www.w3.org/2000/svg">
<ellipse opacity="0.8" cx="127.557" cy="123.173" rx="127.557" ry="123.173" transform="rotate(180 127.557 123.173)" fill="url(#paint0_linear_342_1358)"/>
<path d="M34.4462 91.4139L34.2169 119.366L75.6882 119.706L75.9175 91.754L34.4462 91.4139Z" fill="#D9E8FF"/>
<path d="M76.0451 92.092C75.923 92.2238 75.792 92.347 75.6531 92.4609L74.4911 93.4615L70.1659 97.0951C66.4769 100.166 61.4047 104.362 55.7745 109.01L55.6546 109.112L55.5347 109.01L55.2442 108.775L40.5807 96.7861L36.1632 93.1249L34.9736 92.115C34.8297 92.0019 34.6955 91.8769 34.5724 91.7415C34.7358 91.831 34.8902 91.936 35.0335 92.0551L36.2693 93.0096L40.7513 96.5925L55.507 108.494L55.7975 108.729H55.5577L70.0229 96.9014L74.4219 93.36L75.6301 92.4101C75.7564 92.2893 75.8956 92.1826 76.0451 92.092Z" fill="#4B8DF0"/>
<path d="M34.3437 119.704C34.2653 119.634 37.4147 115.83 41.3757 111.201C45.3367 106.571 48.6198 102.877 48.6982 102.96C48.7766 103.043 45.6272 106.834 41.6616 111.463C37.696 116.093 34.4221 119.773 34.3437 119.704Z" fill="#4B8DF0"/>
<path d="M62.4869 102.711C62.5699 102.647 65.6179 106.474 69.2976 111.261C72.9773 116.047 75.8961 119.98 75.8131 120.045C75.7301 120.109 72.6821 116.277 69.0025 111.491C65.3228 106.705 62.4223 102.776 62.4869 102.711Z" fill="#4B8DF0"/>
<path d="M229.736 58.7347L229.596 75.7631L254.86 75.9704L255 58.9419L229.736 58.7347Z" fill="#D9E8FF"/>
<path d="M255 60.3256C254.927 60.4065 254.849 60.482 254.765 60.5515L254.055 61.1464L251.422 63.3643L242.661 70.6223L242.587 70.6822L242.513 70.6223L242.338 70.4793L233.392 63.1937L230.704 60.9619L229.98 60.344C229.892 60.2757 229.811 60.2002 229.736 60.1181C229.831 60.1751 229.922 60.2399 230.008 60.3117L230.759 60.8927L233.498 63.0692L242.476 70.3133L242.651 70.4563H242.504L251.316 63.2536L253.999 61.091L254.733 60.5146C254.817 60.4445 254.906 60.3813 255 60.3256Z" fill="#6FA8FF"/>
<path d="M229.597 77.1471C229.547 77.1056 231.469 74.7861 233.881 71.9687C236.293 69.1513 238.294 66.8965 238.34 66.938C238.386 66.9795 236.473 69.2989 234.056 72.1209C231.64 74.9429 229.643 77.1886 229.597 77.1471Z" fill="#6FA8FF"/>
<path d="M246.741 66.795C246.792 66.7581 248.65 69.1006 250.891 72.0056C253.132 74.9106 254.912 77.3176 254.861 77.3545C254.811 77.3914 252.952 75.049 250.711 72.1439C248.47 69.2389 246.69 66.8365 246.741 66.795Z" fill="#6FA8FF"/>
<path d="M201.924 191.886L152.198 191.858C146.203 191.858 141.371 186.758 141.371 180.473L141.398 49.4659C141.398 43.1579 146.268 38.0856 152.235 38.0856L201.961 38.1179C207.956 38.1179 212.784 43.2178 212.784 49.5028L212.761 180.506C212.761 186.795 207.905 191.891 201.924 191.886Z" fill="#263238"/>
<path d="M201.903 42.7521H192.262C191.611 42.7844 190.999 43.0733 190.561 43.5556C190.123 44.0379 189.894 44.6742 189.924 45.3251V47.1696C189.953 47.821 189.722 48.4573 189.283 48.9394C188.844 49.4216 188.232 49.7103 187.581 49.7426H168.786C168.135 49.7103 167.524 49.4214 167.086 48.9391C166.647 48.4568 166.418 47.8205 166.448 47.1696V45.3251C166.477 44.6733 166.247 44.0365 165.808 43.5536C165.369 43.0707 164.758 42.7809 164.106 42.7475H152.26C148.068 42.7475 144.67 46.3119 144.67 50.7156L144.647 178.587C144.647 182.991 148.041 186.56 152.228 186.56L201.853 186.592C206.044 186.592 209.443 183.028 209.443 178.624L209.466 50.7524C209.484 46.3211 206.09 42.7521 201.903 42.7521Z" fill="white"/>
<path d="M158.221 174.497V177.628C158.222 177.69 158.206 177.75 158.175 177.804C158.144 177.857 158.099 177.901 158.045 177.93C157.991 177.96 157.93 177.975 157.869 177.973C157.807 177.971 157.747 177.952 157.695 177.919L155.233 176.351C155.184 176.32 155.145 176.277 155.117 176.226C155.089 176.175 155.075 176.118 155.075 176.06C155.075 176.003 155.089 175.946 155.117 175.895C155.145 175.844 155.184 175.801 155.233 175.77L157.695 174.207C157.747 174.173 157.807 174.155 157.869 174.153C157.93 174.151 157.991 174.165 158.045 174.195C158.099 174.225 158.144 174.269 158.175 174.322C158.206 174.375 158.222 174.436 158.221 174.497Z" fill="#455A64"/>
<path d="M178.448 176.033C178.447 176.459 178.32 176.876 178.082 177.23C177.845 177.585 177.507 177.861 177.113 178.023C176.718 178.186 176.285 178.228 175.866 178.144C175.448 178.06 175.064 177.854 174.763 177.552C174.461 177.251 174.256 176.866 174.173 176.447C174.09 176.029 174.133 175.595 174.297 175.201C174.46 174.807 174.737 174.47 175.092 174.234C175.447 173.997 175.864 173.87 176.29 173.87C176.574 173.87 176.855 173.926 177.117 174.035C177.379 174.144 177.617 174.303 177.818 174.504C178.018 174.705 178.177 174.943 178.285 175.206C178.393 175.468 178.449 175.749 178.448 176.033Z" fill="#455A64"/>
<path d="M197.056 174.151H194.801C194.325 174.151 193.939 174.538 193.939 175.014V177.278C193.939 177.754 194.325 178.14 194.801 178.14H197.056C197.532 178.14 197.918 177.754 197.918 177.278V175.014C197.918 174.538 197.532 174.151 197.056 174.151Z" fill="#455A64"/>
<path d="M154.788 60.1085C154.267 60.1085 153.612 60.1085 152.943 60.1085C152.159 60.1085 151.38 60.0808 150.831 60.0854C150.766 60.0854 150.704 60.0598 150.657 60.0141C150.61 59.9684 150.584 59.9063 150.582 59.841C150.584 59.7761 150.61 59.7141 150.655 59.6678C150.7 59.6215 150.762 59.5944 150.827 59.592C151.376 59.592 152.164 59.592 152.953 59.592C153.741 59.592 154.52 59.6197 155.064 59.592C155.129 59.592 155.191 59.6178 155.237 59.6636C155.283 59.7094 155.309 59.7716 155.309 59.8364C155.309 59.8685 155.304 59.9004 155.292 59.9303C155.28 59.9602 155.263 59.9875 155.241 60.0106C155.218 60.0337 155.192 60.0522 155.162 60.0651C155.133 60.0779 155.101 60.0848 155.069 60.0854L154.788 60.1085Z" fill="#263238"/>
<path d="M152.341 61.7546C152.306 61.7542 152.272 61.7466 152.24 61.7323C152.208 61.718 152.18 61.6974 152.156 61.6716L150.658 59.9793C150.616 59.9342 150.593 59.8749 150.593 59.8133C150.593 59.7518 150.616 59.6925 150.658 59.6473L152.12 58.1118C152.142 58.0884 152.17 58.0698 152.2 58.0571C152.23 58.0443 152.262 58.0378 152.295 58.0378C152.327 58.0378 152.36 58.0443 152.39 58.0571C152.42 58.0698 152.447 58.0884 152.47 58.1118C152.493 58.1345 152.511 58.1615 152.523 58.1911C152.535 58.2208 152.542 58.2526 152.542 58.2847C152.542 58.3169 152.535 58.3487 152.523 58.3783C152.511 58.408 152.493 58.435 152.47 58.4577L151.16 59.841L152.511 61.3627C152.534 61.3854 152.552 61.4123 152.565 61.442C152.577 61.4717 152.583 61.5035 152.583 61.5356C152.583 61.5677 152.577 61.5995 152.565 61.6292C152.552 61.6589 152.534 61.6858 152.511 61.7085C152.462 61.7442 152.401 61.7606 152.341 61.7546Z" fill="#263238"/>
<path d="M203.62 58.2456C204.043 58.2456 204.385 57.9029 204.385 57.4801C204.385 57.0574 204.043 56.7147 203.62 56.7147C203.197 56.7147 202.854 57.0574 202.854 57.4801C202.854 57.9029 203.197 58.2456 203.62 58.2456Z" fill="#263238"/>
<path d="M204.367 59.8918C204.367 60.0445 204.323 60.194 204.239 60.3213C204.154 60.4487 204.034 60.5481 203.893 60.6069C203.752 60.6658 203.597 60.6814 203.447 60.6519C203.298 60.6223 203.16 60.5489 203.052 60.4409C202.944 60.3329 202.871 60.1953 202.841 60.0455C202.811 59.8957 202.827 59.7405 202.886 59.5996C202.945 59.4587 203.044 59.3384 203.172 59.2542C203.299 59.1699 203.448 59.1254 203.601 59.1263C203.702 59.1263 203.801 59.1461 203.894 59.1846C203.987 59.2231 204.071 59.2794 204.142 59.3505C204.213 59.4216 204.27 59.506 204.308 59.5988C204.347 59.6917 204.367 59.7913 204.367 59.8918Z" fill="#263238"/>
<path d="M204.367 62.308C204.367 62.4607 204.323 62.6102 204.239 62.7375C204.154 62.8649 204.034 62.9643 203.893 63.0231C203.752 63.082 203.597 63.0976 203.447 63.0681C203.298 63.0385 203.16 62.9651 203.052 62.8571C202.944 62.7491 202.871 62.6115 202.841 62.4617C202.811 62.3119 202.827 62.1567 202.886 62.0158C202.945 61.8749 203.044 61.7547 203.172 61.6704C203.299 61.5861 203.448 61.5416 203.601 61.5425C203.804 61.5437 203.998 61.6248 204.141 61.7681C204.284 61.9114 204.365 62.1054 204.367 62.308Z" fill="#263238"/>
<path d="M209.468 71.8992C209.468 71.9684 195.007 72.0237 177.19 72.0237C159.372 72.0237 144.912 71.9684 144.912 71.8992C144.912 71.83 159.368 71.7793 177.19 71.7793C195.012 71.7793 209.468 71.8347 209.468 71.8992Z" fill="#455A64"/>
<path d="M160.026 119.131H155.848C155.557 119.131 155.322 119.366 155.322 119.657V122.428C155.322 122.718 155.557 122.954 155.848 122.954H160.026C160.316 122.954 160.551 122.718 160.551 122.428V119.657C160.551 119.366 160.316 119.131 160.026 119.131Z" fill="white"/>
<path d="M112.292 66.5542C119.942 63.4581 123.515 55.0274 120.272 47.7238C117.029 40.4202 108.199 37.0093 100.549 40.1054C92.8995 43.2015 89.3271 51.6322 92.5698 58.9358C95.8126 66.2394 104.643 69.6503 112.292 66.5542Z" fill="#F5F5F5"/>
<path d="M111.115 64.1272C117.376 61.6891 120.381 54.867 117.827 48.8896C115.274 42.9122 108.128 40.043 101.868 42.4811C95.6071 44.9193 92.602 51.7414 95.1556 57.7188C97.7093 63.6962 104.855 66.5654 111.115 64.1272Z" fill="#455A64"/>
<path d="M109.883 61.0108C114.342 59.223 116.438 54.3225 114.566 50.0654C112.693 45.8082 107.561 43.8063 103.102 45.5942C98.6427 47.382 96.5461 52.2824 98.4186 56.5396C100.291 60.7968 105.424 62.7986 109.883 61.0108Z" fill="#263238"/>
<path d="M109.807 53.8217C110.104 52.0743 108.86 50.4284 107.03 50.1454C105.2 49.8624 103.476 51.0495 103.18 52.7968C102.883 54.5441 104.127 56.19 105.957 56.4731C107.787 56.7561 109.511 55.569 109.807 53.8217Z" fill="#455A64"/>
<path d="M47.6209 224.09C47.6209 224.09 44.4668 202.418 44.7297 189.815C44.9925 177.213 44.7297 163.025 44.7297 163.025H46.1822C46.1822 163.025 45.2 188.049 46.2698 203.142C47.3396 218.234 50.157 224.09 50.157 224.09H47.6209Z" fill="#263238"/>
<path d="M57.0108 138.641C56.7829 137.873 56.3201 137.196 55.6874 136.704C54.7652 136.123 53.557 136.363 52.5287 136.704C48.1435 138.258 44.2517 146.438 42.4764 150.741L48.3049 170.375C58.8184 160.641 60.6398 147.831 57.0108 138.641Z" fill="#455A64"/>
<path d="M55.3444 137.497C55.3296 137.587 55.3017 137.674 55.2614 137.756C55.1877 137.945 55.0908 138.18 54.9755 138.47C54.7219 139.088 54.3623 139.987 53.9334 141.103C53.0757 143.33 51.9829 146.448 51.0053 149.957C50.0278 153.466 49.3638 156.707 48.9718 159.059C48.7643 160.235 48.6075 161.189 48.5107 161.826L48.3862 162.587C48.374 162.676 48.3539 162.764 48.3263 162.849C48.3151 162.761 48.3151 162.671 48.3263 162.582C48.3493 162.379 48.3724 162.121 48.4047 161.817C48.4784 161.148 48.6075 160.189 48.7966 159.008C49.2883 155.928 49.9533 152.879 50.7886 149.874C51.6236 146.867 52.6258 143.91 53.7905 141.016C54.2516 139.909 54.6205 139.019 54.9018 138.41C55.0355 138.129 55.1462 137.899 55.2292 137.714C55.2621 137.639 55.3006 137.567 55.3444 137.497Z" fill="#263238"/>
<path d="M45.7119 175.101C40.2523 172.086 37.0338 166.409 36.734 160.175C36.5219 155.822 37.8592 151.548 39.3762 147.457C39.4696 147.088 39.6879 146.762 39.9941 146.535C40.4552 146.272 41.027 146.503 41.4835 146.766C45.4537 149.025 47.8561 153.332 49.1334 157.717C50.0613 160.623 50.3753 163.69 50.0556 166.723C49.5567 169.909 48.0411 172.848 45.735 175.101" fill="#455A64"/>
<path d="M45.7133 175.101C45.7032 175.014 45.7032 174.926 45.7133 174.838C45.7133 174.64 45.7133 174.377 45.7133 174.087C45.7133 173.432 45.6856 172.487 45.6349 171.32C45.4775 168.279 45.1388 165.251 44.6204 162.25C44.0118 158.736 43.2786 155.587 42.7391 153.309L42.0566 150.598C41.9921 150.298 41.9367 150.054 41.8906 149.86C41.8646 149.776 41.8506 149.689 41.8491 149.602C41.8865 149.682 41.9159 149.765 41.9367 149.851L42.1488 150.575C42.3287 151.202 42.5777 152.115 42.8682 153.249C43.4538 155.518 44.2146 158.667 44.8233 162.19C45.3407 165.199 45.6489 168.241 45.7455 171.293C45.7778 172.464 45.7778 173.414 45.7455 174.059C45.7455 174.364 45.7225 174.613 45.7133 174.815C45.7278 174.91 45.7278 175.007 45.7133 175.101Z" fill="#263238"/>
<g opacity="0.3">
<path opacity="0.3" d="M45.7123 175.101C40.2527 172.086 37.0341 166.409 36.7344 160.175C36.5223 155.822 37.8595 151.548 39.3766 147.457C39.4699 147.088 39.6882 146.762 39.9945 146.535C40.4556 146.272 41.0274 146.503 41.4839 146.766C45.4541 149.025 47.8565 153.332 49.1338 157.717C50.0616 160.623 50.3757 163.69 50.056 166.723C49.5571 169.909 48.0415 172.848 45.7354 175.101" fill="black"/>
</g>
<path d="M51.8727 208.26C57.2493 209.441 61.676 213.231 66.8589 215.075C70.2896 216.293 74.1676 216.726 76.9066 219.124C76.2518 217.464 74.6933 216.357 73.1808 215.412C68.9046 212.746 64.3415 210.572 59.5779 208.929C57.1386 208.085 54.5056 207.384 52.0064 208.076" fill="#455A64"/>
<path d="M44.1026 213.046C37.3703 212.94 30.2692 207.209 23.583 206.867C30.5966 204.603 40.6443 206.452 44.1026 213.046Z" fill="#455A64"/>
<path d="M46.732 196.898C50.1534 195.667 53.9023 195.612 57.4944 196.17C61.0865 196.728 64.5541 197.876 67.9986 199.024C67.6528 196.686 65.7622 194.934 63.9869 193.375C62.6844 192.17 61.2718 191.089 59.7677 190.148C58.2478 189.198 56.4876 188.703 54.6954 188.723C53.6234 188.792 52.5765 189.077 51.617 189.561C50.6576 190.044 49.8054 190.716 49.1113 191.535C47.7527 193.021 46.9129 194.908 46.7181 196.912" fill="#455A64"/>
<path d="M32.9191 189.47C28.6815 185.85 22.2628 186.205 16.6925 186.329C25.2554 190.424 34.4823 196.036 41.8555 202.007C42.0815 198.092 38.2681 194.039 32.9191 189.47Z" fill="#455A64"/>
<g opacity="0.3">
<path opacity="0.3" d="M32.9204 189.47C28.6827 185.85 22.264 186.205 16.6937 186.33C25.2566 190.424 34.4835 196.036 41.8568 202.007C42.0827 198.093 38.2693 194.039 32.9204 189.47Z" fill="black"/>
</g>
<path d="M48.6403 184.476C50.7076 183.041 52.8864 181.773 55.1559 180.685C57.383 179.676 59.4673 178.062 61.6115 176.895C64.3781 175.383 66.8221 173.28 69.3859 171.403C71.9497 169.526 74.7671 167.839 77.9027 167.341C75.3185 166.885 72.6632 167.043 70.1513 167.802C67.6492 168.556 65.2101 169.506 62.8565 170.642C59.5779 172.118 56.198 173.653 53.4958 176.06C50.7937 178.467 48.3544 180.861 48.6403 184.476Z" fill="#455A64"/>
<path d="M66.733 213.046C66.733 213.046 66.6592 213.023 66.5209 212.954L65.9353 212.65C65.428 212.382 64.6995 211.981 63.7819 211.52C63.3208 211.28 62.8274 211.031 62.2832 210.773C61.7391 210.515 61.1535 210.243 60.5356 209.975C59.1968 209.374 57.8082 208.889 56.3856 208.527C54.976 208.137 53.492 208.101 52.0649 208.421C51.4365 208.553 50.8197 208.735 50.2205 208.966C49.7061 209.176 49.2108 209.431 48.7403 209.726C48.0622 210.155 47.4423 210.67 46.8958 211.257C46.5039 211.677 46.3148 211.931 46.2964 211.917C46.3311 211.847 46.3728 211.78 46.4209 211.718C46.5451 211.536 46.6806 211.362 46.8267 211.197C47.3618 210.575 47.9829 210.031 48.6711 209.583C49.144 209.272 49.6441 209.003 50.1651 208.781C50.7637 208.54 51.3804 208.348 52.0096 208.205C53.4697 207.865 54.9916 207.897 56.4363 208.297C57.8711 208.66 59.2695 209.154 60.614 209.772C61.2365 210.045 61.8221 210.321 62.3616 210.598C62.9011 210.875 63.4038 211.119 63.851 211.368C64.7733 211.829 65.4788 212.29 65.9722 212.567L66.5347 212.913C66.6731 212.996 66.7376 213.037 66.733 213.046Z" fill="#263238"/>
<path d="M39.082 209.713C39.2289 209.73 39.3722 209.77 39.5063 209.832C39.8809 209.964 40.2474 210.118 40.6037 210.294C42.9719 211.5 44.9236 213.389 46.2063 215.716C46.4028 216.063 46.5768 216.422 46.7273 216.791C46.7957 216.921 46.8425 217.061 46.8656 217.206C46.8288 217.206 46.5751 216.652 46.0587 215.799C45.3841 214.688 44.5689 213.668 43.6332 212.765C42.6916 211.867 41.6395 211.092 40.5023 210.46C39.6492 209.98 39.0682 209.749 39.082 209.713Z" fill="#263238"/>
<path d="M24.1927 189.128C24.2902 189.15 24.3858 189.179 24.4786 189.216L25.2856 189.502L26.5583 189.963C27.0563 190.147 27.5958 190.424 28.2044 190.687C31.3619 192.147 34.3087 194.026 36.9656 196.271C38.4183 197.519 39.7848 198.864 41.0557 200.297C42.0861 201.475 43.0543 202.706 43.9561 203.986C44.7216 205.074 45.3072 205.978 45.7038 206.605L46.1649 207.329C46.2254 207.408 46.275 207.495 46.3124 207.587C46.2436 207.516 46.1819 207.439 46.128 207.356C46.0081 207.2 45.8375 206.964 45.6254 206.66C45.2058 206.047 44.6017 205.157 43.8178 204.082C43.0339 203.008 42.0471 201.777 40.8897 200.458C39.617 199.043 38.2555 197.711 36.8135 196.469C34.1676 194.239 31.2502 192.352 28.1307 190.853C27.5312 190.576 26.9963 190.29 26.5075 190.097L25.2533 189.59L24.4602 189.262C24.3654 189.23 24.2754 189.185 24.1927 189.128Z" fill="#263238"/>
<path d="M56.8319 193.117C56.6501 193.113 56.4692 193.09 56.2924 193.048L55.6745 192.933C55.4347 192.886 55.1534 192.886 54.8491 192.854C53.2558 192.721 51.6572 193.04 50.2379 193.776C49.4529 194.177 48.7368 194.7 48.1168 195.326C47.6048 195.829 47.1515 196.389 46.7657 196.995C46.4178 197.562 46.1096 198.152 45.8435 198.761C45.8638 198.582 45.9105 198.406 45.9818 198.24C46.1514 197.776 46.3661 197.33 46.6228 196.907C46.9992 196.277 47.4497 195.693 47.9646 195.169C48.844 194.244 49.9272 193.537 51.1281 193.105C52.3289 192.672 53.6142 192.527 54.8814 192.679C55.1903 192.725 55.4762 192.739 55.716 192.794L56.3339 192.951C56.5061 192.985 56.6734 193.041 56.8319 193.117Z" fill="#263238"/>
<path d="M63.5989 172.132C63.5171 172.191 63.4307 172.243 63.3407 172.289L62.5936 172.694C61.9389 173.049 60.9982 173.566 59.8592 174.239C58.7203 174.912 57.383 175.756 55.9582 176.775C54.4037 177.862 52.9472 179.082 51.6053 180.423C50.9117 181.108 50.3131 181.884 49.8254 182.728C49.3643 183.577 48.9631 184.393 48.5758 185.181C47.8761 186.565 47.2511 187.986 46.7036 189.437C46.3345 190.416 46.0265 191.417 45.7814 192.435C45.6062 193.154 45.5462 193.56 45.5232 193.555C45.5201 193.456 45.5293 193.357 45.5508 193.26C45.5508 193.066 45.6154 192.799 45.6892 192.416C45.8975 191.385 46.178 190.369 46.5284 189.377C47.063 187.912 47.6787 186.477 48.3729 185.08C48.7556 184.291 49.1706 183.471 49.6086 182.622C50.1064 181.756 50.7174 180.961 51.4254 180.257C52.7788 178.906 54.2511 177.681 55.8245 176.595C57.2632 175.581 58.6188 174.751 59.767 174.091C60.9152 173.432 61.8789 172.939 62.5337 172.611L63.3084 172.242C63.4003 172.194 63.4979 172.157 63.5989 172.132Z" fill="#263238"/>
<path d="M44.7243 192.508C44.6568 192.326 44.6119 192.135 44.5905 191.941C44.5122 191.526 44.4107 191.019 44.2954 190.387C43.9704 188.673 43.5454 186.98 43.0227 185.315C42.4776 183.665 41.8355 182.048 41.0999 180.473L40.4451 179.03C40.3532 178.859 40.2805 178.678 40.2284 178.491C40.3455 178.646 40.446 178.813 40.5281 178.989C40.708 179.316 40.957 179.8 41.2521 180.4C42.0374 181.961 42.7048 183.58 43.2487 185.241C43.7816 186.907 44.187 188.61 44.4614 190.337C44.5675 190.996 44.6413 191.531 44.6828 191.904C44.7167 192.104 44.7306 192.306 44.7243 192.508Z" fill="#263238"/>
<path d="M44.236 177.195C44.0261 174.648 43.283 172.173 42.0549 169.932C40.3957 166.845 38.08 164.16 35.271 162.065C32.4619 159.969 29.2277 158.515 25.796 157.805L40.8514 180.243L42.7835 184.259C44.1115 182.069 44.4066 179.74 44.236 177.195Z" fill="#455A64"/>
<path d="M65.8286 221.411H30.8253V227.613H65.8286V221.411Z" fill="#4B8DF0"/>
<path d="M33.4391 226.387L36.4179 245.633H59.6535L63.2133 226.387H33.4391Z" fill="#4B8DF0"/>
<path d="M65.8054 227.604C65.8054 227.673 57.9111 227.728 48.177 227.728C38.4429 227.728 30.5255 227.691 30.5255 227.604C30.5255 227.516 38.4198 227.479 48.1632 227.479C57.9065 227.479 65.8054 227.553 65.8054 227.604Z" fill="#263238"/>
<path d="M122.404 83.3394C116.769 82.3849 111.798 84.5522 107.058 87.7293C102.318 90.9063 98.7254 95.725 96.6596 101.032C94.4832 106.649 93.9529 112.966 95.6267 118.753C97.3006 124.54 101.262 129.714 106.61 132.444C113.942 136.165 123.321 134.869 129.878 129.907C136.435 124.946 140.189 116.747 140.484 108.53C140.701 102.868 139.35 97.0761 136.186 92.3911C133.023 87.7062 127.974 84.1787 122.353 83.3533" fill="#263238"/>
<path d="M106.378 102.508C107.199 100.35 106.881 97.943 107.208 95.6605C107.927 90.6251 111.981 86.5903 116.67 84.6306C121.032 82.7861 126.354 83.2011 131.62 84.9026C135.221 86.0646 138.61 88.0982 141.012 91.0216C142.593 92.9854 143.681 95.2985 144.187 97.7682C144.692 100.238 144.6 102.793 143.917 105.219L118.169 101.466C115.757 103.463 113.29 105.491 110.367 106.603C109.523 106.977 108.597 107.124 107.678 107.032C107.221 106.978 106.79 106.794 106.435 106.501C106.08 106.208 105.817 105.819 105.677 105.381C105.442 104.403 106.018 103.444 106.378 102.508Z" fill="#263238"/>
<path d="M132.168 92.0084L109.688 96.7717C108.639 96.8409 107.654 97.3015 106.928 98.0623C106.202 98.8232 105.788 99.8289 105.769 100.88L106.041 149.533C106.058 152.855 107.171 156.079 109.209 158.704L111.353 161.471C116.241 167.774 126.141 167.138 129.876 160.087C130.102 159.687 130.275 159.259 130.392 158.815C130.484 158.452 130.555 158.084 130.604 157.713L131.033 152.972C131.25 148.638 131.282 144.239 131.282 144.28C131.282 144.322 140.482 143.114 142.838 131.263C144.014 125.37 144.092 115.631 143.898 107.663C143.728 100.493 139.352 91.5335 132.168 92.0084Z" fill="#FFAAA5"/>
<path d="M140.48 116.798C140.467 117.196 140.3 117.574 140.013 117.851C139.726 118.128 139.343 118.283 138.945 118.283C138.75 118.291 138.555 118.26 138.372 118.191C138.189 118.123 138.021 118.019 137.879 117.885C137.737 117.751 137.623 117.59 137.544 117.411C137.465 117.232 137.422 117.039 137.418 116.844C137.43 116.445 137.598 116.066 137.884 115.788C138.171 115.51 138.555 115.354 138.954 115.355C139.149 115.348 139.344 115.38 139.527 115.449C139.71 115.518 139.877 115.623 140.019 115.757C140.161 115.892 140.275 116.053 140.354 116.231C140.433 116.41 140.476 116.603 140.48 116.798Z" fill="#263238"/>
<path d="M141.592 112.643C141.394 112.837 140.269 111.933 138.622 111.873C136.976 111.813 135.74 112.593 135.57 112.385C135.482 112.288 135.69 111.924 136.234 111.574C136.965 111.108 137.822 110.881 138.687 110.923C139.543 110.953 140.368 111.254 141.043 111.781C141.532 112.191 141.689 112.56 141.592 112.643Z" fill="#263238"/>
<path d="M125.726 116.429C125.715 116.828 125.548 117.207 125.261 117.485C124.974 117.762 124.59 117.916 124.19 117.914C123.995 117.922 123.801 117.891 123.618 117.822C123.435 117.754 123.268 117.65 123.126 117.516C122.984 117.381 122.871 117.22 122.792 117.042C122.714 116.863 122.672 116.67 122.669 116.475C122.681 116.076 122.848 115.697 123.135 115.419C123.421 115.141 123.805 114.986 124.204 114.986C124.4 114.978 124.595 115.009 124.778 115.078C124.961 115.146 125.128 115.251 125.27 115.386C125.412 115.52 125.526 115.682 125.604 115.861C125.682 116.04 125.724 116.234 125.726 116.429Z" fill="#263238"/>
<path d="M125.978 112.242C125.779 112.436 124.65 111.532 123.008 111.472C121.366 111.412 120.121 112.191 119.951 111.984C119.868 111.887 120.071 111.523 120.615 111.172C121.346 110.708 122.203 110.481 123.068 110.522C123.925 110.55 124.751 110.852 125.424 111.384C125.899 111.79 126.056 112.159 125.978 112.242Z" fill="#263238"/>
<path d="M130.903 124.775C130.903 124.683 131.927 124.545 133.592 124.397C134.016 124.369 134.417 124.3 134.514 124.019C134.565 123.585 134.483 123.146 134.279 122.76C133.924 121.727 133.55 120.648 133.163 119.532C131.613 114.921 130.507 111.112 130.696 111.052C130.885 110.993 132.287 114.691 133.836 119.311L134.906 122.58C135.044 123.041 135.298 123.613 135.058 124.236C134.991 124.382 134.892 124.51 134.768 124.613C134.644 124.715 134.499 124.788 134.343 124.826C134.107 124.878 133.865 124.901 133.624 124.895C131.941 124.891 130.903 124.854 130.903 124.775Z" fill="#263238"/>
<path d="M131.282 144.285C125.663 144.151 120.191 142.46 115.475 139.402C115.475 139.402 119.164 147.813 131.153 147.162L131.282 144.285Z" fill="#C75B54"/>
<path d="M130.05 128.704C129.752 128.297 129.356 127.973 128.899 127.762C128.441 127.55 127.938 127.459 127.435 127.496C127.072 127.514 126.715 127.605 126.387 127.763C126.059 127.922 125.767 128.144 125.526 128.418C125.296 128.683 125.152 129.013 125.115 129.363C125.078 129.713 125.149 130.065 125.319 130.373C125.738 131.019 126.661 131.199 127.454 131.005C128.243 130.761 128.976 130.362 129.607 129.829C129.798 129.708 129.964 129.552 130.096 129.368C130.156 129.277 130.189 129.17 130.189 129.061C130.189 128.952 130.156 128.845 130.096 128.755" fill="#C75B54"/>
<path d="M126.008 125.697C126.28 125.697 126.211 127.482 127.691 128.805C129.172 130.129 131.081 130.013 131.085 130.262C131.085 130.378 130.624 130.594 129.845 130.585C128.798 130.558 127.794 130.163 127.009 129.469C126.256 128.804 125.791 127.871 125.713 126.869C125.672 126.131 125.888 125.697 126.008 125.697Z" fill="#263238"/>
<path d="M125.872 107.359C125.692 107.82 124.055 107.525 122.114 107.682C120.173 107.838 118.591 108.304 118.351 107.894C118.245 107.696 118.531 107.285 119.181 106.879C120.042 106.38 121.005 106.084 121.997 106.012C122.99 105.941 123.985 106.097 124.908 106.469C125.605 106.792 125.946 107.147 125.872 107.359Z" fill="#263238"/>
<path d="M141.393 105.408C141.088 105.773 139.972 105.339 138.626 105.27C137.28 105.201 136.099 105.422 135.859 105.021C135.749 104.827 135.942 104.459 136.463 104.127C137.157 103.728 137.954 103.545 138.752 103.601C139.55 103.657 140.314 103.949 140.945 104.44C141.383 104.86 141.526 105.252 141.393 105.408Z" fill="#263238"/>
<path d="M102.254 99.0358C104.587 92.1928 114.76 82.8645 121.962 83.51L133.356 90.6527C132.942 92.6097 132.007 94.4185 130.65 95.8883C129.293 97.3581 127.564 98.4343 125.646 99.0035C123.599 99.5845 121.141 99.7044 119.896 101.434C118.651 103.163 119.297 105.814 118.107 107.636C116.461 110.162 112.113 109.941 110.854 112.708C110.305 113.907 110.55 115.355 109.982 116.544C109.226 118.126 105.141 120.067 103.481 119.505C101.821 118.942 101.871 116.097 101.355 114.594C100.47 112.025 100.894 110.711 101.217 109.296C102.001 105.92 101.143 102.3 102.254 99.0358Z" fill="#263238"/>
<path d="M108.372 120.994C108.404 120.104 107.45 117.974 106.587 117.803C104.282 117.342 100.03 117.37 99.7584 123.337C99.3895 131.466 107.625 130.156 107.653 129.926C107.68 129.695 108.257 124.061 108.372 120.994Z" fill="#FFAAA5"/>
<path d="M105.309 126.717C105.273 126.689 105.162 126.809 104.917 126.906C104.574 127.035 104.193 127.025 103.857 126.878C103.013 126.527 102.354 125.13 102.377 123.65C102.389 122.952 102.556 122.266 102.866 121.64C102.957 121.394 103.105 121.173 103.3 120.996C103.494 120.82 103.728 120.692 103.981 120.625C104.146 120.589 104.318 120.612 104.468 120.689C104.618 120.767 104.736 120.894 104.802 121.049C104.899 121.28 104.839 121.441 104.881 121.455C104.922 121.469 105.065 121.331 105.014 120.994C104.976 120.79 104.871 120.605 104.715 120.468C104.498 120.29 104.22 120.204 103.94 120.229C103.603 120.28 103.285 120.417 103.016 120.626C102.748 120.835 102.537 121.109 102.404 121.423C102.029 122.111 101.825 122.88 101.81 123.664C101.81 125.306 102.557 126.892 103.719 127.27C103.934 127.343 104.163 127.367 104.389 127.34C104.615 127.313 104.832 127.235 105.024 127.113C105.286 126.91 105.337 126.73 105.309 126.717Z" fill="#C75B54"/>
<path d="M130.981 88.1904C131.728 91.5012 136.759 95.7434 138.968 98.3349C143.182 103.25 144.012 104.883 143.971 115.857C145.958 112.062 147.485 108.341 147.332 104.057C147.18 99.7736 145.599 95.4852 142.624 92.4004C139.65 89.3155 135.223 87.5725 130.981 88.1858" fill="#263238"/>
<path d="M110.614 78.9312C108.705 77.262 106.15 76.3259 103.549 75.9847C99.8353 75.4492 96.0498 76.2027 92.8238 78.1196C89.7205 80.0471 87.5256 83.2749 87.2443 86.724C87.115 88.4905 87.47 90.2587 88.2712 91.8383C89.0723 93.4179 90.2893 94.749 91.7909 95.6881C90.1198 97.7174 87.9824 99.3121 85.5613 100.336C86.0059 100.796 86.5371 101.163 87.1244 101.416C87.7116 101.67 88.3433 101.804 88.9828 101.812C90.2791 101.824 91.5717 101.669 92.8284 101.351C92.105 102.75 90.9091 103.848 89.4531 104.449C91.5806 104.691 93.7342 104.373 95.7012 103.527C97.6205 102.694 99.427 101.622 101.078 100.336C106.833 96.0616 109.871 92.5433 113.408 86.5534C113.708 84.1556 112.523 80.5958 110.614 78.9312Z" fill="#263238"/>
<path d="M105.315 134.625C107.268 134.625 108.852 133.041 108.852 131.088C108.852 129.135 107.268 127.551 105.315 127.551C103.362 127.551 101.778 129.135 101.778 131.088C101.778 133.041 103.362 134.625 105.315 134.625Z" fill="#455A64"/>
<path d="M99.234 97.302C103.006 90.1916 108.359 86.0001 113.446 84.317L99.234 97.302Z" fill="#263238"/>
<path d="M113.46 84.317C113.23 84.4371 112.991 84.5389 112.745 84.6213C112.284 84.8104 111.624 85.0824 110.836 85.5021C108.787 86.5761 106.9 87.9327 105.229 89.5322C103.555 91.1358 102.067 92.9223 100.793 94.8581C100.332 95.6097 99.9259 96.2138 99.6768 96.6472C99.5563 96.8763 99.4175 97.0952 99.2618 97.302C99.3566 97.0619 99.4691 96.8291 99.5985 96.6057C99.8198 96.1446 100.184 95.5313 100.65 94.7612C101.893 92.7838 103.375 90.9672 105.063 89.3524C106.75 87.7383 108.671 86.3889 110.762 85.3499C111.398 85.0409 112.051 84.7684 112.717 84.5337C112.957 84.4385 113.206 84.366 113.46 84.317Z" fill="#455A64"/>
<path d="M94.4943 103.564C94.4943 103.564 94.5312 103.564 94.6003 103.564L94.9047 103.652C95.1721 103.73 95.5687 103.831 96.0805 103.951C97.5381 104.26 99.0274 104.391 100.516 104.343C102.725 104.262 104.912 103.874 107.014 103.19C109.592 102.343 112.082 101.25 114.451 99.9257C116.983 98.5424 119.358 97.1591 121.46 95.808C123.332 94.6291 125.11 93.3096 126.782 91.8608C127.908 90.8834 128.955 89.818 129.913 88.6745C130.258 88.278 130.498 87.946 130.673 87.7523L130.867 87.5033C130.89 87.4725 130.916 87.4446 130.945 87.4203C130.929 87.4539 130.911 87.4863 130.89 87.5171L130.71 87.78C130.553 88.0059 130.318 88.3471 129.986 88.7575C129.051 89.9285 128.017 91.0176 126.897 92.013C125.232 93.4836 123.454 94.8219 121.58 96.0155C119.473 97.3988 117.103 98.7822 114.567 100.166C112.181 101.487 109.671 102.571 107.073 103.403C104.951 104.081 102.744 104.455 100.516 104.514C99.0165 104.552 97.5179 104.397 96.0575 104.053C95.6616 103.959 95.2707 103.845 94.8862 103.712L94.5865 103.601C94.5266 103.564 94.4897 103.564 94.4943 103.564Z" fill="#455A64"/>
<path d="M163.595 178.163L177.198 203.008L197.123 191.863L206.806 195.063C206.806 195.063 182.367 221.568 178.393 222.919C174.418 224.27 166.915 224.514 162.622 219.142C158.717 214.232 147.341 188.557 147.341 188.557L163.595 178.163Z" fill="#FFAAA5"/>
<path d="M219.584 161.946C219.409 161.73 219.183 161.563 218.925 161.461C218.667 161.358 218.388 161.324 218.113 161.36L208.637 162.665C208.226 162.729 207.834 162.878 207.485 163.104C207.136 163.329 206.839 163.626 206.613 163.975L186.937 194.215L188.449 195.063L198.926 194.731L219.884 162.315L219.584 161.946Z" fill="#455A64"/>
<path d="M212.887 165.87C213.019 165.932 213.168 165.949 213.311 165.92C213.454 165.89 213.584 165.814 213.68 165.704C213.776 165.595 213.834 165.456 213.845 165.311C213.856 165.165 213.819 165.02 213.74 164.897C213.608 164.835 213.459 164.817 213.316 164.847C213.173 164.877 213.044 164.952 212.947 165.062C212.851 165.172 212.793 165.31 212.782 165.456C212.771 165.602 212.808 165.747 212.887 165.87Z" fill="white"/>
<path d="M219.892 162.315C219.288 162.483 218.671 162.603 218.048 162.674L213.021 163.454L209.554 163.961C209.26 163.986 208.975 164.077 208.722 164.227C208.468 164.377 208.251 164.582 208.087 164.828L206.967 166.566L201.941 174.308C198.363 179.796 195.098 184.748 192.719 188.317L189.864 192.522C189.533 193.051 189.162 193.554 188.753 194.026C189.017 193.461 189.325 192.918 189.675 192.402L192.377 188.096C194.683 184.471 197.911 179.487 201.47 173.999L206.543 166.276L207.686 164.542C207.892 164.246 208.16 163.999 208.472 163.818C208.783 163.637 209.13 163.527 209.489 163.495L212.975 163.034L218.048 162.435C218.658 162.344 219.275 162.304 219.892 162.315Z" fill="#263238"/>
<path d="M209.378 173.123C209.378 173.123 208.534 172.976 208.073 175.286C207.612 177.596 206.123 184.222 206.123 184.222L201.696 181.87L196.163 182.59C196.163 182.59 194.955 183.706 195.84 184.314C196.725 184.923 200.225 185.546 200.225 185.546L202.807 189.234L195.402 185.665C195.402 185.665 192.93 186.311 193.654 187.819C194.378 189.327 199.372 194.044 199.372 194.044L195.66 193.763L191.247 191.084C191.247 191.084 189.896 191.148 190.399 192.301C190.901 193.454 195.489 197.631 195.489 197.631L201.055 200.334C201.055 200.334 204.089 200.094 204.38 199.204C204.58 198.497 204.703 197.77 204.749 197.037C204.749 197.037 206.358 196.603 206.662 195.819C206.838 195.161 206.875 194.473 206.768 193.8C206.768 193.8 209.3 194.261 209.613 192.836C209.927 191.411 209.664 188.644 209.41 187.561C209.157 186.477 210.489 176.388 210.383 176.079C210.277 175.77 210.964 172.459 209.378 173.123Z" fill="#FFAAA5"/>
<path d="M204.58 199.218C204.58 199.282 204.059 199.522 203.127 199.679C200.661 200.033 198.152 199.436 196.109 198.01C195.344 197.456 194.97 197.004 195.016 196.954C195.122 196.811 196.861 198.337 199.591 198.955C202.32 199.573 204.547 199.042 204.58 199.218Z" fill="#C75B54"/>
<path d="M203.263 197.221C203.175 197.35 202.189 196.834 201.137 195.971C200.086 195.109 199.385 194.242 199.491 194.127C199.597 194.012 200.469 194.68 201.497 195.51C202.525 196.34 203.355 197.092 203.263 197.221Z" fill="#C75B54"/>
<path d="M206.213 192.421C206.125 192.55 205.148 192.047 204.161 191.13C203.174 190.212 202.593 189.285 202.713 189.188C202.833 189.092 203.594 189.834 204.557 190.715C205.521 191.595 206.277 192.287 206.213 192.421Z" fill="#C75B54"/>
<path d="M209.265 188.552C209.118 188.617 208.555 187.574 207.674 186.436C206.794 185.297 205.936 184.48 206.037 184.351C206.139 184.222 207.199 184.877 208.126 186.09C209.053 187.302 209.408 188.501 209.265 188.552Z" fill="#C75B54"/>
<path d="M165.46 178.647C165.46 178.647 156.699 164.035 154.268 161.083C152.313 158.799 149.856 156.997 147.089 155.818C145.995 155.347 144.85 155.008 143.677 154.808L131.079 152.041C131.079 152.041 130.968 157.759 121.944 158.091C111.574 158.478 105.441 149.154 105.441 149.154C105.441 149.154 90.8836 151.405 87.4021 153.198C83.9207 154.992 78.4427 157.265 75.4131 172.348L73.2966 187.104L98.3997 189.41L100.802 226.714L113.252 235.383C113.252 235.383 147.767 244.356 149.971 244.946C152.175 245.537 152.908 189.41 152.908 189.41C152.908 189.41 161.794 183.673 165.46 178.647Z" fill="#4B8DF0"/>
<path d="M98.2655 172.51C98.33 172.51 98.473 176.909 98.579 182.336C98.6851 187.764 98.7174 192.172 98.6528 192.172C98.5882 192.172 98.4453 187.773 98.3392 182.341C98.2332 176.909 98.1963 172.51 98.2655 172.51Z" fill="#263238"/>
<path d="M148.662 172.358C148.717 172.427 148.764 172.501 148.805 172.579L149.169 173.229C149.331 173.51 149.524 173.861 149.718 174.281C149.912 174.7 150.179 175.161 150.387 175.701C150.936 176.948 151.407 178.227 151.798 179.533C152.26 181.138 152.607 182.775 152.835 184.43C153.219 187.437 153.307 190.475 153.098 193.5C153.024 194.657 152.946 195.598 152.872 196.243C152.835 196.543 152.807 196.788 152.784 196.986C152.78 197.072 152.765 197.157 152.738 197.239C152.726 197.154 152.726 197.067 152.738 196.981L152.78 196.234C152.826 195.589 152.877 194.648 152.932 193.468C153.085 190.454 152.974 187.433 152.6 184.439C152.369 182.797 152.031 181.172 151.585 179.574C151.206 178.273 150.753 176.993 150.23 175.742C150.022 175.203 149.769 174.732 149.598 174.313C149.427 173.893 149.234 173.538 149.086 173.248C148.939 172.957 148.846 172.754 148.759 172.579C148.718 172.509 148.686 172.435 148.662 172.358Z" fill="#263238"/>
<path d="M134.21 152.714C134.224 153.246 134.171 153.777 134.053 154.296C133.743 155.726 133.038 157.04 132.019 158.091C130.471 159.613 128.508 160.643 126.375 161.051C123.788 161.59 121.114 161.566 118.536 160.982C115.96 160.412 113.49 159.438 111.218 158.095C109.36 157.02 107.636 155.727 106.082 154.245C105.04 153.242 104.093 152.146 103.25 150.971C102.955 150.556 102.757 150.21 102.609 149.984C102.533 149.871 102.463 149.752 102.402 149.629C102.493 149.732 102.577 149.841 102.651 149.957C102.808 150.173 103.02 150.51 103.324 150.916C104.192 152.063 105.155 153.135 106.202 154.121C107.758 155.576 109.479 156.845 111.329 157.902C113.589 159.22 116.041 160.178 118.596 160.742C121.142 161.321 123.781 161.351 126.338 160.83C128.43 160.44 130.363 159.448 131.9 157.976C132.907 156.954 133.621 155.68 133.965 154.287C134.053 153.906 134.119 153.522 134.164 153.134C134.171 152.993 134.186 152.853 134.21 152.714Z" fill="#263238"/>
<path d="M147.866 233.478L100.616 223.186L98.4302 189.405L77.4126 187.459C77.4126 187.459 78.1873 210.556 78.9988 217.432C80.1608 227.309 85.9986 240.783 89.4108 243.475C92.8231 246.168 150.001 244.951 150.001 244.951L147.866 233.478Z" fill="#FFAAA5"/>
<path d="M174.695 239.593C174.535 239.917 174.283 240.187 173.97 240.369C173.658 240.551 173.299 240.637 172.938 240.617C172.781 240.603 172.627 240.572 172.477 240.524C171.43 240.188 171.527 238.062 171.527 238.062L166.519 237.241C166.519 237.241 160.008 241.437 157.694 244.236C155.379 247.035 149.463 244.767 149.463 244.767L147.411 234.087L156.633 225.75C156.633 225.75 156.066 226.248 156.702 224.69C157.339 223.131 160.234 223.717 160.234 223.717C160.695 222.947 162.577 222.67 162.577 222.67L170.665 223.592C171.488 223.686 172.279 223.963 172.981 224.404C173.682 224.845 174.276 225.437 174.718 226.138L178.139 231.551C178.139 231.551 179.929 235.443 179.652 236.365C179.526 236.744 179.263 237.063 178.916 237.259C178.568 237.456 178.16 237.517 177.771 237.43C177.771 237.43 177.374 239.989 176.701 240.082C176.028 240.174 174.695 239.621 174.695 239.621V239.593Z" fill="#FFAAA5"/>
<path d="M157.483 231.934C157.483 232.017 158.567 231.934 160.291 231.994C162.539 232.1 164.761 232.516 166.894 233.229C168.065 233.624 169.203 234.109 170.297 234.682C171.275 235.231 172.294 235.683 172.603 236.397C172.672 236.552 172.699 236.722 172.683 236.891C172.667 237.06 172.608 237.222 172.511 237.361C172.363 237.589 172.151 237.769 171.902 237.878C171.674 237.954 171.433 237.988 171.192 237.979C171.192 237.979 171.446 238.205 171.967 238.067C172.279 237.975 172.553 237.786 172.751 237.527C172.889 237.35 172.98 237.14 173.013 236.918C173.046 236.696 173.021 236.469 172.94 236.259C172.726 235.789 172.375 235.394 171.934 235.125C171.473 234.834 171.012 234.539 170.519 234.262C167.386 232.541 163.871 231.635 160.296 231.629C158.539 231.648 157.474 231.874 157.483 231.934Z" fill="#C75B54"/>
<path d="M156.919 237.089C156.919 237.241 160.22 237.089 164.264 237.343C168.308 237.596 171.564 238.071 171.587 237.924C171.587 237.854 170.798 237.642 169.484 237.412C167.766 237.117 166.032 236.921 164.292 236.826C162.552 236.729 160.808 236.729 159.067 236.826C157.735 236.9 156.914 237.02 156.919 237.089Z" fill="#C75B54"/>
<path d="M174.649 239.395C174.718 239.112 174.752 238.823 174.75 238.532C174.802 237.745 174.802 236.954 174.75 236.167C174.721 235.614 174.647 235.065 174.529 234.525C174.38 233.892 174.109 233.293 173.731 232.764C172.935 231.54 171.906 230.485 170.702 229.66C169.513 228.826 168.21 228.168 166.833 227.705C165.697 227.379 164.524 227.201 163.342 227.175C162.342 227.138 161.535 227.175 160.977 227.175C160.686 227.159 160.396 227.189 160.114 227.263C160.114 227.346 161.346 227.387 163.319 227.53C164.462 227.611 165.593 227.82 166.69 228.153C168.01 228.629 169.261 229.277 170.411 230.08C171.564 230.869 172.557 231.869 173.339 233.027C174.123 234.046 174.261 235.217 174.39 236.194C174.589 238.154 174.538 239.399 174.649 239.395Z" fill="#C75B54"/>
<path d="M162.969 224.727C162.969 224.8 164.177 224.833 166.109 225.054C168.041 225.275 170.951 225.478 172.648 228.042C174.492 230.375 176.046 232.579 176.728 234.387C177.411 236.194 177.388 237.421 177.494 237.412C177.565 237.132 177.58 236.84 177.54 236.554C177.498 235.767 177.342 234.991 177.079 234.249C176.456 232.344 174.907 230.057 173.058 227.71C172.604 227.116 172.076 226.583 171.486 226.124C170.912 225.709 170.266 225.405 169.581 225.229C168.46 224.933 167.312 224.751 166.155 224.685C164.181 224.561 162.969 224.657 162.969 224.727Z" fill="#C75B54"/>
<path d="M159.457 242.512C159.623 242.407 159.778 242.285 159.918 242.147L161.274 241.059C162.973 239.736 164.748 238.513 166.59 237.398L166.475 237.421L171.478 238.269L171.308 238.062C171.29 238.471 171.321 238.882 171.4 239.284C171.463 239.733 171.661 240.153 171.967 240.487C172.152 240.654 172.384 240.76 172.631 240.792C172.861 240.852 173.101 240.866 173.336 240.833C173.82 240.76 174.261 240.516 174.581 240.146C174.663 240.053 174.735 239.953 174.798 239.846L174.844 239.768L174.867 239.727C174.932 239.704 174.309 239.929 174.572 239.837L174.729 239.902C174.941 239.985 175.153 240.063 175.375 240.132C175.6 240.202 175.83 240.259 176.062 240.303C176.185 240.324 176.31 240.338 176.435 240.344C176.595 240.359 176.755 240.327 176.896 240.252C177.117 240.081 177.288 239.853 177.39 239.593C177.485 239.368 177.567 239.137 177.634 238.901C177.77 238.436 177.878 237.964 177.957 237.486L177.666 237.688C178.003 237.76 178.352 237.739 178.677 237.627C179.002 237.514 179.29 237.316 179.511 237.052C179.741 236.767 179.864 236.409 179.857 236.042C179.833 235.714 179.774 235.389 179.681 235.074C179.307 233.842 178.844 232.639 178.298 231.473L176.454 228.581L175.296 226.737C174.941 226.101 174.515 225.507 174.028 224.966C173.512 224.445 172.896 224.034 172.216 223.758C171.553 223.513 170.856 223.37 170.15 223.334L162.528 222.476H162.468C162.012 222.55 161.564 222.667 161.131 222.827C160.668 222.969 160.261 223.252 159.969 223.638L160.25 223.551C159.838 223.361 159.386 223.275 158.934 223.3C158.481 223.326 158.041 223.463 157.654 223.698C156.979 224.191 156.519 224.924 156.367 225.746L156.432 225.639L150.078 231.353L148.362 232.93C148.154 233.104 147.962 233.299 147.791 233.511C148.021 233.365 148.237 233.199 148.436 233.013L150.216 231.514L156.672 225.925L156.718 225.889V225.819C156.856 225.106 157.26 224.472 157.848 224.044C158.178 223.853 158.55 223.745 158.931 223.728C159.312 223.711 159.692 223.786 160.038 223.947L160.218 224.021L160.319 223.86C160.561 223.571 160.882 223.358 161.241 223.246C161.647 223.101 162.065 222.995 162.491 222.928H162.431L170.049 223.827C170.709 223.865 171.36 224 171.981 224.228C172.595 224.481 173.151 224.854 173.618 225.326C174.079 225.842 174.481 226.408 174.817 227.014L175.974 228.858L177.818 231.745V231.717C178.354 232.856 178.809 234.032 179.179 235.235C179.263 235.513 179.317 235.799 179.34 236.088C179.346 236.338 179.263 236.582 179.105 236.775C178.938 236.971 178.721 237.117 178.477 237.198C178.234 237.279 177.972 237.292 177.722 237.237L177.468 237.195L177.427 237.439C177.355 237.897 177.255 238.35 177.127 238.795C177.046 239.193 176.867 239.564 176.606 239.874C176.539 239.898 176.468 239.905 176.398 239.897C176.296 239.895 176.194 239.885 176.094 239.865C175.881 239.829 175.672 239.779 175.467 239.713C175.259 239.648 175.052 239.579 174.849 239.501L174.701 239.441L174.406 239.547V239.579L174.369 239.644C174.319 239.727 174.262 239.805 174.199 239.879C173.952 240.169 173.611 240.364 173.235 240.427C173.052 240.454 172.865 240.443 172.686 240.395C172.516 240.38 172.355 240.312 172.225 240.202C171.764 239.704 171.681 238.818 171.676 238.113V237.924L171.506 237.901L166.553 237.084H166.489L166.438 237.117C164.601 238.265 162.845 239.538 161.181 240.925C160.6 241.414 160.167 241.806 159.881 242.083C159.727 242.213 159.585 242.356 159.457 242.512Z" fill="#C75B54"/>
<path d="M243.166 192.785L180.915 193.288C178.896 193.288 176.968 194.261 176.664 196.257L169.862 241.631H137.783C137.303 241.655 136.851 241.862 136.519 242.21C136.188 242.558 136.003 243.02 136.003 243.501C136.003 243.981 136.188 244.443 136.519 244.791C136.851 245.139 137.303 245.347 137.783 245.371H240.206L247.205 197.479C247.293 196.898 247.254 196.304 247.091 195.739C246.928 195.175 246.646 194.651 246.262 194.206C245.879 193.76 245.403 193.402 244.869 193.157C244.335 192.912 243.754 192.785 243.166 192.785Z" fill="#455A64"/>
<path d="M243.163 192.785C243.493 192.764 243.825 192.796 244.145 192.877C244.974 193.074 245.721 193.522 246.284 194.16C246.847 194.798 247.199 195.595 247.29 196.442C247.392 197.239 247.161 198.088 247.06 199.001C246.801 200.845 246.502 202.948 246.165 205.318C244.782 214.831 242.817 228.545 240.392 245.398L240.369 245.564H240.203L140.837 245.624H138.163C137.676 245.668 137.187 245.573 136.752 245.352C136.307 245.107 135.966 244.709 135.792 244.232C135.62 243.756 135.623 243.234 135.801 242.76C135.978 242.286 136.318 241.891 136.761 241.645C137.188 241.43 137.668 241.339 138.144 241.382H149.866H169.832L169.592 241.585C172.041 225.335 174.323 210.178 176.375 196.58C176.438 195.669 176.851 194.818 177.528 194.205C178.204 193.635 179.03 193.272 179.907 193.159C180.741 193.076 181.579 193.045 182.416 193.066H184.86L194.234 193.002L210.89 192.896L234.605 192.776H240.95H242.587C242.956 192.776 243.145 192.776 243.145 192.776C243.145 192.776 242.956 192.776 242.587 192.799L240.95 192.836L234.605 192.928L210.894 193.191L194.234 193.357L184.864 193.444L182.42 193.468C181.603 193.448 180.786 193.477 179.972 193.555C179.171 193.66 178.417 193.993 177.8 194.514C177.196 195.062 176.832 195.826 176.786 196.64C174.757 210.243 172.497 225.404 170.072 241.659L170.039 241.866H138.163C137.764 241.82 137.361 241.889 137.001 242.064C136.748 242.204 136.537 242.41 136.391 242.659C136.244 242.908 136.167 243.191 136.167 243.48C136.167 243.769 136.244 244.053 136.391 244.302C136.537 244.55 136.748 244.756 137.001 244.896C137.362 245.075 137.767 245.147 138.167 245.103H140.842L240.207 245.159L240.014 245.325L245.957 205.272C246.311 202.896 246.626 200.792 246.903 198.959C247.013 198.037 247.249 197.198 247.156 196.437C247.09 195.74 246.842 195.072 246.437 194.5C245.88 193.716 245.063 193.154 244.131 192.914C243.812 192.85 243.488 192.807 243.163 192.785Z" fill="#263238"/>
<path d="M209.393 222.398C211.545 222.398 213.289 220.653 213.289 218.501C213.289 216.35 211.545 214.605 209.393 214.605C207.241 214.605 205.496 216.35 205.496 218.501C205.496 220.653 207.241 222.398 209.393 222.398Z" fill="white"/>
<path d="M172.375 244.951C172.463 244.951 174.446 233.423 176.802 219.129C179.158 204.834 180.994 193.306 180.906 193.269C180.818 193.232 178.84 204.797 176.484 219.092C174.128 233.386 172.288 244.937 172.375 244.951Z" fill="#263238"/>
<path d="M193.98 91.1692H150.42V93.6038H193.98V91.1692Z" fill="#455A64"/>
<path d="M203.397 90.1916H200.605C200.322 90.1916 200.092 90.4559 200.092 90.7818V93.9912C200.092 94.3172 200.322 94.5814 200.605 94.5814H203.397C203.68 94.5814 203.91 94.3172 203.91 93.9912V90.7818C203.91 90.4559 203.68 90.1916 203.397 90.1916Z" fill="#4B8DF0"/>
<path d="M200.845 92.3634L201.739 93.2903L203.351 91.4781" stroke="white" stroke-width="0.461115" stroke-linecap="round" stroke-linejoin="round"/>
<path d="M193.98 100.576H150.42V103.011H193.98V100.576Z" fill="#455A64"/>
<path d="M203.397 99.5984H200.605C200.322 99.5984 200.092 99.8626 200.092 100.189V103.398C200.092 103.724 200.322 103.988 200.605 103.988H203.397C203.68 103.988 203.91 103.724 203.91 103.398V100.189C203.91 99.8626 203.68 99.5984 203.397 99.5984Z" stroke="#4B8DF0" stroke-width="0.461115" stroke-miterlimit="10"/>
<path d="M193.98 109.983H150.42V112.417H193.98V109.983Z" fill="#455A64"/>
<path d="M203.397 109.005H200.605C200.322 109.005 200.092 109.269 200.092 109.595V112.805C200.092 113.131 200.322 113.395 200.605 113.395H203.397C203.68 113.395 203.91 113.131 203.91 112.805V109.595C203.91 109.269 203.68 109.005 203.397 109.005Z" stroke="#4B8DF0" stroke-width="0.461115" stroke-miterlimit="10"/>
<path d="M193.98 119.394H150.42V121.829H193.98V119.394Z" fill="#455A64"/>
<path d="M203.397 118.416H200.605C200.322 118.416 200.092 118.681 200.092 119.007V122.216C200.092 122.542 200.322 122.806 200.605 122.806H203.397C203.68 122.806 203.91 122.542 203.91 122.216V119.007C203.91 118.681 203.68 118.416 203.397 118.416Z" stroke="#4B8DF0" stroke-width="0.461115" stroke-miterlimit="10"/>
<path d="M193.98 128.801H150.42V131.235H193.98V128.801Z" fill="#455A64"/>
<path d="M203.397 127.823H200.605C200.322 127.823 200.092 128.087 200.092 128.413V131.623C200.092 131.949 200.322 132.213 200.605 132.213H203.397C203.68 132.213 203.91 131.949 203.91 131.623V128.413C203.91 128.087 203.68 127.823 203.397 127.823Z" stroke="#4B8DF0" stroke-width="0.461115" stroke-miterlimit="10"/>
<defs>
<linearGradient id="paint0_linear_342_1358" x1="127.114" y1="0.346546" x2="127.114" y2="256.347" gradientUnits="userSpaceOnUse">
<stop stop-color="#D9E8FF" stop-opacity="0.5"/>
<stop offset="1" stop-color="#5B9DFF"/>
</linearGradient>
</defs>
</svg>
