<svg width="185" height="185" viewBox="0 0 185 185" fill="none" xmlns="http://www.w3.org/2000/svg">
<circle opacity="0.8" cx="92.5" cy="92.5" r="92.5" transform="rotate(180 92.5 92.5)" fill="url(#paint0_linear_308_5125)"/>
<path d="M132.949 96.0758C145.669 84.3941 146.188 64.4054 134.507 51.6853C122.825 38.9652 102.836 38.446 90.1162 50.1277C79.2133 60.2519 77.1365 76.0871 84.1456 88.5476L77.6557 94.5182L79.2133 105.162L69.3487 102.306L61.3014 109.834L62.8589 120.478L52.9943 117.622L46.2449 124.112L47.2833 130.602L41.3126 128.785L37.4187 132.419L36.8995 142.283L51.4368 145.918L98.9424 101.787C109.845 106.979 123.344 105.162 132.949 96.0758ZM128.276 57.6559C131.651 61.2903 131.392 67.0013 127.757 70.376C124.123 73.7507 118.412 73.4912 115.037 69.8568C111.663 66.2225 111.922 60.5115 115.556 57.1368C119.191 53.762 124.902 54.0216 128.276 57.6559Z" fill="#263238"/>
<path d="M128.276 57.6551C128.276 57.6551 127.757 57.1359 126.459 56.3572C125.161 55.5784 123.344 54.7996 120.748 55.0592C118.411 55.3188 115.296 56.8763 113.998 59.7319C112.441 62.5874 112.7 66.7409 115.296 69.5964C117.892 72.452 122.046 72.9711 124.901 71.6732C128.016 70.3752 129.574 67.5197 130.093 65.1833C130.612 62.847 129.834 60.7702 129.314 59.4723C128.795 58.1743 128.276 57.6551 128.276 57.6551C128.276 57.6551 128.536 57.6551 128.795 57.9147C129.055 58.1743 129.314 58.6935 129.834 59.2127C130.612 60.5106 131.391 62.5874 130.872 65.1833C130.612 67.7793 128.795 70.8944 125.421 72.1924C123.863 72.9711 121.786 73.2307 119.969 72.7116C118.152 72.452 116.335 71.4136 114.777 69.856C113.479 68.2985 112.441 66.4813 112.441 64.6641C112.181 62.847 112.7 60.7702 113.479 59.2127C115.037 56.0976 118.152 54.54 120.748 54.2804C123.344 54.0208 125.421 55.0592 126.718 55.838C127.238 56.3572 127.757 56.6167 128.016 56.8763C128.016 57.3955 128.276 57.6551 128.276 57.6551Z" fill="#263238"/>
<path d="M132.949 96.0778C132.949 96.0778 132.689 96.3374 132.43 96.597C132.17 96.8566 131.651 97.3758 131.132 97.895C129.834 98.9333 128.016 100.491 125.161 101.789C122.305 103.087 118.671 104.385 113.998 104.904C109.585 105.164 104.134 104.644 98.6824 102.308H98.942C86.7411 113.73 70.3867 129.046 51.6959 146.699L51.4363 146.958H51.1767C46.504 145.92 41.5718 144.622 36.6395 143.324H36.3799V143.064C36.6395 139.949 36.6395 136.574 36.8991 133.2V132.94C38.197 131.902 39.495 130.604 40.793 129.306L41.0526 129.046H41.3122C43.1293 129.565 45.2061 130.085 47.2828 130.604L46.7636 131.123C46.5041 129.046 46.2445 126.969 45.7253 124.633V124.374L45.9849 124.114C48.0616 122.037 50.398 119.96 52.7343 117.624L52.9939 117.364H53.2535C56.3686 118.143 59.7433 119.182 63.1181 120.22L62.5989 120.739C62.0797 117.364 61.5605 113.73 61.0413 110.096V109.836L61.3009 109.577C62.0797 109.057 62.5988 108.279 63.3776 107.5C65.4544 105.683 67.2715 103.866 69.3483 102.048L69.6079 101.789H69.8675C73.2422 102.827 76.6169 103.606 79.732 104.644L79.2129 105.164C78.6937 101.529 78.1745 98.1546 77.6553 94.5202V94.2606L77.9149 94.0011C79.9916 91.9243 82.0684 90.1072 84.4047 88.0304V88.5496C81.8088 84.1365 80.5108 79.2042 80.2512 74.2719C80.2512 71.9356 80.2512 69.3397 80.7704 67.0033C81.2896 64.667 81.8088 62.3306 82.8471 60.2539C86.4815 51.4277 94.2693 45.1974 102.317 42.8611C110.624 40.2652 119.19 41.3035 125.68 44.6783C132.43 48.053 137.362 53.5044 140.217 58.9559C143.073 64.667 143.852 70.378 143.332 75.3103C142.813 80.2426 141.515 84.3961 139.698 87.2516C139.439 87.5112 139.179 88.0304 139.179 88.29C138.919 88.5496 138.66 89.0688 138.66 89.3284C138.141 89.8476 137.881 90.6263 137.362 91.1455C136.583 92.1839 135.804 92.9627 135.285 93.7415C134.766 94.2606 134.247 94.7798 133.728 95.299C132.949 96.0778 132.949 96.0778 132.949 96.0778C132.949 96.0778 133.208 95.8182 133.468 95.5586C133.728 95.299 134.247 94.7798 134.766 94.0011C135.285 93.4819 136.064 92.4435 136.843 91.4051C137.362 90.8859 137.621 90.3667 137.881 89.588C138.141 89.3284 138.4 88.8092 138.4 88.5496C138.66 88.29 138.66 87.7708 138.919 87.5112C140.477 84.3961 142.035 80.5022 142.294 75.5699C142.813 70.6376 141.775 64.9266 139.179 59.4751C136.323 54.0236 131.651 48.5722 124.901 45.457C118.412 42.3419 109.845 41.3035 101.797 43.8995C93.7501 46.4954 86.4815 52.4661 82.8471 61.0327C82.0684 63.1094 81.2896 65.4457 80.7704 67.7821C80.2512 70.1184 80.2512 72.4548 80.2512 74.7911C80.5108 79.4638 81.8088 84.3961 84.1451 88.8092L84.4047 89.0688L84.1451 89.3284C82.0684 91.4051 79.9916 93.2223 77.6553 95.299V95.0394C78.1745 98.4141 78.6937 102.048 79.2129 105.683V106.202L78.6937 105.942C75.319 104.904 72.2038 104.125 68.8291 103.087H69.0887C67.2716 104.904 65.1948 106.721 63.1181 108.538C62.3393 109.317 61.5605 109.836 61.0413 110.615V110.355C61.5605 113.99 62.0797 117.624 62.5989 120.999V121.518L62.0797 121.258C58.7049 120.22 55.3303 119.441 52.2151 118.403H52.4747C50.1384 120.48 47.802 122.816 45.7253 124.893V124.633C45.9849 126.969 46.2445 129.046 46.7636 131.123V131.642L46.2445 131.383C44.1677 130.863 42.091 130.344 40.2738 129.565H40.5334C39.2354 130.863 37.6779 132.161 36.6395 133.2V132.94C36.3799 136.315 36.1203 139.69 36.1203 142.805L35.8607 142.545C41.0526 143.843 45.9848 145.141 50.3979 146.179H50.1384C69.0887 128.527 85.4431 113.471 97.644 102.048H97.9036C103.095 104.385 108.547 104.904 112.96 104.644C117.373 104.385 121.267 103.087 124.123 101.789C126.978 100.491 128.795 98.9333 130.093 98.1545C130.612 97.6354 131.132 97.3758 131.391 96.8566C132.689 96.3374 132.949 96.0778 132.949 96.0778Z" fill="#263238"/>
<path d="M131.911 92.7028C144.631 81.021 145.15 61.0323 133.468 48.3122C121.787 35.5921 101.798 35.073 89.0778 46.7547C78.1749 56.8788 76.0981 72.714 83.1071 85.1745L76.6173 91.1452L78.1749 101.789L68.3103 98.933L60.2629 106.461L61.8205 117.105L51.9559 114.249L45.2064 120.739L46.2448 127.229L40.2742 125.412L36.3803 129.046L35.8611 138.91L50.3983 142.545L97.904 98.4138C108.807 103.346 122.306 101.529 131.911 92.7028ZM127.238 54.0233C130.613 57.6576 130.353 63.3687 126.719 66.7434C123.085 70.1181 117.373 69.8585 113.999 66.2242C110.624 62.5899 110.884 56.8788 114.518 53.5041C118.152 50.389 123.863 50.389 127.238 54.0233Z" fill="#4B8DF0"/>
<path d="M127.238 54.0213C127.238 54.0213 126.719 53.5021 125.421 52.7234C124.123 51.9446 122.306 51.1658 119.71 51.4254C117.374 51.685 114.258 53.2426 112.96 56.0981C111.403 58.9536 111.662 63.1071 114.258 65.9626C116.854 68.8182 121.008 69.3374 123.863 68.0394C126.978 66.7414 128.536 63.8859 129.055 61.5495C129.574 59.2132 128.796 57.1365 128.276 55.8385C127.757 54.8001 126.978 54.2809 127.238 54.0213C127.238 54.0213 127.498 54.0213 127.757 54.2809C128.017 54.5405 128.276 55.0597 128.796 55.5789C129.574 56.8769 130.353 58.9536 129.834 61.5495C129.574 64.1455 127.757 67.2606 124.383 68.5586C122.825 69.3374 120.748 69.597 118.931 69.0778C117.114 68.8182 115.297 67.7798 113.739 66.2222C112.441 64.6647 111.403 62.8475 111.403 61.0304C111.143 59.2132 111.662 57.1365 112.441 55.5789C113.999 52.4638 117.114 50.9062 119.71 50.6466C122.306 50.387 124.383 51.4254 125.681 52.2042C126.2 52.7234 126.719 52.983 126.978 53.2426C126.978 54.0213 127.238 54.0213 127.238 54.0213Z" fill="#263238"/>
<path d="M131.911 92.6999C131.911 92.6999 131.651 92.9595 131.391 93.2191C131.132 93.4787 130.613 93.9978 130.093 94.517C128.795 95.5554 126.978 97.113 124.123 98.4109C121.267 99.7089 117.633 101.007 112.96 101.526C108.547 101.786 103.096 101.266 97.6442 98.9301H97.9038C85.7029 110.352 69.3485 125.668 50.6577 143.321L50.3981 143.58H50.1386C45.4659 142.542 40.5336 141.244 35.6013 139.946H35.3417V139.686C35.6013 136.571 35.6013 133.196 35.8609 129.822V129.562C37.1589 128.524 38.4568 127.226 39.7548 125.928L40.0144 125.668H40.274C42.0911 126.187 44.1679 126.707 46.2447 127.226L45.7255 127.745C45.4659 125.668 45.2063 123.592 44.6871 121.255V120.996L44.9467 120.736C47.0234 118.659 49.3598 116.582 51.6961 114.246L51.9557 113.987H52.2153C55.3304 114.765 58.7051 115.804 62.0798 116.842L61.5607 117.361C61.0415 113.987 60.5223 110.352 60.0031 106.718V106.458L60.2627 106.199C61.0415 105.68 61.5607 104.901 62.3395 104.122C64.4162 102.305 66.2334 100.488 68.3101 98.6705L68.5697 98.4109H68.8293C72.204 99.4493 75.5787 100.228 78.6939 101.266L78.1747 101.786C77.6555 98.1513 77.1363 94.7766 76.6171 91.1423V90.8827L76.8767 90.6231C78.9535 88.5464 81.0302 86.7292 83.3666 84.6525V85.1717C80.7706 80.7586 79.4726 75.8263 79.213 70.894C79.213 68.5577 79.213 65.9617 79.7322 63.6254C80.2514 61.289 80.7706 58.9527 81.809 56.8759C85.4433 48.0498 93.2311 41.8195 101.279 39.4832C109.586 36.8872 118.152 37.9256 124.642 41.3003C131.391 44.675 136.324 50.1265 139.179 55.578C142.035 61.289 142.814 67.0001 142.294 71.9324C141.775 76.8647 140.477 81.0182 138.66 83.8737C138.4 84.1333 138.141 84.6525 138.141 84.9121C137.881 85.1717 137.622 85.6908 137.622 85.9504C137.102 86.4696 136.843 87.2484 136.324 87.7676C135.545 88.806 134.766 89.5847 134.247 90.3635C133.728 90.8827 133.209 91.4019 132.689 91.9211C131.911 92.4403 131.911 92.6999 131.911 92.6999C131.911 92.6999 132.17 92.4403 132.43 92.1807C132.689 91.9211 133.209 91.4019 133.728 90.6231C134.247 89.8443 135.026 89.0656 135.804 88.0272C136.324 87.508 136.583 86.9888 136.843 86.21C137.102 85.9504 137.362 85.4313 137.362 85.1717C137.622 84.9121 137.622 84.3929 137.881 84.1333C139.439 81.0182 140.996 77.1242 141.256 72.192C141.775 67.2597 140.737 61.5486 138.141 56.0972C135.285 50.6457 130.613 45.1942 123.863 42.0791C117.373 38.964 108.807 37.9256 100.759 40.5215C92.7119 43.1175 85.4433 49.0881 81.809 57.6547C81.0302 59.7315 80.2514 62.0678 79.7322 64.4042C79.213 66.7405 79.213 69.0768 79.213 71.4132C79.4726 76.0859 80.7706 81.0182 83.1069 85.4313L83.3666 85.6908L83.1069 85.9504C81.0302 88.0272 78.9534 89.8443 76.6171 91.9211V91.6615C77.1363 95.0362 77.6555 98.6705 78.1747 102.305V102.824L77.6555 102.564C74.2808 101.526 71.1657 100.747 67.7909 99.7089H68.0505C66.2334 101.526 64.1566 103.343 62.0798 105.16C61.3011 105.939 60.5223 106.458 60.0031 107.237V106.978C60.5223 110.612 61.0415 114.246 61.5607 117.621V118.14L61.0415 117.88C57.6668 116.842 54.292 116.063 51.1769 115.025H51.4365C49.1002 117.102 46.7638 119.438 44.6871 121.515V121.255C44.9467 123.592 45.2063 125.668 45.7255 127.745V128.264L45.2063 128.005C43.1295 127.485 41.0528 126.966 39.2356 126.187H39.4952C38.1972 127.485 36.6397 128.783 35.6013 129.822V129.562C35.3417 132.937 35.0821 136.312 35.0821 139.427L34.8225 139.167C40.0144 140.465 44.9467 141.763 49.3598 142.801H49.1002C68.0505 125.149 84.4049 110.093 96.6058 98.6705H96.8654C102.057 101.007 107.509 101.526 111.922 101.266C116.335 101.007 120.229 99.7089 123.084 98.4109C125.94 97.113 127.757 95.5554 129.055 94.7766C129.574 94.2574 130.093 93.9978 130.353 93.4787C131.651 92.6999 131.911 92.6999 131.911 92.6999Z" fill="#263238"/>
<path d="M128.795 90.1047C128.795 90.1047 130.612 88.5472 132.949 84.9129C134.247 83.0957 135.285 80.7594 136.064 77.6442C136.842 74.7887 137.362 71.1544 136.842 67.2605C136.323 63.3666 135.285 59.2131 132.689 55.3192C130.093 51.4253 126.718 48.0506 122.046 45.7142C119.709 44.4162 117.373 43.6375 114.517 43.1183C113.219 42.8587 111.922 42.8587 110.624 42.5991C109.326 42.5991 107.768 42.5991 106.47 42.8587C101.019 43.3779 95.5671 45.9738 91.154 49.8677C87.0005 54.0212 83.8854 59.2131 83.1066 64.6646C82.847 65.9625 82.847 67.5201 82.5874 68.8181C82.5874 70.116 82.5874 71.414 82.847 72.9715C83.1066 75.5675 83.8854 78.1634 84.9237 80.4998C86.7409 85.1725 90.1156 89.0664 93.75 91.6623C97.3843 94.5178 101.538 95.8158 105.172 96.5946C109.066 97.3734 112.441 97.1138 115.556 96.335C118.671 95.5562 121.007 94.7774 123.084 93.739C127.238 91.9219 128.795 90.1047 128.795 90.1047C128.795 90.1047 128.795 90.1047 128.535 90.3643C128.276 90.6239 128.016 90.8835 127.497 91.1431C126.978 91.6623 126.459 91.9219 125.94 92.4411C125.161 92.9603 124.382 93.4795 123.603 93.9986C121.786 95.037 119.19 96.0754 116.075 96.8542C112.96 97.6329 109.326 97.8926 105.432 97.1138C101.538 96.335 97.3842 95.037 93.4903 92.1815C89.856 89.326 86.2217 85.432 84.4046 80.7594C83.3662 78.423 82.5874 75.8271 82.3278 72.9715C82.0682 71.6736 82.0682 70.116 82.0682 68.8181C82.0682 67.5201 82.3278 65.9625 82.5874 64.6646C83.6258 58.9535 86.4813 53.502 90.8944 49.3485C95.3075 45.195 101.019 42.5991 106.73 42.0799C108.028 41.8203 109.585 41.8203 110.883 41.8203C112.181 41.8203 113.739 42.0799 115.037 42.3395C117.633 42.8587 120.228 43.6375 122.565 44.9354C127.238 47.2718 130.872 50.9061 133.468 54.8C136.064 58.6939 137.102 63.107 137.621 67.0009C137.881 70.8948 137.621 74.5291 136.583 77.6442C135.545 80.7594 134.506 83.0957 133.208 84.9129C132.689 85.9512 131.91 86.73 131.391 87.2492C130.872 88.028 130.353 88.5472 129.833 88.8068C129.574 89.0664 129.055 89.5855 128.795 89.8451C129.055 90.1047 129.055 90.1047 128.795 90.1047Z" fill="#263238"/>
<path d="M127.757 68.0402C127.757 68.0402 128.536 67.2614 129.315 65.9634C130.094 64.6655 131.132 62.3291 130.872 59.214C130.613 57.6564 130.353 56.0989 129.315 54.8009C128.276 53.5029 126.978 51.9454 125.421 51.1666C123.604 50.3878 121.787 49.8686 119.71 50.1282C117.633 50.3878 115.556 51.1666 113.999 52.7242C112.441 54.2817 111.403 56.0989 110.884 58.1756C110.364 60.2524 110.624 62.3291 111.403 64.1463C112.182 65.9634 113.48 67.2614 114.778 68.2998C116.075 69.3381 117.633 69.8573 119.191 70.1169C122.046 70.6361 124.382 69.8573 125.94 69.0786C126.978 68.5594 127.498 67.7806 127.757 68.0402C127.757 68.0402 127.498 68.2998 127.238 68.5594C126.978 68.819 126.459 69.3381 125.68 69.5977C124.123 70.3765 121.787 71.4149 118.671 70.8957C117.114 70.6361 115.556 70.1169 113.999 69.0786C112.441 68.0402 111.143 66.4826 110.364 64.6655C109.586 62.8483 109.326 60.512 109.586 58.4352C109.845 56.3585 111.143 54.0221 112.96 52.4646C114.778 50.907 116.854 49.8686 119.191 49.609C121.527 49.3494 123.604 49.8686 125.421 50.6474C127.238 51.6858 128.536 52.9837 129.574 54.5413C130.613 56.0989 131.132 57.6564 131.132 59.214C131.392 62.3291 130.353 64.6655 129.315 65.9634C128.796 66.7422 128.276 67.2614 128.017 67.521C127.757 67.7806 127.757 68.0402 127.757 68.0402Z" fill="#263238"/>
<path d="M46.2445 140.727C45.9849 140.467 56.8879 130.343 70.1271 117.883C83.3664 105.422 94.2693 95.5576 94.5289 95.5576C94.7885 95.8172 83.8856 105.941 70.6463 118.402C57.407 131.122 46.5041 140.987 46.2445 140.727Z" fill="#263238"/>
<path d="M52.2159 78.6834L52.7351 77.645L53.2542 78.4238C53.7734 79.2026 54.2926 79.7218 55.0714 79.9814L56.1098 80.5005L55.331 81.0197C54.5522 81.5389 54.033 82.0581 53.7734 82.8369L53.2542 83.8753L52.7351 83.0965C52.2159 82.3177 51.6967 81.7985 50.9179 81.5389L49.8795 81.0197L50.6583 80.5005C51.4371 80.241 51.9563 79.4622 52.2159 78.6834Z" fill="#4B8DF0"/>
<path d="M23.1409 71.4152L23.4005 70.896L23.6601 71.4152C23.9197 71.9344 24.4389 72.194 24.6985 72.4536L25.2177 72.7132L24.6985 72.9727C24.1793 73.2323 23.9197 73.7515 23.6601 74.0111L23.4005 74.5303L23.1409 74.0111C22.8813 73.4919 22.3621 73.2323 22.1026 72.9727L21.5834 72.7132L22.1026 72.4536C22.6217 72.4536 22.8813 71.9344 23.1409 71.4152Z" fill="#4B8DF0"/>
<path d="M114.518 120.999L114.777 120.479L115.037 120.999C115.296 121.518 115.815 121.777 116.075 122.037L116.594 122.297L116.075 122.556C115.556 122.816 115.296 123.335 115.037 123.595L114.777 124.114L114.518 123.595C114.258 123.075 113.739 122.816 113.479 122.556L112.96 122.297L113.479 122.037C113.998 121.777 114.518 121.518 114.518 120.999Z" fill="#4B8DF0"/>
<path d="M159.427 95.5574L159.947 94.519L160.466 95.2978C160.985 96.0766 161.504 96.5958 162.283 96.8554L163.321 97.3746L162.543 97.8938C161.764 98.4129 161.245 98.9321 160.985 99.7109L160.466 100.749L159.947 99.9705C159.427 99.1917 158.908 98.6725 158.129 98.4129L157.091 97.8938L157.87 97.3746C158.389 97.115 159.168 96.3362 159.427 95.5574Z" fill="#4B8DF0"/>
<path d="M153.457 59.9926L154.235 58.4351L155.274 59.9926C156.053 61.2906 157.091 62.0694 158.389 62.5886L159.946 63.3673L158.389 64.4057C157.091 65.1845 156.312 66.2229 155.793 67.5208L155.014 69.0784L153.976 67.5208C153.197 66.2229 152.159 65.4441 150.861 64.9249L149.303 64.1461L150.861 63.1077C152.159 62.5886 152.937 61.2906 153.457 59.9926Z" fill="#4B8DF0"/>
<path d="M43.1293 49.0898L43.9081 47.5322L44.9465 49.0898C45.7253 50.3878 46.7636 51.1665 48.0616 51.6857L49.6192 52.4645L48.0616 53.5029C46.7636 54.2817 45.9849 55.32 45.4657 56.618L44.6869 58.1756L43.6485 56.618C42.8697 55.32 41.8314 54.5413 40.5334 54.0221L38.9758 53.2433L40.5334 52.2049C41.5718 51.4261 42.6102 50.3878 43.1293 49.0898Z" fill="#4B8DF0"/>
<defs>
<linearGradient id="paint0_linear_308_5125" x1="92.179" y1="0.260264" x2="92.1789" y2="192.51" gradientUnits="userSpaceOnUse">
<stop stop-color="#D9E8FF" stop-opacity="0.5"/>
<stop offset="1" stop-color="#5B9DFF"/>
</linearGradient>
</defs>
</svg>
