<svg width="28" height="28" viewBox="0 0 28 28" fill="none" xmlns="http://www.w3.org/2000/svg">
<path fill-rule="evenodd" clip-rule="evenodd" d="M21.1553 14C21.1553 13.5722 20.8053 13.2222 20.3775 13.2222L8.71083 13.2222C8.28305 13.2222 7.93305 13.5722 7.93305 14C7.93305 14.4278 8.28305 14.7778 8.71083 14.7778L20.3775 14.7778C20.8053 14.7778 21.1553 14.4278 21.1553 14ZM14.9331 19.4445C14.9331 19.0167 14.5831 18.6667 14.1553 18.6667L8.71083 18.6667C8.28305 18.6667 7.93305 19.0167 7.93305 19.4445C7.93305 19.8722 8.28305 20.2222 8.71083 20.2222L14.1553 20.2222C14.5831 20.2222 14.9331 19.8722 14.9331 19.4445ZM17.2664 7.77779C17.6942 7.77779 18.0442 8.12779 18.0442 8.55556C18.0442 8.98334 17.6942 9.33334 17.2664 9.33334L8.71083 9.33334C8.28305 9.33334 7.93305 8.98334 7.93305 8.55556C7.93305 8.12779 8.28305 7.77779 8.71083 7.77779L17.2664 7.77779Z" fill="#231F20"/>
<mask id="mask0_170_4319" style="mask-type:alpha" maskUnits="userSpaceOnUse" x="7" y="7" width="15" height="14">
<path fill-rule="evenodd" clip-rule="evenodd" d="M21.1553 14C21.1553 13.5722 20.8053 13.2222 20.3775 13.2222L8.71083 13.2222C8.28305 13.2222 7.93305 13.5722 7.93305 14C7.93305 14.4278 8.28305 14.7778 8.71083 14.7778L20.3775 14.7778C20.8053 14.7778 21.1553 14.4278 21.1553 14ZM14.9331 19.4445C14.9331 19.0167 14.5831 18.6667 14.1553 18.6667L8.71083 18.6667C8.28305 18.6667 7.93305 19.0167 7.93305 19.4445C7.93305 19.8722 8.28305 20.2222 8.71083 20.2222L14.1553 20.2222C14.5831 20.2222 14.9331 19.8722 14.9331 19.4445ZM17.2664 7.77779C17.6942 7.77779 18.0442 8.12779 18.0442 8.55556C18.0442 8.98334 17.6942 9.33334 17.2664 9.33334L8.71083 9.33334C8.28305 9.33334 7.93305 8.98334 7.93305 8.55556C7.93305 8.12779 8.28305 7.77779 8.71083 7.77779L17.2664 7.77779Z" fill="white"/>
</mask>
<g mask="url(#mask0_170_4319)">
<rect x="24.2666" y="4.66667" width="18.6667" height="18.6667" transform="rotate(90 24.2666 4.66667)" fill="#2F2F2F"/>
</g>
<rect x="0.5" y="0.5" width="27" height="27" rx="9.5" stroke="#D8D8D8"/>
</svg>
